%TF.GenerationSoftware,KiCad,Pcbnew,7.0.10*%
%TF.CreationDate,2024-02-06T22:12:15+01:00*%
%TF.ProjectId,16M2164_Ersatz_SRAM,31364d32-3136-4345-9f45-727361747a5f,1*%
%TF.SameCoordinates,Original*%
%TF.FileFunction,Copper,L2,Bot*%
%TF.FilePolarity,Positive*%
%FSLAX46Y46*%
G04 Gerber Fmt 4.6, Leading zero omitted, Abs format (unit mm)*
G04 Created by KiCad (PCBNEW 7.0.10) date 2024-02-06 22:12:15*
%MOMM*%
%LPD*%
G01*
G04 APERTURE LIST*
G04 Aperture macros list*
%AMRoundRect*
0 Rectangle with rounded corners*
0 $1 Rounding radius*
0 $2 $3 $4 $5 $6 $7 $8 $9 X,Y pos of 4 corners*
0 Add a 4 corners polygon primitive as box body*
4,1,4,$2,$3,$4,$5,$6,$7,$8,$9,$2,$3,0*
0 Add four circle primitives for the rounded corners*
1,1,$1+$1,$2,$3*
1,1,$1+$1,$4,$5*
1,1,$1+$1,$6,$7*
1,1,$1+$1,$8,$9*
0 Add four rect primitives between the rounded corners*
20,1,$1+$1,$2,$3,$4,$5,0*
20,1,$1+$1,$4,$5,$6,$7,0*
20,1,$1+$1,$6,$7,$8,$9,0*
20,1,$1+$1,$8,$9,$2,$3,0*%
G04 Aperture macros list end*
%TA.AperFunction,ComponentPad*%
%ADD10R,2.400000X1.600000*%
%TD*%
%TA.AperFunction,ComponentPad*%
%ADD11O,2.400000X1.600000*%
%TD*%
%TA.AperFunction,ComponentPad*%
%ADD12R,1.700000X1.700000*%
%TD*%
%TA.AperFunction,ComponentPad*%
%ADD13O,1.700000X1.700000*%
%TD*%
%TA.AperFunction,SMDPad,CuDef*%
%ADD14RoundRect,0.250000X-0.650000X0.412500X-0.650000X-0.412500X0.650000X-0.412500X0.650000X0.412500X0*%
%TD*%
%TA.AperFunction,ViaPad*%
%ADD15C,0.800000*%
%TD*%
%TA.AperFunction,Conductor*%
%ADD16C,0.250000*%
%TD*%
G04 APERTURE END LIST*
D10*
%TO.P,U3,1,NC*%
%TO.N,unconnected-(U3-NC-Pad1)*%
X186000000Y-122400000D03*
D11*
%TO.P,U3,2,A16*%
%TO.N,/A1L*%
X186000000Y-119860000D03*
%TO.P,U3,3,A14*%
%TO.N,/A2L*%
X186000000Y-117320000D03*
%TO.P,U3,4,A12*%
%TO.N,A2*%
X186000000Y-114780000D03*
%TO.P,U3,5,A7*%
%TO.N,A0*%
X186000000Y-112240000D03*
%TO.P,U3,6,A6*%
%TO.N,/A0L*%
X186000000Y-109700000D03*
%TO.P,U3,7,A5*%
%TO.N,A3*%
X186000000Y-107160000D03*
%TO.P,U3,8,A4*%
%TO.N,/A3L*%
X186000000Y-104620000D03*
%TO.P,U3,9,A3*%
%TO.N,/A5L*%
X186000000Y-102080000D03*
%TO.P,U3,10,A2*%
%TO.N,A5*%
X186000000Y-99540000D03*
%TO.P,U3,11,A1*%
%TO.N,A4*%
X186000000Y-97000000D03*
%TO.P,U3,12,A0*%
%TO.N,/A4L*%
X186000000Y-94460000D03*
%TO.P,U3,13,Q0*%
%TO.N,D3*%
X186000000Y-91920000D03*
%TO.P,U3,14,Q1*%
%TO.N,D2*%
X186000000Y-89380000D03*
%TO.P,U3,15,Q2*%
%TO.N,D1*%
X186000000Y-86840000D03*
%TO.P,U3,16,GND*%
%TO.N,GND*%
X186000000Y-84300000D03*
%TO.P,U3,17,Q3*%
%TO.N,D0*%
X170760000Y-84300000D03*
%TO.P,U3,18,Q4*%
%TO.N,D4*%
X170760000Y-86840000D03*
%TO.P,U3,19,Q5*%
%TO.N,D5*%
X170760000Y-89380000D03*
%TO.P,U3,20,Q6*%
%TO.N,D6*%
X170760000Y-91920000D03*
%TO.P,U3,21,Q7*%
%TO.N,D7*%
X170760000Y-94460000D03*
%TO.P,U3,22,~{CS1}*%
%TO.N,/{slash}CS*%
X170760000Y-97000000D03*
%TO.P,U3,23,A10*%
%TO.N,{slash}CAS0*%
X170760000Y-99540000D03*
%TO.P,U3,24,~{OE}*%
%TO.N,/{slash}OE*%
X170760000Y-102080000D03*
%TO.P,U3,25,A11*%
%TO.N,/A6L*%
X170760000Y-104620000D03*
%TO.P,U3,26,A9*%
%TO.N,A6*%
X170760000Y-107160000D03*
%TO.P,U3,27,A8*%
%TO.N,A7*%
X170760000Y-109700000D03*
%TO.P,U3,28,A13*%
%TO.N,/A7L*%
X170760000Y-112240000D03*
%TO.P,U3,29,~{WE}*%
%TO.N,{slash}WE*%
X170760000Y-114780000D03*
%TO.P,U3,30,CS2*%
%TO.N,+5V*%
X170760000Y-117320000D03*
%TO.P,U3,31,A15*%
%TO.N,A1*%
X170760000Y-119860000D03*
%TO.P,U3,32,VCC*%
%TO.N,+5V*%
X170760000Y-122400000D03*
%TD*%
D10*
%TO.P,U2,1,EN*%
%TO.N,GND*%
X165000000Y-125780000D03*
D11*
%TO.P,U2,2,Q1*%
%TO.N,/A2L*%
X165000000Y-123240000D03*
%TO.P,U2,3,D1*%
%TO.N,A2*%
X165000000Y-120700000D03*
%TO.P,U2,4,D2*%
%TO.N,A0*%
X165000000Y-118160000D03*
%TO.P,U2,5,Q2*%
%TO.N,/A0L*%
X165000000Y-115620000D03*
%TO.P,U2,6,Q3*%
%TO.N,/A7L*%
X165000000Y-113080000D03*
%TO.P,U2,7,D3*%
%TO.N,A7*%
X165000000Y-110540000D03*
%TO.P,U2,8,D4*%
%TO.N,A6*%
X165000000Y-108000000D03*
%TO.P,U2,9,Q4*%
%TO.N,/A6L*%
X165000000Y-105460000D03*
%TO.P,U2,10,GND*%
%TO.N,GND*%
X165000000Y-102920000D03*
%TO.P,U2,11,C*%
%TO.N,/RAS*%
X157380000Y-102920000D03*
%TO.P,U2,12,Q5*%
%TO.N,/A4L*%
X157380000Y-105460000D03*
%TO.P,U2,13,D5*%
%TO.N,A4*%
X157380000Y-108000000D03*
%TO.P,U2,14,D6*%
%TO.N,A5*%
X157380000Y-110540000D03*
%TO.P,U2,15,Q6*%
%TO.N,/A5L*%
X157380000Y-113080000D03*
%TO.P,U2,16,Q7*%
%TO.N,/A3L*%
X157380000Y-115620000D03*
%TO.P,U2,17,D7*%
%TO.N,A3*%
X157380000Y-118160000D03*
%TO.P,U2,18,D8*%
%TO.N,A1*%
X157380000Y-120700000D03*
%TO.P,U2,19,Q8*%
%TO.N,/A1L*%
X157380000Y-123240000D03*
%TO.P,U2,20,Vcc*%
%TO.N,+5V*%
X157380000Y-125780000D03*
%TD*%
D10*
%TO.P,U1,1,A1*%
%TO.N,{slash}CAS0*%
X165000000Y-99000000D03*
D11*
%TO.P,U1,2,B1*%
%TO.N,{slash}CAS1*%
X165000000Y-96460000D03*
%TO.P,U1,3,Y1*%
%TO.N,/CS*%
X165000000Y-93920000D03*
%TO.P,U1,4,A2*%
X165000000Y-91380000D03*
%TO.P,U1,5,B2*%
X165000000Y-88840000D03*
%TO.P,U1,6,Y2*%
%TO.N,/{slash}CS*%
X165000000Y-86300000D03*
%TO.P,U1,7,GND*%
%TO.N,GND*%
X165000000Y-83760000D03*
%TO.P,U1,8,Y3*%
%TO.N,/RAS*%
X157380000Y-83760000D03*
%TO.P,U1,9,A3*%
%TO.N,{slash}RAS*%
X157380000Y-86300000D03*
%TO.P,U1,10,B3*%
X157380000Y-88840000D03*
%TO.P,U1,11,Y4*%
%TO.N,/{slash}OE*%
X157380000Y-91380000D03*
%TO.P,U1,12,A4*%
%TO.N,{slash}WE*%
X157380000Y-93920000D03*
%TO.P,U1,13,B4*%
X157380000Y-96460000D03*
%TO.P,U1,14,Vcc*%
%TO.N,+5V*%
X157380000Y-99000000D03*
%TD*%
D12*
%TO.P,J2,1,Pin_1*%
%TO.N,GND*%
X190000000Y-84580000D03*
D13*
%TO.P,J2,2,Pin_2*%
%TO.N,{slash}RAS*%
X190000000Y-87120000D03*
%TO.P,J2,3,Pin_3*%
%TO.N,{slash}WE*%
X190000000Y-89660000D03*
%TO.P,J2,4,Pin_4*%
%TO.N,{slash}CAS0*%
X190000000Y-92200000D03*
%TO.P,J2,5,Pin_5*%
%TO.N,D0*%
X190000000Y-94740000D03*
%TO.P,J2,6,Pin_6*%
%TO.N,unconnected-(J2-Pin_6-Pad6)*%
X190000000Y-97280000D03*
%TO.P,J2,7,Pin_7*%
%TO.N,D1*%
X190000000Y-99820000D03*
%TO.P,J2,8,Pin_8*%
%TO.N,unconnected-(J2-Pin_8-Pad8)*%
X190000000Y-102360000D03*
%TO.P,J2,9,Pin_9*%
%TO.N,D2*%
X190000000Y-104900000D03*
%TO.P,J2,10,Pin_10*%
%TO.N,unconnected-(J2-Pin_10-Pad10)*%
X190000000Y-107440000D03*
%TO.P,J2,11,Pin_11*%
%TO.N,D3*%
X190000000Y-109980000D03*
%TO.P,J2,12,Pin_12*%
%TO.N,unconnected-(J2-Pin_12-Pad12)*%
X190000000Y-112520000D03*
%TO.P,J2,13,Pin_13*%
%TO.N,A0*%
X190000000Y-115060000D03*
%TO.P,J2,14,Pin_14*%
%TO.N,A1*%
X190000000Y-117600000D03*
%TO.P,J2,15,Pin_15*%
%TO.N,A2*%
X190000000Y-120140000D03*
%TO.P,J2,16,Pin_16*%
%TO.N,GND*%
X190000000Y-122680000D03*
%TO.P,J2,17,Pin_17*%
%TO.N,+5V*%
X190000000Y-125220000D03*
%TD*%
D12*
%TO.P,J1,1,Pin_1*%
%TO.N,+5V*%
X152500000Y-84580000D03*
D13*
%TO.P,J1,2,Pin_2*%
%TO.N,{slash}CAS1*%
X152500000Y-87120000D03*
%TO.P,J1,3,Pin_3*%
%TO.N,D4*%
X152500000Y-89660000D03*
%TO.P,J1,4,Pin_4*%
%TO.N,unconnected-(J1-Pin_4-Pad4)*%
X152500000Y-92200000D03*
%TO.P,J1,5,Pin_5*%
%TO.N,D5*%
X152500000Y-94740000D03*
%TO.P,J1,6,Pin_6*%
%TO.N,unconnected-(J1-Pin_6-Pad6)*%
X152500000Y-97280000D03*
%TO.P,J1,7,Pin_7*%
%TO.N,D6*%
X152500000Y-99820000D03*
%TO.P,J1,8,Pin_8*%
%TO.N,unconnected-(J1-Pin_8-Pad8)*%
X152500000Y-102360000D03*
%TO.P,J1,9,Pin_9*%
%TO.N,D7*%
X152500000Y-104900000D03*
%TO.P,J1,10,Pin_10*%
%TO.N,unconnected-(J1-Pin_10-Pad10)*%
X152500000Y-107440000D03*
%TO.P,J1,11,Pin_11*%
%TO.N,A4*%
X152500000Y-109980000D03*
%TO.P,J1,12,Pin_12*%
%TO.N,A5*%
X152500000Y-112520000D03*
%TO.P,J1,13,Pin_13*%
%TO.N,A6*%
X152500000Y-115060000D03*
%TO.P,J1,14,Pin_14*%
%TO.N,A7*%
X152500000Y-117600000D03*
%TO.P,J1,15,Pin_15*%
%TO.N,A3*%
X152500000Y-120140000D03*
%TO.P,J1,16,Pin_16*%
%TO.N,GND*%
X152500000Y-122680000D03*
%TO.P,J1,17,Pin_17*%
%TO.N,+5V*%
X152500000Y-125220000D03*
%TD*%
D14*
%TO.P,C2,1*%
%TO.N,+5V*%
X161000000Y-122937500D03*
%TO.P,C2,2*%
%TO.N,GND*%
X161000000Y-126062500D03*
%TD*%
%TO.P,C1,1*%
%TO.N,+5V*%
X161000000Y-98937500D03*
%TO.P,C1,2*%
%TO.N,GND*%
X161000000Y-102062500D03*
%TD*%
D15*
%TO.N,{slash}CAS1*%
X160500000Y-87250000D03*
%TO.N,{slash}WE*%
X174100000Y-96900000D03*
%TO.N,{slash}CAS0*%
X183000000Y-93250000D03*
%TO.N,+5V*%
X155000000Y-101000000D03*
X161000000Y-121725000D03*
%TO.N,GND*%
X174000000Y-94750000D03*
X160000000Y-103500000D03*
X162750000Y-100500000D03*
X183000000Y-86750000D03*
%TD*%
D16*
%TO.N,{slash}CAS1*%
X153880000Y-87120000D02*
X152500000Y-87120000D01*
X156000000Y-85000000D02*
X153880000Y-87120000D01*
X158250000Y-85000000D02*
X156000000Y-85000000D01*
X160500000Y-87250000D02*
X158250000Y-85000000D01*
%TO.N,D4*%
X161250000Y-88250000D02*
X162000000Y-87500000D01*
X159000000Y-87500000D02*
X159750000Y-88250000D01*
X159750000Y-88250000D02*
X161250000Y-88250000D01*
X167500000Y-87500000D02*
X168160000Y-86840000D01*
X162000000Y-87500000D02*
X167500000Y-87500000D01*
X152500000Y-89660000D02*
X154660000Y-87500000D01*
X154660000Y-87500000D02*
X159000000Y-87500000D01*
X168160000Y-86840000D02*
X170760000Y-86840000D01*
%TO.N,D5*%
X152500000Y-94740000D02*
X154500000Y-92740000D01*
X168120000Y-89380000D02*
X170760000Y-89380000D01*
X154500000Y-92740000D02*
X154500000Y-91700000D01*
X156100000Y-90100000D02*
X167400000Y-90100000D01*
X167400000Y-90100000D02*
X168120000Y-89380000D01*
X154500000Y-91700000D02*
X156100000Y-90100000D01*
%TO.N,D6*%
X152500000Y-99820000D02*
X154500000Y-97820000D01*
X167595000Y-92700000D02*
X168375000Y-91920000D01*
X154500000Y-97820000D02*
X154500000Y-94300000D01*
X156100000Y-92700000D02*
X167595000Y-92700000D01*
X154500000Y-94300000D02*
X156100000Y-92700000D01*
X168375000Y-91920000D02*
X170760000Y-91920000D01*
%TO.N,D7*%
X167635000Y-95200000D02*
X168375000Y-94460000D01*
X155000000Y-98500000D02*
X155000000Y-96500000D01*
X153950000Y-99550000D02*
X155000000Y-98500000D01*
X152500000Y-104900000D02*
X153950000Y-103450000D01*
X168375000Y-94460000D02*
X170760000Y-94460000D01*
X155000000Y-96500000D02*
X156300000Y-95200000D01*
X153950000Y-103450000D02*
X153950000Y-99550000D01*
X156300000Y-95200000D02*
X167635000Y-95200000D01*
%TO.N,A4*%
X168200000Y-103400000D02*
X173100000Y-103400000D01*
X179500000Y-97000000D02*
X186000000Y-97000000D01*
X167400000Y-104200000D02*
X168200000Y-103400000D01*
X154480000Y-108000000D02*
X157380000Y-108000000D01*
X163300000Y-104200000D02*
X167400000Y-104200000D01*
X173100000Y-103400000D02*
X179500000Y-97000000D01*
X159500000Y-108000000D02*
X163300000Y-104200000D01*
X152500000Y-109980000D02*
X154480000Y-108000000D01*
X157380000Y-108000000D02*
X159500000Y-108000000D01*
%TO.N,A5*%
X167500000Y-106700000D02*
X168455000Y-105745000D01*
X173255000Y-105745000D02*
X179460000Y-99540000D01*
X154480000Y-110540000D02*
X157380000Y-110540000D01*
X179460000Y-99540000D02*
X186000000Y-99540000D01*
X152500000Y-112520000D02*
X154480000Y-110540000D01*
X162800000Y-106700000D02*
X167500000Y-106700000D01*
X158960000Y-110540000D02*
X162800000Y-106700000D01*
X168455000Y-105745000D02*
X173255000Y-105745000D01*
X157380000Y-110540000D02*
X158960000Y-110540000D01*
%TO.N,A6*%
X155605000Y-111955000D02*
X152500000Y-115060000D01*
X165000000Y-108000000D02*
X167350000Y-108000000D01*
X164550000Y-108186396D02*
X164681802Y-108318198D01*
X158455000Y-111955000D02*
X155605000Y-111955000D01*
X165000000Y-108000000D02*
X162500000Y-108000000D01*
X168190000Y-107160000D02*
X170760000Y-107160000D01*
X162500000Y-108000000D02*
X158500000Y-112000000D01*
X167350000Y-108000000D02*
X168190000Y-107160000D01*
X158500000Y-112000000D02*
X158455000Y-111955000D01*
%TO.N,A7*%
X152500000Y-117600000D02*
X155605000Y-114495000D01*
X167460000Y-110540000D02*
X165000000Y-110540000D01*
X162960000Y-110540000D02*
X165000000Y-110540000D01*
X159000000Y-114500000D02*
X162960000Y-110540000D01*
X155605000Y-114495000D02*
X158995000Y-114495000D01*
X170760000Y-109700000D02*
X168300000Y-109700000D01*
X168300000Y-109700000D02*
X167460000Y-110540000D01*
X158995000Y-114495000D02*
X159000000Y-114500000D01*
%TO.N,A3*%
X157380000Y-118160000D02*
X159340000Y-118160000D01*
X152500000Y-120140000D02*
X154480000Y-118160000D01*
X167700000Y-114300000D02*
X168345000Y-113655000D01*
X168345000Y-113655000D02*
X173345000Y-113655000D01*
X179840000Y-107160000D02*
X186000000Y-107160000D01*
X154480000Y-118160000D02*
X157380000Y-118160000D01*
X163200000Y-114300000D02*
X167700000Y-114300000D01*
X173345000Y-113655000D02*
X179840000Y-107160000D01*
X159340000Y-118160000D02*
X163200000Y-114300000D01*
%TO.N,{slash}WE*%
X172700000Y-98300000D02*
X168675000Y-98300000D01*
X168675000Y-98300000D02*
X168075000Y-97700000D01*
X168075000Y-97700000D02*
X158620000Y-97700000D01*
X158620000Y-97700000D02*
X157380000Y-96460000D01*
X174100000Y-96900000D02*
X172700000Y-98300000D01*
%TO.N,{slash}CAS0*%
X165000000Y-99000000D02*
X167500000Y-99000000D01*
X183000000Y-93250000D02*
X179250000Y-93250000D01*
X179250000Y-93250000D02*
X172960000Y-99540000D01*
X168040000Y-99540000D02*
X170760000Y-99540000D01*
X172960000Y-99540000D02*
X170760000Y-99540000D01*
X167500000Y-99000000D02*
X168040000Y-99540000D01*
%TO.N,D0*%
X173300000Y-84300000D02*
X170760000Y-84300000D01*
X192000000Y-86500000D02*
X191445000Y-85945000D01*
X191445000Y-85945000D02*
X188445000Y-85945000D01*
X192000000Y-92740000D02*
X192000000Y-86500000D01*
X188000000Y-85500000D02*
X174500000Y-85500000D01*
X190000000Y-94740000D02*
X192000000Y-92740000D01*
X188445000Y-85945000D02*
X188000000Y-85500000D01*
X174500000Y-85500000D02*
X173300000Y-84300000D01*
%TO.N,D1*%
X188200000Y-87600000D02*
X188200000Y-90900000D01*
X188200000Y-90900000D02*
X188600000Y-91300000D01*
X186000000Y-86840000D02*
X187440000Y-86840000D01*
X187440000Y-86840000D02*
X188200000Y-87600000D01*
X188600000Y-98420000D02*
X190000000Y-99820000D01*
X188600000Y-91300000D02*
X188600000Y-98420000D01*
%TO.N,D2*%
X187280000Y-89380000D02*
X186000000Y-89380000D01*
X188150000Y-98606396D02*
X188150000Y-91530000D01*
X187700000Y-91080000D02*
X187700000Y-89800000D01*
X188400000Y-98856396D02*
X188150000Y-98606396D01*
X187700000Y-89800000D02*
X187280000Y-89380000D01*
X188400000Y-103300000D02*
X188400000Y-98856396D01*
X188150000Y-91530000D02*
X187700000Y-91080000D01*
X190000000Y-104900000D02*
X188400000Y-103300000D01*
%TO.N,D3*%
X187700000Y-92400000D02*
X187700000Y-98792792D01*
X188200000Y-108180000D02*
X190000000Y-109980000D01*
X187950000Y-103486396D02*
X188200000Y-103736396D01*
X186000000Y-91920000D02*
X187220000Y-91920000D01*
X187950000Y-99042792D02*
X187950000Y-103486396D01*
X187220000Y-91920000D02*
X187700000Y-92400000D01*
X188200000Y-103736396D02*
X188200000Y-108180000D01*
X187700000Y-98792792D02*
X187950000Y-99042792D01*
%TO.N,A0*%
X190000000Y-115060000D02*
X187180000Y-112240000D01*
X168100000Y-118445000D02*
X173555000Y-118445000D01*
X165000000Y-118160000D02*
X167815000Y-118160000D01*
X179760000Y-112240000D02*
X186000000Y-112240000D01*
X173555000Y-118445000D02*
X179760000Y-112240000D01*
X167815000Y-118160000D02*
X168100000Y-118445000D01*
X187180000Y-112240000D02*
X186000000Y-112240000D01*
%TO.N,A1*%
X157800000Y-120700000D02*
X157380000Y-120700000D01*
X188000000Y-115600000D02*
X190000000Y-117600000D01*
X170760000Y-119860000D02*
X168160000Y-119860000D01*
X187000000Y-113500000D02*
X188000000Y-114500000D01*
X170760000Y-119860000D02*
X173640000Y-119860000D01*
X180000000Y-113500000D02*
X187000000Y-113500000D01*
X159000000Y-119500000D02*
X157800000Y-120700000D01*
X168160000Y-119860000D02*
X167800000Y-119500000D01*
X173640000Y-119860000D02*
X180000000Y-113500000D01*
X188000000Y-114500000D02*
X188000000Y-115600000D01*
X167800000Y-119500000D02*
X159000000Y-119500000D01*
%TO.N,A2*%
X188300000Y-117080000D02*
X186000000Y-114780000D01*
X180220000Y-114780000D02*
X186000000Y-114780000D01*
X190000000Y-120140000D02*
X188300000Y-118440000D01*
X188300000Y-118440000D02*
X188300000Y-117080000D01*
X173900000Y-121100000D02*
X180220000Y-114780000D01*
X167700000Y-120700000D02*
X168100000Y-121100000D01*
X165000000Y-120700000D02*
X167700000Y-120700000D01*
X168100000Y-121100000D02*
X173900000Y-121100000D01*
%TO.N,/{slash}CS*%
X167500000Y-85500000D02*
X172000000Y-85500000D01*
X172000000Y-85500000D02*
X173000000Y-86500000D01*
X166700000Y-86300000D02*
X167500000Y-85500000D01*
X173000000Y-96000000D02*
X172000000Y-97000000D01*
X172000000Y-97000000D02*
X170760000Y-97000000D01*
X165000000Y-86300000D02*
X166700000Y-86300000D01*
X173000000Y-86500000D02*
X173000000Y-96000000D01*
%TO.N,/A0L*%
X165000000Y-115620000D02*
X167715000Y-115620000D01*
X173595000Y-115905000D02*
X179500000Y-110000000D01*
X179500000Y-110000000D02*
X185663604Y-110000000D01*
X185663604Y-110000000D02*
X185681802Y-110018198D01*
X167715000Y-115620000D02*
X168000000Y-115905000D01*
X168000000Y-115905000D02*
X173595000Y-115905000D01*
%TO.N,/A1L*%
X177390000Y-119860000D02*
X186000000Y-119860000D01*
X163000000Y-122500000D02*
X163000000Y-123500000D01*
X164000000Y-124500000D02*
X172750000Y-124500000D01*
X157380000Y-123240000D02*
X159620000Y-121000000D01*
X161500000Y-121000000D02*
X163000000Y-122500000D01*
X163000000Y-123500000D02*
X164000000Y-124500000D01*
X172750000Y-124500000D02*
X177390000Y-119860000D01*
X159620000Y-121000000D02*
X161500000Y-121000000D01*
%TO.N,/A2L*%
X168200000Y-123700000D02*
X172550000Y-123700000D01*
X172550000Y-123700000D02*
X178930000Y-117320000D01*
X178930000Y-117320000D02*
X186000000Y-117320000D01*
X167740000Y-123240000D02*
X168200000Y-123700000D01*
X165000000Y-123240000D02*
X167740000Y-123240000D01*
%TO.N,/A3L*%
X157380000Y-115620000D02*
X157500000Y-115500000D01*
X157500000Y-115500000D02*
X157500000Y-116000000D01*
X167700000Y-111800000D02*
X168385000Y-111115000D01*
X173385000Y-111115000D02*
X179880000Y-104620000D01*
X168385000Y-111115000D02*
X173385000Y-111115000D01*
X159380000Y-115620000D02*
X163200000Y-111800000D01*
X179880000Y-104620000D02*
X186000000Y-104620000D01*
X157380000Y-115620000D02*
X159380000Y-115620000D01*
X163200000Y-111800000D02*
X167700000Y-111800000D01*
%TO.N,/A4L*%
X164000000Y-101500000D02*
X160040000Y-105460000D01*
X179290000Y-94460000D02*
X172950000Y-100800000D01*
X166500000Y-101500000D02*
X164000000Y-101500000D01*
X186000000Y-94460000D02*
X179290000Y-94460000D01*
X167200000Y-100800000D02*
X166500000Y-101500000D01*
X160040000Y-105460000D02*
X157380000Y-105460000D01*
X172950000Y-100800000D02*
X167200000Y-100800000D01*
%TO.N,/A5L*%
X157380000Y-113080000D02*
X159420000Y-113080000D01*
X167350000Y-109250000D02*
X168315000Y-108285000D01*
X163250000Y-109250000D02*
X167350000Y-109250000D01*
X168315000Y-108285000D02*
X173215000Y-108285000D01*
X159420000Y-113080000D02*
X163250000Y-109250000D01*
X173215000Y-108285000D02*
X179420000Y-102080000D01*
X179420000Y-102080000D02*
X186000000Y-102080000D01*
%TO.N,/A6L*%
X167440000Y-105460000D02*
X165000000Y-105460000D01*
X170640000Y-104500000D02*
X168400000Y-104500000D01*
X170475000Y-104335000D02*
X170760000Y-104620000D01*
X168400000Y-104500000D02*
X167440000Y-105460000D01*
X170760000Y-104620000D02*
X170640000Y-104500000D01*
%TO.N,/A7L*%
X168260000Y-112240000D02*
X168000000Y-112500000D01*
X170760000Y-112240000D02*
X168260000Y-112240000D01*
X167420000Y-113080000D02*
X168000000Y-112500000D01*
X165000000Y-113080000D02*
X167420000Y-113080000D01*
%TO.N,+5V*%
X161000000Y-122937500D02*
X161000000Y-121725000D01*
X159500000Y-100000000D02*
X159500000Y-98937500D01*
X158500000Y-101000000D02*
X159500000Y-100000000D01*
X159500000Y-123500000D02*
X159500000Y-125000000D01*
X157442500Y-98937500D02*
X157380000Y-99000000D01*
X158720000Y-125780000D02*
X157380000Y-125780000D01*
X161000000Y-122937500D02*
X160062500Y-122937500D01*
X159500000Y-125000000D02*
X158720000Y-125780000D01*
X159500000Y-98937500D02*
X157442500Y-98937500D01*
X160062500Y-122937500D02*
X159500000Y-123500000D01*
X161000000Y-98937500D02*
X159500000Y-98937500D01*
X155000000Y-101000000D02*
X158500000Y-101000000D01*
%TO.N,GND*%
X188300000Y-124380000D02*
X186900000Y-125780000D01*
X151700000Y-127200000D02*
X158500000Y-127200000D01*
X187800000Y-84300000D02*
X186000000Y-84300000D01*
X168000000Y-83000000D02*
X174000000Y-83000000D01*
X167240000Y-83760000D02*
X168000000Y-83000000D01*
X163170000Y-125780000D02*
X162887500Y-126062500D01*
X152500000Y-122680000D02*
X151120000Y-122680000D01*
X161000000Y-103300000D02*
X160800000Y-103500000D01*
X158500000Y-127200000D02*
X159637500Y-126062500D01*
X151120000Y-122680000D02*
X151000000Y-122800000D01*
X165000000Y-125780000D02*
X163170000Y-125780000D01*
X190000000Y-84580000D02*
X188080000Y-84580000D01*
X162887500Y-126062500D02*
X161000000Y-126062500D01*
X159637500Y-126062500D02*
X161000000Y-126062500D01*
X151000000Y-122800000D02*
X151000000Y-126500000D01*
X165000000Y-83760000D02*
X167240000Y-83760000D01*
X161000000Y-102062500D02*
X161000000Y-103300000D01*
X188080000Y-84580000D02*
X187800000Y-84300000D01*
X190000000Y-122680000D02*
X188320000Y-122680000D01*
X188300000Y-122700000D02*
X188300000Y-124380000D01*
X160800000Y-103500000D02*
X160000000Y-103500000D01*
X174000000Y-83000000D02*
X175300000Y-84300000D01*
X186900000Y-125780000D02*
X165000000Y-125780000D01*
X188320000Y-122680000D02*
X188300000Y-122700000D01*
X175300000Y-84300000D02*
X186000000Y-84300000D01*
X151000000Y-126500000D02*
X151700000Y-127200000D01*
%TD*%
%TA.AperFunction,Conductor*%
%TO.N,GND*%
G36*
X163242539Y-98345185D02*
G01*
X163288294Y-98397989D01*
X163299500Y-98449500D01*
X163299500Y-99847870D01*
X163299501Y-99847876D01*
X163305908Y-99907483D01*
X163356202Y-100042328D01*
X163356206Y-100042335D01*
X163442452Y-100157544D01*
X163442455Y-100157547D01*
X163557664Y-100243793D01*
X163557671Y-100243797D01*
X163692517Y-100294091D01*
X163692516Y-100294091D01*
X163699444Y-100294835D01*
X163752127Y-100300500D01*
X166247872Y-100300499D01*
X166307483Y-100294091D01*
X166442331Y-100243796D01*
X166557546Y-100157546D01*
X166643796Y-100042331D01*
X166694091Y-99907483D01*
X166700500Y-99847873D01*
X166700500Y-99749500D01*
X166720185Y-99682461D01*
X166772989Y-99636706D01*
X166824500Y-99625500D01*
X167189548Y-99625500D01*
X167256587Y-99645185D01*
X167277229Y-99661819D01*
X167539197Y-99923788D01*
X167549022Y-99936051D01*
X167549243Y-99935869D01*
X167554210Y-99941874D01*
X167573627Y-99960107D01*
X167609022Y-100020348D01*
X167606230Y-100090162D01*
X167566137Y-100147383D01*
X167501472Y-100173845D01*
X167488744Y-100174500D01*
X167282737Y-100174500D01*
X167267120Y-100172776D01*
X167267093Y-100173062D01*
X167259331Y-100172327D01*
X167192144Y-100174439D01*
X167188250Y-100174500D01*
X167160650Y-100174500D01*
X167156962Y-100174965D01*
X167156649Y-100175005D01*
X167145031Y-100175918D01*
X167101372Y-100177290D01*
X167101369Y-100177291D01*
X167082126Y-100182881D01*
X167063083Y-100186825D01*
X167043204Y-100189336D01*
X167043203Y-100189337D01*
X167002593Y-100205415D01*
X166991548Y-100209197D01*
X166949608Y-100221383D01*
X166949604Y-100221385D01*
X166932365Y-100231580D01*
X166914898Y-100240137D01*
X166896269Y-100247512D01*
X166896267Y-100247514D01*
X166860926Y-100273189D01*
X166851168Y-100279599D01*
X166813580Y-100301828D01*
X166799408Y-100316000D01*
X166784623Y-100328628D01*
X166768412Y-100340407D01*
X166740571Y-100374059D01*
X166732711Y-100382696D01*
X166277228Y-100838181D01*
X166215905Y-100871666D01*
X166189547Y-100874500D01*
X164082743Y-100874500D01*
X164067122Y-100872775D01*
X164067095Y-100873061D01*
X164059333Y-100872326D01*
X163992113Y-100874439D01*
X163988219Y-100874500D01*
X163960650Y-100874500D01*
X163956673Y-100875002D01*
X163945042Y-100875917D01*
X163901374Y-100877289D01*
X163901368Y-100877290D01*
X163882126Y-100882880D01*
X163863087Y-100886823D01*
X163843217Y-100889334D01*
X163843203Y-100889337D01*
X163802598Y-100905413D01*
X163791554Y-100909194D01*
X163749614Y-100921379D01*
X163749610Y-100921381D01*
X163732366Y-100931579D01*
X163714905Y-100940133D01*
X163696274Y-100947510D01*
X163696262Y-100947517D01*
X163660933Y-100973185D01*
X163651173Y-100979596D01*
X163613580Y-101001829D01*
X163599414Y-101015995D01*
X163584624Y-101028627D01*
X163568414Y-101040404D01*
X163568411Y-101040407D01*
X163540573Y-101074058D01*
X163532711Y-101082697D01*
X162611680Y-102003728D01*
X162550357Y-102037213D01*
X162480665Y-102032229D01*
X162424732Y-101990357D01*
X162400315Y-101924893D01*
X162399999Y-101916047D01*
X162399999Y-101600028D01*
X162399998Y-101600013D01*
X162389505Y-101497302D01*
X162334358Y-101330880D01*
X162334356Y-101330875D01*
X162242315Y-101181654D01*
X162118345Y-101057684D01*
X161969124Y-100965643D01*
X161969119Y-100965641D01*
X161802697Y-100910494D01*
X161802690Y-100910493D01*
X161699986Y-100900000D01*
X161250000Y-100900000D01*
X161250000Y-103239528D01*
X161266008Y-103268845D01*
X161261024Y-103338537D01*
X161232523Y-103382884D01*
X159817228Y-104798181D01*
X159755905Y-104831666D01*
X159729547Y-104834500D01*
X158994188Y-104834500D01*
X158927149Y-104814815D01*
X158892613Y-104781623D01*
X158780045Y-104620858D01*
X158619141Y-104459954D01*
X158432734Y-104329432D01*
X158432728Y-104329429D01*
X158374725Y-104302382D01*
X158322285Y-104256210D01*
X158303133Y-104189017D01*
X158323348Y-104122135D01*
X158374725Y-104077618D01*
X158432734Y-104050568D01*
X158619139Y-103920047D01*
X158780047Y-103759139D01*
X158910568Y-103572734D01*
X159006739Y-103366496D01*
X159065635Y-103146692D01*
X159085468Y-102920000D01*
X159065635Y-102693308D01*
X159006739Y-102473504D01*
X158931661Y-102312500D01*
X159600001Y-102312500D01*
X159600001Y-102524986D01*
X159610494Y-102627697D01*
X159665641Y-102794119D01*
X159665643Y-102794124D01*
X159757684Y-102943345D01*
X159881654Y-103067315D01*
X160030875Y-103159356D01*
X160030880Y-103159358D01*
X160197302Y-103214505D01*
X160197309Y-103214506D01*
X160300019Y-103224999D01*
X160749999Y-103224999D01*
X160750000Y-103224998D01*
X160750000Y-102312500D01*
X159600001Y-102312500D01*
X158931661Y-102312500D01*
X158910568Y-102267266D01*
X158810670Y-102124596D01*
X158780045Y-102080858D01*
X158619141Y-101919954D01*
X158523959Y-101853308D01*
X158517327Y-101848664D01*
X158488420Y-101812500D01*
X159600000Y-101812500D01*
X160750000Y-101812500D01*
X160750000Y-100900000D01*
X160300028Y-100900000D01*
X160300012Y-100900001D01*
X160197302Y-100910494D01*
X160030880Y-100965641D01*
X160030875Y-100965643D01*
X159881654Y-101057684D01*
X159757684Y-101181654D01*
X159665643Y-101330875D01*
X159665641Y-101330880D01*
X159610494Y-101497302D01*
X159610493Y-101497309D01*
X159600000Y-101600013D01*
X159600000Y-101812500D01*
X158488420Y-101812500D01*
X158473703Y-101794089D01*
X158466509Y-101724590D01*
X158498031Y-101662236D01*
X158558261Y-101626821D01*
X158584558Y-101623151D01*
X158585365Y-101623125D01*
X158598627Y-101622709D01*
X158617869Y-101617117D01*
X158636912Y-101613174D01*
X158656792Y-101610664D01*
X158697401Y-101594585D01*
X158708444Y-101590803D01*
X158750390Y-101578618D01*
X158767629Y-101568422D01*
X158785103Y-101559862D01*
X158803727Y-101552488D01*
X158803727Y-101552487D01*
X158803732Y-101552486D01*
X158839083Y-101526800D01*
X158848814Y-101520408D01*
X158886420Y-101498170D01*
X158900589Y-101483999D01*
X158915379Y-101471368D01*
X158931587Y-101459594D01*
X158959438Y-101425926D01*
X158967279Y-101417309D01*
X159883786Y-100500802D01*
X159896048Y-100490980D01*
X159895865Y-100490759D01*
X159901868Y-100485791D01*
X159901877Y-100485786D01*
X159947934Y-100436739D01*
X159950582Y-100434006D01*
X159970120Y-100414470D01*
X159972570Y-100411310D01*
X159980154Y-100402429D01*
X160010062Y-100370582D01*
X160019714Y-100353023D01*
X160030389Y-100336772D01*
X160042674Y-100320936D01*
X160060030Y-100280825D01*
X160065161Y-100270354D01*
X160086194Y-100232098D01*
X160086194Y-100232097D01*
X160086197Y-100232092D01*
X160091180Y-100212680D01*
X160097477Y-100194291D01*
X160105438Y-100175895D01*
X160105438Y-100175891D01*
X160108538Y-100168730D01*
X160111556Y-100170036D01*
X160140966Y-100123856D01*
X160204401Y-100094570D01*
X160235153Y-100093876D01*
X160299991Y-100100500D01*
X161700008Y-100100499D01*
X161802797Y-100089999D01*
X161969334Y-100034814D01*
X162118656Y-99942712D01*
X162242712Y-99818656D01*
X162334814Y-99669334D01*
X162389999Y-99502797D01*
X162400500Y-99400009D01*
X162400499Y-98474992D01*
X162399182Y-98462102D01*
X162411950Y-98393411D01*
X162459830Y-98342526D01*
X162522540Y-98325500D01*
X163175500Y-98325500D01*
X163242539Y-98345185D01*
G37*
%TD.AperFunction*%
%TA.AperFunction,Conductor*%
G36*
X169102653Y-101445185D02*
G01*
X169148408Y-101497989D01*
X169158352Y-101567147D01*
X169147996Y-101601904D01*
X169143913Y-101610662D01*
X169133262Y-101633502D01*
X169133258Y-101633511D01*
X169074366Y-101853302D01*
X169074364Y-101853313D01*
X169054532Y-102079998D01*
X169054532Y-102080001D01*
X169074364Y-102306686D01*
X169074366Y-102306697D01*
X169133258Y-102526488D01*
X169133263Y-102526502D01*
X169166648Y-102598096D01*
X169177140Y-102667173D01*
X169148620Y-102730957D01*
X169090143Y-102769196D01*
X169054266Y-102774500D01*
X168282743Y-102774500D01*
X168267122Y-102772775D01*
X168267096Y-102773061D01*
X168259334Y-102772327D01*
X168259333Y-102772327D01*
X168197109Y-102774282D01*
X168192127Y-102774439D01*
X168188232Y-102774500D01*
X168160647Y-102774500D01*
X168156661Y-102775003D01*
X168145033Y-102775918D01*
X168101373Y-102777290D01*
X168082129Y-102782881D01*
X168063079Y-102786825D01*
X168043211Y-102789334D01*
X168043210Y-102789334D01*
X168002599Y-102805413D01*
X167991554Y-102809194D01*
X167949614Y-102821379D01*
X167949610Y-102821381D01*
X167932366Y-102831579D01*
X167914905Y-102840133D01*
X167896274Y-102847510D01*
X167896262Y-102847517D01*
X167860933Y-102873185D01*
X167851173Y-102879596D01*
X167813580Y-102901829D01*
X167799414Y-102915995D01*
X167784624Y-102928627D01*
X167768414Y-102940404D01*
X167768411Y-102940407D01*
X167740573Y-102974058D01*
X167732711Y-102982697D01*
X167177228Y-103538181D01*
X167115905Y-103571666D01*
X167089547Y-103574500D01*
X166723834Y-103574500D01*
X166656795Y-103554815D01*
X166611040Y-103502011D01*
X166601096Y-103432853D01*
X166611452Y-103398095D01*
X166626266Y-103366326D01*
X166626269Y-103366317D01*
X166678872Y-103170000D01*
X165315686Y-103170000D01*
X165327641Y-103158045D01*
X165385165Y-103045148D01*
X165404986Y-102920000D01*
X165385165Y-102794852D01*
X165327641Y-102681955D01*
X165315686Y-102670000D01*
X166678872Y-102670000D01*
X166678872Y-102669999D01*
X166626269Y-102473682D01*
X166626265Y-102473673D01*
X166539978Y-102288629D01*
X166529486Y-102219551D01*
X166558006Y-102155767D01*
X166616482Y-102117528D01*
X166616612Y-102117489D01*
X166616705Y-102117461D01*
X166636912Y-102113174D01*
X166656792Y-102110664D01*
X166697401Y-102094585D01*
X166708444Y-102090803D01*
X166750390Y-102078618D01*
X166767629Y-102068422D01*
X166785103Y-102059862D01*
X166803727Y-102052488D01*
X166803727Y-102052487D01*
X166803732Y-102052486D01*
X166839083Y-102026800D01*
X166848814Y-102020408D01*
X166886420Y-101998170D01*
X166900589Y-101983999D01*
X166915379Y-101971368D01*
X166931587Y-101959594D01*
X166959438Y-101925926D01*
X166967269Y-101917319D01*
X167422773Y-101461816D01*
X167484095Y-101428334D01*
X167510453Y-101425500D01*
X169035614Y-101425500D01*
X169102653Y-101445185D01*
G37*
%TD.AperFunction*%
%TA.AperFunction,Conductor*%
G36*
X173056587Y-84945185D02*
G01*
X173077228Y-84961818D01*
X173540697Y-85425288D01*
X173999197Y-85883788D01*
X174009022Y-85896051D01*
X174009243Y-85895869D01*
X174014211Y-85901874D01*
X174014213Y-85901876D01*
X174014214Y-85901877D01*
X174063222Y-85947899D01*
X174066021Y-85950612D01*
X174085522Y-85970114D01*
X174085526Y-85970117D01*
X174085529Y-85970120D01*
X174088702Y-85972581D01*
X174097574Y-85980159D01*
X174129418Y-86010062D01*
X174146976Y-86019714D01*
X174163235Y-86030395D01*
X174179064Y-86042673D01*
X174219155Y-86060021D01*
X174229626Y-86065151D01*
X174252180Y-86077550D01*
X174267902Y-86086194D01*
X174267904Y-86086195D01*
X174267908Y-86086197D01*
X174287316Y-86091180D01*
X174305719Y-86097481D01*
X174324101Y-86105436D01*
X174324102Y-86105436D01*
X174324104Y-86105437D01*
X174367250Y-86112270D01*
X174378672Y-86114636D01*
X174420981Y-86125500D01*
X174441016Y-86125500D01*
X174460414Y-86127026D01*
X174480194Y-86130159D01*
X174480195Y-86130160D01*
X174480195Y-86130159D01*
X174480196Y-86130160D01*
X174523675Y-86126050D01*
X174535344Y-86125500D01*
X184303593Y-86125500D01*
X184370632Y-86145185D01*
X184416387Y-86197989D01*
X184426331Y-86267147D01*
X184415975Y-86301902D01*
X184409112Y-86316622D01*
X184373261Y-86393502D01*
X184373258Y-86393511D01*
X184314366Y-86613302D01*
X184314364Y-86613313D01*
X184294532Y-86839998D01*
X184294532Y-86840001D01*
X184314364Y-87066686D01*
X184314366Y-87066697D01*
X184373258Y-87286488D01*
X184373261Y-87286497D01*
X184469431Y-87492732D01*
X184469432Y-87492734D01*
X184599954Y-87679141D01*
X184760858Y-87840045D01*
X184760861Y-87840047D01*
X184947266Y-87970568D01*
X185005275Y-87997618D01*
X185057714Y-88043791D01*
X185076866Y-88110984D01*
X185056650Y-88177865D01*
X185005275Y-88222382D01*
X184947267Y-88249431D01*
X184947265Y-88249432D01*
X184760858Y-88379954D01*
X184599954Y-88540858D01*
X184469432Y-88727265D01*
X184469431Y-88727267D01*
X184373261Y-88933502D01*
X184373258Y-88933511D01*
X184314366Y-89153302D01*
X184314364Y-89153313D01*
X184294532Y-89379998D01*
X184294532Y-89380001D01*
X184314364Y-89606686D01*
X184314366Y-89606697D01*
X184373258Y-89826488D01*
X184373261Y-89826497D01*
X184469431Y-90032732D01*
X184469432Y-90032734D01*
X184599954Y-90219141D01*
X184760858Y-90380045D01*
X184760861Y-90380047D01*
X184947266Y-90510568D01*
X185005275Y-90537618D01*
X185057714Y-90583791D01*
X185076866Y-90650984D01*
X185056650Y-90717865D01*
X185005275Y-90762382D01*
X184947267Y-90789431D01*
X184947265Y-90789432D01*
X184760858Y-90919954D01*
X184599954Y-91080858D01*
X184469432Y-91267265D01*
X184469431Y-91267267D01*
X184373261Y-91473502D01*
X184373258Y-91473511D01*
X184314366Y-91693302D01*
X184314364Y-91693313D01*
X184294532Y-91919998D01*
X184294532Y-91920001D01*
X184314364Y-92146686D01*
X184314366Y-92146697D01*
X184373258Y-92366488D01*
X184373261Y-92366497D01*
X184469431Y-92572732D01*
X184469432Y-92572734D01*
X184599954Y-92759141D01*
X184760858Y-92920045D01*
X184760861Y-92920047D01*
X184947266Y-93050568D01*
X185003424Y-93076755D01*
X185005275Y-93077618D01*
X185057714Y-93123791D01*
X185076866Y-93190984D01*
X185056650Y-93257865D01*
X185005275Y-93302382D01*
X184947267Y-93329431D01*
X184947265Y-93329432D01*
X184760858Y-93459954D01*
X184599954Y-93620858D01*
X184487387Y-93781623D01*
X184432811Y-93825248D01*
X184385812Y-93834500D01*
X183917121Y-93834500D01*
X183850082Y-93814815D01*
X183804327Y-93762011D01*
X183794383Y-93692853D01*
X183809733Y-93648501D01*
X183827179Y-93618284D01*
X183885674Y-93438256D01*
X183905460Y-93250000D01*
X183885674Y-93061744D01*
X183827179Y-92881716D01*
X183732533Y-92717784D01*
X183605871Y-92577112D01*
X183605870Y-92577111D01*
X183452734Y-92465851D01*
X183452729Y-92465848D01*
X183279807Y-92388857D01*
X183279802Y-92388855D01*
X183134001Y-92357865D01*
X183094646Y-92349500D01*
X182905354Y-92349500D01*
X182872897Y-92356398D01*
X182720197Y-92388855D01*
X182720192Y-92388857D01*
X182547270Y-92465848D01*
X182547265Y-92465851D01*
X182394130Y-92577110D01*
X182394126Y-92577114D01*
X182388400Y-92583474D01*
X182328913Y-92620121D01*
X182296252Y-92624500D01*
X179332737Y-92624500D01*
X179317120Y-92622776D01*
X179317093Y-92623062D01*
X179309331Y-92622327D01*
X179242144Y-92624439D01*
X179238250Y-92624500D01*
X179210650Y-92624500D01*
X179206962Y-92624965D01*
X179206649Y-92625005D01*
X179195031Y-92625918D01*
X179151377Y-92627290D01*
X179151367Y-92627292D01*
X179132134Y-92632879D01*
X179113094Y-92636822D01*
X179093217Y-92639334D01*
X179093210Y-92639335D01*
X179093208Y-92639336D01*
X179093206Y-92639336D01*
X179093205Y-92639337D01*
X179052584Y-92655419D01*
X179041537Y-92659201D01*
X178999611Y-92671382D01*
X178999608Y-92671383D01*
X178982363Y-92681581D01*
X178964901Y-92690135D01*
X178946272Y-92697511D01*
X178946267Y-92697514D01*
X178910926Y-92723189D01*
X178901168Y-92729599D01*
X178863580Y-92751828D01*
X178849408Y-92766000D01*
X178834623Y-92778628D01*
X178820039Y-92789225D01*
X178818412Y-92790407D01*
X178790571Y-92824059D01*
X178782711Y-92832696D01*
X175098734Y-96516673D01*
X175037411Y-96550158D01*
X174967719Y-96545174D01*
X174911786Y-96503302D01*
X174903676Y-96491008D01*
X174832533Y-96367784D01*
X174705871Y-96227112D01*
X174705870Y-96227111D01*
X174552734Y-96115851D01*
X174552729Y-96115848D01*
X174379807Y-96038857D01*
X174379802Y-96038855D01*
X174234001Y-96007865D01*
X174194646Y-95999500D01*
X174005354Y-95999500D01*
X173989909Y-96002783D01*
X173820197Y-96038855D01*
X173820196Y-96038855D01*
X173799935Y-96047877D01*
X173730685Y-96057161D01*
X173667409Y-96027532D01*
X173630196Y-95968397D01*
X173625500Y-95934597D01*
X173625500Y-86582742D01*
X173627224Y-86567122D01*
X173626939Y-86567095D01*
X173627673Y-86559333D01*
X173625561Y-86492112D01*
X173625500Y-86488218D01*
X173625500Y-86460656D01*
X173625500Y-86460650D01*
X173624996Y-86456668D01*
X173624081Y-86445029D01*
X173622710Y-86401373D01*
X173617119Y-86382130D01*
X173613173Y-86363078D01*
X173610664Y-86343208D01*
X173594579Y-86302583D01*
X173590806Y-86291562D01*
X173578618Y-86249610D01*
X173578617Y-86249609D01*
X173578617Y-86249607D01*
X173578616Y-86249606D01*
X173568423Y-86232371D01*
X173559861Y-86214894D01*
X173552487Y-86196269D01*
X173526816Y-86160937D01*
X173520405Y-86151177D01*
X173498170Y-86113580D01*
X173498168Y-86113578D01*
X173498165Y-86113574D01*
X173484006Y-86099415D01*
X173471368Y-86084619D01*
X173463146Y-86073302D01*
X173459594Y-86068413D01*
X173428479Y-86042673D01*
X173425940Y-86040572D01*
X173417299Y-86032709D01*
X172521772Y-85137181D01*
X172488287Y-85075858D01*
X172493271Y-85006166D01*
X172535143Y-84950233D01*
X172600607Y-84925816D01*
X172609453Y-84925500D01*
X172989548Y-84925500D01*
X173056587Y-84945185D01*
G37*
%TD.AperFunction*%
%TA.AperFunction,Conductor*%
G36*
X192942539Y-81020185D02*
G01*
X192988294Y-81072989D01*
X192999500Y-81124500D01*
X192999500Y-127875500D01*
X192979815Y-127942539D01*
X192927011Y-127988294D01*
X192875500Y-127999500D01*
X150124500Y-127999500D01*
X150057461Y-127979815D01*
X150011706Y-127927011D01*
X150000500Y-127875500D01*
X150000500Y-125220000D01*
X151144341Y-125220000D01*
X151164936Y-125455403D01*
X151164938Y-125455413D01*
X151226094Y-125683655D01*
X151226096Y-125683659D01*
X151226097Y-125683663D01*
X151303111Y-125848819D01*
X151325965Y-125897830D01*
X151325967Y-125897834D01*
X151434281Y-126052521D01*
X151461505Y-126091401D01*
X151628599Y-126258495D01*
X151636480Y-126264013D01*
X151822165Y-126394032D01*
X151822167Y-126394033D01*
X151822170Y-126394035D01*
X152036337Y-126493903D01*
X152264592Y-126555063D01*
X152452918Y-126571539D01*
X152499999Y-126575659D01*
X152500000Y-126575659D01*
X152500001Y-126575659D01*
X152539234Y-126572226D01*
X152735408Y-126555063D01*
X152963663Y-126493903D01*
X153177830Y-126394035D01*
X153371401Y-126258495D01*
X153538495Y-126091401D01*
X153674035Y-125897830D01*
X153773903Y-125683663D01*
X153835063Y-125455408D01*
X153855659Y-125220000D01*
X153835063Y-124984592D01*
X153773903Y-124756337D01*
X153674035Y-124542171D01*
X153650821Y-124509017D01*
X153538494Y-124348597D01*
X153371402Y-124181506D01*
X153371401Y-124181505D01*
X153185405Y-124051269D01*
X153141781Y-123996692D01*
X153134588Y-123927193D01*
X153166110Y-123864839D01*
X153185405Y-123848119D01*
X153371082Y-123718105D01*
X153538105Y-123551082D01*
X153673600Y-123357578D01*
X153773429Y-123143492D01*
X153773432Y-123143486D01*
X153830636Y-122930000D01*
X152933686Y-122930000D01*
X152959493Y-122889844D01*
X153000000Y-122751889D01*
X153000000Y-122608111D01*
X152959493Y-122470156D01*
X152933686Y-122430000D01*
X153830636Y-122430000D01*
X153830635Y-122429999D01*
X153773432Y-122216513D01*
X153773429Y-122216507D01*
X153673600Y-122002422D01*
X153673599Y-122002420D01*
X153538113Y-121808926D01*
X153538108Y-121808920D01*
X153371078Y-121641890D01*
X153185405Y-121511879D01*
X153141780Y-121457302D01*
X153134588Y-121387804D01*
X153166110Y-121325449D01*
X153185406Y-121308730D01*
X153371401Y-121178495D01*
X153538495Y-121011401D01*
X153674035Y-120817830D01*
X153773903Y-120603663D01*
X153835063Y-120375408D01*
X153855659Y-120140000D01*
X153835063Y-119904592D01*
X153808143Y-119804125D01*
X153809806Y-119734276D01*
X153840235Y-119684353D01*
X154702772Y-118821819D01*
X154764095Y-118788334D01*
X154790453Y-118785500D01*
X155765812Y-118785500D01*
X155832851Y-118805185D01*
X155867387Y-118838377D01*
X155979954Y-118999141D01*
X156140858Y-119160045D01*
X156140861Y-119160047D01*
X156327266Y-119290568D01*
X156385275Y-119317618D01*
X156437714Y-119363791D01*
X156456866Y-119430984D01*
X156436650Y-119497865D01*
X156385275Y-119542382D01*
X156327267Y-119569431D01*
X156327265Y-119569432D01*
X156140858Y-119699954D01*
X155979954Y-119860858D01*
X155849432Y-120047265D01*
X155849431Y-120047267D01*
X155753261Y-120253502D01*
X155753258Y-120253511D01*
X155694366Y-120473302D01*
X155694364Y-120473313D01*
X155674532Y-120699998D01*
X155674532Y-120700001D01*
X155694364Y-120926686D01*
X155694366Y-120926697D01*
X155753258Y-121146488D01*
X155753261Y-121146497D01*
X155849431Y-121352732D01*
X155849432Y-121352734D01*
X155979954Y-121539141D01*
X156140858Y-121700045D01*
X156140861Y-121700047D01*
X156327266Y-121830568D01*
X156385275Y-121857618D01*
X156437714Y-121903791D01*
X156456866Y-121970984D01*
X156436650Y-122037865D01*
X156385275Y-122082382D01*
X156327267Y-122109431D01*
X156327265Y-122109432D01*
X156140858Y-122239954D01*
X155979954Y-122400858D01*
X155849432Y-122587265D01*
X155849431Y-122587267D01*
X155753261Y-122793502D01*
X155753258Y-122793511D01*
X155694366Y-123013302D01*
X155694364Y-123013313D01*
X155674532Y-123239998D01*
X155674532Y-123240001D01*
X155694364Y-123466686D01*
X155694366Y-123466697D01*
X155753258Y-123686488D01*
X155753261Y-123686497D01*
X155849431Y-123892732D01*
X155849432Y-123892734D01*
X155979954Y-124079141D01*
X156140858Y-124240045D01*
X156140861Y-124240047D01*
X156327266Y-124370568D01*
X156385275Y-124397618D01*
X156437714Y-124443791D01*
X156456866Y-124510984D01*
X156436650Y-124577865D01*
X156385275Y-124622382D01*
X156327267Y-124649431D01*
X156327265Y-124649432D01*
X156140858Y-124779954D01*
X155979954Y-124940858D01*
X155849432Y-125127265D01*
X155849431Y-125127267D01*
X155753261Y-125333502D01*
X155753258Y-125333511D01*
X155694366Y-125553302D01*
X155694364Y-125553313D01*
X155674532Y-125779998D01*
X155674532Y-125780001D01*
X155694364Y-126006686D01*
X155694366Y-126006697D01*
X155753258Y-126226488D01*
X155753261Y-126226497D01*
X155849431Y-126432732D01*
X155849432Y-126432734D01*
X155979954Y-126619141D01*
X156140858Y-126780045D01*
X156140861Y-126780047D01*
X156327266Y-126910568D01*
X156533504Y-127006739D01*
X156753308Y-127065635D01*
X156923214Y-127080499D01*
X156923215Y-127080500D01*
X156923216Y-127080500D01*
X157836785Y-127080500D01*
X157836785Y-127080499D01*
X158006692Y-127065635D01*
X158226496Y-127006739D01*
X158432734Y-126910568D01*
X158619139Y-126780047D01*
X158780047Y-126619139D01*
X158910568Y-126432734D01*
X158919287Y-126414036D01*
X158965458Y-126361596D01*
X158968548Y-126359707D01*
X158970388Y-126358618D01*
X158970390Y-126358618D01*
X158987630Y-126348422D01*
X159005103Y-126339862D01*
X159023727Y-126332488D01*
X159023727Y-126332487D01*
X159023732Y-126332486D01*
X159051238Y-126312500D01*
X159600001Y-126312500D01*
X159600001Y-126524986D01*
X159610494Y-126627697D01*
X159665641Y-126794119D01*
X159665643Y-126794124D01*
X159757684Y-126943345D01*
X159881654Y-127067315D01*
X160030875Y-127159356D01*
X160030880Y-127159358D01*
X160197302Y-127214505D01*
X160197309Y-127214506D01*
X160300019Y-127224999D01*
X160749999Y-127224999D01*
X160750000Y-127224998D01*
X160750000Y-126312500D01*
X161250000Y-126312500D01*
X161250000Y-127224999D01*
X161699972Y-127224999D01*
X161699986Y-127224998D01*
X161802697Y-127214505D01*
X161969119Y-127159358D01*
X161969124Y-127159356D01*
X162118345Y-127067315D01*
X162242315Y-126943345D01*
X162334356Y-126794124D01*
X162334358Y-126794119D01*
X162389505Y-126627697D01*
X162389506Y-126627690D01*
X162399999Y-126524986D01*
X162400000Y-126524973D01*
X162400000Y-126312500D01*
X161250000Y-126312500D01*
X160750000Y-126312500D01*
X159600001Y-126312500D01*
X159051238Y-126312500D01*
X159059083Y-126306800D01*
X159068814Y-126300408D01*
X159106420Y-126278170D01*
X159120589Y-126263999D01*
X159135379Y-126251368D01*
X159151587Y-126239594D01*
X159179438Y-126205926D01*
X159187279Y-126197309D01*
X159535771Y-125848817D01*
X159597092Y-125815334D01*
X159623450Y-125812500D01*
X160750000Y-125812500D01*
X160750000Y-124900000D01*
X161250000Y-124900000D01*
X161250000Y-125812500D01*
X162399999Y-125812500D01*
X162399999Y-125600028D01*
X162399998Y-125600013D01*
X162389505Y-125497302D01*
X162334358Y-125330880D01*
X162334356Y-125330875D01*
X162242315Y-125181654D01*
X162118345Y-125057684D01*
X161969124Y-124965643D01*
X161969119Y-124965641D01*
X161802697Y-124910494D01*
X161802690Y-124910493D01*
X161699986Y-124900000D01*
X161250000Y-124900000D01*
X160750000Y-124900000D01*
X160300028Y-124900000D01*
X160300007Y-124900002D01*
X160262100Y-124903874D01*
X160193407Y-124891104D01*
X160142524Y-124843222D01*
X160125500Y-124780516D01*
X160125500Y-124219987D01*
X160145185Y-124152948D01*
X160197989Y-124107193D01*
X160262102Y-124096629D01*
X160299991Y-124100500D01*
X161700008Y-124100499D01*
X161802797Y-124089999D01*
X161969334Y-124034814D01*
X162118656Y-123942712D01*
X162242712Y-123818656D01*
X162244604Y-123815587D01*
X162246452Y-123813925D01*
X162247193Y-123812989D01*
X162247352Y-123813115D01*
X162296545Y-123768862D01*
X162365506Y-123757633D01*
X162429591Y-123785470D01*
X162450464Y-123807793D01*
X162473180Y-123839059D01*
X162479593Y-123848821D01*
X162501828Y-123886417D01*
X162501833Y-123886424D01*
X162515990Y-123900580D01*
X162528628Y-123915376D01*
X162540405Y-123931586D01*
X162540406Y-123931587D01*
X162574057Y-123959425D01*
X162582698Y-123967288D01*
X163299393Y-124683983D01*
X163332878Y-124745306D01*
X163327895Y-124814995D01*
X163306403Y-124872620D01*
X163306401Y-124872627D01*
X163300000Y-124932155D01*
X163300000Y-125530000D01*
X164684314Y-125530000D01*
X164672359Y-125541955D01*
X164614835Y-125654852D01*
X164595014Y-125780000D01*
X164614835Y-125905148D01*
X164672359Y-126018045D01*
X164684314Y-126030000D01*
X163300000Y-126030000D01*
X163300000Y-126627844D01*
X163306401Y-126687372D01*
X163306403Y-126687379D01*
X163356645Y-126822086D01*
X163356649Y-126822093D01*
X163442809Y-126937187D01*
X163442812Y-126937190D01*
X163557906Y-127023350D01*
X163557913Y-127023354D01*
X163692620Y-127073596D01*
X163692627Y-127073598D01*
X163752155Y-127079999D01*
X163752172Y-127080000D01*
X164750000Y-127080000D01*
X164750000Y-126095686D01*
X164761955Y-126107641D01*
X164874852Y-126165165D01*
X164968519Y-126180000D01*
X165031481Y-126180000D01*
X165125148Y-126165165D01*
X165238045Y-126107641D01*
X165250000Y-126095686D01*
X165250000Y-127080000D01*
X166247828Y-127080000D01*
X166247844Y-127079999D01*
X166307372Y-127073598D01*
X166307379Y-127073596D01*
X166442086Y-127023354D01*
X166442093Y-127023350D01*
X166557187Y-126937190D01*
X166557190Y-126937187D01*
X166643350Y-126822093D01*
X166643354Y-126822086D01*
X166693596Y-126687379D01*
X166693598Y-126687372D01*
X166699999Y-126627844D01*
X166700000Y-126627827D01*
X166700000Y-126030000D01*
X165315686Y-126030000D01*
X165327641Y-126018045D01*
X165385165Y-125905148D01*
X165404986Y-125780000D01*
X165385165Y-125654852D01*
X165327641Y-125541955D01*
X165315686Y-125530000D01*
X166700000Y-125530000D01*
X166700000Y-125249500D01*
X166719685Y-125182461D01*
X166772489Y-125136706D01*
X166824000Y-125125500D01*
X172667257Y-125125500D01*
X172682877Y-125127224D01*
X172682904Y-125126939D01*
X172690660Y-125127671D01*
X172690667Y-125127673D01*
X172757873Y-125125561D01*
X172761768Y-125125500D01*
X172789346Y-125125500D01*
X172789350Y-125125500D01*
X172793324Y-125124997D01*
X172804963Y-125124080D01*
X172848627Y-125122709D01*
X172867869Y-125117117D01*
X172886912Y-125113174D01*
X172906792Y-125110664D01*
X172947401Y-125094585D01*
X172958444Y-125090803D01*
X173000390Y-125078618D01*
X173017629Y-125068422D01*
X173035103Y-125059862D01*
X173053727Y-125052488D01*
X173053727Y-125052487D01*
X173053732Y-125052486D01*
X173089083Y-125026800D01*
X173098814Y-125020408D01*
X173136420Y-124998170D01*
X173150589Y-124983999D01*
X173165379Y-124971368D01*
X173181587Y-124959594D01*
X173209438Y-124925926D01*
X173217279Y-124917309D01*
X177612772Y-120521819D01*
X177674095Y-120488334D01*
X177700453Y-120485500D01*
X184385812Y-120485500D01*
X184452851Y-120505185D01*
X184487387Y-120538377D01*
X184599954Y-120699141D01*
X184760858Y-120860045D01*
X184785462Y-120877273D01*
X184829087Y-120931849D01*
X184836281Y-121001348D01*
X184804758Y-121063703D01*
X184744529Y-121099117D01*
X184727593Y-121102138D01*
X184692516Y-121105908D01*
X184557671Y-121156202D01*
X184557664Y-121156206D01*
X184442455Y-121242452D01*
X184442452Y-121242455D01*
X184356206Y-121357664D01*
X184356202Y-121357671D01*
X184305908Y-121492517D01*
X184300896Y-121539139D01*
X184299501Y-121552123D01*
X184299500Y-121552135D01*
X184299500Y-123247870D01*
X184299501Y-123247876D01*
X184305908Y-123307483D01*
X184356202Y-123442328D01*
X184356206Y-123442335D01*
X184442452Y-123557544D01*
X184442455Y-123557547D01*
X184557664Y-123643793D01*
X184557671Y-123643797D01*
X184692517Y-123694091D01*
X184692516Y-123694091D01*
X184699444Y-123694835D01*
X184752127Y-123700500D01*
X187247872Y-123700499D01*
X187307483Y-123694091D01*
X187442331Y-123643796D01*
X187557546Y-123557546D01*
X187643796Y-123442331D01*
X187694091Y-123307483D01*
X187700500Y-123247873D01*
X187700499Y-121552128D01*
X187694091Y-121492517D01*
X187643796Y-121357669D01*
X187643795Y-121357668D01*
X187643793Y-121357664D01*
X187557547Y-121242455D01*
X187557544Y-121242452D01*
X187442335Y-121156206D01*
X187442328Y-121156202D01*
X187307482Y-121105908D01*
X187307483Y-121105908D01*
X187272404Y-121102137D01*
X187207853Y-121075399D01*
X187168005Y-121018006D01*
X187165512Y-120948181D01*
X187201165Y-120888092D01*
X187214539Y-120877272D01*
X187239140Y-120860046D01*
X187400045Y-120699141D01*
X187400047Y-120699139D01*
X187530568Y-120512734D01*
X187626739Y-120306496D01*
X187685635Y-120086692D01*
X187705468Y-119860000D01*
X187685635Y-119633308D01*
X187626739Y-119413504D01*
X187530568Y-119207266D01*
X187400047Y-119020861D01*
X187400045Y-119020858D01*
X187239141Y-118859954D01*
X187052734Y-118729432D01*
X187052728Y-118729429D01*
X186994725Y-118702382D01*
X186942285Y-118656210D01*
X186923133Y-118589017D01*
X186943348Y-118522135D01*
X186994725Y-118477618D01*
X187052734Y-118450568D01*
X187239139Y-118320047D01*
X187400047Y-118159139D01*
X187448925Y-118089333D01*
X187503501Y-118045708D01*
X187572999Y-118038514D01*
X187635354Y-118070036D01*
X187670769Y-118130266D01*
X187674500Y-118160456D01*
X187674500Y-118357255D01*
X187672775Y-118372872D01*
X187673061Y-118372899D01*
X187672326Y-118380665D01*
X187674439Y-118447872D01*
X187674500Y-118451767D01*
X187674500Y-118479357D01*
X187675003Y-118483335D01*
X187675918Y-118494967D01*
X187677290Y-118538624D01*
X187677291Y-118538627D01*
X187682880Y-118557867D01*
X187686824Y-118576911D01*
X187688354Y-118589017D01*
X187689336Y-118596792D01*
X187705414Y-118637403D01*
X187709197Y-118648452D01*
X187721381Y-118690388D01*
X187731580Y-118707634D01*
X187740136Y-118725100D01*
X187745489Y-118738618D01*
X187747514Y-118743732D01*
X187773181Y-118779060D01*
X187779593Y-118788821D01*
X187801828Y-118826417D01*
X187801833Y-118826424D01*
X187815990Y-118840580D01*
X187828627Y-118855375D01*
X187840406Y-118871587D01*
X187857347Y-118885602D01*
X187874057Y-118899425D01*
X187882698Y-118907288D01*
X188659762Y-119684352D01*
X188693247Y-119745675D01*
X188691856Y-119804126D01*
X188664938Y-119904586D01*
X188664936Y-119904596D01*
X188644341Y-120139999D01*
X188644341Y-120140000D01*
X188664936Y-120375403D01*
X188664938Y-120375413D01*
X188726094Y-120603655D01*
X188726096Y-120603659D01*
X188726097Y-120603663D01*
X188825965Y-120817830D01*
X188825967Y-120817834D01*
X188961501Y-121011395D01*
X188961506Y-121011402D01*
X189128597Y-121178493D01*
X189128603Y-121178498D01*
X189314594Y-121308730D01*
X189358219Y-121363307D01*
X189365413Y-121432805D01*
X189333890Y-121495160D01*
X189314595Y-121511880D01*
X189128922Y-121641890D01*
X189128920Y-121641891D01*
X188961891Y-121808920D01*
X188961886Y-121808926D01*
X188826400Y-122002420D01*
X188826399Y-122002422D01*
X188726570Y-122216507D01*
X188726567Y-122216513D01*
X188669364Y-122429999D01*
X188669364Y-122430000D01*
X189566314Y-122430000D01*
X189540507Y-122470156D01*
X189500000Y-122608111D01*
X189500000Y-122751889D01*
X189540507Y-122889844D01*
X189566314Y-122930000D01*
X188669364Y-122930000D01*
X188726567Y-123143486D01*
X188726570Y-123143492D01*
X188826399Y-123357578D01*
X188961894Y-123551082D01*
X189128917Y-123718105D01*
X189314595Y-123848119D01*
X189358219Y-123902696D01*
X189365412Y-123972195D01*
X189333890Y-124034549D01*
X189314595Y-124051269D01*
X189128594Y-124181508D01*
X188961505Y-124348597D01*
X188825965Y-124542169D01*
X188825964Y-124542171D01*
X188726098Y-124756335D01*
X188726094Y-124756344D01*
X188664938Y-124984586D01*
X188664936Y-124984596D01*
X188644341Y-125219999D01*
X188644341Y-125220000D01*
X188664936Y-125455403D01*
X188664938Y-125455413D01*
X188726094Y-125683655D01*
X188726096Y-125683659D01*
X188726097Y-125683663D01*
X188803111Y-125848819D01*
X188825965Y-125897830D01*
X188825967Y-125897834D01*
X188934281Y-126052521D01*
X188961505Y-126091401D01*
X189128599Y-126258495D01*
X189136480Y-126264013D01*
X189322165Y-126394032D01*
X189322167Y-126394033D01*
X189322170Y-126394035D01*
X189536337Y-126493903D01*
X189764592Y-126555063D01*
X189952918Y-126571539D01*
X189999999Y-126575659D01*
X190000000Y-126575659D01*
X190000001Y-126575659D01*
X190039234Y-126572226D01*
X190235408Y-126555063D01*
X190463663Y-126493903D01*
X190677830Y-126394035D01*
X190871401Y-126258495D01*
X191038495Y-126091401D01*
X191174035Y-125897830D01*
X191273903Y-125683663D01*
X191335063Y-125455408D01*
X191355659Y-125220000D01*
X191335063Y-124984592D01*
X191273903Y-124756337D01*
X191174035Y-124542171D01*
X191150821Y-124509017D01*
X191038494Y-124348597D01*
X190871402Y-124181506D01*
X190871401Y-124181505D01*
X190685405Y-124051269D01*
X190641781Y-123996692D01*
X190634588Y-123927193D01*
X190666110Y-123864839D01*
X190685405Y-123848119D01*
X190871082Y-123718105D01*
X191038105Y-123551082D01*
X191173600Y-123357578D01*
X191273429Y-123143492D01*
X191273432Y-123143486D01*
X191330636Y-122930000D01*
X190433686Y-122930000D01*
X190459493Y-122889844D01*
X190500000Y-122751889D01*
X190500000Y-122608111D01*
X190459493Y-122470156D01*
X190433686Y-122430000D01*
X191330636Y-122430000D01*
X191330635Y-122429999D01*
X191273432Y-122216513D01*
X191273429Y-122216507D01*
X191173600Y-122002422D01*
X191173599Y-122002420D01*
X191038113Y-121808926D01*
X191038108Y-121808920D01*
X190871078Y-121641890D01*
X190685405Y-121511879D01*
X190641780Y-121457302D01*
X190634588Y-121387804D01*
X190666110Y-121325449D01*
X190685406Y-121308730D01*
X190871401Y-121178495D01*
X191038495Y-121011401D01*
X191174035Y-120817830D01*
X191273903Y-120603663D01*
X191335063Y-120375408D01*
X191355659Y-120140000D01*
X191335063Y-119904592D01*
X191273903Y-119676337D01*
X191174035Y-119462171D01*
X191169320Y-119455436D01*
X191038494Y-119268597D01*
X190871402Y-119101506D01*
X190871396Y-119101501D01*
X190685842Y-118971575D01*
X190642217Y-118916998D01*
X190635023Y-118847500D01*
X190666546Y-118785145D01*
X190685842Y-118768425D01*
X190736644Y-118732853D01*
X190871401Y-118638495D01*
X191038495Y-118471401D01*
X191174035Y-118277830D01*
X191273903Y-118063663D01*
X191335063Y-117835408D01*
X191355659Y-117600000D01*
X191335063Y-117364592D01*
X191273903Y-117136337D01*
X191174035Y-116922171D01*
X191150821Y-116889017D01*
X191038494Y-116728597D01*
X190871402Y-116561506D01*
X190871396Y-116561501D01*
X190685842Y-116431575D01*
X190642217Y-116376998D01*
X190635023Y-116307500D01*
X190666546Y-116245145D01*
X190685842Y-116228425D01*
X190728412Y-116198617D01*
X190871401Y-116098495D01*
X191038495Y-115931401D01*
X191174035Y-115737830D01*
X191273903Y-115523663D01*
X191335063Y-115295408D01*
X191355659Y-115060000D01*
X191335063Y-114824592D01*
X191273903Y-114596337D01*
X191174035Y-114382171D01*
X191163233Y-114366743D01*
X191038494Y-114188597D01*
X190871402Y-114021506D01*
X190871396Y-114021501D01*
X190685842Y-113891575D01*
X190642217Y-113836998D01*
X190635023Y-113767500D01*
X190666546Y-113705145D01*
X190685842Y-113688425D01*
X190831704Y-113586291D01*
X190871401Y-113558495D01*
X191038495Y-113391401D01*
X191174035Y-113197830D01*
X191273903Y-112983663D01*
X191335063Y-112755408D01*
X191355659Y-112520000D01*
X191335063Y-112284592D01*
X191273903Y-112056337D01*
X191174035Y-111842171D01*
X191163233Y-111826743D01*
X191038494Y-111648597D01*
X190871402Y-111481506D01*
X190871396Y-111481501D01*
X190685842Y-111351575D01*
X190642217Y-111296998D01*
X190635023Y-111227500D01*
X190666546Y-111165145D01*
X190685842Y-111148425D01*
X190708026Y-111132891D01*
X190871401Y-111018495D01*
X191038495Y-110851401D01*
X191174035Y-110657830D01*
X191273903Y-110443663D01*
X191335063Y-110215408D01*
X191355659Y-109980000D01*
X191335063Y-109744592D01*
X191288626Y-109571285D01*
X191273905Y-109516344D01*
X191273904Y-109516343D01*
X191273903Y-109516337D01*
X191174035Y-109302171D01*
X191150821Y-109269017D01*
X191038494Y-109108597D01*
X190871402Y-108941506D01*
X190871396Y-108941501D01*
X190685842Y-108811575D01*
X190642217Y-108756998D01*
X190635023Y-108687500D01*
X190666546Y-108625145D01*
X190685842Y-108608425D01*
X190728411Y-108578618D01*
X190871401Y-108478495D01*
X191038495Y-108311401D01*
X191174035Y-108117830D01*
X191273903Y-107903663D01*
X191335063Y-107675408D01*
X191355659Y-107440000D01*
X191335063Y-107204592D01*
X191273903Y-106976337D01*
X191174035Y-106762171D01*
X191160400Y-106742697D01*
X191038494Y-106568597D01*
X190871402Y-106401506D01*
X190871396Y-106401501D01*
X190685842Y-106271575D01*
X190642217Y-106216998D01*
X190635023Y-106147500D01*
X190666546Y-106085145D01*
X190685842Y-106068425D01*
X190728411Y-106038618D01*
X190871401Y-105938495D01*
X191038495Y-105771401D01*
X191174035Y-105577830D01*
X191273903Y-105363663D01*
X191335063Y-105135408D01*
X191355659Y-104900000D01*
X191335063Y-104664592D01*
X191273903Y-104436337D01*
X191174035Y-104222171D01*
X191160400Y-104202697D01*
X191038494Y-104028597D01*
X190871402Y-103861506D01*
X190871396Y-103861501D01*
X190685842Y-103731575D01*
X190642217Y-103676998D01*
X190635023Y-103607500D01*
X190666546Y-103545145D01*
X190685842Y-103528425D01*
X190741315Y-103489582D01*
X190871401Y-103398495D01*
X191038495Y-103231401D01*
X191174035Y-103037830D01*
X191273903Y-102823663D01*
X191335063Y-102595408D01*
X191355659Y-102360000D01*
X191335063Y-102124592D01*
X191281836Y-101925942D01*
X191273905Y-101896344D01*
X191273904Y-101896343D01*
X191273903Y-101896337D01*
X191174035Y-101682171D01*
X191163081Y-101666526D01*
X191038494Y-101488597D01*
X190871402Y-101321506D01*
X190871396Y-101321501D01*
X190685842Y-101191575D01*
X190642217Y-101136998D01*
X190635023Y-101067500D01*
X190666546Y-101005145D01*
X190685842Y-100988425D01*
X190730054Y-100957467D01*
X190871401Y-100858495D01*
X191038495Y-100691401D01*
X191174035Y-100497830D01*
X191273903Y-100283663D01*
X191335063Y-100055408D01*
X191355659Y-99820000D01*
X191354704Y-99809090D01*
X191345531Y-99704244D01*
X191335063Y-99584592D01*
X191273903Y-99356337D01*
X191174035Y-99142171D01*
X191157501Y-99118557D01*
X191038494Y-98948597D01*
X190871402Y-98781506D01*
X190871396Y-98781501D01*
X190685842Y-98651575D01*
X190642217Y-98596998D01*
X190635023Y-98527500D01*
X190666546Y-98465145D01*
X190685842Y-98448425D01*
X190735287Y-98413803D01*
X190871401Y-98318495D01*
X191038495Y-98151401D01*
X191174035Y-97957830D01*
X191273903Y-97743663D01*
X191335063Y-97515408D01*
X191355659Y-97280000D01*
X191335063Y-97044592D01*
X191273903Y-96816337D01*
X191174035Y-96602171D01*
X191160400Y-96582697D01*
X191038494Y-96408597D01*
X190871402Y-96241506D01*
X190871396Y-96241501D01*
X190685842Y-96111575D01*
X190642217Y-96056998D01*
X190635023Y-95987500D01*
X190666546Y-95925145D01*
X190685842Y-95908425D01*
X190719765Y-95884672D01*
X190871401Y-95778495D01*
X191038495Y-95611401D01*
X191174035Y-95417830D01*
X191273903Y-95203663D01*
X191335063Y-94975408D01*
X191355659Y-94740000D01*
X191335063Y-94504592D01*
X191317428Y-94438780D01*
X191308143Y-94404125D01*
X191309806Y-94334276D01*
X191340235Y-94284353D01*
X192383787Y-93240802D01*
X192396042Y-93230986D01*
X192395859Y-93230764D01*
X192401868Y-93225791D01*
X192401877Y-93225786D01*
X192447949Y-93176722D01*
X192450566Y-93174023D01*
X192470120Y-93154471D01*
X192472576Y-93151303D01*
X192480156Y-93142427D01*
X192510062Y-93110582D01*
X192519713Y-93093024D01*
X192530396Y-93076761D01*
X192542673Y-93060936D01*
X192560021Y-93020844D01*
X192565151Y-93010371D01*
X192586197Y-92972092D01*
X192591180Y-92952680D01*
X192597481Y-92934280D01*
X192605437Y-92915896D01*
X192612270Y-92872748D01*
X192614633Y-92861338D01*
X192625500Y-92819019D01*
X192625500Y-92798983D01*
X192627027Y-92779582D01*
X192628586Y-92769739D01*
X192630160Y-92759804D01*
X192626050Y-92716324D01*
X192625500Y-92704655D01*
X192625500Y-86582742D01*
X192627224Y-86567122D01*
X192626939Y-86567095D01*
X192627673Y-86559333D01*
X192625561Y-86492112D01*
X192625500Y-86488218D01*
X192625500Y-86460656D01*
X192625500Y-86460650D01*
X192624996Y-86456668D01*
X192624081Y-86445029D01*
X192622710Y-86401373D01*
X192617119Y-86382130D01*
X192613173Y-86363078D01*
X192610664Y-86343208D01*
X192594579Y-86302583D01*
X192590806Y-86291562D01*
X192578618Y-86249610D01*
X192578617Y-86249609D01*
X192578617Y-86249607D01*
X192578616Y-86249606D01*
X192568423Y-86232371D01*
X192559861Y-86214894D01*
X192552487Y-86196269D01*
X192526816Y-86160937D01*
X192520405Y-86151177D01*
X192498170Y-86113580D01*
X192498168Y-86113578D01*
X192498165Y-86113574D01*
X192484006Y-86099415D01*
X192471368Y-86084619D01*
X192463146Y-86073302D01*
X192459594Y-86068413D01*
X192428479Y-86042673D01*
X192425940Y-86040572D01*
X192417299Y-86032709D01*
X191945803Y-85561212D01*
X191935980Y-85548950D01*
X191935759Y-85549134D01*
X191930786Y-85543122D01*
X191881776Y-85497099D01*
X191878977Y-85494386D01*
X191859477Y-85474885D01*
X191859471Y-85474880D01*
X191856286Y-85472409D01*
X191847434Y-85464848D01*
X191815582Y-85434938D01*
X191815580Y-85434936D01*
X191815577Y-85434935D01*
X191798029Y-85425288D01*
X191781763Y-85414604D01*
X191765932Y-85402324D01*
X191725849Y-85384978D01*
X191715363Y-85379841D01*
X191677094Y-85358803D01*
X191677092Y-85358802D01*
X191657693Y-85353822D01*
X191639281Y-85347518D01*
X191620898Y-85339562D01*
X191620892Y-85339560D01*
X191577760Y-85332729D01*
X191566322Y-85330361D01*
X191524020Y-85319500D01*
X191524019Y-85319500D01*
X191503984Y-85319500D01*
X191484586Y-85317973D01*
X191478953Y-85317080D01*
X191457097Y-85313619D01*
X191457529Y-85310885D01*
X191403694Y-85293209D01*
X191359633Y-85238984D01*
X191350000Y-85191067D01*
X191350000Y-84830000D01*
X190433686Y-84830000D01*
X190459493Y-84789844D01*
X190500000Y-84651889D01*
X190500000Y-84508111D01*
X190459493Y-84370156D01*
X190433686Y-84330000D01*
X191350000Y-84330000D01*
X191350000Y-83682172D01*
X191349999Y-83682155D01*
X191343598Y-83622627D01*
X191343596Y-83622620D01*
X191293354Y-83487913D01*
X191293350Y-83487906D01*
X191207190Y-83372812D01*
X191207187Y-83372809D01*
X191092093Y-83286649D01*
X191092086Y-83286645D01*
X190957379Y-83236403D01*
X190957372Y-83236401D01*
X190897844Y-83230000D01*
X190250000Y-83230000D01*
X190250000Y-84144498D01*
X190142315Y-84095320D01*
X190035763Y-84080000D01*
X189964237Y-84080000D01*
X189857685Y-84095320D01*
X189750000Y-84144498D01*
X189750000Y-83230000D01*
X189102155Y-83230000D01*
X189042627Y-83236401D01*
X189042620Y-83236403D01*
X188907913Y-83286645D01*
X188907906Y-83286649D01*
X188792812Y-83372809D01*
X188792809Y-83372812D01*
X188706649Y-83487906D01*
X188706645Y-83487913D01*
X188656403Y-83622620D01*
X188656401Y-83622627D01*
X188650000Y-83682155D01*
X188650000Y-84330000D01*
X189566314Y-84330000D01*
X189540507Y-84370156D01*
X189500000Y-84508111D01*
X189500000Y-84651889D01*
X189540507Y-84789844D01*
X189566314Y-84830000D01*
X188650000Y-84830000D01*
X188650000Y-84965782D01*
X188630315Y-85032821D01*
X188577511Y-85078576D01*
X188508353Y-85088520D01*
X188444797Y-85059495D01*
X188441122Y-85056180D01*
X188436782Y-85052105D01*
X188433977Y-85049386D01*
X188414477Y-85029885D01*
X188413001Y-85028740D01*
X188411286Y-85027409D01*
X188402434Y-85019848D01*
X188370582Y-84989938D01*
X188370580Y-84989936D01*
X188370577Y-84989935D01*
X188353029Y-84980288D01*
X188336763Y-84969604D01*
X188326778Y-84961859D01*
X188320936Y-84957327D01*
X188320935Y-84957326D01*
X188320932Y-84957324D01*
X188280849Y-84939978D01*
X188270363Y-84934841D01*
X188232094Y-84913803D01*
X188232092Y-84913802D01*
X188212693Y-84908822D01*
X188194281Y-84902518D01*
X188175898Y-84894562D01*
X188175892Y-84894560D01*
X188132760Y-84887729D01*
X188121322Y-84885361D01*
X188079020Y-84874500D01*
X188079019Y-84874500D01*
X188058984Y-84874500D01*
X188039586Y-84872973D01*
X188032162Y-84871797D01*
X188019805Y-84869840D01*
X188019804Y-84869840D01*
X187976325Y-84873950D01*
X187964656Y-84874500D01*
X187753523Y-84874500D01*
X187686484Y-84854815D01*
X187640729Y-84802011D01*
X187630785Y-84732853D01*
X187633748Y-84718407D01*
X187678872Y-84550000D01*
X186315686Y-84550000D01*
X186327641Y-84538045D01*
X186385165Y-84425148D01*
X186404986Y-84300000D01*
X186385165Y-84174852D01*
X186327641Y-84061955D01*
X186315686Y-84050000D01*
X187678872Y-84050000D01*
X187678872Y-84049999D01*
X187626269Y-83853682D01*
X187626265Y-83853673D01*
X187530134Y-83647517D01*
X187399657Y-83461179D01*
X187238820Y-83300342D01*
X187052482Y-83169865D01*
X186846326Y-83073734D01*
X186846317Y-83073730D01*
X186626610Y-83014860D01*
X186626599Y-83014858D01*
X186456766Y-83000000D01*
X186250000Y-83000000D01*
X186250000Y-83984314D01*
X186238045Y-83972359D01*
X186125148Y-83914835D01*
X186031481Y-83900000D01*
X185968519Y-83900000D01*
X185874852Y-83914835D01*
X185761955Y-83972359D01*
X185750000Y-83984314D01*
X185750000Y-83000000D01*
X185543233Y-83000000D01*
X185373400Y-83014858D01*
X185373389Y-83014860D01*
X185153682Y-83073730D01*
X185153673Y-83073734D01*
X184947517Y-83169865D01*
X184761179Y-83300342D01*
X184600342Y-83461179D01*
X184469865Y-83647517D01*
X184373734Y-83853673D01*
X184373730Y-83853682D01*
X184321127Y-84049999D01*
X184321128Y-84050000D01*
X185684314Y-84050000D01*
X185672359Y-84061955D01*
X185614835Y-84174852D01*
X185595014Y-84300000D01*
X185614835Y-84425148D01*
X185672359Y-84538045D01*
X185684314Y-84550000D01*
X184321128Y-84550000D01*
X184366252Y-84718407D01*
X184364589Y-84788256D01*
X184325427Y-84846119D01*
X184261198Y-84873623D01*
X184246477Y-84874500D01*
X174810453Y-84874500D01*
X174743414Y-84854815D01*
X174722772Y-84838181D01*
X173800803Y-83916212D01*
X173790980Y-83903950D01*
X173790759Y-83904134D01*
X173785786Y-83898122D01*
X173736776Y-83852099D01*
X173733977Y-83849386D01*
X173714477Y-83829885D01*
X173714471Y-83829880D01*
X173711286Y-83827409D01*
X173702434Y-83819848D01*
X173670582Y-83789938D01*
X173670580Y-83789936D01*
X173670577Y-83789935D01*
X173653029Y-83780288D01*
X173636763Y-83769604D01*
X173620932Y-83757324D01*
X173580849Y-83739978D01*
X173570363Y-83734841D01*
X173532094Y-83713803D01*
X173532092Y-83713802D01*
X173512693Y-83708822D01*
X173494281Y-83702518D01*
X173475898Y-83694562D01*
X173475892Y-83694560D01*
X173432760Y-83687729D01*
X173421322Y-83685361D01*
X173379020Y-83674500D01*
X173379019Y-83674500D01*
X173358984Y-83674500D01*
X173339586Y-83672973D01*
X173332162Y-83671797D01*
X173319805Y-83669840D01*
X173319804Y-83669840D01*
X173276325Y-83673950D01*
X173264656Y-83674500D01*
X172374188Y-83674500D01*
X172307149Y-83654815D01*
X172272613Y-83621623D01*
X172160045Y-83460858D01*
X171999141Y-83299954D01*
X171812734Y-83169432D01*
X171812732Y-83169431D01*
X171606497Y-83073261D01*
X171606488Y-83073258D01*
X171386697Y-83014366D01*
X171386687Y-83014364D01*
X171216785Y-82999500D01*
X171216784Y-82999500D01*
X170303216Y-82999500D01*
X170303215Y-82999500D01*
X170133312Y-83014364D01*
X170133302Y-83014366D01*
X169913511Y-83073258D01*
X169913502Y-83073261D01*
X169707267Y-83169431D01*
X169707265Y-83169432D01*
X169520858Y-83299954D01*
X169359954Y-83460858D01*
X169229432Y-83647265D01*
X169229431Y-83647267D01*
X169133261Y-83853502D01*
X169133258Y-83853511D01*
X169074366Y-84073302D01*
X169074364Y-84073313D01*
X169054532Y-84299998D01*
X169054532Y-84300001D01*
X169074364Y-84526686D01*
X169074366Y-84526697D01*
X169125734Y-84718407D01*
X169124071Y-84788257D01*
X169084908Y-84846119D01*
X169020680Y-84873623D01*
X169005959Y-84874500D01*
X167582743Y-84874500D01*
X167567122Y-84872775D01*
X167567096Y-84873061D01*
X167559334Y-84872327D01*
X167559333Y-84872327D01*
X167518093Y-84873623D01*
X167492127Y-84874439D01*
X167488232Y-84874500D01*
X167460647Y-84874500D01*
X167456661Y-84875003D01*
X167445033Y-84875918D01*
X167401373Y-84877290D01*
X167382129Y-84882881D01*
X167363079Y-84886825D01*
X167343211Y-84889334D01*
X167343210Y-84889334D01*
X167302599Y-84905413D01*
X167291554Y-84909194D01*
X167249614Y-84921379D01*
X167249610Y-84921381D01*
X167232366Y-84931579D01*
X167214905Y-84940133D01*
X167196274Y-84947510D01*
X167196262Y-84947517D01*
X167160933Y-84973185D01*
X167151173Y-84979596D01*
X167113580Y-85001829D01*
X167099414Y-85015995D01*
X167084624Y-85028627D01*
X167068414Y-85040404D01*
X167068411Y-85040407D01*
X167040573Y-85074058D01*
X167032711Y-85082697D01*
X166609353Y-85506054D01*
X166548030Y-85539539D01*
X166478338Y-85534555D01*
X166422405Y-85492683D01*
X166420114Y-85489520D01*
X166400047Y-85460861D01*
X166400046Y-85460860D01*
X166400044Y-85460857D01*
X166239141Y-85299954D01*
X166052734Y-85169432D01*
X166052732Y-85169431D01*
X166041275Y-85164088D01*
X165994132Y-85142105D01*
X165941694Y-85095934D01*
X165922542Y-85028740D01*
X165942758Y-84961859D01*
X165994134Y-84917341D01*
X166052484Y-84890132D01*
X166238820Y-84759657D01*
X166399657Y-84598820D01*
X166530134Y-84412482D01*
X166626265Y-84206326D01*
X166626269Y-84206317D01*
X166678872Y-84010000D01*
X165315686Y-84010000D01*
X165327641Y-83998045D01*
X165385165Y-83885148D01*
X165404986Y-83760000D01*
X165385165Y-83634852D01*
X165327641Y-83521955D01*
X165315686Y-83510000D01*
X166678872Y-83510000D01*
X166678872Y-83509999D01*
X166626269Y-83313682D01*
X166626265Y-83313673D01*
X166530134Y-83107517D01*
X166399657Y-82921179D01*
X166238820Y-82760342D01*
X166052482Y-82629865D01*
X165846326Y-82533734D01*
X165846317Y-82533730D01*
X165626610Y-82474860D01*
X165626599Y-82474858D01*
X165456766Y-82460000D01*
X165250000Y-82460000D01*
X165250000Y-83444314D01*
X165238045Y-83432359D01*
X165125148Y-83374835D01*
X165031481Y-83360000D01*
X164968519Y-83360000D01*
X164874852Y-83374835D01*
X164761955Y-83432359D01*
X164750000Y-83444314D01*
X164750000Y-82460000D01*
X164543233Y-82460000D01*
X164373400Y-82474858D01*
X164373389Y-82474860D01*
X164153682Y-82533730D01*
X164153673Y-82533734D01*
X163947517Y-82629865D01*
X163761179Y-82760342D01*
X163600342Y-82921179D01*
X163469865Y-83107517D01*
X163373734Y-83313673D01*
X163373730Y-83313682D01*
X163321127Y-83509999D01*
X163321128Y-83510000D01*
X164684314Y-83510000D01*
X164672359Y-83521955D01*
X164614835Y-83634852D01*
X164595014Y-83760000D01*
X164614835Y-83885148D01*
X164672359Y-83998045D01*
X164684314Y-84010000D01*
X163321128Y-84010000D01*
X163373730Y-84206317D01*
X163373734Y-84206326D01*
X163469865Y-84412482D01*
X163600342Y-84598820D01*
X163761179Y-84759657D01*
X163947518Y-84890134D01*
X163947520Y-84890135D01*
X164005865Y-84917342D01*
X164058305Y-84963514D01*
X164077457Y-85030707D01*
X164057242Y-85097589D01*
X164005867Y-85142105D01*
X163947268Y-85169431D01*
X163947264Y-85169433D01*
X163760858Y-85299954D01*
X163599954Y-85460858D01*
X163469432Y-85647265D01*
X163469431Y-85647267D01*
X163373261Y-85853502D01*
X163373258Y-85853511D01*
X163314366Y-86073302D01*
X163314364Y-86073313D01*
X163294532Y-86299998D01*
X163294532Y-86300001D01*
X163314364Y-86526686D01*
X163314366Y-86526697D01*
X163365734Y-86718407D01*
X163364071Y-86788257D01*
X163324908Y-86846119D01*
X163260680Y-86873623D01*
X163245959Y-86874500D01*
X162082738Y-86874500D01*
X162067121Y-86872776D01*
X162067094Y-86873062D01*
X162059332Y-86872327D01*
X161992145Y-86874439D01*
X161988251Y-86874500D01*
X161960650Y-86874500D01*
X161956962Y-86874965D01*
X161956649Y-86875005D01*
X161945031Y-86875918D01*
X161901373Y-86877290D01*
X161901372Y-86877290D01*
X161882129Y-86882881D01*
X161863079Y-86886825D01*
X161843211Y-86889334D01*
X161843210Y-86889335D01*
X161802600Y-86905413D01*
X161791553Y-86909195D01*
X161749610Y-86921381D01*
X161749609Y-86921382D01*
X161732367Y-86931579D01*
X161714899Y-86940137D01*
X161696269Y-86947513D01*
X161696266Y-86947515D01*
X161660939Y-86973181D01*
X161651180Y-86979592D01*
X161613579Y-87001830D01*
X161599408Y-87016000D01*
X161584623Y-87028628D01*
X161568413Y-87040406D01*
X161568411Y-87040407D01*
X161568411Y-87040408D01*
X161565518Y-87043125D01*
X161562733Y-87044533D01*
X161562107Y-87044989D01*
X161562033Y-87044887D01*
X161503173Y-87074667D01*
X161433672Y-87067495D01*
X161379082Y-87023887D01*
X161362704Y-86991050D01*
X161327181Y-86881721D01*
X161327178Y-86881715D01*
X161324624Y-86877291D01*
X161232533Y-86717784D01*
X161105871Y-86577112D01*
X161105870Y-86577111D01*
X160952734Y-86465851D01*
X160952729Y-86465848D01*
X160779807Y-86388857D01*
X160779802Y-86388855D01*
X160634001Y-86357865D01*
X160594646Y-86349500D01*
X160594645Y-86349500D01*
X160535453Y-86349500D01*
X160468414Y-86329815D01*
X160447772Y-86313181D01*
X158834544Y-84699953D01*
X158801059Y-84638630D01*
X158806043Y-84568938D01*
X158820642Y-84541161D01*
X158910568Y-84412734D01*
X159006739Y-84206496D01*
X159065635Y-83986692D01*
X159083693Y-83780288D01*
X159085468Y-83760001D01*
X159085468Y-83759998D01*
X159073440Y-83622516D01*
X159065635Y-83533308D01*
X159006739Y-83313504D01*
X158910568Y-83107266D01*
X158780047Y-82920861D01*
X158780045Y-82920858D01*
X158619141Y-82759954D01*
X158432734Y-82629432D01*
X158432732Y-82629431D01*
X158226497Y-82533261D01*
X158226488Y-82533258D01*
X158006697Y-82474366D01*
X158006687Y-82474364D01*
X157836785Y-82459500D01*
X157836784Y-82459500D01*
X156923216Y-82459500D01*
X156923215Y-82459500D01*
X156753312Y-82474364D01*
X156753302Y-82474366D01*
X156533511Y-82533258D01*
X156533502Y-82533261D01*
X156327267Y-82629431D01*
X156327265Y-82629432D01*
X156140858Y-82759954D01*
X155979954Y-82920858D01*
X155849432Y-83107265D01*
X155849431Y-83107267D01*
X155753261Y-83313502D01*
X155753258Y-83313511D01*
X155694366Y-83533302D01*
X155694364Y-83533313D01*
X155674532Y-83759998D01*
X155674532Y-83760001D01*
X155694364Y-83986686D01*
X155694366Y-83986697D01*
X155753258Y-84206488D01*
X155753260Y-84206493D01*
X155753261Y-84206496D01*
X155773175Y-84249202D01*
X155783497Y-84271337D01*
X155793988Y-84340415D01*
X155765468Y-84404198D01*
X155734262Y-84430457D01*
X155732398Y-84431560D01*
X155714905Y-84440133D01*
X155696274Y-84447510D01*
X155696262Y-84447517D01*
X155660933Y-84473185D01*
X155651173Y-84479596D01*
X155613580Y-84501829D01*
X155599414Y-84515995D01*
X155584624Y-84528627D01*
X155568414Y-84540404D01*
X155568411Y-84540407D01*
X155540573Y-84574058D01*
X155532711Y-84582697D01*
X153778200Y-86337207D01*
X153716877Y-86370692D01*
X153647185Y-86365708D01*
X153591252Y-86323836D01*
X153588967Y-86320681D01*
X153538495Y-86248599D01*
X153416567Y-86126671D01*
X153383084Y-86065351D01*
X153388068Y-85995659D01*
X153429939Y-85939725D01*
X153460915Y-85922810D01*
X153592331Y-85873796D01*
X153707546Y-85787546D01*
X153793796Y-85672331D01*
X153844091Y-85537483D01*
X153850500Y-85477873D01*
X153850499Y-83682128D01*
X153844091Y-83622517D01*
X153810818Y-83533308D01*
X153793797Y-83487671D01*
X153793793Y-83487664D01*
X153707547Y-83372455D01*
X153707544Y-83372452D01*
X153592335Y-83286206D01*
X153592328Y-83286202D01*
X153457482Y-83235908D01*
X153457483Y-83235908D01*
X153397883Y-83229501D01*
X153397881Y-83229500D01*
X153397873Y-83229500D01*
X153397864Y-83229500D01*
X151602129Y-83229500D01*
X151602123Y-83229501D01*
X151542516Y-83235908D01*
X151407671Y-83286202D01*
X151407664Y-83286206D01*
X151292455Y-83372452D01*
X151292452Y-83372455D01*
X151206206Y-83487664D01*
X151206202Y-83487671D01*
X151155908Y-83622517D01*
X151152436Y-83654815D01*
X151149501Y-83682123D01*
X151149500Y-83682135D01*
X151149500Y-85477870D01*
X151149501Y-85477876D01*
X151155908Y-85537483D01*
X151206202Y-85672328D01*
X151206206Y-85672335D01*
X151292452Y-85787544D01*
X151292455Y-85787547D01*
X151407664Y-85873793D01*
X151407671Y-85873797D01*
X151539081Y-85922810D01*
X151595015Y-85964681D01*
X151619432Y-86030145D01*
X151604580Y-86098418D01*
X151583430Y-86126673D01*
X151461503Y-86248600D01*
X151325965Y-86442169D01*
X151325964Y-86442171D01*
X151226098Y-86656335D01*
X151226094Y-86656344D01*
X151164938Y-86884586D01*
X151164936Y-86884596D01*
X151144341Y-87119999D01*
X151144341Y-87120000D01*
X151164936Y-87355403D01*
X151164938Y-87355413D01*
X151226094Y-87583655D01*
X151226096Y-87583659D01*
X151226097Y-87583663D01*
X151306088Y-87755203D01*
X151325965Y-87797830D01*
X151325967Y-87797834D01*
X151415670Y-87925942D01*
X151461501Y-87991396D01*
X151461506Y-87991402D01*
X151628597Y-88158493D01*
X151628603Y-88158498D01*
X151814158Y-88288425D01*
X151857783Y-88343002D01*
X151864977Y-88412500D01*
X151833454Y-88474855D01*
X151814158Y-88491575D01*
X151628597Y-88621505D01*
X151461505Y-88788597D01*
X151325965Y-88982169D01*
X151325964Y-88982171D01*
X151226098Y-89196335D01*
X151226094Y-89196344D01*
X151164938Y-89424586D01*
X151164936Y-89424596D01*
X151144341Y-89659999D01*
X151144341Y-89660000D01*
X151164936Y-89895403D01*
X151164938Y-89895413D01*
X151226094Y-90123655D01*
X151226096Y-90123659D01*
X151226097Y-90123663D01*
X151275561Y-90229739D01*
X151325965Y-90337830D01*
X151325967Y-90337834D01*
X151379737Y-90414625D01*
X151461501Y-90531396D01*
X151461506Y-90531402D01*
X151628597Y-90698493D01*
X151628603Y-90698498D01*
X151814158Y-90828425D01*
X151857783Y-90883002D01*
X151864977Y-90952500D01*
X151833454Y-91014855D01*
X151814158Y-91031575D01*
X151628597Y-91161505D01*
X151461505Y-91328597D01*
X151325965Y-91522169D01*
X151325964Y-91522171D01*
X151226098Y-91736335D01*
X151226094Y-91736344D01*
X151164938Y-91964586D01*
X151164936Y-91964596D01*
X151144341Y-92199999D01*
X151144341Y-92200000D01*
X151164936Y-92435403D01*
X151164938Y-92435413D01*
X151226094Y-92663655D01*
X151226096Y-92663659D01*
X151226097Y-92663663D01*
X151298541Y-92819019D01*
X151325965Y-92877830D01*
X151325967Y-92877834D01*
X151461501Y-93071395D01*
X151461506Y-93071402D01*
X151628597Y-93238493D01*
X151628603Y-93238498D01*
X151814158Y-93368425D01*
X151857783Y-93423002D01*
X151864977Y-93492500D01*
X151833454Y-93554855D01*
X151814158Y-93571575D01*
X151628597Y-93701505D01*
X151461505Y-93868597D01*
X151325965Y-94062169D01*
X151325964Y-94062171D01*
X151226098Y-94276335D01*
X151226094Y-94276344D01*
X151164938Y-94504586D01*
X151164936Y-94504596D01*
X151144341Y-94739999D01*
X151144341Y-94740000D01*
X151164936Y-94975403D01*
X151164938Y-94975413D01*
X151226094Y-95203655D01*
X151226096Y-95203659D01*
X151226097Y-95203663D01*
X151274158Y-95306729D01*
X151325965Y-95417830D01*
X151325967Y-95417834D01*
X151376435Y-95489909D01*
X151461501Y-95611396D01*
X151461506Y-95611402D01*
X151628597Y-95778493D01*
X151628603Y-95778498D01*
X151814158Y-95908425D01*
X151857783Y-95963002D01*
X151864977Y-96032500D01*
X151833454Y-96094855D01*
X151814158Y-96111575D01*
X151628597Y-96241505D01*
X151461505Y-96408597D01*
X151325965Y-96602169D01*
X151325964Y-96602171D01*
X151226098Y-96816335D01*
X151226094Y-96816344D01*
X151164938Y-97044586D01*
X151164936Y-97044596D01*
X151144341Y-97279999D01*
X151144341Y-97280000D01*
X151164936Y-97515403D01*
X151164938Y-97515413D01*
X151226094Y-97743655D01*
X151226096Y-97743659D01*
X151226097Y-97743663D01*
X151272131Y-97842382D01*
X151325965Y-97957830D01*
X151325967Y-97957834D01*
X151461501Y-98151395D01*
X151461506Y-98151402D01*
X151628597Y-98318493D01*
X151628603Y-98318498D01*
X151814158Y-98448425D01*
X151857783Y-98503002D01*
X151864977Y-98572500D01*
X151833454Y-98634855D01*
X151814158Y-98651575D01*
X151628597Y-98781505D01*
X151461505Y-98948597D01*
X151325965Y-99142169D01*
X151325964Y-99142171D01*
X151226098Y-99356335D01*
X151226094Y-99356344D01*
X151164938Y-99584586D01*
X151164936Y-99584596D01*
X151144341Y-99819999D01*
X151144341Y-99820000D01*
X151164936Y-100055403D01*
X151164938Y-100055413D01*
X151226094Y-100283655D01*
X151226096Y-100283659D01*
X151226097Y-100283663D01*
X151296829Y-100435348D01*
X151325965Y-100497830D01*
X151325967Y-100497834D01*
X151461501Y-100691395D01*
X151461506Y-100691402D01*
X151628597Y-100858493D01*
X151628603Y-100858498D01*
X151814158Y-100988425D01*
X151857783Y-101043002D01*
X151864977Y-101112500D01*
X151833454Y-101174855D01*
X151814158Y-101191575D01*
X151628597Y-101321505D01*
X151461505Y-101488597D01*
X151325965Y-101682169D01*
X151325964Y-101682171D01*
X151226098Y-101896335D01*
X151226094Y-101896344D01*
X151164938Y-102124586D01*
X151164936Y-102124596D01*
X151144341Y-102359999D01*
X151144341Y-102360000D01*
X151164936Y-102595403D01*
X151164938Y-102595413D01*
X151226094Y-102823655D01*
X151226096Y-102823659D01*
X151226097Y-102823663D01*
X151280536Y-102940407D01*
X151325965Y-103037830D01*
X151325967Y-103037834D01*
X151461501Y-103231395D01*
X151461506Y-103231402D01*
X151628597Y-103398493D01*
X151628603Y-103398498D01*
X151814158Y-103528425D01*
X151857783Y-103583002D01*
X151864977Y-103652500D01*
X151833454Y-103714855D01*
X151814158Y-103731575D01*
X151628597Y-103861505D01*
X151461505Y-104028597D01*
X151325965Y-104222169D01*
X151325964Y-104222171D01*
X151226098Y-104436335D01*
X151226094Y-104436344D01*
X151164938Y-104664586D01*
X151164936Y-104664596D01*
X151144341Y-104899999D01*
X151144341Y-104900000D01*
X151164936Y-105135403D01*
X151164938Y-105135413D01*
X151226094Y-105363655D01*
X151226096Y-105363659D01*
X151226097Y-105363663D01*
X151287979Y-105496368D01*
X151325965Y-105577830D01*
X151325967Y-105577834D01*
X151461501Y-105771395D01*
X151461506Y-105771402D01*
X151628597Y-105938493D01*
X151628603Y-105938498D01*
X151814158Y-106068425D01*
X151857783Y-106123002D01*
X151864977Y-106192500D01*
X151833454Y-106254855D01*
X151814158Y-106271575D01*
X151628597Y-106401505D01*
X151461505Y-106568597D01*
X151325965Y-106762169D01*
X151325964Y-106762171D01*
X151226098Y-106976335D01*
X151226094Y-106976344D01*
X151164938Y-107204586D01*
X151164936Y-107204596D01*
X151144341Y-107439999D01*
X151144341Y-107440000D01*
X151164936Y-107675403D01*
X151164938Y-107675413D01*
X151226094Y-107903655D01*
X151226096Y-107903659D01*
X151226097Y-107903663D01*
X151288941Y-108038431D01*
X151325965Y-108117830D01*
X151325967Y-108117834D01*
X151461501Y-108311395D01*
X151461506Y-108311402D01*
X151628597Y-108478493D01*
X151628603Y-108478498D01*
X151814158Y-108608425D01*
X151857783Y-108663002D01*
X151864977Y-108732500D01*
X151833454Y-108794855D01*
X151814158Y-108811575D01*
X151628597Y-108941505D01*
X151461505Y-109108597D01*
X151325965Y-109302169D01*
X151325964Y-109302171D01*
X151243230Y-109479596D01*
X151226257Y-109515995D01*
X151226098Y-109516335D01*
X151226094Y-109516344D01*
X151164938Y-109744586D01*
X151164936Y-109744596D01*
X151144341Y-109979999D01*
X151144341Y-109980000D01*
X151164936Y-110215403D01*
X151164938Y-110215413D01*
X151226094Y-110443655D01*
X151226096Y-110443659D01*
X151226097Y-110443663D01*
X151310889Y-110625500D01*
X151325965Y-110657830D01*
X151325967Y-110657834D01*
X151461501Y-110851395D01*
X151461506Y-110851402D01*
X151628597Y-111018493D01*
X151628603Y-111018498D01*
X151814158Y-111148425D01*
X151857783Y-111203002D01*
X151864977Y-111272500D01*
X151833454Y-111334855D01*
X151814158Y-111351575D01*
X151628597Y-111481505D01*
X151461505Y-111648597D01*
X151325965Y-111842169D01*
X151325964Y-111842171D01*
X151226098Y-112056335D01*
X151226094Y-112056344D01*
X151164938Y-112284586D01*
X151164936Y-112284596D01*
X151144341Y-112519999D01*
X151144341Y-112520000D01*
X151164936Y-112755403D01*
X151164938Y-112755413D01*
X151226094Y-112983655D01*
X151226096Y-112983659D01*
X151226097Y-112983663D01*
X151325965Y-113197830D01*
X151325967Y-113197834D01*
X151461501Y-113391395D01*
X151461506Y-113391402D01*
X151628597Y-113558493D01*
X151628603Y-113558498D01*
X151814158Y-113688425D01*
X151857783Y-113743002D01*
X151864977Y-113812500D01*
X151833454Y-113874855D01*
X151814158Y-113891575D01*
X151628597Y-114021505D01*
X151461505Y-114188597D01*
X151325965Y-114382169D01*
X151325964Y-114382171D01*
X151226098Y-114596335D01*
X151226094Y-114596344D01*
X151164938Y-114824586D01*
X151164936Y-114824596D01*
X151144341Y-115059999D01*
X151144341Y-115060000D01*
X151164936Y-115295403D01*
X151164938Y-115295413D01*
X151226094Y-115523655D01*
X151226096Y-115523659D01*
X151226097Y-115523663D01*
X151325965Y-115737830D01*
X151325967Y-115737834D01*
X151461501Y-115931395D01*
X151461506Y-115931402D01*
X151628597Y-116098493D01*
X151628603Y-116098498D01*
X151814158Y-116228425D01*
X151857783Y-116283002D01*
X151864977Y-116352500D01*
X151833454Y-116414855D01*
X151814158Y-116431575D01*
X151628597Y-116561505D01*
X151461505Y-116728597D01*
X151325965Y-116922169D01*
X151325964Y-116922171D01*
X151226098Y-117136335D01*
X151226094Y-117136344D01*
X151164938Y-117364586D01*
X151164936Y-117364596D01*
X151144341Y-117599999D01*
X151144341Y-117600000D01*
X151164936Y-117835403D01*
X151164938Y-117835413D01*
X151226094Y-118063655D01*
X151226096Y-118063659D01*
X151226097Y-118063663D01*
X151325965Y-118277830D01*
X151325967Y-118277834D01*
X151461501Y-118471395D01*
X151461506Y-118471402D01*
X151628597Y-118638493D01*
X151628603Y-118638498D01*
X151814158Y-118768425D01*
X151857783Y-118823002D01*
X151864977Y-118892500D01*
X151833454Y-118954855D01*
X151814158Y-118971575D01*
X151628597Y-119101505D01*
X151461505Y-119268597D01*
X151325965Y-119462169D01*
X151325964Y-119462171D01*
X151226098Y-119676335D01*
X151226094Y-119676344D01*
X151164938Y-119904586D01*
X151164936Y-119904596D01*
X151144341Y-120139999D01*
X151144341Y-120140000D01*
X151164936Y-120375403D01*
X151164938Y-120375413D01*
X151226094Y-120603655D01*
X151226096Y-120603659D01*
X151226097Y-120603663D01*
X151325965Y-120817830D01*
X151325967Y-120817834D01*
X151461501Y-121011395D01*
X151461506Y-121011402D01*
X151628597Y-121178493D01*
X151628603Y-121178498D01*
X151814594Y-121308730D01*
X151858219Y-121363307D01*
X151865413Y-121432805D01*
X151833890Y-121495160D01*
X151814595Y-121511880D01*
X151628922Y-121641890D01*
X151628920Y-121641891D01*
X151461891Y-121808920D01*
X151461886Y-121808926D01*
X151326400Y-122002420D01*
X151326399Y-122002422D01*
X151226570Y-122216507D01*
X151226567Y-122216513D01*
X151169364Y-122429999D01*
X151169364Y-122430000D01*
X152066314Y-122430000D01*
X152040507Y-122470156D01*
X152000000Y-122608111D01*
X152000000Y-122751889D01*
X152040507Y-122889844D01*
X152066314Y-122930000D01*
X151169364Y-122930000D01*
X151226567Y-123143486D01*
X151226570Y-123143492D01*
X151326399Y-123357578D01*
X151461894Y-123551082D01*
X151628917Y-123718105D01*
X151814595Y-123848119D01*
X151858219Y-123902696D01*
X151865412Y-123972195D01*
X151833890Y-124034549D01*
X151814595Y-124051269D01*
X151628594Y-124181508D01*
X151461505Y-124348597D01*
X151325965Y-124542169D01*
X151325964Y-124542171D01*
X151226098Y-124756335D01*
X151226094Y-124756344D01*
X151164938Y-124984586D01*
X151164936Y-124984596D01*
X151144341Y-125219999D01*
X151144341Y-125220000D01*
X150000500Y-125220000D01*
X150000500Y-83051569D01*
X150020185Y-82984530D01*
X150036819Y-82963888D01*
X151963888Y-81036819D01*
X152025211Y-81003334D01*
X152051569Y-81000500D01*
X192875500Y-81000500D01*
X192942539Y-81020185D01*
G37*
%TD.AperFunction*%
%TD*%
M02*
