%TF.GenerationSoftware,KiCad,Pcbnew,7.0.10*%
%TF.CreationDate,2024-02-06T22:12:15+01:00*%
%TF.ProjectId,16M2164_Ersatz_SRAM,31364d32-3136-4345-9f45-727361747a5f,1*%
%TF.SameCoordinates,Original*%
%TF.FileFunction,Legend,Top*%
%TF.FilePolarity,Positive*%
%FSLAX46Y46*%
G04 Gerber Fmt 4.6, Leading zero omitted, Abs format (unit mm)*
G04 Created by KiCad (PCBNEW 7.0.10) date 2024-02-06 22:12:15*
%MOMM*%
%LPD*%
G01*
G04 APERTURE LIST*
%ADD10C,0.250000*%
%ADD11C,0.150000*%
%ADD12C,0.120000*%
G04 APERTURE END LIST*
D10*
X177250187Y-126559857D02*
X177321615Y-126512238D01*
X177321615Y-126512238D02*
X177464473Y-126464619D01*
X177464473Y-126464619D02*
X177821615Y-126464619D01*
X177821615Y-126464619D02*
X177964473Y-126512238D01*
X177964473Y-126512238D02*
X178035901Y-126559857D01*
X178035901Y-126559857D02*
X178107330Y-126655095D01*
X178107330Y-126655095D02*
X178107330Y-126750333D01*
X178107330Y-126750333D02*
X178035901Y-126893190D01*
X178035901Y-126893190D02*
X177178758Y-127464619D01*
X177178758Y-127464619D02*
X178107330Y-127464619D01*
X179821615Y-126417000D02*
X178535901Y-127702714D01*
X180250187Y-126559857D02*
X180321615Y-126512238D01*
X180321615Y-126512238D02*
X180464473Y-126464619D01*
X180464473Y-126464619D02*
X180821615Y-126464619D01*
X180821615Y-126464619D02*
X180964473Y-126512238D01*
X180964473Y-126512238D02*
X181035901Y-126559857D01*
X181035901Y-126559857D02*
X181107330Y-126655095D01*
X181107330Y-126655095D02*
X181107330Y-126750333D01*
X181107330Y-126750333D02*
X181035901Y-126893190D01*
X181035901Y-126893190D02*
X180178758Y-127464619D01*
X180178758Y-127464619D02*
X181107330Y-127464619D01*
X182035901Y-126464619D02*
X182178758Y-126464619D01*
X182178758Y-126464619D02*
X182321615Y-126512238D01*
X182321615Y-126512238D02*
X182393044Y-126559857D01*
X182393044Y-126559857D02*
X182464472Y-126655095D01*
X182464472Y-126655095D02*
X182535901Y-126845571D01*
X182535901Y-126845571D02*
X182535901Y-127083666D01*
X182535901Y-127083666D02*
X182464472Y-127274142D01*
X182464472Y-127274142D02*
X182393044Y-127369380D01*
X182393044Y-127369380D02*
X182321615Y-127417000D01*
X182321615Y-127417000D02*
X182178758Y-127464619D01*
X182178758Y-127464619D02*
X182035901Y-127464619D01*
X182035901Y-127464619D02*
X181893044Y-127417000D01*
X181893044Y-127417000D02*
X181821615Y-127369380D01*
X181821615Y-127369380D02*
X181750186Y-127274142D01*
X181750186Y-127274142D02*
X181678758Y-127083666D01*
X181678758Y-127083666D02*
X181678758Y-126845571D01*
X181678758Y-126845571D02*
X181750186Y-126655095D01*
X181750186Y-126655095D02*
X181821615Y-126559857D01*
X181821615Y-126559857D02*
X181893044Y-126512238D01*
X181893044Y-126512238D02*
X182035901Y-126464619D01*
X183107329Y-126559857D02*
X183178757Y-126512238D01*
X183178757Y-126512238D02*
X183321615Y-126464619D01*
X183321615Y-126464619D02*
X183678757Y-126464619D01*
X183678757Y-126464619D02*
X183821615Y-126512238D01*
X183821615Y-126512238D02*
X183893043Y-126559857D01*
X183893043Y-126559857D02*
X183964472Y-126655095D01*
X183964472Y-126655095D02*
X183964472Y-126750333D01*
X183964472Y-126750333D02*
X183893043Y-126893190D01*
X183893043Y-126893190D02*
X183035900Y-127464619D01*
X183035900Y-127464619D02*
X183964472Y-127464619D01*
X185250186Y-126797952D02*
X185250186Y-127464619D01*
X184893043Y-126417000D02*
X184535900Y-127131285D01*
X184535900Y-127131285D02*
X185464471Y-127131285D01*
X187178756Y-127464619D02*
X187178756Y-126464619D01*
X187178756Y-126845571D02*
X187321614Y-126797952D01*
X187321614Y-126797952D02*
X187607328Y-126797952D01*
X187607328Y-126797952D02*
X187750185Y-126845571D01*
X187750185Y-126845571D02*
X187821614Y-126893190D01*
X187821614Y-126893190D02*
X187893042Y-126988428D01*
X187893042Y-126988428D02*
X187893042Y-127274142D01*
X187893042Y-127274142D02*
X187821614Y-127369380D01*
X187821614Y-127369380D02*
X187750185Y-127417000D01*
X187750185Y-127417000D02*
X187607328Y-127464619D01*
X187607328Y-127464619D02*
X187321614Y-127464619D01*
X187321614Y-127464619D02*
X187178756Y-127417000D01*
X188750185Y-127464619D02*
X188607328Y-127417000D01*
X188607328Y-127417000D02*
X188535899Y-127369380D01*
X188535899Y-127369380D02*
X188464471Y-127274142D01*
X188464471Y-127274142D02*
X188464471Y-126988428D01*
X188464471Y-126988428D02*
X188535899Y-126893190D01*
X188535899Y-126893190D02*
X188607328Y-126845571D01*
X188607328Y-126845571D02*
X188750185Y-126797952D01*
X188750185Y-126797952D02*
X188964471Y-126797952D01*
X188964471Y-126797952D02*
X189107328Y-126845571D01*
X189107328Y-126845571D02*
X189178757Y-126893190D01*
X189178757Y-126893190D02*
X189250185Y-126988428D01*
X189250185Y-126988428D02*
X189250185Y-127274142D01*
X189250185Y-127274142D02*
X189178757Y-127369380D01*
X189178757Y-127369380D02*
X189107328Y-127417000D01*
X189107328Y-127417000D02*
X188964471Y-127464619D01*
X188964471Y-127464619D02*
X188750185Y-127464619D01*
X190464471Y-127417000D02*
X190321614Y-127464619D01*
X190321614Y-127464619D02*
X190035900Y-127464619D01*
X190035900Y-127464619D02*
X189893042Y-127417000D01*
X189893042Y-127417000D02*
X189821614Y-127321761D01*
X189821614Y-127321761D02*
X189821614Y-126940809D01*
X189821614Y-126940809D02*
X189893042Y-126845571D01*
X189893042Y-126845571D02*
X190035900Y-126797952D01*
X190035900Y-126797952D02*
X190321614Y-126797952D01*
X190321614Y-126797952D02*
X190464471Y-126845571D01*
X190464471Y-126845571D02*
X190535900Y-126940809D01*
X190535900Y-126940809D02*
X190535900Y-127036047D01*
X190535900Y-127036047D02*
X189821614Y-127131285D01*
X191178756Y-127464619D02*
X191178756Y-126797952D01*
X191178756Y-126988428D02*
X191250185Y-126893190D01*
X191250185Y-126893190D02*
X191321614Y-126845571D01*
X191321614Y-126845571D02*
X191464471Y-126797952D01*
X191464471Y-126797952D02*
X191607328Y-126797952D01*
X191893042Y-126797952D02*
X192464470Y-126797952D01*
X192107327Y-126464619D02*
X192107327Y-127321761D01*
X192107327Y-127321761D02*
X192178756Y-127417000D01*
X192178756Y-127417000D02*
X192321613Y-127464619D01*
X192321613Y-127464619D02*
X192464470Y-127464619D01*
X166407330Y-82294619D02*
X165550187Y-82294619D01*
X165978758Y-82294619D02*
X165978758Y-81294619D01*
X165978758Y-81294619D02*
X165835901Y-81437476D01*
X165835901Y-81437476D02*
X165693044Y-81532714D01*
X165693044Y-81532714D02*
X165550187Y-81580333D01*
X167693044Y-81294619D02*
X167407329Y-81294619D01*
X167407329Y-81294619D02*
X167264472Y-81342238D01*
X167264472Y-81342238D02*
X167193044Y-81389857D01*
X167193044Y-81389857D02*
X167050186Y-81532714D01*
X167050186Y-81532714D02*
X166978758Y-81723190D01*
X166978758Y-81723190D02*
X166978758Y-82104142D01*
X166978758Y-82104142D02*
X167050186Y-82199380D01*
X167050186Y-82199380D02*
X167121615Y-82247000D01*
X167121615Y-82247000D02*
X167264472Y-82294619D01*
X167264472Y-82294619D02*
X167550186Y-82294619D01*
X167550186Y-82294619D02*
X167693044Y-82247000D01*
X167693044Y-82247000D02*
X167764472Y-82199380D01*
X167764472Y-82199380D02*
X167835901Y-82104142D01*
X167835901Y-82104142D02*
X167835901Y-81866047D01*
X167835901Y-81866047D02*
X167764472Y-81770809D01*
X167764472Y-81770809D02*
X167693044Y-81723190D01*
X167693044Y-81723190D02*
X167550186Y-81675571D01*
X167550186Y-81675571D02*
X167264472Y-81675571D01*
X167264472Y-81675571D02*
X167121615Y-81723190D01*
X167121615Y-81723190D02*
X167050186Y-81770809D01*
X167050186Y-81770809D02*
X166978758Y-81866047D01*
X168478757Y-82294619D02*
X168478757Y-81294619D01*
X168478757Y-81294619D02*
X168978757Y-82008904D01*
X168978757Y-82008904D02*
X169478757Y-81294619D01*
X169478757Y-81294619D02*
X169478757Y-82294619D01*
X170121615Y-81389857D02*
X170193043Y-81342238D01*
X170193043Y-81342238D02*
X170335901Y-81294619D01*
X170335901Y-81294619D02*
X170693043Y-81294619D01*
X170693043Y-81294619D02*
X170835901Y-81342238D01*
X170835901Y-81342238D02*
X170907329Y-81389857D01*
X170907329Y-81389857D02*
X170978758Y-81485095D01*
X170978758Y-81485095D02*
X170978758Y-81580333D01*
X170978758Y-81580333D02*
X170907329Y-81723190D01*
X170907329Y-81723190D02*
X170050186Y-82294619D01*
X170050186Y-82294619D02*
X170978758Y-82294619D01*
X172407329Y-82294619D02*
X171550186Y-82294619D01*
X171978757Y-82294619D02*
X171978757Y-81294619D01*
X171978757Y-81294619D02*
X171835900Y-81437476D01*
X171835900Y-81437476D02*
X171693043Y-81532714D01*
X171693043Y-81532714D02*
X171550186Y-81580333D01*
X173693043Y-81294619D02*
X173407328Y-81294619D01*
X173407328Y-81294619D02*
X173264471Y-81342238D01*
X173264471Y-81342238D02*
X173193043Y-81389857D01*
X173193043Y-81389857D02*
X173050185Y-81532714D01*
X173050185Y-81532714D02*
X172978757Y-81723190D01*
X172978757Y-81723190D02*
X172978757Y-82104142D01*
X172978757Y-82104142D02*
X173050185Y-82199380D01*
X173050185Y-82199380D02*
X173121614Y-82247000D01*
X173121614Y-82247000D02*
X173264471Y-82294619D01*
X173264471Y-82294619D02*
X173550185Y-82294619D01*
X173550185Y-82294619D02*
X173693043Y-82247000D01*
X173693043Y-82247000D02*
X173764471Y-82199380D01*
X173764471Y-82199380D02*
X173835900Y-82104142D01*
X173835900Y-82104142D02*
X173835900Y-81866047D01*
X173835900Y-81866047D02*
X173764471Y-81770809D01*
X173764471Y-81770809D02*
X173693043Y-81723190D01*
X173693043Y-81723190D02*
X173550185Y-81675571D01*
X173550185Y-81675571D02*
X173264471Y-81675571D01*
X173264471Y-81675571D02*
X173121614Y-81723190D01*
X173121614Y-81723190D02*
X173050185Y-81770809D01*
X173050185Y-81770809D02*
X172978757Y-81866047D01*
X175121614Y-81627952D02*
X175121614Y-82294619D01*
X174764471Y-81247000D02*
X174407328Y-81961285D01*
X174407328Y-81961285D02*
X175335899Y-81961285D01*
X175907327Y-81913666D02*
X177050185Y-81913666D01*
X177764470Y-81770809D02*
X178264470Y-81770809D01*
X178478756Y-82294619D02*
X177764470Y-82294619D01*
X177764470Y-82294619D02*
X177764470Y-81294619D01*
X177764470Y-81294619D02*
X178478756Y-81294619D01*
X179121613Y-82294619D02*
X179121613Y-81627952D01*
X179121613Y-81818428D02*
X179193042Y-81723190D01*
X179193042Y-81723190D02*
X179264471Y-81675571D01*
X179264471Y-81675571D02*
X179407328Y-81627952D01*
X179407328Y-81627952D02*
X179550185Y-81627952D01*
X179978756Y-82247000D02*
X180121613Y-82294619D01*
X180121613Y-82294619D02*
X180407327Y-82294619D01*
X180407327Y-82294619D02*
X180550184Y-82247000D01*
X180550184Y-82247000D02*
X180621613Y-82151761D01*
X180621613Y-82151761D02*
X180621613Y-82104142D01*
X180621613Y-82104142D02*
X180550184Y-82008904D01*
X180550184Y-82008904D02*
X180407327Y-81961285D01*
X180407327Y-81961285D02*
X180193042Y-81961285D01*
X180193042Y-81961285D02*
X180050184Y-81913666D01*
X180050184Y-81913666D02*
X179978756Y-81818428D01*
X179978756Y-81818428D02*
X179978756Y-81770809D01*
X179978756Y-81770809D02*
X180050184Y-81675571D01*
X180050184Y-81675571D02*
X180193042Y-81627952D01*
X180193042Y-81627952D02*
X180407327Y-81627952D01*
X180407327Y-81627952D02*
X180550184Y-81675571D01*
X181907328Y-82294619D02*
X181907328Y-81770809D01*
X181907328Y-81770809D02*
X181835899Y-81675571D01*
X181835899Y-81675571D02*
X181693042Y-81627952D01*
X181693042Y-81627952D02*
X181407328Y-81627952D01*
X181407328Y-81627952D02*
X181264470Y-81675571D01*
X181907328Y-82247000D02*
X181764470Y-82294619D01*
X181764470Y-82294619D02*
X181407328Y-82294619D01*
X181407328Y-82294619D02*
X181264470Y-82247000D01*
X181264470Y-82247000D02*
X181193042Y-82151761D01*
X181193042Y-82151761D02*
X181193042Y-82056523D01*
X181193042Y-82056523D02*
X181264470Y-81961285D01*
X181264470Y-81961285D02*
X181407328Y-81913666D01*
X181407328Y-81913666D02*
X181764470Y-81913666D01*
X181764470Y-81913666D02*
X181907328Y-81866047D01*
X182407328Y-81627952D02*
X182978756Y-81627952D01*
X182621613Y-81294619D02*
X182621613Y-82151761D01*
X182621613Y-82151761D02*
X182693042Y-82247000D01*
X182693042Y-82247000D02*
X182835899Y-82294619D01*
X182835899Y-82294619D02*
X182978756Y-82294619D01*
X183335899Y-81627952D02*
X184121614Y-81627952D01*
X184121614Y-81627952D02*
X183335899Y-82294619D01*
X183335899Y-82294619D02*
X184121614Y-82294619D01*
X184693042Y-81627952D02*
X184693042Y-82627952D01*
X184693042Y-81675571D02*
X184835900Y-81627952D01*
X184835900Y-81627952D02*
X185121614Y-81627952D01*
X185121614Y-81627952D02*
X185264471Y-81675571D01*
X185264471Y-81675571D02*
X185335900Y-81723190D01*
X185335900Y-81723190D02*
X185407328Y-81818428D01*
X185407328Y-81818428D02*
X185407328Y-82104142D01*
X185407328Y-82104142D02*
X185335900Y-82199380D01*
X185335900Y-82199380D02*
X185264471Y-82247000D01*
X185264471Y-82247000D02*
X185121614Y-82294619D01*
X185121614Y-82294619D02*
X184835900Y-82294619D01*
X184835900Y-82294619D02*
X184693042Y-82247000D01*
X186264471Y-82294619D02*
X186121614Y-82247000D01*
X186121614Y-82247000D02*
X186050185Y-82151761D01*
X186050185Y-82151761D02*
X186050185Y-81294619D01*
X187478757Y-82294619D02*
X187478757Y-81770809D01*
X187478757Y-81770809D02*
X187407328Y-81675571D01*
X187407328Y-81675571D02*
X187264471Y-81627952D01*
X187264471Y-81627952D02*
X186978757Y-81627952D01*
X186978757Y-81627952D02*
X186835899Y-81675571D01*
X187478757Y-82247000D02*
X187335899Y-82294619D01*
X187335899Y-82294619D02*
X186978757Y-82294619D01*
X186978757Y-82294619D02*
X186835899Y-82247000D01*
X186835899Y-82247000D02*
X186764471Y-82151761D01*
X186764471Y-82151761D02*
X186764471Y-82056523D01*
X186764471Y-82056523D02*
X186835899Y-81961285D01*
X186835899Y-81961285D02*
X186978757Y-81913666D01*
X186978757Y-81913666D02*
X187335899Y-81913666D01*
X187335899Y-81913666D02*
X187478757Y-81866047D01*
X187978757Y-81627952D02*
X188550185Y-81627952D01*
X188193042Y-81294619D02*
X188193042Y-82151761D01*
X188193042Y-82151761D02*
X188264471Y-82247000D01*
X188264471Y-82247000D02*
X188407328Y-82294619D01*
X188407328Y-82294619D02*
X188550185Y-82294619D01*
X189050185Y-82294619D02*
X189050185Y-81627952D01*
X189050185Y-81294619D02*
X188978757Y-81342238D01*
X188978757Y-81342238D02*
X189050185Y-81389857D01*
X189050185Y-81389857D02*
X189121614Y-81342238D01*
X189121614Y-81342238D02*
X189050185Y-81294619D01*
X189050185Y-81294619D02*
X189050185Y-81389857D01*
X189764471Y-81627952D02*
X189764471Y-82294619D01*
X189764471Y-81723190D02*
X189835900Y-81675571D01*
X189835900Y-81675571D02*
X189978757Y-81627952D01*
X189978757Y-81627952D02*
X190193043Y-81627952D01*
X190193043Y-81627952D02*
X190335900Y-81675571D01*
X190335900Y-81675571D02*
X190407329Y-81770809D01*
X190407329Y-81770809D02*
X190407329Y-82294619D01*
X191693043Y-82247000D02*
X191550186Y-82294619D01*
X191550186Y-82294619D02*
X191264472Y-82294619D01*
X191264472Y-82294619D02*
X191121614Y-82247000D01*
X191121614Y-82247000D02*
X191050186Y-82151761D01*
X191050186Y-82151761D02*
X191050186Y-81770809D01*
X191050186Y-81770809D02*
X191121614Y-81675571D01*
X191121614Y-81675571D02*
X191264472Y-81627952D01*
X191264472Y-81627952D02*
X191550186Y-81627952D01*
X191550186Y-81627952D02*
X191693043Y-81675571D01*
X191693043Y-81675571D02*
X191764472Y-81770809D01*
X191764472Y-81770809D02*
X191764472Y-81866047D01*
X191764472Y-81866047D02*
X191050186Y-81961285D01*
D11*
X174978628Y-106615602D02*
X174978628Y-106901316D01*
X174978628Y-106901316D02*
X175050057Y-107044173D01*
X175050057Y-107044173D02*
X175121485Y-107115602D01*
X175121485Y-107115602D02*
X175335771Y-107258459D01*
X175335771Y-107258459D02*
X175621485Y-107329887D01*
X175621485Y-107329887D02*
X176192914Y-107329887D01*
X176192914Y-107329887D02*
X176335771Y-107258459D01*
X176335771Y-107258459D02*
X176407200Y-107187030D01*
X176407200Y-107187030D02*
X176478628Y-107044173D01*
X176478628Y-107044173D02*
X176478628Y-106758459D01*
X176478628Y-106758459D02*
X176407200Y-106615602D01*
X176407200Y-106615602D02*
X176335771Y-106544173D01*
X176335771Y-106544173D02*
X176192914Y-106472744D01*
X176192914Y-106472744D02*
X175835771Y-106472744D01*
X175835771Y-106472744D02*
X175692914Y-106544173D01*
X175692914Y-106544173D02*
X175621485Y-106615602D01*
X175621485Y-106615602D02*
X175550057Y-106758459D01*
X175550057Y-106758459D02*
X175550057Y-107044173D01*
X175550057Y-107044173D02*
X175621485Y-107187030D01*
X175621485Y-107187030D02*
X175692914Y-107258459D01*
X175692914Y-107258459D02*
X175835771Y-107329887D01*
X175121485Y-105901316D02*
X175050057Y-105829888D01*
X175050057Y-105829888D02*
X174978628Y-105687031D01*
X174978628Y-105687031D02*
X174978628Y-105329888D01*
X174978628Y-105329888D02*
X175050057Y-105187031D01*
X175050057Y-105187031D02*
X175121485Y-105115602D01*
X175121485Y-105115602D02*
X175264342Y-105044173D01*
X175264342Y-105044173D02*
X175407200Y-105044173D01*
X175407200Y-105044173D02*
X175621485Y-105115602D01*
X175621485Y-105115602D02*
X176478628Y-105972745D01*
X176478628Y-105972745D02*
X176478628Y-105044173D01*
X176478628Y-103615602D02*
X176478628Y-104472745D01*
X176478628Y-104044174D02*
X174978628Y-104044174D01*
X174978628Y-104044174D02*
X175192914Y-104187031D01*
X175192914Y-104187031D02*
X175335771Y-104329888D01*
X175335771Y-104329888D02*
X175407200Y-104472745D01*
X175121485Y-103044174D02*
X175050057Y-102972746D01*
X175050057Y-102972746D02*
X174978628Y-102829889D01*
X174978628Y-102829889D02*
X174978628Y-102472746D01*
X174978628Y-102472746D02*
X175050057Y-102329889D01*
X175050057Y-102329889D02*
X175121485Y-102258460D01*
X175121485Y-102258460D02*
X175264342Y-102187031D01*
X175264342Y-102187031D02*
X175407200Y-102187031D01*
X175407200Y-102187031D02*
X175621485Y-102258460D01*
X175621485Y-102258460D02*
X176478628Y-103115603D01*
X176478628Y-103115603D02*
X176478628Y-102187031D01*
X175621485Y-101329889D02*
X175550057Y-101472746D01*
X175550057Y-101472746D02*
X175478628Y-101544175D01*
X175478628Y-101544175D02*
X175335771Y-101615603D01*
X175335771Y-101615603D02*
X175264342Y-101615603D01*
X175264342Y-101615603D02*
X175121485Y-101544175D01*
X175121485Y-101544175D02*
X175050057Y-101472746D01*
X175050057Y-101472746D02*
X174978628Y-101329889D01*
X174978628Y-101329889D02*
X174978628Y-101044175D01*
X174978628Y-101044175D02*
X175050057Y-100901318D01*
X175050057Y-100901318D02*
X175121485Y-100829889D01*
X175121485Y-100829889D02*
X175264342Y-100758460D01*
X175264342Y-100758460D02*
X175335771Y-100758460D01*
X175335771Y-100758460D02*
X175478628Y-100829889D01*
X175478628Y-100829889D02*
X175550057Y-100901318D01*
X175550057Y-100901318D02*
X175621485Y-101044175D01*
X175621485Y-101044175D02*
X175621485Y-101329889D01*
X175621485Y-101329889D02*
X175692914Y-101472746D01*
X175692914Y-101472746D02*
X175764342Y-101544175D01*
X175764342Y-101544175D02*
X175907200Y-101615603D01*
X175907200Y-101615603D02*
X176192914Y-101615603D01*
X176192914Y-101615603D02*
X176335771Y-101544175D01*
X176335771Y-101544175D02*
X176407200Y-101472746D01*
X176407200Y-101472746D02*
X176478628Y-101329889D01*
X176478628Y-101329889D02*
X176478628Y-101044175D01*
X176478628Y-101044175D02*
X176407200Y-100901318D01*
X176407200Y-100901318D02*
X176335771Y-100829889D01*
X176335771Y-100829889D02*
X176192914Y-100758460D01*
X176192914Y-100758460D02*
X175907200Y-100758460D01*
X175907200Y-100758460D02*
X175764342Y-100829889D01*
X175764342Y-100829889D02*
X175692914Y-100901318D01*
X175692914Y-100901318D02*
X175621485Y-101044175D01*
X178893628Y-108758458D02*
X178893628Y-109615601D01*
X178893628Y-109187030D02*
X177393628Y-109187030D01*
X177393628Y-109187030D02*
X177607914Y-109329887D01*
X177607914Y-109329887D02*
X177750771Y-109472744D01*
X177750771Y-109472744D02*
X177822200Y-109615601D01*
X177536485Y-108187030D02*
X177465057Y-108115602D01*
X177465057Y-108115602D02*
X177393628Y-107972745D01*
X177393628Y-107972745D02*
X177393628Y-107615602D01*
X177393628Y-107615602D02*
X177465057Y-107472745D01*
X177465057Y-107472745D02*
X177536485Y-107401316D01*
X177536485Y-107401316D02*
X177679342Y-107329887D01*
X177679342Y-107329887D02*
X177822200Y-107329887D01*
X177822200Y-107329887D02*
X178036485Y-107401316D01*
X178036485Y-107401316D02*
X178893628Y-108258459D01*
X178893628Y-108258459D02*
X178893628Y-107329887D01*
X178036485Y-106472745D02*
X177965057Y-106615602D01*
X177965057Y-106615602D02*
X177893628Y-106687031D01*
X177893628Y-106687031D02*
X177750771Y-106758459D01*
X177750771Y-106758459D02*
X177679342Y-106758459D01*
X177679342Y-106758459D02*
X177536485Y-106687031D01*
X177536485Y-106687031D02*
X177465057Y-106615602D01*
X177465057Y-106615602D02*
X177393628Y-106472745D01*
X177393628Y-106472745D02*
X177393628Y-106187031D01*
X177393628Y-106187031D02*
X177465057Y-106044174D01*
X177465057Y-106044174D02*
X177536485Y-105972745D01*
X177536485Y-105972745D02*
X177679342Y-105901316D01*
X177679342Y-105901316D02*
X177750771Y-105901316D01*
X177750771Y-105901316D02*
X177893628Y-105972745D01*
X177893628Y-105972745D02*
X177965057Y-106044174D01*
X177965057Y-106044174D02*
X178036485Y-106187031D01*
X178036485Y-106187031D02*
X178036485Y-106472745D01*
X178036485Y-106472745D02*
X178107914Y-106615602D01*
X178107914Y-106615602D02*
X178179342Y-106687031D01*
X178179342Y-106687031D02*
X178322200Y-106758459D01*
X178322200Y-106758459D02*
X178607914Y-106758459D01*
X178607914Y-106758459D02*
X178750771Y-106687031D01*
X178750771Y-106687031D02*
X178822200Y-106615602D01*
X178822200Y-106615602D02*
X178893628Y-106472745D01*
X178893628Y-106472745D02*
X178893628Y-106187031D01*
X178893628Y-106187031D02*
X178822200Y-106044174D01*
X178822200Y-106044174D02*
X178750771Y-105972745D01*
X178750771Y-105972745D02*
X178607914Y-105901316D01*
X178607914Y-105901316D02*
X178322200Y-105901316D01*
X178322200Y-105901316D02*
X178179342Y-105972745D01*
X178179342Y-105972745D02*
X178107914Y-106044174D01*
X178107914Y-106044174D02*
X178036485Y-106187031D01*
X178893628Y-105258460D02*
X177393628Y-105258460D01*
X178322200Y-105115603D02*
X178893628Y-104687031D01*
X177893628Y-104687031D02*
X178465057Y-105258460D01*
X178893628Y-103044174D02*
X177893628Y-102258460D01*
X177893628Y-103044174D02*
X178893628Y-102258460D01*
X178036485Y-100329888D02*
X177965057Y-100472745D01*
X177965057Y-100472745D02*
X177893628Y-100544174D01*
X177893628Y-100544174D02*
X177750771Y-100615602D01*
X177750771Y-100615602D02*
X177679342Y-100615602D01*
X177679342Y-100615602D02*
X177536485Y-100544174D01*
X177536485Y-100544174D02*
X177465057Y-100472745D01*
X177465057Y-100472745D02*
X177393628Y-100329888D01*
X177393628Y-100329888D02*
X177393628Y-100044174D01*
X177393628Y-100044174D02*
X177465057Y-99901317D01*
X177465057Y-99901317D02*
X177536485Y-99829888D01*
X177536485Y-99829888D02*
X177679342Y-99758459D01*
X177679342Y-99758459D02*
X177750771Y-99758459D01*
X177750771Y-99758459D02*
X177893628Y-99829888D01*
X177893628Y-99829888D02*
X177965057Y-99901317D01*
X177965057Y-99901317D02*
X178036485Y-100044174D01*
X178036485Y-100044174D02*
X178036485Y-100329888D01*
X178036485Y-100329888D02*
X178107914Y-100472745D01*
X178107914Y-100472745D02*
X178179342Y-100544174D01*
X178179342Y-100544174D02*
X178322200Y-100615602D01*
X178322200Y-100615602D02*
X178607914Y-100615602D01*
X178607914Y-100615602D02*
X178750771Y-100544174D01*
X178750771Y-100544174D02*
X178822200Y-100472745D01*
X178822200Y-100472745D02*
X178893628Y-100329888D01*
X178893628Y-100329888D02*
X178893628Y-100044174D01*
X178893628Y-100044174D02*
X178822200Y-99901317D01*
X178822200Y-99901317D02*
X178750771Y-99829888D01*
X178750771Y-99829888D02*
X178607914Y-99758459D01*
X178607914Y-99758459D02*
X178322200Y-99758459D01*
X178322200Y-99758459D02*
X178179342Y-99829888D01*
X178179342Y-99829888D02*
X178107914Y-99901317D01*
X178107914Y-99901317D02*
X178036485Y-100044174D01*
X178893628Y-99115603D02*
X177393628Y-99115603D01*
X177965057Y-99115603D02*
X177893628Y-98972746D01*
X177893628Y-98972746D02*
X177893628Y-98687031D01*
X177893628Y-98687031D02*
X177965057Y-98544174D01*
X177965057Y-98544174D02*
X178036485Y-98472746D01*
X178036485Y-98472746D02*
X178179342Y-98401317D01*
X178179342Y-98401317D02*
X178607914Y-98401317D01*
X178607914Y-98401317D02*
X178750771Y-98472746D01*
X178750771Y-98472746D02*
X178822200Y-98544174D01*
X178822200Y-98544174D02*
X178893628Y-98687031D01*
X178893628Y-98687031D02*
X178893628Y-98972746D01*
X178893628Y-98972746D02*
X178822200Y-99115603D01*
X178893628Y-97758460D02*
X177893628Y-97758460D01*
X177393628Y-97758460D02*
X177465057Y-97829888D01*
X177465057Y-97829888D02*
X177536485Y-97758460D01*
X177536485Y-97758460D02*
X177465057Y-97687031D01*
X177465057Y-97687031D02*
X177393628Y-97758460D01*
X177393628Y-97758460D02*
X177536485Y-97758460D01*
X177893628Y-97258459D02*
X177893628Y-96687031D01*
X177393628Y-97044174D02*
X178679342Y-97044174D01*
X178679342Y-97044174D02*
X178822200Y-96972745D01*
X178822200Y-96972745D02*
X178893628Y-96829888D01*
X178893628Y-96829888D02*
X178893628Y-96687031D01*
X181237200Y-107329887D02*
X181308628Y-107115602D01*
X181308628Y-107115602D02*
X181308628Y-106758459D01*
X181308628Y-106758459D02*
X181237200Y-106615602D01*
X181237200Y-106615602D02*
X181165771Y-106544173D01*
X181165771Y-106544173D02*
X181022914Y-106472744D01*
X181022914Y-106472744D02*
X180880057Y-106472744D01*
X180880057Y-106472744D02*
X180737200Y-106544173D01*
X180737200Y-106544173D02*
X180665771Y-106615602D01*
X180665771Y-106615602D02*
X180594342Y-106758459D01*
X180594342Y-106758459D02*
X180522914Y-107044173D01*
X180522914Y-107044173D02*
X180451485Y-107187030D01*
X180451485Y-107187030D02*
X180380057Y-107258459D01*
X180380057Y-107258459D02*
X180237200Y-107329887D01*
X180237200Y-107329887D02*
X180094342Y-107329887D01*
X180094342Y-107329887D02*
X179951485Y-107258459D01*
X179951485Y-107258459D02*
X179880057Y-107187030D01*
X179880057Y-107187030D02*
X179808628Y-107044173D01*
X179808628Y-107044173D02*
X179808628Y-106687030D01*
X179808628Y-106687030D02*
X179880057Y-106472744D01*
X181308628Y-104972745D02*
X180594342Y-105472745D01*
X181308628Y-105829888D02*
X179808628Y-105829888D01*
X179808628Y-105829888D02*
X179808628Y-105258459D01*
X179808628Y-105258459D02*
X179880057Y-105115602D01*
X179880057Y-105115602D02*
X179951485Y-105044173D01*
X179951485Y-105044173D02*
X180094342Y-104972745D01*
X180094342Y-104972745D02*
X180308628Y-104972745D01*
X180308628Y-104972745D02*
X180451485Y-105044173D01*
X180451485Y-105044173D02*
X180522914Y-105115602D01*
X180522914Y-105115602D02*
X180594342Y-105258459D01*
X180594342Y-105258459D02*
X180594342Y-105829888D01*
X180880057Y-104401316D02*
X180880057Y-103687031D01*
X181308628Y-104544173D02*
X179808628Y-104044173D01*
X179808628Y-104044173D02*
X181308628Y-103544173D01*
X181308628Y-103044174D02*
X179808628Y-103044174D01*
X179808628Y-103044174D02*
X180880057Y-102544174D01*
X180880057Y-102544174D02*
X179808628Y-102044174D01*
X179808628Y-102044174D02*
X181308628Y-102044174D01*
X161808628Y-117044173D02*
X160308628Y-117044173D01*
X160308628Y-117044173D02*
X160308628Y-116687030D01*
X160308628Y-116687030D02*
X160380057Y-116472744D01*
X160380057Y-116472744D02*
X160522914Y-116329887D01*
X160522914Y-116329887D02*
X160665771Y-116258458D01*
X160665771Y-116258458D02*
X160951485Y-116187030D01*
X160951485Y-116187030D02*
X161165771Y-116187030D01*
X161165771Y-116187030D02*
X161451485Y-116258458D01*
X161451485Y-116258458D02*
X161594342Y-116329887D01*
X161594342Y-116329887D02*
X161737200Y-116472744D01*
X161737200Y-116472744D02*
X161808628Y-116687030D01*
X161808628Y-116687030D02*
X161808628Y-117044173D01*
X161808628Y-114829887D02*
X161808628Y-115544173D01*
X161808628Y-115544173D02*
X160308628Y-115544173D01*
X160308628Y-114472744D02*
X160308628Y-113544172D01*
X160308628Y-113544172D02*
X160880057Y-114044172D01*
X160880057Y-114044172D02*
X160880057Y-113829887D01*
X160880057Y-113829887D02*
X160951485Y-113687030D01*
X160951485Y-113687030D02*
X161022914Y-113615601D01*
X161022914Y-113615601D02*
X161165771Y-113544172D01*
X161165771Y-113544172D02*
X161522914Y-113544172D01*
X161522914Y-113544172D02*
X161665771Y-113615601D01*
X161665771Y-113615601D02*
X161737200Y-113687030D01*
X161737200Y-113687030D02*
X161808628Y-113829887D01*
X161808628Y-113829887D02*
X161808628Y-114258458D01*
X161808628Y-114258458D02*
X161737200Y-114401315D01*
X161737200Y-114401315D02*
X161665771Y-114472744D01*
X160308628Y-113044173D02*
X160308628Y-112044173D01*
X160308628Y-112044173D02*
X161808628Y-112687030D01*
X160808628Y-110829888D02*
X161808628Y-110829888D01*
X160237200Y-111187030D02*
X161308628Y-111544173D01*
X161308628Y-111544173D02*
X161308628Y-110615602D01*
X161808628Y-110044174D02*
X160308628Y-110044174D01*
X160308628Y-110044174D02*
X160308628Y-109687031D01*
X160308628Y-109687031D02*
X160380057Y-109472745D01*
X160380057Y-109472745D02*
X160522914Y-109329888D01*
X160522914Y-109329888D02*
X160665771Y-109258459D01*
X160665771Y-109258459D02*
X160951485Y-109187031D01*
X160951485Y-109187031D02*
X161165771Y-109187031D01*
X161165771Y-109187031D02*
X161451485Y-109258459D01*
X161451485Y-109258459D02*
X161594342Y-109329888D01*
X161594342Y-109329888D02*
X161737200Y-109472745D01*
X161737200Y-109472745D02*
X161808628Y-109687031D01*
X161808628Y-109687031D02*
X161808628Y-110044174D01*
X161808628Y-95044173D02*
X160308628Y-95044173D01*
X160308628Y-95044173D02*
X160308628Y-94687030D01*
X160308628Y-94687030D02*
X160380057Y-94472744D01*
X160380057Y-94472744D02*
X160522914Y-94329887D01*
X160522914Y-94329887D02*
X160665771Y-94258458D01*
X160665771Y-94258458D02*
X160951485Y-94187030D01*
X160951485Y-94187030D02*
X161165771Y-94187030D01*
X161165771Y-94187030D02*
X161451485Y-94258458D01*
X161451485Y-94258458D02*
X161594342Y-94329887D01*
X161594342Y-94329887D02*
X161737200Y-94472744D01*
X161737200Y-94472744D02*
X161808628Y-94687030D01*
X161808628Y-94687030D02*
X161808628Y-95044173D01*
X161808628Y-92829887D02*
X161808628Y-93544173D01*
X161808628Y-93544173D02*
X160308628Y-93544173D01*
X160308628Y-92044172D02*
X160308628Y-91901315D01*
X160308628Y-91901315D02*
X160380057Y-91758458D01*
X160380057Y-91758458D02*
X160451485Y-91687030D01*
X160451485Y-91687030D02*
X160594342Y-91615601D01*
X160594342Y-91615601D02*
X160880057Y-91544172D01*
X160880057Y-91544172D02*
X161237200Y-91544172D01*
X161237200Y-91544172D02*
X161522914Y-91615601D01*
X161522914Y-91615601D02*
X161665771Y-91687030D01*
X161665771Y-91687030D02*
X161737200Y-91758458D01*
X161737200Y-91758458D02*
X161808628Y-91901315D01*
X161808628Y-91901315D02*
X161808628Y-92044172D01*
X161808628Y-92044172D02*
X161737200Y-92187030D01*
X161737200Y-92187030D02*
X161665771Y-92258458D01*
X161665771Y-92258458D02*
X161522914Y-92329887D01*
X161522914Y-92329887D02*
X161237200Y-92401315D01*
X161237200Y-92401315D02*
X160880057Y-92401315D01*
X160880057Y-92401315D02*
X160594342Y-92329887D01*
X160594342Y-92329887D02*
X160451485Y-92258458D01*
X160451485Y-92258458D02*
X160380057Y-92187030D01*
X160380057Y-92187030D02*
X160308628Y-92044172D01*
X160308628Y-90615601D02*
X160308628Y-90472744D01*
X160308628Y-90472744D02*
X160380057Y-90329887D01*
X160380057Y-90329887D02*
X160451485Y-90258459D01*
X160451485Y-90258459D02*
X160594342Y-90187030D01*
X160594342Y-90187030D02*
X160880057Y-90115601D01*
X160880057Y-90115601D02*
X161237200Y-90115601D01*
X161237200Y-90115601D02*
X161522914Y-90187030D01*
X161522914Y-90187030D02*
X161665771Y-90258459D01*
X161665771Y-90258459D02*
X161737200Y-90329887D01*
X161737200Y-90329887D02*
X161808628Y-90472744D01*
X161808628Y-90472744D02*
X161808628Y-90615601D01*
X161808628Y-90615601D02*
X161737200Y-90758459D01*
X161737200Y-90758459D02*
X161665771Y-90829887D01*
X161665771Y-90829887D02*
X161522914Y-90901316D01*
X161522914Y-90901316D02*
X161237200Y-90972744D01*
X161237200Y-90972744D02*
X160880057Y-90972744D01*
X160880057Y-90972744D02*
X160594342Y-90901316D01*
X160594342Y-90901316D02*
X160451485Y-90829887D01*
X160451485Y-90829887D02*
X160380057Y-90758459D01*
X160380057Y-90758459D02*
X160308628Y-90615601D01*
X160308628Y-89187030D02*
X160308628Y-89044173D01*
X160308628Y-89044173D02*
X160380057Y-88901316D01*
X160380057Y-88901316D02*
X160451485Y-88829888D01*
X160451485Y-88829888D02*
X160594342Y-88758459D01*
X160594342Y-88758459D02*
X160880057Y-88687030D01*
X160880057Y-88687030D02*
X161237200Y-88687030D01*
X161237200Y-88687030D02*
X161522914Y-88758459D01*
X161522914Y-88758459D02*
X161665771Y-88829888D01*
X161665771Y-88829888D02*
X161737200Y-88901316D01*
X161737200Y-88901316D02*
X161808628Y-89044173D01*
X161808628Y-89044173D02*
X161808628Y-89187030D01*
X161808628Y-89187030D02*
X161737200Y-89329888D01*
X161737200Y-89329888D02*
X161665771Y-89401316D01*
X161665771Y-89401316D02*
X161522914Y-89472745D01*
X161522914Y-89472745D02*
X161237200Y-89544173D01*
X161237200Y-89544173D02*
X160880057Y-89544173D01*
X160880057Y-89544173D02*
X160594342Y-89472745D01*
X160594342Y-89472745D02*
X160451485Y-89401316D01*
X160451485Y-89401316D02*
X160380057Y-89329888D01*
X160380057Y-89329888D02*
X160308628Y-89187030D01*
X161808628Y-88044174D02*
X160308628Y-88044174D01*
X160308628Y-88044174D02*
X160308628Y-87687031D01*
X160308628Y-87687031D02*
X160380057Y-87472745D01*
X160380057Y-87472745D02*
X160522914Y-87329888D01*
X160522914Y-87329888D02*
X160665771Y-87258459D01*
X160665771Y-87258459D02*
X160951485Y-87187031D01*
X160951485Y-87187031D02*
X161165771Y-87187031D01*
X161165771Y-87187031D02*
X161451485Y-87258459D01*
X161451485Y-87258459D02*
X161594342Y-87329888D01*
X161594342Y-87329888D02*
X161737200Y-87472745D01*
X161737200Y-87472745D02*
X161808628Y-87687031D01*
X161808628Y-87687031D02*
X161808628Y-88044174D01*
X177618095Y-124184819D02*
X177618095Y-124994342D01*
X177618095Y-124994342D02*
X177665714Y-125089580D01*
X177665714Y-125089580D02*
X177713333Y-125137200D01*
X177713333Y-125137200D02*
X177808571Y-125184819D01*
X177808571Y-125184819D02*
X177999047Y-125184819D01*
X177999047Y-125184819D02*
X178094285Y-125137200D01*
X178094285Y-125137200D02*
X178141904Y-125089580D01*
X178141904Y-125089580D02*
X178189523Y-124994342D01*
X178189523Y-124994342D02*
X178189523Y-124184819D01*
X178570476Y-124184819D02*
X179189523Y-124184819D01*
X179189523Y-124184819D02*
X178856190Y-124565771D01*
X178856190Y-124565771D02*
X178999047Y-124565771D01*
X178999047Y-124565771D02*
X179094285Y-124613390D01*
X179094285Y-124613390D02*
X179141904Y-124661009D01*
X179141904Y-124661009D02*
X179189523Y-124756247D01*
X179189523Y-124756247D02*
X179189523Y-124994342D01*
X179189523Y-124994342D02*
X179141904Y-125089580D01*
X179141904Y-125089580D02*
X179094285Y-125137200D01*
X179094285Y-125137200D02*
X178999047Y-125184819D01*
X178999047Y-125184819D02*
X178713333Y-125184819D01*
X178713333Y-125184819D02*
X178618095Y-125137200D01*
X178618095Y-125137200D02*
X178570476Y-125089580D01*
X173833333Y-127359580D02*
X173785714Y-127407200D01*
X173785714Y-127407200D02*
X173642857Y-127454819D01*
X173642857Y-127454819D02*
X173547619Y-127454819D01*
X173547619Y-127454819D02*
X173404762Y-127407200D01*
X173404762Y-127407200D02*
X173309524Y-127311961D01*
X173309524Y-127311961D02*
X173261905Y-127216723D01*
X173261905Y-127216723D02*
X173214286Y-127026247D01*
X173214286Y-127026247D02*
X173214286Y-126883390D01*
X173214286Y-126883390D02*
X173261905Y-126692914D01*
X173261905Y-126692914D02*
X173309524Y-126597676D01*
X173309524Y-126597676D02*
X173404762Y-126502438D01*
X173404762Y-126502438D02*
X173547619Y-126454819D01*
X173547619Y-126454819D02*
X173642857Y-126454819D01*
X173642857Y-126454819D02*
X173785714Y-126502438D01*
X173785714Y-126502438D02*
X173833333Y-126550057D01*
X174166667Y-126454819D02*
X174785714Y-126454819D01*
X174785714Y-126454819D02*
X174452381Y-126835771D01*
X174452381Y-126835771D02*
X174595238Y-126835771D01*
X174595238Y-126835771D02*
X174690476Y-126883390D01*
X174690476Y-126883390D02*
X174738095Y-126931009D01*
X174738095Y-126931009D02*
X174785714Y-127026247D01*
X174785714Y-127026247D02*
X174785714Y-127264342D01*
X174785714Y-127264342D02*
X174738095Y-127359580D01*
X174738095Y-127359580D02*
X174690476Y-127407200D01*
X174690476Y-127407200D02*
X174595238Y-127454819D01*
X174595238Y-127454819D02*
X174309524Y-127454819D01*
X174309524Y-127454819D02*
X174214286Y-127407200D01*
X174214286Y-127407200D02*
X174166667Y-127359580D01*
X160488095Y-124454819D02*
X160488095Y-125264342D01*
X160488095Y-125264342D02*
X160535714Y-125359580D01*
X160535714Y-125359580D02*
X160583333Y-125407200D01*
X160583333Y-125407200D02*
X160678571Y-125454819D01*
X160678571Y-125454819D02*
X160869047Y-125454819D01*
X160869047Y-125454819D02*
X160964285Y-125407200D01*
X160964285Y-125407200D02*
X161011904Y-125359580D01*
X161011904Y-125359580D02*
X161059523Y-125264342D01*
X161059523Y-125264342D02*
X161059523Y-124454819D01*
X161488095Y-124550057D02*
X161535714Y-124502438D01*
X161535714Y-124502438D02*
X161630952Y-124454819D01*
X161630952Y-124454819D02*
X161869047Y-124454819D01*
X161869047Y-124454819D02*
X161964285Y-124502438D01*
X161964285Y-124502438D02*
X162011904Y-124550057D01*
X162011904Y-124550057D02*
X162059523Y-124645295D01*
X162059523Y-124645295D02*
X162059523Y-124740533D01*
X162059523Y-124740533D02*
X162011904Y-124883390D01*
X162011904Y-124883390D02*
X161440476Y-125454819D01*
X161440476Y-125454819D02*
X162059523Y-125454819D01*
X160488095Y-97954819D02*
X160488095Y-98764342D01*
X160488095Y-98764342D02*
X160535714Y-98859580D01*
X160535714Y-98859580D02*
X160583333Y-98907200D01*
X160583333Y-98907200D02*
X160678571Y-98954819D01*
X160678571Y-98954819D02*
X160869047Y-98954819D01*
X160869047Y-98954819D02*
X160964285Y-98907200D01*
X160964285Y-98907200D02*
X161011904Y-98859580D01*
X161011904Y-98859580D02*
X161059523Y-98764342D01*
X161059523Y-98764342D02*
X161059523Y-97954819D01*
X162059523Y-98954819D02*
X161488095Y-98954819D01*
X161773809Y-98954819D02*
X161773809Y-97954819D01*
X161773809Y-97954819D02*
X161678571Y-98097676D01*
X161678571Y-98097676D02*
X161583333Y-98192914D01*
X161583333Y-98192914D02*
X161488095Y-98240533D01*
D12*
%TO.C,U3*%
X187440000Y-123790000D02*
X187440000Y-82910000D01*
X187440000Y-82910000D02*
X169320000Y-82910000D01*
X184440000Y-123730000D02*
X184440000Y-82970000D01*
X184440000Y-82970000D02*
X172320000Y-82970000D01*
X179380000Y-123730000D02*
X184440000Y-123730000D01*
X172320000Y-123730000D02*
X177380000Y-123730000D01*
X172320000Y-82970000D02*
X172320000Y-123730000D01*
X169320000Y-123790000D02*
X187440000Y-123790000D01*
X169320000Y-82910000D02*
X169320000Y-123790000D01*
X179380000Y-123730000D02*
G75*
G03*
X177380000Y-123730000I-1000000J0D01*
G01*
%TO.C,C3*%
X170711252Y-126910000D02*
X169288748Y-126910000D01*
X170711252Y-125090000D02*
X169288748Y-125090000D01*
%TO.C,U2*%
X163440000Y-127110000D02*
X163440000Y-101590000D01*
X163440000Y-101590000D02*
X158940000Y-101590000D01*
X162190000Y-127110000D02*
X163440000Y-127110000D01*
X158940000Y-127110000D02*
X160190000Y-127110000D01*
X158940000Y-101590000D02*
X158940000Y-127110000D01*
X162190000Y-127110000D02*
G75*
G03*
X160190000Y-127110000I-1000000J0D01*
G01*
%TO.C,U1*%
X163440000Y-100330000D02*
X163440000Y-82430000D01*
X163440000Y-82430000D02*
X158940000Y-82430000D01*
X162190000Y-100330000D02*
X163440000Y-100330000D01*
X158940000Y-100330000D02*
X160190000Y-100330000D01*
X158940000Y-82430000D02*
X158940000Y-100330000D01*
X162190000Y-100330000D02*
G75*
G03*
X160190000Y-100330000I-1000000J0D01*
G01*
%TD*%
M02*
