%TF.GenerationSoftware,KiCad,Pcbnew,7.0.10*%
%TF.CreationDate,2024-02-06T22:12:22+01:00*%
%TF.ProjectId,16M2164_Ersatz_SRAM,31364d32-3136-4345-9f45-727361747a5f,1*%
%TF.SameCoordinates,Original*%
%TF.FileFunction,Plated,1,2,PTH,Drill*%
%TF.FilePolarity,Positive*%
%FSLAX46Y46*%
G04 Gerber Fmt 4.6, Leading zero omitted, Abs format (unit mm)*
G04 Created by KiCad (PCBNEW 7.0.10) date 2024-02-06 22:12:22*
%MOMM*%
%LPD*%
G01*
G04 APERTURE LIST*
%TA.AperFunction,ViaDrill*%
%ADD10C,0.400000*%
%TD*%
%TA.AperFunction,ComponentDrill*%
%ADD11C,0.800000*%
%TD*%
%TA.AperFunction,ComponentDrill*%
%ADD12C,1.000000*%
%TD*%
G04 APERTURE END LIST*
D10*
X155000000Y-101000000D03*
X160000000Y-103500000D03*
X160500000Y-87250000D03*
X161000000Y-121725000D03*
X162750000Y-100500000D03*
X174000000Y-94750000D03*
X174100000Y-96900000D03*
X183000000Y-86750000D03*
X183000000Y-93250000D03*
D11*
%TO.C,U1*%
X157380000Y-83760000D03*
X157380000Y-86300000D03*
X157380000Y-88840000D03*
X157380000Y-91380000D03*
X157380000Y-93920000D03*
X157380000Y-96460000D03*
X157380000Y-99000000D03*
%TO.C,U2*%
X157380000Y-102920000D03*
X157380000Y-105460000D03*
X157380000Y-108000000D03*
X157380000Y-110540000D03*
X157380000Y-113080000D03*
X157380000Y-115620000D03*
X157380000Y-118160000D03*
X157380000Y-120700000D03*
X157380000Y-123240000D03*
X157380000Y-125780000D03*
%TO.C,U1*%
X165000000Y-83760000D03*
X165000000Y-86300000D03*
X165000000Y-88840000D03*
X165000000Y-91380000D03*
X165000000Y-93920000D03*
X165000000Y-96460000D03*
X165000000Y-99000000D03*
%TO.C,U2*%
X165000000Y-102920000D03*
X165000000Y-105460000D03*
X165000000Y-108000000D03*
X165000000Y-110540000D03*
X165000000Y-113080000D03*
X165000000Y-115620000D03*
X165000000Y-118160000D03*
X165000000Y-120700000D03*
X165000000Y-123240000D03*
X165000000Y-125780000D03*
%TO.C,U3*%
X170760000Y-84300000D03*
X170760000Y-86840000D03*
X170760000Y-89380000D03*
X170760000Y-91920000D03*
X170760000Y-94460000D03*
X170760000Y-97000000D03*
X170760000Y-99540000D03*
X170760000Y-102080000D03*
X170760000Y-104620000D03*
X170760000Y-107160000D03*
X170760000Y-109700000D03*
X170760000Y-112240000D03*
X170760000Y-114780000D03*
X170760000Y-117320000D03*
X170760000Y-119860000D03*
X170760000Y-122400000D03*
X186000000Y-84300000D03*
X186000000Y-86840000D03*
X186000000Y-89380000D03*
X186000000Y-91920000D03*
X186000000Y-94460000D03*
X186000000Y-97000000D03*
X186000000Y-99540000D03*
X186000000Y-102080000D03*
X186000000Y-104620000D03*
X186000000Y-107160000D03*
X186000000Y-109700000D03*
X186000000Y-112240000D03*
X186000000Y-114780000D03*
X186000000Y-117320000D03*
X186000000Y-119860000D03*
X186000000Y-122400000D03*
D12*
%TO.C,J1*%
X152500000Y-84580000D03*
X152500000Y-87120000D03*
X152500000Y-89660000D03*
X152500000Y-92200000D03*
X152500000Y-94740000D03*
X152500000Y-97280000D03*
X152500000Y-99820000D03*
X152500000Y-102360000D03*
X152500000Y-104900000D03*
X152500000Y-107440000D03*
X152500000Y-109980000D03*
X152500000Y-112520000D03*
X152500000Y-115060000D03*
X152500000Y-117600000D03*
X152500000Y-120140000D03*
X152500000Y-122680000D03*
X152500000Y-125220000D03*
%TO.C,J2*%
X190000000Y-84580000D03*
X190000000Y-87120000D03*
X190000000Y-89660000D03*
X190000000Y-92200000D03*
X190000000Y-94740000D03*
X190000000Y-97280000D03*
X190000000Y-99820000D03*
X190000000Y-102360000D03*
X190000000Y-104900000D03*
X190000000Y-107440000D03*
X190000000Y-109980000D03*
X190000000Y-112520000D03*
X190000000Y-115060000D03*
X190000000Y-117600000D03*
X190000000Y-120140000D03*
X190000000Y-122680000D03*
X190000000Y-125220000D03*
M02*
