%TF.GenerationSoftware,KiCad,Pcbnew,7.0.10*%
%TF.CreationDate,2024-02-06T22:12:15+01:00*%
%TF.ProjectId,16M2164_Ersatz_SRAM,31364d32-3136-4345-9f45-727361747a5f,1*%
%TF.SameCoordinates,Original*%
%TF.FileFunction,Copper,L1,Top*%
%TF.FilePolarity,Positive*%
%FSLAX46Y46*%
G04 Gerber Fmt 4.6, Leading zero omitted, Abs format (unit mm)*
G04 Created by KiCad (PCBNEW 7.0.10) date 2024-02-06 22:12:15*
%MOMM*%
%LPD*%
G01*
G04 APERTURE LIST*
G04 Aperture macros list*
%AMRoundRect*
0 Rectangle with rounded corners*
0 $1 Rounding radius*
0 $2 $3 $4 $5 $6 $7 $8 $9 X,Y pos of 4 corners*
0 Add a 4 corners polygon primitive as box body*
4,1,4,$2,$3,$4,$5,$6,$7,$8,$9,$2,$3,0*
0 Add four circle primitives for the rounded corners*
1,1,$1+$1,$2,$3*
1,1,$1+$1,$4,$5*
1,1,$1+$1,$6,$7*
1,1,$1+$1,$8,$9*
0 Add four rect primitives between the rounded corners*
20,1,$1+$1,$2,$3,$4,$5,0*
20,1,$1+$1,$4,$5,$6,$7,0*
20,1,$1+$1,$6,$7,$8,$9,0*
20,1,$1+$1,$8,$9,$2,$3,0*%
G04 Aperture macros list end*
%TA.AperFunction,ComponentPad*%
%ADD10R,2.400000X1.600000*%
%TD*%
%TA.AperFunction,ComponentPad*%
%ADD11O,2.400000X1.600000*%
%TD*%
%TA.AperFunction,SMDPad,CuDef*%
%ADD12RoundRect,0.250000X0.412500X0.650000X-0.412500X0.650000X-0.412500X-0.650000X0.412500X-0.650000X0*%
%TD*%
%TA.AperFunction,ComponentPad*%
%ADD13R,1.700000X1.700000*%
%TD*%
%TA.AperFunction,ComponentPad*%
%ADD14O,1.700000X1.700000*%
%TD*%
%TA.AperFunction,ViaPad*%
%ADD15C,0.800000*%
%TD*%
%TA.AperFunction,Conductor*%
%ADD16C,0.250000*%
%TD*%
G04 APERTURE END LIST*
D10*
%TO.P,U3,1,NC*%
%TO.N,unconnected-(U3-NC-Pad1)*%
X186000000Y-122400000D03*
D11*
%TO.P,U3,2,A16*%
%TO.N,/A1L*%
X186000000Y-119860000D03*
%TO.P,U3,3,A14*%
%TO.N,/A2L*%
X186000000Y-117320000D03*
%TO.P,U3,4,A12*%
%TO.N,A2*%
X186000000Y-114780000D03*
%TO.P,U3,5,A7*%
%TO.N,A0*%
X186000000Y-112240000D03*
%TO.P,U3,6,A6*%
%TO.N,/A0L*%
X186000000Y-109700000D03*
%TO.P,U3,7,A5*%
%TO.N,A3*%
X186000000Y-107160000D03*
%TO.P,U3,8,A4*%
%TO.N,/A3L*%
X186000000Y-104620000D03*
%TO.P,U3,9,A3*%
%TO.N,/A5L*%
X186000000Y-102080000D03*
%TO.P,U3,10,A2*%
%TO.N,A5*%
X186000000Y-99540000D03*
%TO.P,U3,11,A1*%
%TO.N,A4*%
X186000000Y-97000000D03*
%TO.P,U3,12,A0*%
%TO.N,/A4L*%
X186000000Y-94460000D03*
%TO.P,U3,13,Q0*%
%TO.N,D3*%
X186000000Y-91920000D03*
%TO.P,U3,14,Q1*%
%TO.N,D2*%
X186000000Y-89380000D03*
%TO.P,U3,15,Q2*%
%TO.N,D1*%
X186000000Y-86840000D03*
%TO.P,U3,16,GND*%
%TO.N,GND*%
X186000000Y-84300000D03*
%TO.P,U3,17,Q3*%
%TO.N,D0*%
X170760000Y-84300000D03*
%TO.P,U3,18,Q4*%
%TO.N,D4*%
X170760000Y-86840000D03*
%TO.P,U3,19,Q5*%
%TO.N,D5*%
X170760000Y-89380000D03*
%TO.P,U3,20,Q6*%
%TO.N,D6*%
X170760000Y-91920000D03*
%TO.P,U3,21,Q7*%
%TO.N,D7*%
X170760000Y-94460000D03*
%TO.P,U3,22,~{CS1}*%
%TO.N,/{slash}CS*%
X170760000Y-97000000D03*
%TO.P,U3,23,A10*%
%TO.N,{slash}CAS0*%
X170760000Y-99540000D03*
%TO.P,U3,24,~{OE}*%
%TO.N,/{slash}OE*%
X170760000Y-102080000D03*
%TO.P,U3,25,A11*%
%TO.N,/A6L*%
X170760000Y-104620000D03*
%TO.P,U3,26,A9*%
%TO.N,A6*%
X170760000Y-107160000D03*
%TO.P,U3,27,A8*%
%TO.N,A7*%
X170760000Y-109700000D03*
%TO.P,U3,28,A13*%
%TO.N,/A7L*%
X170760000Y-112240000D03*
%TO.P,U3,29,~{WE}*%
%TO.N,{slash}WE*%
X170760000Y-114780000D03*
%TO.P,U3,30,CS2*%
%TO.N,+5V*%
X170760000Y-117320000D03*
%TO.P,U3,31,A15*%
%TO.N,A1*%
X170760000Y-119860000D03*
%TO.P,U3,32,VCC*%
%TO.N,+5V*%
X170760000Y-122400000D03*
%TD*%
D12*
%TO.P,C3,1*%
%TO.N,+5V*%
X171562500Y-126000000D03*
%TO.P,C3,2*%
%TO.N,GND*%
X168437500Y-126000000D03*
%TD*%
D10*
%TO.P,U2,1,EN*%
%TO.N,GND*%
X165000000Y-125780000D03*
D11*
%TO.P,U2,2,Q1*%
%TO.N,/A2L*%
X165000000Y-123240000D03*
%TO.P,U2,3,D1*%
%TO.N,A2*%
X165000000Y-120700000D03*
%TO.P,U2,4,D2*%
%TO.N,A0*%
X165000000Y-118160000D03*
%TO.P,U2,5,Q2*%
%TO.N,/A0L*%
X165000000Y-115620000D03*
%TO.P,U2,6,Q3*%
%TO.N,/A7L*%
X165000000Y-113080000D03*
%TO.P,U2,7,D3*%
%TO.N,A7*%
X165000000Y-110540000D03*
%TO.P,U2,8,D4*%
%TO.N,A6*%
X165000000Y-108000000D03*
%TO.P,U2,9,Q4*%
%TO.N,/A6L*%
X165000000Y-105460000D03*
%TO.P,U2,10,GND*%
%TO.N,GND*%
X165000000Y-102920000D03*
%TO.P,U2,11,C*%
%TO.N,/RAS*%
X157380000Y-102920000D03*
%TO.P,U2,12,Q5*%
%TO.N,/A4L*%
X157380000Y-105460000D03*
%TO.P,U2,13,D5*%
%TO.N,A4*%
X157380000Y-108000000D03*
%TO.P,U2,14,D6*%
%TO.N,A5*%
X157380000Y-110540000D03*
%TO.P,U2,15,Q6*%
%TO.N,/A5L*%
X157380000Y-113080000D03*
%TO.P,U2,16,Q7*%
%TO.N,/A3L*%
X157380000Y-115620000D03*
%TO.P,U2,17,D7*%
%TO.N,A3*%
X157380000Y-118160000D03*
%TO.P,U2,18,D8*%
%TO.N,A1*%
X157380000Y-120700000D03*
%TO.P,U2,19,Q8*%
%TO.N,/A1L*%
X157380000Y-123240000D03*
%TO.P,U2,20,Vcc*%
%TO.N,+5V*%
X157380000Y-125780000D03*
%TD*%
D10*
%TO.P,U1,1,A1*%
%TO.N,{slash}CAS0*%
X165000000Y-99000000D03*
D11*
%TO.P,U1,2,B1*%
%TO.N,{slash}CAS1*%
X165000000Y-96460000D03*
%TO.P,U1,3,Y1*%
%TO.N,/CS*%
X165000000Y-93920000D03*
%TO.P,U1,4,A2*%
X165000000Y-91380000D03*
%TO.P,U1,5,B2*%
X165000000Y-88840000D03*
%TO.P,U1,6,Y2*%
%TO.N,/{slash}CS*%
X165000000Y-86300000D03*
%TO.P,U1,7,GND*%
%TO.N,GND*%
X165000000Y-83760000D03*
%TO.P,U1,8,Y3*%
%TO.N,/RAS*%
X157380000Y-83760000D03*
%TO.P,U1,9,A3*%
%TO.N,{slash}RAS*%
X157380000Y-86300000D03*
%TO.P,U1,10,B3*%
X157380000Y-88840000D03*
%TO.P,U1,11,Y4*%
%TO.N,/{slash}OE*%
X157380000Y-91380000D03*
%TO.P,U1,12,A4*%
%TO.N,{slash}WE*%
X157380000Y-93920000D03*
%TO.P,U1,13,B4*%
X157380000Y-96460000D03*
%TO.P,U1,14,Vcc*%
%TO.N,+5V*%
X157380000Y-99000000D03*
%TD*%
D13*
%TO.P,J2,1,Pin_1*%
%TO.N,GND*%
X190000000Y-84580000D03*
D14*
%TO.P,J2,2,Pin_2*%
%TO.N,{slash}RAS*%
X190000000Y-87120000D03*
%TO.P,J2,3,Pin_3*%
%TO.N,{slash}WE*%
X190000000Y-89660000D03*
%TO.P,J2,4,Pin_4*%
%TO.N,{slash}CAS0*%
X190000000Y-92200000D03*
%TO.P,J2,5,Pin_5*%
%TO.N,D0*%
X190000000Y-94740000D03*
%TO.P,J2,6,Pin_6*%
%TO.N,unconnected-(J2-Pin_6-Pad6)*%
X190000000Y-97280000D03*
%TO.P,J2,7,Pin_7*%
%TO.N,D1*%
X190000000Y-99820000D03*
%TO.P,J2,8,Pin_8*%
%TO.N,unconnected-(J2-Pin_8-Pad8)*%
X190000000Y-102360000D03*
%TO.P,J2,9,Pin_9*%
%TO.N,D2*%
X190000000Y-104900000D03*
%TO.P,J2,10,Pin_10*%
%TO.N,unconnected-(J2-Pin_10-Pad10)*%
X190000000Y-107440000D03*
%TO.P,J2,11,Pin_11*%
%TO.N,D3*%
X190000000Y-109980000D03*
%TO.P,J2,12,Pin_12*%
%TO.N,unconnected-(J2-Pin_12-Pad12)*%
X190000000Y-112520000D03*
%TO.P,J2,13,Pin_13*%
%TO.N,A0*%
X190000000Y-115060000D03*
%TO.P,J2,14,Pin_14*%
%TO.N,A1*%
X190000000Y-117600000D03*
%TO.P,J2,15,Pin_15*%
%TO.N,A2*%
X190000000Y-120140000D03*
%TO.P,J2,16,Pin_16*%
%TO.N,GND*%
X190000000Y-122680000D03*
%TO.P,J2,17,Pin_17*%
%TO.N,+5V*%
X190000000Y-125220000D03*
%TD*%
D13*
%TO.P,J1,1,Pin_1*%
%TO.N,+5V*%
X152500000Y-84580000D03*
D14*
%TO.P,J1,2,Pin_2*%
%TO.N,{slash}CAS1*%
X152500000Y-87120000D03*
%TO.P,J1,3,Pin_3*%
%TO.N,D4*%
X152500000Y-89660000D03*
%TO.P,J1,4,Pin_4*%
%TO.N,unconnected-(J1-Pin_4-Pad4)*%
X152500000Y-92200000D03*
%TO.P,J1,5,Pin_5*%
%TO.N,D5*%
X152500000Y-94740000D03*
%TO.P,J1,6,Pin_6*%
%TO.N,unconnected-(J1-Pin_6-Pad6)*%
X152500000Y-97280000D03*
%TO.P,J1,7,Pin_7*%
%TO.N,D6*%
X152500000Y-99820000D03*
%TO.P,J1,8,Pin_8*%
%TO.N,unconnected-(J1-Pin_8-Pad8)*%
X152500000Y-102360000D03*
%TO.P,J1,9,Pin_9*%
%TO.N,D7*%
X152500000Y-104900000D03*
%TO.P,J1,10,Pin_10*%
%TO.N,unconnected-(J1-Pin_10-Pad10)*%
X152500000Y-107440000D03*
%TO.P,J1,11,Pin_11*%
%TO.N,A4*%
X152500000Y-109980000D03*
%TO.P,J1,12,Pin_12*%
%TO.N,A5*%
X152500000Y-112520000D03*
%TO.P,J1,13,Pin_13*%
%TO.N,A6*%
X152500000Y-115060000D03*
%TO.P,J1,14,Pin_14*%
%TO.N,A7*%
X152500000Y-117600000D03*
%TO.P,J1,15,Pin_15*%
%TO.N,A3*%
X152500000Y-120140000D03*
%TO.P,J1,16,Pin_16*%
%TO.N,GND*%
X152500000Y-122680000D03*
%TO.P,J1,17,Pin_17*%
%TO.N,+5V*%
X152500000Y-125220000D03*
%TD*%
D15*
%TO.N,{slash}CAS1*%
X160500000Y-87250000D03*
%TO.N,{slash}WE*%
X174100000Y-96900000D03*
%TO.N,{slash}CAS0*%
X183000000Y-93250000D03*
%TO.N,+5V*%
X155000000Y-101000000D03*
X161000000Y-121725000D03*
%TO.N,GND*%
X174000000Y-94750000D03*
X160000000Y-103500000D03*
X162750000Y-100500000D03*
X183000000Y-86750000D03*
%TD*%
D16*
%TO.N,{slash}CAS1*%
X160500000Y-87250000D02*
X160500000Y-93300000D01*
X160500000Y-93300000D02*
X163660000Y-96460000D01*
X163660000Y-96460000D02*
X165000000Y-96460000D01*
%TO.N,{slash}RAS*%
X161800000Y-86300000D02*
X157380000Y-86300000D01*
X157380000Y-88840000D02*
X156840000Y-88840000D01*
X156000000Y-87000000D02*
X156000000Y-88000000D01*
X156000000Y-87000000D02*
X156700000Y-86300000D01*
X190000000Y-87120000D02*
X189020000Y-88100000D01*
X156700000Y-86300000D02*
X157380000Y-86300000D01*
X189020000Y-88100000D02*
X168115000Y-88100000D01*
X168115000Y-88100000D02*
X167615000Y-87600000D01*
X156840000Y-88840000D02*
X156000000Y-88000000D01*
X167615000Y-87600000D02*
X163100000Y-87600000D01*
X163100000Y-87600000D02*
X161800000Y-86300000D01*
%TO.N,{slash}WE*%
X189060000Y-90600000D02*
X190000000Y-89660000D01*
X174100000Y-112900000D02*
X172220000Y-114780000D01*
X172220000Y-114780000D02*
X170760000Y-114780000D01*
X156500000Y-94000000D02*
X156000000Y-94500000D01*
X174100000Y-96900000D02*
X180400000Y-90600000D01*
X174100000Y-96900000D02*
X174100000Y-112900000D01*
X157380000Y-94000000D02*
X156500000Y-94000000D01*
X157040000Y-96540000D02*
X157380000Y-96540000D01*
X156000000Y-95500000D02*
X157040000Y-96540000D01*
X180400000Y-90600000D02*
X189060000Y-90600000D01*
X156000000Y-94500000D02*
X156000000Y-95500000D01*
%TO.N,{slash}CAS0*%
X183050000Y-93200000D02*
X189000000Y-93200000D01*
X189000000Y-93200000D02*
X190000000Y-92200000D01*
X183000000Y-93250000D02*
X183050000Y-93200000D01*
%TO.N,/RAS*%
X155740000Y-83760000D02*
X157380000Y-83760000D01*
X155000000Y-84500000D02*
X155740000Y-83760000D01*
X157380000Y-102920000D02*
X157380000Y-101880000D01*
X155000000Y-99500000D02*
X155000000Y-84500000D01*
X157380000Y-101880000D02*
X155000000Y-99500000D01*
%TO.N,/{slash}OE*%
X169480000Y-102080000D02*
X168600000Y-101200000D01*
X170760000Y-102080000D02*
X169480000Y-102080000D01*
X168600000Y-101200000D02*
X168600000Y-99920000D01*
X166380000Y-97700000D02*
X163700000Y-97700000D01*
X163700000Y-97700000D02*
X157380000Y-91380000D01*
X168600000Y-99920000D02*
X166380000Y-97700000D01*
%TO.N,/CS*%
X166900000Y-91380000D02*
X166900000Y-93600000D01*
X166900000Y-93600000D02*
X166580000Y-93920000D01*
X165000000Y-88840000D02*
X166340000Y-88840000D01*
X166340000Y-88840000D02*
X166900000Y-89400000D01*
X165000000Y-91380000D02*
X166900000Y-91380000D01*
X166580000Y-93920000D02*
X165000000Y-93920000D01*
X166900000Y-89400000D02*
X166900000Y-91380000D01*
%TO.N,+5V*%
X168800000Y-122015000D02*
X168785000Y-122000000D01*
X159000000Y-122000000D02*
X159275000Y-121725000D01*
X168700000Y-122000000D02*
X168115000Y-122000000D01*
X155000000Y-122720000D02*
X152500000Y-125220000D01*
X168800000Y-117700000D02*
X168800000Y-122015000D01*
X162725000Y-121725000D02*
X161000000Y-121725000D01*
X170760000Y-123760000D02*
X171562500Y-124562500D01*
X170760000Y-117320000D02*
X169180000Y-117320000D01*
X168785000Y-122000000D02*
X168115000Y-122000000D01*
X155000000Y-101000000D02*
X155000000Y-122000000D01*
X163000000Y-122000000D02*
X162725000Y-121725000D01*
X168115000Y-122000000D02*
X163000000Y-122000000D01*
X154500000Y-86580000D02*
X154500000Y-100500000D01*
X159275000Y-121725000D02*
X161000000Y-121725000D01*
X169180000Y-117320000D02*
X168800000Y-117700000D01*
X155000000Y-122000000D02*
X159000000Y-122000000D01*
X154500000Y-100500000D02*
X155000000Y-101000000D01*
X152500000Y-84580000D02*
X154500000Y-86580000D01*
X170760000Y-122400000D02*
X170760000Y-123760000D01*
X190000000Y-125220000D02*
X174280000Y-125220000D01*
X174280000Y-125220000D02*
X173500000Y-126000000D01*
X155000000Y-122000000D02*
X155000000Y-122720000D01*
X173500000Y-126000000D02*
X171562500Y-126000000D01*
X171562500Y-124562500D02*
X171562500Y-126000000D01*
X169100000Y-122400000D02*
X168700000Y-122000000D01*
X170760000Y-122400000D02*
X169100000Y-122400000D01*
%TO.N,GND*%
X172800000Y-102700000D02*
X172200000Y-103300000D01*
X160000000Y-103500000D02*
X160580000Y-102920000D01*
X172200000Y-103300000D02*
X169300000Y-103300000D01*
X160580000Y-102920000D02*
X165000000Y-102920000D01*
X169300000Y-103300000D02*
X168920000Y-102920000D01*
X172775000Y-102675000D02*
X172800000Y-102700000D01*
X168437500Y-126000000D02*
X165220000Y-126000000D01*
X172775000Y-95975000D02*
X172775000Y-102675000D01*
X174000000Y-94750000D02*
X172775000Y-95975000D01*
X168920000Y-102920000D02*
X165000000Y-102920000D01*
X165220000Y-126000000D02*
X165000000Y-125780000D01*
%TD*%
%TA.AperFunction,Conductor*%
%TO.N,GND*%
G36*
X184361305Y-91245185D02*
G01*
X184407060Y-91297989D01*
X184417004Y-91367147D01*
X184406648Y-91401904D01*
X184373263Y-91473497D01*
X184373258Y-91473511D01*
X184314366Y-91693302D01*
X184314364Y-91693313D01*
X184294532Y-91919998D01*
X184294532Y-91920001D01*
X184314364Y-92146686D01*
X184314366Y-92146697D01*
X184373258Y-92366488D01*
X184373260Y-92366492D01*
X184373261Y-92366496D01*
X184379579Y-92380045D01*
X184387996Y-92398095D01*
X184398488Y-92467173D01*
X184369968Y-92530957D01*
X184311492Y-92569196D01*
X184275614Y-92574500D01*
X183642566Y-92574500D01*
X183575527Y-92554815D01*
X183569681Y-92550818D01*
X183452734Y-92465851D01*
X183452729Y-92465848D01*
X183279807Y-92388857D01*
X183279802Y-92388855D01*
X183134001Y-92357865D01*
X183094646Y-92349500D01*
X182905354Y-92349500D01*
X182872897Y-92356398D01*
X182720197Y-92388855D01*
X182720192Y-92388857D01*
X182547270Y-92465848D01*
X182547265Y-92465851D01*
X182394129Y-92577111D01*
X182267466Y-92717785D01*
X182172821Y-92881715D01*
X182172818Y-92881722D01*
X182114327Y-93061740D01*
X182114326Y-93061744D01*
X182094540Y-93250000D01*
X182114326Y-93438256D01*
X182114327Y-93438259D01*
X182172818Y-93618277D01*
X182172821Y-93618284D01*
X182267467Y-93782216D01*
X182371710Y-93897989D01*
X182394129Y-93922888D01*
X182547265Y-94034148D01*
X182547270Y-94034151D01*
X182720192Y-94111142D01*
X182720197Y-94111144D01*
X182905354Y-94150500D01*
X182905355Y-94150500D01*
X183094644Y-94150500D01*
X183094646Y-94150500D01*
X183279803Y-94111144D01*
X183452730Y-94034151D01*
X183605871Y-93922888D01*
X183656618Y-93866527D01*
X183716105Y-93829879D01*
X183748768Y-93825500D01*
X184266288Y-93825500D01*
X184333327Y-93845185D01*
X184379082Y-93897989D01*
X184389026Y-93967147D01*
X184378670Y-94001903D01*
X184377423Y-94004577D01*
X184373261Y-94013502D01*
X184373258Y-94013511D01*
X184314366Y-94233302D01*
X184314364Y-94233313D01*
X184294532Y-94459998D01*
X184294532Y-94460001D01*
X184314364Y-94686686D01*
X184314366Y-94686697D01*
X184373258Y-94906488D01*
X184373261Y-94906497D01*
X184469431Y-95112732D01*
X184469432Y-95112734D01*
X184599954Y-95299141D01*
X184760858Y-95460045D01*
X184760861Y-95460047D01*
X184947266Y-95590568D01*
X185005275Y-95617618D01*
X185057714Y-95663791D01*
X185076866Y-95730984D01*
X185056650Y-95797865D01*
X185005275Y-95842382D01*
X184947267Y-95869431D01*
X184947265Y-95869432D01*
X184760858Y-95999954D01*
X184599954Y-96160858D01*
X184469432Y-96347265D01*
X184469431Y-96347267D01*
X184373261Y-96553502D01*
X184373258Y-96553511D01*
X184314366Y-96773302D01*
X184314364Y-96773313D01*
X184294532Y-96999998D01*
X184294532Y-97000001D01*
X184314364Y-97226686D01*
X184314366Y-97226697D01*
X184373258Y-97446488D01*
X184373261Y-97446497D01*
X184469431Y-97652732D01*
X184469432Y-97652734D01*
X184599954Y-97839141D01*
X184760858Y-98000045D01*
X184760861Y-98000047D01*
X184947266Y-98130568D01*
X185005275Y-98157618D01*
X185057714Y-98203791D01*
X185076866Y-98270984D01*
X185056650Y-98337865D01*
X185005275Y-98382382D01*
X184947267Y-98409431D01*
X184947265Y-98409432D01*
X184760858Y-98539954D01*
X184599954Y-98700858D01*
X184469432Y-98887265D01*
X184469431Y-98887267D01*
X184373261Y-99093502D01*
X184373258Y-99093511D01*
X184314366Y-99313302D01*
X184314364Y-99313313D01*
X184294532Y-99539998D01*
X184294532Y-99540001D01*
X184314364Y-99766686D01*
X184314366Y-99766697D01*
X184373258Y-99986488D01*
X184373261Y-99986497D01*
X184469431Y-100192732D01*
X184469432Y-100192734D01*
X184599954Y-100379141D01*
X184760858Y-100540045D01*
X184773833Y-100549130D01*
X184947266Y-100670568D01*
X185005275Y-100697618D01*
X185057714Y-100743791D01*
X185076866Y-100810984D01*
X185056650Y-100877865D01*
X185005275Y-100922382D01*
X184947267Y-100949431D01*
X184947265Y-100949432D01*
X184760858Y-101079954D01*
X184599954Y-101240858D01*
X184469432Y-101427265D01*
X184469431Y-101427267D01*
X184373261Y-101633502D01*
X184373258Y-101633511D01*
X184314366Y-101853302D01*
X184314364Y-101853313D01*
X184294532Y-102079998D01*
X184294532Y-102080001D01*
X184314364Y-102306686D01*
X184314366Y-102306697D01*
X184373258Y-102526488D01*
X184373261Y-102526497D01*
X184469431Y-102732732D01*
X184469432Y-102732734D01*
X184599954Y-102919141D01*
X184760858Y-103080045D01*
X184760861Y-103080047D01*
X184947266Y-103210568D01*
X185005275Y-103237618D01*
X185057714Y-103283791D01*
X185076866Y-103350984D01*
X185056650Y-103417865D01*
X185005275Y-103462382D01*
X184947267Y-103489431D01*
X184947265Y-103489432D01*
X184760858Y-103619954D01*
X184599954Y-103780858D01*
X184469432Y-103967265D01*
X184469431Y-103967267D01*
X184373261Y-104173502D01*
X184373258Y-104173511D01*
X184314366Y-104393302D01*
X184314364Y-104393313D01*
X184294532Y-104619998D01*
X184294532Y-104620001D01*
X184314364Y-104846686D01*
X184314366Y-104846697D01*
X184373258Y-105066488D01*
X184373261Y-105066497D01*
X184469431Y-105272732D01*
X184469432Y-105272734D01*
X184599954Y-105459141D01*
X184760858Y-105620045D01*
X184760861Y-105620047D01*
X184947266Y-105750568D01*
X185005275Y-105777618D01*
X185057714Y-105823791D01*
X185076866Y-105890984D01*
X185056650Y-105957865D01*
X185005275Y-106002382D01*
X184947267Y-106029431D01*
X184947265Y-106029432D01*
X184760858Y-106159954D01*
X184599954Y-106320858D01*
X184469432Y-106507265D01*
X184469431Y-106507267D01*
X184373261Y-106713502D01*
X184373258Y-106713511D01*
X184314366Y-106933302D01*
X184314364Y-106933313D01*
X184294532Y-107159998D01*
X184294532Y-107160001D01*
X184314364Y-107386686D01*
X184314366Y-107386697D01*
X184373258Y-107606488D01*
X184373261Y-107606497D01*
X184469431Y-107812732D01*
X184469432Y-107812734D01*
X184599954Y-107999141D01*
X184760858Y-108160045D01*
X184760861Y-108160047D01*
X184947266Y-108290568D01*
X185005275Y-108317618D01*
X185057714Y-108363791D01*
X185076866Y-108430984D01*
X185056650Y-108497865D01*
X185005275Y-108542382D01*
X184947267Y-108569431D01*
X184947265Y-108569432D01*
X184760858Y-108699954D01*
X184599954Y-108860858D01*
X184469432Y-109047265D01*
X184469431Y-109047267D01*
X184373261Y-109253502D01*
X184373258Y-109253511D01*
X184314366Y-109473302D01*
X184314364Y-109473313D01*
X184294532Y-109699998D01*
X184294532Y-109700001D01*
X184314364Y-109926686D01*
X184314366Y-109926697D01*
X184373258Y-110146488D01*
X184373261Y-110146497D01*
X184469431Y-110352732D01*
X184469432Y-110352734D01*
X184599954Y-110539141D01*
X184760858Y-110700045D01*
X184760861Y-110700047D01*
X184947266Y-110830568D01*
X185005275Y-110857618D01*
X185057714Y-110903791D01*
X185076866Y-110970984D01*
X185056650Y-111037865D01*
X185005275Y-111082382D01*
X184947267Y-111109431D01*
X184947265Y-111109432D01*
X184760858Y-111239954D01*
X184599954Y-111400858D01*
X184469432Y-111587265D01*
X184469431Y-111587267D01*
X184373261Y-111793502D01*
X184373258Y-111793511D01*
X184314366Y-112013302D01*
X184314364Y-112013313D01*
X184294532Y-112239998D01*
X184294532Y-112240001D01*
X184314364Y-112466686D01*
X184314366Y-112466697D01*
X184373258Y-112686488D01*
X184373261Y-112686497D01*
X184469431Y-112892732D01*
X184469432Y-112892734D01*
X184599954Y-113079141D01*
X184760858Y-113240045D01*
X184760861Y-113240047D01*
X184947266Y-113370568D01*
X185005275Y-113397618D01*
X185057714Y-113443791D01*
X185076866Y-113510984D01*
X185056650Y-113577865D01*
X185005275Y-113622382D01*
X184947267Y-113649431D01*
X184947265Y-113649432D01*
X184760858Y-113779954D01*
X184599954Y-113940858D01*
X184469432Y-114127265D01*
X184469431Y-114127267D01*
X184373261Y-114333502D01*
X184373258Y-114333511D01*
X184314366Y-114553302D01*
X184314364Y-114553313D01*
X184294532Y-114779998D01*
X184294532Y-114780001D01*
X184314364Y-115006686D01*
X184314366Y-115006697D01*
X184373258Y-115226488D01*
X184373261Y-115226497D01*
X184469431Y-115432732D01*
X184469432Y-115432734D01*
X184599954Y-115619141D01*
X184760858Y-115780045D01*
X184760861Y-115780047D01*
X184947266Y-115910568D01*
X185005275Y-115937618D01*
X185057714Y-115983791D01*
X185076866Y-116050984D01*
X185056650Y-116117865D01*
X185005275Y-116162382D01*
X184947267Y-116189431D01*
X184947265Y-116189432D01*
X184760858Y-116319954D01*
X184599954Y-116480858D01*
X184469432Y-116667265D01*
X184469431Y-116667267D01*
X184373261Y-116873502D01*
X184373258Y-116873511D01*
X184314366Y-117093302D01*
X184314364Y-117093313D01*
X184294532Y-117319998D01*
X184294532Y-117320001D01*
X184314364Y-117546686D01*
X184314366Y-117546697D01*
X184373258Y-117766488D01*
X184373261Y-117766497D01*
X184469431Y-117972732D01*
X184469432Y-117972734D01*
X184599954Y-118159141D01*
X184760858Y-118320045D01*
X184760861Y-118320047D01*
X184947266Y-118450568D01*
X185005275Y-118477618D01*
X185057714Y-118523791D01*
X185076866Y-118590984D01*
X185056650Y-118657865D01*
X185005275Y-118702382D01*
X184947267Y-118729431D01*
X184947265Y-118729432D01*
X184760858Y-118859954D01*
X184599954Y-119020858D01*
X184469432Y-119207265D01*
X184469431Y-119207267D01*
X184373261Y-119413502D01*
X184373258Y-119413511D01*
X184314366Y-119633302D01*
X184314364Y-119633313D01*
X184294532Y-119859998D01*
X184294532Y-119860001D01*
X184314364Y-120086686D01*
X184314366Y-120086697D01*
X184373258Y-120306488D01*
X184373261Y-120306497D01*
X184469431Y-120512732D01*
X184469432Y-120512734D01*
X184599954Y-120699141D01*
X184760858Y-120860045D01*
X184785462Y-120877273D01*
X184829087Y-120931849D01*
X184836281Y-121001348D01*
X184804758Y-121063703D01*
X184744529Y-121099117D01*
X184727593Y-121102138D01*
X184692516Y-121105908D01*
X184557671Y-121156202D01*
X184557664Y-121156206D01*
X184442455Y-121242452D01*
X184442452Y-121242455D01*
X184356206Y-121357664D01*
X184356202Y-121357671D01*
X184305908Y-121492517D01*
X184299501Y-121552116D01*
X184299501Y-121552123D01*
X184299500Y-121552135D01*
X184299500Y-123247870D01*
X184299501Y-123247876D01*
X184305908Y-123307483D01*
X184356202Y-123442328D01*
X184356206Y-123442335D01*
X184442452Y-123557544D01*
X184442455Y-123557547D01*
X184557664Y-123643793D01*
X184557671Y-123643797D01*
X184692517Y-123694091D01*
X184692516Y-123694091D01*
X184699444Y-123694835D01*
X184752127Y-123700500D01*
X187247872Y-123700499D01*
X187307483Y-123694091D01*
X187442331Y-123643796D01*
X187557546Y-123557546D01*
X187643796Y-123442331D01*
X187694091Y-123307483D01*
X187700500Y-123247873D01*
X187700499Y-121552128D01*
X187694091Y-121492517D01*
X187659567Y-121399954D01*
X187643797Y-121357671D01*
X187643793Y-121357664D01*
X187557547Y-121242455D01*
X187557544Y-121242452D01*
X187442335Y-121156206D01*
X187442328Y-121156202D01*
X187307482Y-121105908D01*
X187307483Y-121105908D01*
X187272404Y-121102137D01*
X187207853Y-121075399D01*
X187168005Y-121018006D01*
X187165512Y-120948181D01*
X187201165Y-120888092D01*
X187214539Y-120877272D01*
X187218121Y-120874763D01*
X187239139Y-120860047D01*
X187400047Y-120699139D01*
X187530568Y-120512734D01*
X187626739Y-120306496D01*
X187685635Y-120086692D01*
X187705468Y-119860000D01*
X187685635Y-119633308D01*
X187626739Y-119413504D01*
X187530568Y-119207266D01*
X187400047Y-119020861D01*
X187400045Y-119020858D01*
X187239141Y-118859954D01*
X187052734Y-118729432D01*
X187052728Y-118729429D01*
X186994725Y-118702382D01*
X186942285Y-118656210D01*
X186923133Y-118589017D01*
X186943348Y-118522135D01*
X186994725Y-118477618D01*
X187052734Y-118450568D01*
X187239139Y-118320047D01*
X187400047Y-118159139D01*
X187530568Y-117972734D01*
X187626739Y-117766496D01*
X187685635Y-117546692D01*
X187705468Y-117320000D01*
X187685635Y-117093308D01*
X187626739Y-116873504D01*
X187530568Y-116667266D01*
X187400047Y-116480861D01*
X187400045Y-116480858D01*
X187239141Y-116319954D01*
X187052734Y-116189432D01*
X187052728Y-116189429D01*
X186994725Y-116162382D01*
X186942285Y-116116210D01*
X186923133Y-116049017D01*
X186943348Y-115982135D01*
X186994725Y-115937618D01*
X187052734Y-115910568D01*
X187239139Y-115780047D01*
X187400047Y-115619139D01*
X187530568Y-115432734D01*
X187626739Y-115226496D01*
X187685635Y-115006692D01*
X187705468Y-114780000D01*
X187685635Y-114553308D01*
X187626739Y-114333504D01*
X187530568Y-114127266D01*
X187400047Y-113940861D01*
X187400045Y-113940858D01*
X187239141Y-113779954D01*
X187052734Y-113649432D01*
X187052728Y-113649429D01*
X186994725Y-113622382D01*
X186942285Y-113576210D01*
X186923133Y-113509017D01*
X186943348Y-113442135D01*
X186994725Y-113397618D01*
X187052734Y-113370568D01*
X187239139Y-113240047D01*
X187400047Y-113079139D01*
X187530568Y-112892734D01*
X187626739Y-112686496D01*
X187685635Y-112466692D01*
X187705468Y-112240000D01*
X187685635Y-112013308D01*
X187626739Y-111793504D01*
X187530568Y-111587266D01*
X187400047Y-111400861D01*
X187400045Y-111400858D01*
X187239141Y-111239954D01*
X187052734Y-111109432D01*
X187052728Y-111109429D01*
X186994725Y-111082382D01*
X186942285Y-111036210D01*
X186923133Y-110969017D01*
X186943348Y-110902135D01*
X186994725Y-110857618D01*
X187052734Y-110830568D01*
X187239139Y-110700047D01*
X187400047Y-110539139D01*
X187530568Y-110352734D01*
X187626739Y-110146496D01*
X187685635Y-109926692D01*
X187705468Y-109700000D01*
X187685635Y-109473308D01*
X187626739Y-109253504D01*
X187530568Y-109047266D01*
X187400047Y-108860861D01*
X187400045Y-108860858D01*
X187239141Y-108699954D01*
X187052734Y-108569432D01*
X187052728Y-108569429D01*
X186994725Y-108542382D01*
X186942285Y-108496210D01*
X186923133Y-108429017D01*
X186943348Y-108362135D01*
X186994725Y-108317618D01*
X187052734Y-108290568D01*
X187239139Y-108160047D01*
X187400047Y-107999139D01*
X187530568Y-107812734D01*
X187626739Y-107606496D01*
X187685635Y-107386692D01*
X187705468Y-107160000D01*
X187685635Y-106933308D01*
X187626739Y-106713504D01*
X187530568Y-106507266D01*
X187400047Y-106320861D01*
X187400045Y-106320858D01*
X187239141Y-106159954D01*
X187052734Y-106029432D01*
X187052728Y-106029429D01*
X186994725Y-106002382D01*
X186942285Y-105956210D01*
X186923133Y-105889017D01*
X186943348Y-105822135D01*
X186994725Y-105777618D01*
X187052734Y-105750568D01*
X187239139Y-105620047D01*
X187400047Y-105459139D01*
X187530568Y-105272734D01*
X187626739Y-105066496D01*
X187685635Y-104846692D01*
X187705468Y-104620000D01*
X187685635Y-104393308D01*
X187630896Y-104189017D01*
X187626741Y-104173511D01*
X187626738Y-104173502D01*
X187582026Y-104077618D01*
X187530568Y-103967266D01*
X187400047Y-103780861D01*
X187400045Y-103780858D01*
X187239141Y-103619954D01*
X187052734Y-103489432D01*
X187052728Y-103489429D01*
X186994725Y-103462382D01*
X186942285Y-103416210D01*
X186923133Y-103349017D01*
X186943348Y-103282135D01*
X186994725Y-103237618D01*
X187052734Y-103210568D01*
X187239139Y-103080047D01*
X187400047Y-102919139D01*
X187530568Y-102732734D01*
X187626739Y-102526496D01*
X187685635Y-102306692D01*
X187705468Y-102080000D01*
X187685635Y-101853308D01*
X187634683Y-101663152D01*
X187626741Y-101633511D01*
X187626738Y-101633502D01*
X187530568Y-101427266D01*
X187400047Y-101240861D01*
X187400045Y-101240858D01*
X187239141Y-101079954D01*
X187052734Y-100949432D01*
X187052728Y-100949429D01*
X187025038Y-100936517D01*
X186994724Y-100922381D01*
X186942285Y-100876210D01*
X186923133Y-100809017D01*
X186943348Y-100742135D01*
X186994725Y-100697618D01*
X187052734Y-100670568D01*
X187239139Y-100540047D01*
X187400047Y-100379139D01*
X187530568Y-100192734D01*
X187626739Y-99986496D01*
X187685635Y-99766692D01*
X187705468Y-99540000D01*
X187685635Y-99313308D01*
X187626739Y-99093504D01*
X187530568Y-98887266D01*
X187400047Y-98700861D01*
X187400045Y-98700858D01*
X187239141Y-98539954D01*
X187052734Y-98409432D01*
X187052728Y-98409429D01*
X186994725Y-98382382D01*
X186942285Y-98336210D01*
X186923133Y-98269017D01*
X186943348Y-98202135D01*
X186994725Y-98157618D01*
X187052734Y-98130568D01*
X187239139Y-98000047D01*
X187400047Y-97839139D01*
X187530568Y-97652734D01*
X187626739Y-97446496D01*
X187685635Y-97226692D01*
X187705468Y-97000000D01*
X187685635Y-96773308D01*
X187626739Y-96553504D01*
X187530568Y-96347266D01*
X187400047Y-96160861D01*
X187400045Y-96160858D01*
X187239141Y-95999954D01*
X187052734Y-95869432D01*
X187052728Y-95869429D01*
X186994725Y-95842382D01*
X186942285Y-95796210D01*
X186923133Y-95729017D01*
X186943348Y-95662135D01*
X186994725Y-95617618D01*
X187052734Y-95590568D01*
X187239139Y-95460047D01*
X187400047Y-95299139D01*
X187530568Y-95112734D01*
X187626739Y-94906496D01*
X187685635Y-94686692D01*
X187705468Y-94460000D01*
X187685635Y-94233308D01*
X187626739Y-94013504D01*
X187621329Y-94001904D01*
X187610838Y-93932828D01*
X187639357Y-93869044D01*
X187697834Y-93830804D01*
X187733712Y-93825500D01*
X188753482Y-93825500D01*
X188820521Y-93845185D01*
X188866276Y-93897989D01*
X188876220Y-93967147D01*
X188855057Y-94020622D01*
X188851076Y-94026309D01*
X188825963Y-94062173D01*
X188726098Y-94276335D01*
X188726094Y-94276344D01*
X188664938Y-94504586D01*
X188664936Y-94504596D01*
X188644341Y-94739999D01*
X188644341Y-94740000D01*
X188664936Y-94975403D01*
X188664938Y-94975413D01*
X188726094Y-95203655D01*
X188726096Y-95203659D01*
X188726097Y-95203663D01*
X188772131Y-95302382D01*
X188825965Y-95417830D01*
X188825967Y-95417834D01*
X188900876Y-95524814D01*
X188961501Y-95611396D01*
X188961506Y-95611402D01*
X189128597Y-95778493D01*
X189128603Y-95778498D01*
X189314158Y-95908425D01*
X189357783Y-95963002D01*
X189364977Y-96032500D01*
X189333454Y-96094855D01*
X189314158Y-96111575D01*
X189128597Y-96241505D01*
X188961505Y-96408597D01*
X188825965Y-96602169D01*
X188825964Y-96602171D01*
X188726098Y-96816335D01*
X188726094Y-96816344D01*
X188664938Y-97044586D01*
X188664936Y-97044596D01*
X188644341Y-97279999D01*
X188644341Y-97280000D01*
X188664936Y-97515403D01*
X188664938Y-97515413D01*
X188726094Y-97743655D01*
X188726096Y-97743659D01*
X188726097Y-97743663D01*
X188772131Y-97842382D01*
X188825965Y-97957830D01*
X188825967Y-97957834D01*
X188879737Y-98034625D01*
X188961501Y-98151396D01*
X188961506Y-98151402D01*
X189128597Y-98318493D01*
X189128603Y-98318498D01*
X189314158Y-98448425D01*
X189357783Y-98503002D01*
X189364977Y-98572500D01*
X189333454Y-98634855D01*
X189314158Y-98651575D01*
X189128597Y-98781505D01*
X188961505Y-98948597D01*
X188825965Y-99142169D01*
X188825964Y-99142171D01*
X188726098Y-99356335D01*
X188726094Y-99356344D01*
X188664938Y-99584586D01*
X188664936Y-99584596D01*
X188644341Y-99819999D01*
X188644341Y-99820000D01*
X188664936Y-100055403D01*
X188664938Y-100055413D01*
X188726094Y-100283655D01*
X188726096Y-100283659D01*
X188726097Y-100283663D01*
X188803818Y-100450336D01*
X188825965Y-100497830D01*
X188825967Y-100497834D01*
X188934281Y-100652521D01*
X188961501Y-100691396D01*
X188961506Y-100691402D01*
X189128597Y-100858493D01*
X189128603Y-100858498D01*
X189314158Y-100988425D01*
X189357783Y-101043002D01*
X189364977Y-101112500D01*
X189333454Y-101174855D01*
X189314158Y-101191575D01*
X189128597Y-101321505D01*
X188961505Y-101488597D01*
X188825965Y-101682169D01*
X188825964Y-101682171D01*
X188726098Y-101896335D01*
X188726094Y-101896344D01*
X188664938Y-102124586D01*
X188664936Y-102124596D01*
X188644341Y-102359999D01*
X188644341Y-102360000D01*
X188664936Y-102595403D01*
X188664938Y-102595413D01*
X188726094Y-102823655D01*
X188726096Y-102823659D01*
X188726097Y-102823663D01*
X188825965Y-103037830D01*
X188825967Y-103037834D01*
X188961501Y-103231395D01*
X188961506Y-103231402D01*
X189128597Y-103398493D01*
X189128603Y-103398498D01*
X189314158Y-103528425D01*
X189357783Y-103583002D01*
X189364977Y-103652500D01*
X189333454Y-103714855D01*
X189314158Y-103731575D01*
X189128597Y-103861505D01*
X188961505Y-104028597D01*
X188825965Y-104222169D01*
X188825964Y-104222171D01*
X188726098Y-104436335D01*
X188726094Y-104436344D01*
X188664938Y-104664586D01*
X188664936Y-104664596D01*
X188644341Y-104899999D01*
X188644341Y-104900000D01*
X188664936Y-105135403D01*
X188664938Y-105135413D01*
X188726094Y-105363655D01*
X188726096Y-105363659D01*
X188726097Y-105363663D01*
X188825965Y-105577830D01*
X188825967Y-105577834D01*
X188961501Y-105771395D01*
X188961506Y-105771402D01*
X189128597Y-105938493D01*
X189128603Y-105938498D01*
X189314158Y-106068425D01*
X189357783Y-106123002D01*
X189364977Y-106192500D01*
X189333454Y-106254855D01*
X189314158Y-106271575D01*
X189128597Y-106401505D01*
X188961505Y-106568597D01*
X188825965Y-106762169D01*
X188825964Y-106762171D01*
X188726098Y-106976335D01*
X188726094Y-106976344D01*
X188664938Y-107204586D01*
X188664936Y-107204596D01*
X188644341Y-107439999D01*
X188644341Y-107440000D01*
X188664936Y-107675403D01*
X188664938Y-107675413D01*
X188726094Y-107903655D01*
X188726096Y-107903659D01*
X188726097Y-107903663D01*
X188825965Y-108117830D01*
X188825967Y-108117834D01*
X188961501Y-108311395D01*
X188961506Y-108311402D01*
X189128597Y-108478493D01*
X189128603Y-108478498D01*
X189314158Y-108608425D01*
X189357783Y-108663002D01*
X189364977Y-108732500D01*
X189333454Y-108794855D01*
X189314158Y-108811575D01*
X189128597Y-108941505D01*
X188961505Y-109108597D01*
X188825965Y-109302169D01*
X188825964Y-109302171D01*
X188726098Y-109516335D01*
X188726094Y-109516344D01*
X188664938Y-109744586D01*
X188664936Y-109744596D01*
X188644341Y-109979999D01*
X188644341Y-109980000D01*
X188664936Y-110215403D01*
X188664938Y-110215413D01*
X188726094Y-110443655D01*
X188726096Y-110443659D01*
X188726097Y-110443663D01*
X188825965Y-110657830D01*
X188825967Y-110657834D01*
X188961501Y-110851395D01*
X188961506Y-110851402D01*
X189128597Y-111018493D01*
X189128603Y-111018498D01*
X189314158Y-111148425D01*
X189357783Y-111203002D01*
X189364977Y-111272500D01*
X189333454Y-111334855D01*
X189314158Y-111351575D01*
X189128597Y-111481505D01*
X188961505Y-111648597D01*
X188825965Y-111842169D01*
X188825964Y-111842171D01*
X188726098Y-112056335D01*
X188726094Y-112056344D01*
X188664938Y-112284586D01*
X188664936Y-112284596D01*
X188644341Y-112519999D01*
X188644341Y-112520000D01*
X188664936Y-112755403D01*
X188664938Y-112755413D01*
X188726094Y-112983655D01*
X188726096Y-112983659D01*
X188726097Y-112983663D01*
X188825965Y-113197830D01*
X188825967Y-113197834D01*
X188905428Y-113311315D01*
X188961214Y-113390986D01*
X188961501Y-113391395D01*
X188961506Y-113391402D01*
X189128597Y-113558493D01*
X189128603Y-113558498D01*
X189314158Y-113688425D01*
X189357783Y-113743002D01*
X189364977Y-113812500D01*
X189333454Y-113874855D01*
X189314158Y-113891575D01*
X189128597Y-114021505D01*
X188961505Y-114188597D01*
X188825965Y-114382169D01*
X188825964Y-114382171D01*
X188726098Y-114596335D01*
X188726094Y-114596344D01*
X188664938Y-114824586D01*
X188664936Y-114824596D01*
X188644341Y-115059999D01*
X188644341Y-115060000D01*
X188664936Y-115295403D01*
X188664938Y-115295413D01*
X188726094Y-115523655D01*
X188726096Y-115523659D01*
X188726097Y-115523663D01*
X188825965Y-115737830D01*
X188825967Y-115737834D01*
X188961501Y-115931395D01*
X188961506Y-115931402D01*
X189128597Y-116098493D01*
X189128603Y-116098498D01*
X189314158Y-116228425D01*
X189357783Y-116283002D01*
X189364977Y-116352500D01*
X189333454Y-116414855D01*
X189314158Y-116431575D01*
X189128597Y-116561505D01*
X188961505Y-116728597D01*
X188825965Y-116922169D01*
X188825964Y-116922171D01*
X188726098Y-117136335D01*
X188726094Y-117136344D01*
X188664938Y-117364586D01*
X188664936Y-117364596D01*
X188644341Y-117599999D01*
X188644341Y-117600000D01*
X188664936Y-117835403D01*
X188664938Y-117835413D01*
X188726094Y-118063655D01*
X188726096Y-118063659D01*
X188726097Y-118063663D01*
X188825965Y-118277830D01*
X188825967Y-118277834D01*
X188961501Y-118471395D01*
X188961506Y-118471402D01*
X189128597Y-118638493D01*
X189128603Y-118638498D01*
X189314158Y-118768425D01*
X189357783Y-118823002D01*
X189364977Y-118892500D01*
X189333454Y-118954855D01*
X189314158Y-118971575D01*
X189128597Y-119101505D01*
X188961505Y-119268597D01*
X188825965Y-119462169D01*
X188825964Y-119462171D01*
X188726098Y-119676335D01*
X188726094Y-119676344D01*
X188664938Y-119904586D01*
X188664936Y-119904596D01*
X188644341Y-120139999D01*
X188644341Y-120140000D01*
X188664936Y-120375403D01*
X188664938Y-120375413D01*
X188726094Y-120603655D01*
X188726096Y-120603659D01*
X188726097Y-120603663D01*
X188825965Y-120817830D01*
X188825967Y-120817834D01*
X188961501Y-121011395D01*
X188961506Y-121011402D01*
X189128597Y-121178493D01*
X189128603Y-121178498D01*
X189156262Y-121197865D01*
X189275592Y-121281421D01*
X189314594Y-121308730D01*
X189358219Y-121363307D01*
X189365413Y-121432805D01*
X189333890Y-121495160D01*
X189314595Y-121511880D01*
X189128922Y-121641890D01*
X189128920Y-121641891D01*
X188961891Y-121808920D01*
X188961886Y-121808926D01*
X188826400Y-122002420D01*
X188826399Y-122002422D01*
X188726570Y-122216507D01*
X188726567Y-122216513D01*
X188669364Y-122429999D01*
X188669364Y-122430000D01*
X189566314Y-122430000D01*
X189540507Y-122470156D01*
X189500000Y-122608111D01*
X189500000Y-122751889D01*
X189540507Y-122889844D01*
X189566314Y-122930000D01*
X188669364Y-122930000D01*
X188726567Y-123143486D01*
X188726570Y-123143492D01*
X188826399Y-123357578D01*
X188961894Y-123551082D01*
X189128917Y-123718105D01*
X189314595Y-123848119D01*
X189358219Y-123902696D01*
X189365412Y-123972195D01*
X189333890Y-124034549D01*
X189314595Y-124051269D01*
X189128594Y-124181508D01*
X188961505Y-124348597D01*
X188826348Y-124541623D01*
X188771771Y-124585248D01*
X188724773Y-124594500D01*
X174362743Y-124594500D01*
X174347122Y-124592775D01*
X174347095Y-124593061D01*
X174339333Y-124592326D01*
X174272113Y-124594439D01*
X174268219Y-124594500D01*
X174240650Y-124594500D01*
X174236673Y-124595002D01*
X174225042Y-124595917D01*
X174181374Y-124597289D01*
X174181368Y-124597290D01*
X174162126Y-124602880D01*
X174143087Y-124606823D01*
X174123217Y-124609334D01*
X174123203Y-124609337D01*
X174082598Y-124625413D01*
X174071554Y-124629194D01*
X174029614Y-124641379D01*
X174029610Y-124641381D01*
X174012366Y-124651579D01*
X173994905Y-124660133D01*
X173976274Y-124667510D01*
X173976262Y-124667517D01*
X173940933Y-124693185D01*
X173931173Y-124699596D01*
X173893580Y-124721829D01*
X173879414Y-124735995D01*
X173864624Y-124748627D01*
X173848414Y-124760404D01*
X173848411Y-124760407D01*
X173820573Y-124794058D01*
X173812711Y-124802697D01*
X173277228Y-125338181D01*
X173215905Y-125371666D01*
X173189547Y-125374500D01*
X172845089Y-125374500D01*
X172778050Y-125354815D01*
X172732295Y-125302011D01*
X172721731Y-125263102D01*
X172719839Y-125244591D01*
X172714999Y-125197203D01*
X172659814Y-125030666D01*
X172567712Y-124881344D01*
X172443656Y-124757288D01*
X172294334Y-124665186D01*
X172294332Y-124665185D01*
X172294330Y-124665184D01*
X172294331Y-124665184D01*
X172272994Y-124658114D01*
X172215550Y-124618341D01*
X172188728Y-124553825D01*
X172188000Y-124540409D01*
X172188000Y-124523151D01*
X172188000Y-124523150D01*
X172187497Y-124519170D01*
X172186580Y-124507521D01*
X172185796Y-124482574D01*
X172185209Y-124463872D01*
X172179620Y-124444637D01*
X172175674Y-124425584D01*
X172173164Y-124405708D01*
X172157078Y-124365081D01*
X172153303Y-124354054D01*
X172141117Y-124312110D01*
X172130921Y-124294869D01*
X172122360Y-124277393D01*
X172114986Y-124258769D01*
X172114985Y-124258767D01*
X172114217Y-124257710D01*
X172089309Y-124223426D01*
X172082912Y-124213690D01*
X172060670Y-124176079D01*
X172060667Y-124176076D01*
X172060665Y-124176073D01*
X172046505Y-124161913D01*
X172033870Y-124147120D01*
X172022093Y-124130912D01*
X171988445Y-124103076D01*
X171979804Y-124095213D01*
X171666815Y-123782224D01*
X171633330Y-123720901D01*
X171638314Y-123651209D01*
X171680186Y-123595276D01*
X171702087Y-123582163D01*
X171812734Y-123530568D01*
X171999139Y-123400047D01*
X172160047Y-123239139D01*
X172290568Y-123052734D01*
X172386739Y-122846496D01*
X172445635Y-122626692D01*
X172465468Y-122400000D01*
X172464896Y-122393466D01*
X172449414Y-122216507D01*
X172445635Y-122173308D01*
X172386739Y-121953504D01*
X172290568Y-121747266D01*
X172160047Y-121560861D01*
X172160045Y-121560858D01*
X171999141Y-121399954D01*
X171812734Y-121269432D01*
X171812728Y-121269429D01*
X171754882Y-121242455D01*
X171754724Y-121242381D01*
X171702285Y-121196210D01*
X171683133Y-121129017D01*
X171703348Y-121062135D01*
X171754725Y-121017618D01*
X171812734Y-120990568D01*
X171999139Y-120860047D01*
X172160047Y-120699139D01*
X172290568Y-120512734D01*
X172386739Y-120306496D01*
X172445635Y-120086692D01*
X172465468Y-119860000D01*
X172445635Y-119633308D01*
X172386739Y-119413504D01*
X172290568Y-119207266D01*
X172160047Y-119020861D01*
X172160045Y-119020858D01*
X171999141Y-118859954D01*
X171812734Y-118729432D01*
X171812728Y-118729429D01*
X171754725Y-118702382D01*
X171702285Y-118656210D01*
X171683133Y-118589017D01*
X171703348Y-118522135D01*
X171754725Y-118477618D01*
X171812734Y-118450568D01*
X171999139Y-118320047D01*
X172160047Y-118159139D01*
X172290568Y-117972734D01*
X172386739Y-117766496D01*
X172445635Y-117546692D01*
X172465468Y-117320000D01*
X172445635Y-117093308D01*
X172386739Y-116873504D01*
X172290568Y-116667266D01*
X172160047Y-116480861D01*
X172160045Y-116480858D01*
X171999141Y-116319954D01*
X171812734Y-116189432D01*
X171812728Y-116189429D01*
X171754725Y-116162382D01*
X171702285Y-116116210D01*
X171683133Y-116049017D01*
X171703348Y-115982135D01*
X171754725Y-115937618D01*
X171812734Y-115910568D01*
X171999139Y-115780047D01*
X172160047Y-115619139D01*
X172283000Y-115443543D01*
X172337577Y-115399918D01*
X172369034Y-115391643D01*
X172376792Y-115390664D01*
X172417401Y-115374585D01*
X172428444Y-115370803D01*
X172470390Y-115358618D01*
X172487629Y-115348422D01*
X172505103Y-115339862D01*
X172523727Y-115332488D01*
X172523727Y-115332487D01*
X172523732Y-115332486D01*
X172559083Y-115306800D01*
X172568814Y-115300408D01*
X172606420Y-115278170D01*
X172620589Y-115263999D01*
X172635379Y-115251368D01*
X172651587Y-115239594D01*
X172679438Y-115205926D01*
X172687279Y-115197309D01*
X174483787Y-113400801D01*
X174496042Y-113390986D01*
X174495859Y-113390764D01*
X174501868Y-113385791D01*
X174501877Y-113385786D01*
X174547949Y-113336722D01*
X174550566Y-113334023D01*
X174570120Y-113314471D01*
X174572576Y-113311303D01*
X174580156Y-113302427D01*
X174610062Y-113270582D01*
X174619713Y-113253024D01*
X174630396Y-113236761D01*
X174642673Y-113220936D01*
X174660021Y-113180844D01*
X174665151Y-113170371D01*
X174686197Y-113132092D01*
X174691180Y-113112680D01*
X174697481Y-113094280D01*
X174705437Y-113075896D01*
X174712270Y-113032748D01*
X174714633Y-113021338D01*
X174725500Y-112979019D01*
X174725500Y-112958983D01*
X174727027Y-112939582D01*
X174730160Y-112919804D01*
X174726049Y-112876327D01*
X174725500Y-112864658D01*
X174725500Y-97598687D01*
X174745185Y-97531648D01*
X174757350Y-97515715D01*
X174775891Y-97495122D01*
X174832533Y-97432216D01*
X174927179Y-97268284D01*
X174985674Y-97088256D01*
X175003321Y-96920345D01*
X175029905Y-96855732D01*
X175038952Y-96845636D01*
X180622772Y-91261819D01*
X180684095Y-91228334D01*
X180710453Y-91225500D01*
X184294266Y-91225500D01*
X184361305Y-91245185D01*
G37*
%TD.AperFunction*%
%TA.AperFunction,Conductor*%
G36*
X153838153Y-100510398D02*
G01*
X153873567Y-100570627D01*
X153877237Y-100596918D01*
X153877290Y-100598624D01*
X153877291Y-100598627D01*
X153882880Y-100617867D01*
X153886824Y-100636911D01*
X153889336Y-100656792D01*
X153905414Y-100697403D01*
X153909197Y-100708452D01*
X153919464Y-100743791D01*
X153921382Y-100750390D01*
X153931050Y-100766739D01*
X153931580Y-100767634D01*
X153940138Y-100785103D01*
X153947514Y-100803732D01*
X153973181Y-100839060D01*
X153979593Y-100848821D01*
X154001828Y-100886417D01*
X154001833Y-100886424D01*
X154015990Y-100900580D01*
X154028628Y-100915376D01*
X154040405Y-100931586D01*
X154040406Y-100931587D01*
X154052828Y-100941863D01*
X154091936Y-100999763D01*
X154097109Y-101024445D01*
X154101116Y-101062575D01*
X154114326Y-101188256D01*
X154114327Y-101188259D01*
X154172818Y-101368277D01*
X154172821Y-101368284D01*
X154267467Y-101532216D01*
X154307132Y-101576268D01*
X154342650Y-101615715D01*
X154372880Y-101678706D01*
X154374500Y-101698687D01*
X154374500Y-121929152D01*
X154372305Y-121952379D01*
X154372090Y-121953511D01*
X154370773Y-121960414D01*
X154374255Y-122015757D01*
X154374500Y-122023543D01*
X154374500Y-122409546D01*
X154354815Y-122476585D01*
X154338181Y-122497227D01*
X153941727Y-122893681D01*
X153880404Y-122927166D01*
X153854046Y-122930000D01*
X152933686Y-122930000D01*
X152959493Y-122889844D01*
X153000000Y-122751889D01*
X153000000Y-122608111D01*
X152959493Y-122470156D01*
X152933686Y-122430000D01*
X153830636Y-122430000D01*
X153830635Y-122429999D01*
X153773432Y-122216513D01*
X153773429Y-122216507D01*
X153673600Y-122002422D01*
X153673599Y-122002420D01*
X153538113Y-121808926D01*
X153538108Y-121808920D01*
X153371078Y-121641890D01*
X153185405Y-121511879D01*
X153141780Y-121457302D01*
X153134588Y-121387804D01*
X153166110Y-121325449D01*
X153185406Y-121308730D01*
X153195002Y-121302011D01*
X153371401Y-121178495D01*
X153538495Y-121011401D01*
X153674035Y-120817830D01*
X153773903Y-120603663D01*
X153835063Y-120375408D01*
X153855659Y-120140000D01*
X153835063Y-119904592D01*
X153773903Y-119676337D01*
X153674035Y-119462171D01*
X153650821Y-119429017D01*
X153538494Y-119268597D01*
X153371402Y-119101506D01*
X153371396Y-119101501D01*
X153185842Y-118971575D01*
X153142217Y-118916998D01*
X153135023Y-118847500D01*
X153166546Y-118785145D01*
X153185842Y-118768425D01*
X153220057Y-118744467D01*
X153371401Y-118638495D01*
X153538495Y-118471401D01*
X153674035Y-118277830D01*
X153773903Y-118063663D01*
X153835063Y-117835408D01*
X153855659Y-117600000D01*
X153835063Y-117364592D01*
X153773903Y-117136337D01*
X153674035Y-116922171D01*
X153657501Y-116898557D01*
X153538494Y-116728597D01*
X153371402Y-116561506D01*
X153371396Y-116561501D01*
X153185842Y-116431575D01*
X153142217Y-116376998D01*
X153135023Y-116307500D01*
X153166546Y-116245145D01*
X153185842Y-116228425D01*
X153208026Y-116212891D01*
X153371401Y-116098495D01*
X153538495Y-115931401D01*
X153674035Y-115737830D01*
X153773903Y-115523663D01*
X153835063Y-115295408D01*
X153855659Y-115060000D01*
X153835063Y-114824592D01*
X153773903Y-114596337D01*
X153674035Y-114382171D01*
X153650821Y-114349017D01*
X153538494Y-114188597D01*
X153371402Y-114021506D01*
X153371396Y-114021501D01*
X153185842Y-113891575D01*
X153142217Y-113836998D01*
X153135023Y-113767500D01*
X153166546Y-113705145D01*
X153185842Y-113688425D01*
X153208026Y-113672891D01*
X153371401Y-113558495D01*
X153538495Y-113391401D01*
X153674035Y-113197830D01*
X153773903Y-112983663D01*
X153835063Y-112755408D01*
X153855659Y-112520000D01*
X153835063Y-112284592D01*
X153773903Y-112056337D01*
X153674035Y-111842171D01*
X153650821Y-111809017D01*
X153538494Y-111648597D01*
X153371402Y-111481506D01*
X153371396Y-111481501D01*
X153185842Y-111351575D01*
X153142217Y-111296998D01*
X153135023Y-111227500D01*
X153166546Y-111165145D01*
X153185842Y-111148425D01*
X153208026Y-111132891D01*
X153371401Y-111018495D01*
X153538495Y-110851401D01*
X153674035Y-110657830D01*
X153773903Y-110443663D01*
X153835063Y-110215408D01*
X153855659Y-109980000D01*
X153835063Y-109744592D01*
X153773903Y-109516337D01*
X153674035Y-109302171D01*
X153650821Y-109269017D01*
X153538494Y-109108597D01*
X153371402Y-108941506D01*
X153371396Y-108941501D01*
X153185842Y-108811575D01*
X153142217Y-108756998D01*
X153135023Y-108687500D01*
X153166546Y-108625145D01*
X153185842Y-108608425D01*
X153208026Y-108592891D01*
X153371401Y-108478495D01*
X153538495Y-108311401D01*
X153674035Y-108117830D01*
X153773903Y-107903663D01*
X153835063Y-107675408D01*
X153855659Y-107440000D01*
X153835063Y-107204592D01*
X153773903Y-106976337D01*
X153674035Y-106762171D01*
X153650821Y-106729017D01*
X153538494Y-106568597D01*
X153371402Y-106401506D01*
X153371396Y-106401501D01*
X153185842Y-106271575D01*
X153142217Y-106216998D01*
X153135023Y-106147500D01*
X153166546Y-106085145D01*
X153185842Y-106068425D01*
X153208026Y-106052891D01*
X153371401Y-105938495D01*
X153538495Y-105771401D01*
X153674035Y-105577830D01*
X153773903Y-105363663D01*
X153835063Y-105135408D01*
X153855659Y-104900000D01*
X153835063Y-104664592D01*
X153773903Y-104436337D01*
X153674035Y-104222171D01*
X153650821Y-104189017D01*
X153538494Y-104028597D01*
X153371402Y-103861506D01*
X153371396Y-103861501D01*
X153185842Y-103731575D01*
X153142217Y-103676998D01*
X153135023Y-103607500D01*
X153166546Y-103545145D01*
X153185842Y-103528425D01*
X153208026Y-103512891D01*
X153371401Y-103398495D01*
X153538495Y-103231401D01*
X153674035Y-103037830D01*
X153773903Y-102823663D01*
X153835063Y-102595408D01*
X153855659Y-102360000D01*
X153835063Y-102124592D01*
X153773903Y-101896337D01*
X153674035Y-101682171D01*
X153658109Y-101659425D01*
X153538494Y-101488597D01*
X153371402Y-101321506D01*
X153371396Y-101321501D01*
X153185842Y-101191575D01*
X153142217Y-101136998D01*
X153135023Y-101067500D01*
X153166546Y-101005145D01*
X153185842Y-100988425D01*
X153221935Y-100963152D01*
X153371401Y-100858495D01*
X153538495Y-100691401D01*
X153651724Y-100529692D01*
X153706300Y-100486069D01*
X153775798Y-100478875D01*
X153838153Y-100510398D01*
G37*
%TD.AperFunction*%
%TA.AperFunction,Conductor*%
G36*
X159220152Y-94117303D02*
G01*
X159259021Y-94143611D01*
X163199194Y-98083784D01*
X163209019Y-98096048D01*
X163209240Y-98095866D01*
X163214210Y-98101874D01*
X163260384Y-98145234D01*
X163295779Y-98205475D01*
X163299500Y-98235626D01*
X163299500Y-99847870D01*
X163299501Y-99847876D01*
X163305908Y-99907483D01*
X163356202Y-100042328D01*
X163356206Y-100042335D01*
X163442452Y-100157544D01*
X163442455Y-100157547D01*
X163557664Y-100243793D01*
X163557671Y-100243797D01*
X163692517Y-100294091D01*
X163692516Y-100294091D01*
X163699444Y-100294835D01*
X163752127Y-100300500D01*
X166247872Y-100300499D01*
X166307483Y-100294091D01*
X166442331Y-100243796D01*
X166557546Y-100157546D01*
X166643796Y-100042331D01*
X166694091Y-99907483D01*
X166700500Y-99847873D01*
X166700499Y-99204449D01*
X166720183Y-99137412D01*
X166772987Y-99091657D01*
X166842146Y-99081713D01*
X166905702Y-99110738D01*
X166912180Y-99116770D01*
X167938181Y-100142771D01*
X167971666Y-100204094D01*
X167974500Y-100230452D01*
X167974500Y-101117255D01*
X167972775Y-101132872D01*
X167973061Y-101132899D01*
X167972326Y-101140665D01*
X167974439Y-101207872D01*
X167974500Y-101211767D01*
X167974500Y-101239357D01*
X167975003Y-101243335D01*
X167975918Y-101254967D01*
X167977290Y-101298624D01*
X167977291Y-101298627D01*
X167982880Y-101317867D01*
X167986824Y-101336911D01*
X167988171Y-101347568D01*
X167989336Y-101356792D01*
X168005414Y-101397403D01*
X168009197Y-101408452D01*
X168020807Y-101448413D01*
X168021382Y-101450390D01*
X168029797Y-101464620D01*
X168031580Y-101467634D01*
X168040136Y-101485100D01*
X168047514Y-101503732D01*
X168073181Y-101539060D01*
X168079593Y-101548821D01*
X168101828Y-101586417D01*
X168101833Y-101586424D01*
X168115990Y-101600580D01*
X168128628Y-101615376D01*
X168140405Y-101631586D01*
X168140406Y-101631587D01*
X168174057Y-101659425D01*
X168182698Y-101667288D01*
X168979197Y-102463788D01*
X168989022Y-102476051D01*
X168989243Y-102475869D01*
X168994211Y-102481874D01*
X168994213Y-102481876D01*
X168994214Y-102481877D01*
X169041719Y-102526488D01*
X169043222Y-102527899D01*
X169046021Y-102530612D01*
X169065522Y-102550114D01*
X169065526Y-102550117D01*
X169065529Y-102550120D01*
X169068702Y-102552581D01*
X169077574Y-102560159D01*
X169109418Y-102590062D01*
X169126976Y-102599714D01*
X169143230Y-102610390D01*
X169159064Y-102622673D01*
X169159066Y-102622674D01*
X169165198Y-102627430D01*
X169201579Y-102673004D01*
X169211047Y-102693308D01*
X169229431Y-102732732D01*
X169229432Y-102732734D01*
X169359954Y-102919141D01*
X169520858Y-103080045D01*
X169520861Y-103080047D01*
X169707266Y-103210568D01*
X169765275Y-103237618D01*
X169817714Y-103283791D01*
X169836866Y-103350984D01*
X169816650Y-103417865D01*
X169765275Y-103462382D01*
X169707267Y-103489431D01*
X169707265Y-103489432D01*
X169520858Y-103619954D01*
X169359954Y-103780858D01*
X169229432Y-103967265D01*
X169229431Y-103967267D01*
X169133261Y-104173502D01*
X169133258Y-104173511D01*
X169074366Y-104393302D01*
X169074364Y-104393313D01*
X169054532Y-104619998D01*
X169054532Y-104620001D01*
X169074364Y-104846686D01*
X169074366Y-104846697D01*
X169133258Y-105066488D01*
X169133261Y-105066497D01*
X169229431Y-105272732D01*
X169229432Y-105272734D01*
X169359954Y-105459141D01*
X169520858Y-105620045D01*
X169520861Y-105620047D01*
X169707266Y-105750568D01*
X169765275Y-105777618D01*
X169817714Y-105823791D01*
X169836866Y-105890984D01*
X169816650Y-105957865D01*
X169765275Y-106002382D01*
X169707267Y-106029431D01*
X169707265Y-106029432D01*
X169520858Y-106159954D01*
X169359954Y-106320858D01*
X169229432Y-106507265D01*
X169229431Y-106507267D01*
X169133261Y-106713502D01*
X169133258Y-106713511D01*
X169074366Y-106933302D01*
X169074364Y-106933313D01*
X169054532Y-107159998D01*
X169054532Y-107160001D01*
X169074364Y-107386686D01*
X169074366Y-107386697D01*
X169133258Y-107606488D01*
X169133261Y-107606497D01*
X169229431Y-107812732D01*
X169229432Y-107812734D01*
X169359954Y-107999141D01*
X169520858Y-108160045D01*
X169520861Y-108160047D01*
X169707266Y-108290568D01*
X169765275Y-108317618D01*
X169817714Y-108363791D01*
X169836866Y-108430984D01*
X169816650Y-108497865D01*
X169765275Y-108542382D01*
X169707267Y-108569431D01*
X169707265Y-108569432D01*
X169520858Y-108699954D01*
X169359954Y-108860858D01*
X169229432Y-109047265D01*
X169229431Y-109047267D01*
X169133261Y-109253502D01*
X169133258Y-109253511D01*
X169074366Y-109473302D01*
X169074364Y-109473313D01*
X169054532Y-109699998D01*
X169054532Y-109700001D01*
X169074364Y-109926686D01*
X169074366Y-109926697D01*
X169133258Y-110146488D01*
X169133261Y-110146497D01*
X169229431Y-110352732D01*
X169229432Y-110352734D01*
X169359954Y-110539141D01*
X169520858Y-110700045D01*
X169520861Y-110700047D01*
X169707266Y-110830568D01*
X169765275Y-110857618D01*
X169817714Y-110903791D01*
X169836866Y-110970984D01*
X169816650Y-111037865D01*
X169765275Y-111082382D01*
X169707267Y-111109431D01*
X169707265Y-111109432D01*
X169520858Y-111239954D01*
X169359954Y-111400858D01*
X169229432Y-111587265D01*
X169229431Y-111587267D01*
X169133261Y-111793502D01*
X169133258Y-111793511D01*
X169074366Y-112013302D01*
X169074364Y-112013313D01*
X169054532Y-112239998D01*
X169054532Y-112240001D01*
X169074364Y-112466686D01*
X169074366Y-112466697D01*
X169133258Y-112686488D01*
X169133261Y-112686497D01*
X169229431Y-112892732D01*
X169229432Y-112892734D01*
X169359954Y-113079141D01*
X169520858Y-113240045D01*
X169520861Y-113240047D01*
X169707266Y-113370568D01*
X169765275Y-113397618D01*
X169817714Y-113443791D01*
X169836866Y-113510984D01*
X169816650Y-113577865D01*
X169765275Y-113622382D01*
X169707267Y-113649431D01*
X169707265Y-113649432D01*
X169520858Y-113779954D01*
X169359954Y-113940858D01*
X169229432Y-114127265D01*
X169229431Y-114127267D01*
X169133261Y-114333502D01*
X169133258Y-114333511D01*
X169074366Y-114553302D01*
X169074364Y-114553313D01*
X169054532Y-114779998D01*
X169054532Y-114780001D01*
X169074364Y-115006686D01*
X169074366Y-115006697D01*
X169133258Y-115226488D01*
X169133261Y-115226497D01*
X169229431Y-115432732D01*
X169229432Y-115432734D01*
X169359954Y-115619141D01*
X169520858Y-115780045D01*
X169520861Y-115780047D01*
X169707266Y-115910568D01*
X169765275Y-115937618D01*
X169817714Y-115983791D01*
X169836866Y-116050984D01*
X169816650Y-116117865D01*
X169765275Y-116162382D01*
X169707267Y-116189431D01*
X169707265Y-116189432D01*
X169520858Y-116319954D01*
X169359954Y-116480858D01*
X169247387Y-116641623D01*
X169192811Y-116685248D01*
X169145812Y-116694500D01*
X169140650Y-116694500D01*
X169136962Y-116694965D01*
X169136649Y-116695005D01*
X169125031Y-116695918D01*
X169081373Y-116697290D01*
X169081372Y-116697290D01*
X169062129Y-116702881D01*
X169043079Y-116706825D01*
X169023211Y-116709334D01*
X169023210Y-116709335D01*
X168982600Y-116725413D01*
X168971553Y-116729195D01*
X168929610Y-116741381D01*
X168929609Y-116741382D01*
X168912367Y-116751579D01*
X168894899Y-116760137D01*
X168876269Y-116767513D01*
X168876266Y-116767515D01*
X168840939Y-116793181D01*
X168831180Y-116799592D01*
X168793579Y-116821830D01*
X168779408Y-116836000D01*
X168764623Y-116848628D01*
X168748412Y-116860407D01*
X168720571Y-116894059D01*
X168712711Y-116902696D01*
X168416208Y-117199199D01*
X168403951Y-117209020D01*
X168404134Y-117209241D01*
X168398122Y-117214214D01*
X168352098Y-117263223D01*
X168349391Y-117266016D01*
X168329889Y-117285517D01*
X168329875Y-117285534D01*
X168327407Y-117288715D01*
X168319843Y-117297570D01*
X168289937Y-117329418D01*
X168289936Y-117329420D01*
X168280284Y-117346976D01*
X168269610Y-117363226D01*
X168257329Y-117379061D01*
X168257324Y-117379068D01*
X168239975Y-117419158D01*
X168234838Y-117429644D01*
X168213803Y-117467906D01*
X168208822Y-117487307D01*
X168202521Y-117505710D01*
X168194562Y-117524102D01*
X168194561Y-117524105D01*
X168187728Y-117567243D01*
X168185360Y-117578674D01*
X168174501Y-117620971D01*
X168174500Y-117620982D01*
X168174500Y-117641016D01*
X168172973Y-117660415D01*
X168169840Y-117680194D01*
X168169840Y-117680195D01*
X168173950Y-117723674D01*
X168174500Y-117735343D01*
X168174500Y-121250500D01*
X168154815Y-121317539D01*
X168102011Y-121363294D01*
X168050500Y-121374500D01*
X166715060Y-121374500D01*
X166648021Y-121354815D01*
X166602266Y-121302011D01*
X166592322Y-121232853D01*
X166602678Y-121198096D01*
X166624370Y-121151577D01*
X166626739Y-121146496D01*
X166685635Y-120926692D01*
X166705468Y-120700000D01*
X166685635Y-120473308D01*
X166626739Y-120253504D01*
X166530568Y-120047266D01*
X166430670Y-119904596D01*
X166400045Y-119860858D01*
X166239141Y-119699954D01*
X166052734Y-119569432D01*
X166052728Y-119569429D01*
X165994725Y-119542382D01*
X165942285Y-119496210D01*
X165923133Y-119429017D01*
X165943348Y-119362135D01*
X165994725Y-119317618D01*
X166052734Y-119290568D01*
X166239139Y-119160047D01*
X166400047Y-118999139D01*
X166530568Y-118812734D01*
X166626739Y-118606496D01*
X166685635Y-118386692D01*
X166705468Y-118160000D01*
X166685635Y-117933308D01*
X166626739Y-117713504D01*
X166530568Y-117507266D01*
X166430670Y-117364596D01*
X166400045Y-117320858D01*
X166239141Y-117159954D01*
X166052734Y-117029432D01*
X166052728Y-117029429D01*
X165994725Y-117002382D01*
X165942285Y-116956210D01*
X165923133Y-116889017D01*
X165943348Y-116822135D01*
X165994725Y-116777618D01*
X166052734Y-116750568D01*
X166239139Y-116620047D01*
X166400047Y-116459139D01*
X166530568Y-116272734D01*
X166626739Y-116066496D01*
X166685635Y-115846692D01*
X166705468Y-115620000D01*
X166685635Y-115393308D01*
X166626739Y-115173504D01*
X166530568Y-114967266D01*
X166430670Y-114824596D01*
X166400045Y-114780858D01*
X166239141Y-114619954D01*
X166052734Y-114489432D01*
X166052728Y-114489429D01*
X165994725Y-114462382D01*
X165942285Y-114416210D01*
X165923133Y-114349017D01*
X165943348Y-114282135D01*
X165994725Y-114237618D01*
X166052734Y-114210568D01*
X166239139Y-114080047D01*
X166400047Y-113919139D01*
X166530568Y-113732734D01*
X166626739Y-113526496D01*
X166685635Y-113306692D01*
X166705468Y-113080000D01*
X166685635Y-112853308D01*
X166640916Y-112686415D01*
X166626741Y-112633511D01*
X166626738Y-112633502D01*
X166553171Y-112475739D01*
X166530568Y-112427266D01*
X166430670Y-112284596D01*
X166400045Y-112240858D01*
X166239141Y-112079954D01*
X166052734Y-111949432D01*
X166052728Y-111949429D01*
X165994725Y-111922382D01*
X165942285Y-111876210D01*
X165923133Y-111809017D01*
X165943348Y-111742135D01*
X165994725Y-111697618D01*
X166052734Y-111670568D01*
X166239139Y-111540047D01*
X166400047Y-111379139D01*
X166530568Y-111192734D01*
X166626739Y-110986496D01*
X166685635Y-110766692D01*
X166705468Y-110540000D01*
X166685635Y-110313308D01*
X166626739Y-110093504D01*
X166530568Y-109887266D01*
X166430670Y-109744596D01*
X166400045Y-109700858D01*
X166239141Y-109539954D01*
X166052734Y-109409432D01*
X166052728Y-109409429D01*
X165994725Y-109382382D01*
X165942285Y-109336210D01*
X165923133Y-109269017D01*
X165943348Y-109202135D01*
X165994725Y-109157618D01*
X166052734Y-109130568D01*
X166239139Y-109000047D01*
X166400047Y-108839139D01*
X166530568Y-108652734D01*
X166626739Y-108446496D01*
X166685635Y-108226692D01*
X166705468Y-108000000D01*
X166685635Y-107773308D01*
X166626739Y-107553504D01*
X166530568Y-107347266D01*
X166430670Y-107204596D01*
X166400045Y-107160858D01*
X166239141Y-106999954D01*
X166052734Y-106869432D01*
X166052728Y-106869429D01*
X165994725Y-106842382D01*
X165942285Y-106796210D01*
X165923133Y-106729017D01*
X165943348Y-106662135D01*
X165994725Y-106617618D01*
X166052734Y-106590568D01*
X166239139Y-106460047D01*
X166400047Y-106299139D01*
X166530568Y-106112734D01*
X166626739Y-105906496D01*
X166685635Y-105686692D01*
X166705468Y-105460000D01*
X166685635Y-105233308D01*
X166626739Y-105013504D01*
X166530568Y-104807266D01*
X166430670Y-104664596D01*
X166400045Y-104620858D01*
X166239141Y-104459954D01*
X166052734Y-104329432D01*
X166052732Y-104329431D01*
X165994725Y-104302382D01*
X165994132Y-104302105D01*
X165941694Y-104255934D01*
X165922542Y-104188740D01*
X165942758Y-104121859D01*
X165994134Y-104077341D01*
X166052484Y-104050132D01*
X166238820Y-103919657D01*
X166399657Y-103758820D01*
X166530134Y-103572482D01*
X166626265Y-103366326D01*
X166626269Y-103366317D01*
X166678872Y-103170000D01*
X165315686Y-103170000D01*
X165327641Y-103158045D01*
X165385165Y-103045148D01*
X165404986Y-102920000D01*
X165385165Y-102794852D01*
X165327641Y-102681955D01*
X165315686Y-102670000D01*
X166678872Y-102670000D01*
X166678872Y-102669999D01*
X166626269Y-102473682D01*
X166626265Y-102473673D01*
X166530134Y-102267517D01*
X166399657Y-102081179D01*
X166238820Y-101920342D01*
X166052482Y-101789865D01*
X165846326Y-101693734D01*
X165846317Y-101693730D01*
X165626610Y-101634860D01*
X165626599Y-101634858D01*
X165456766Y-101620000D01*
X165250000Y-101620000D01*
X165250000Y-102604314D01*
X165238045Y-102592359D01*
X165125148Y-102534835D01*
X165031481Y-102520000D01*
X164968519Y-102520000D01*
X164874852Y-102534835D01*
X164761955Y-102592359D01*
X164750000Y-102604314D01*
X164750000Y-101620000D01*
X164543233Y-101620000D01*
X164373400Y-101634858D01*
X164373389Y-101634860D01*
X164153682Y-101693730D01*
X164153673Y-101693734D01*
X163947517Y-101789865D01*
X163761179Y-101920342D01*
X163600342Y-102081179D01*
X163469865Y-102267517D01*
X163373734Y-102473673D01*
X163373730Y-102473682D01*
X163321127Y-102669999D01*
X163321128Y-102670000D01*
X164684314Y-102670000D01*
X164672359Y-102681955D01*
X164614835Y-102794852D01*
X164595014Y-102920000D01*
X164614835Y-103045148D01*
X164672359Y-103158045D01*
X164684314Y-103170000D01*
X163321128Y-103170000D01*
X163373730Y-103366317D01*
X163373734Y-103366326D01*
X163469865Y-103572482D01*
X163600342Y-103758820D01*
X163761179Y-103919657D01*
X163947518Y-104050134D01*
X163947520Y-104050135D01*
X164005865Y-104077342D01*
X164058305Y-104123514D01*
X164077457Y-104190707D01*
X164057242Y-104257589D01*
X164005867Y-104302105D01*
X163947268Y-104329431D01*
X163947264Y-104329433D01*
X163760858Y-104459954D01*
X163599954Y-104620858D01*
X163469432Y-104807265D01*
X163469431Y-104807267D01*
X163373261Y-105013502D01*
X163373258Y-105013511D01*
X163314366Y-105233302D01*
X163314364Y-105233313D01*
X163294532Y-105459998D01*
X163294532Y-105460001D01*
X163314364Y-105686686D01*
X163314366Y-105686697D01*
X163373258Y-105906488D01*
X163373261Y-105906497D01*
X163469431Y-106112732D01*
X163469432Y-106112734D01*
X163599954Y-106299141D01*
X163760858Y-106460045D01*
X163760861Y-106460047D01*
X163947266Y-106590568D01*
X164005275Y-106617618D01*
X164057714Y-106663791D01*
X164076866Y-106730984D01*
X164056650Y-106797865D01*
X164005275Y-106842382D01*
X163947267Y-106869431D01*
X163947265Y-106869432D01*
X163760858Y-106999954D01*
X163599954Y-107160858D01*
X163469432Y-107347265D01*
X163469431Y-107347267D01*
X163373261Y-107553502D01*
X163373258Y-107553511D01*
X163314366Y-107773302D01*
X163314364Y-107773313D01*
X163294532Y-107999998D01*
X163294532Y-108000001D01*
X163314364Y-108226686D01*
X163314366Y-108226697D01*
X163373258Y-108446488D01*
X163373261Y-108446497D01*
X163469431Y-108652732D01*
X163469432Y-108652734D01*
X163599954Y-108839141D01*
X163760858Y-109000045D01*
X163760861Y-109000047D01*
X163947266Y-109130568D01*
X164005275Y-109157618D01*
X164057714Y-109203791D01*
X164076866Y-109270984D01*
X164056650Y-109337865D01*
X164005275Y-109382382D01*
X163947267Y-109409431D01*
X163947265Y-109409432D01*
X163760858Y-109539954D01*
X163599954Y-109700858D01*
X163469432Y-109887265D01*
X163469431Y-109887267D01*
X163373261Y-110093502D01*
X163373258Y-110093511D01*
X163314366Y-110313302D01*
X163314364Y-110313313D01*
X163294532Y-110539998D01*
X163294532Y-110540001D01*
X163314364Y-110766686D01*
X163314366Y-110766697D01*
X163373258Y-110986488D01*
X163373261Y-110986497D01*
X163469431Y-111192732D01*
X163469432Y-111192734D01*
X163599954Y-111379141D01*
X163760858Y-111540045D01*
X163760861Y-111540047D01*
X163947266Y-111670568D01*
X164005275Y-111697618D01*
X164057714Y-111743791D01*
X164076866Y-111810984D01*
X164056650Y-111877865D01*
X164005275Y-111922382D01*
X163947267Y-111949431D01*
X163947265Y-111949432D01*
X163760858Y-112079954D01*
X163599954Y-112240858D01*
X163469432Y-112427265D01*
X163469431Y-112427267D01*
X163373261Y-112633502D01*
X163373258Y-112633511D01*
X163314366Y-112853302D01*
X163314364Y-112853313D01*
X163294532Y-113079998D01*
X163294532Y-113080001D01*
X163314364Y-113306686D01*
X163314366Y-113306697D01*
X163373258Y-113526488D01*
X163373261Y-113526497D01*
X163469431Y-113732732D01*
X163469432Y-113732734D01*
X163599954Y-113919141D01*
X163760858Y-114080045D01*
X163760861Y-114080047D01*
X163947266Y-114210568D01*
X164005275Y-114237618D01*
X164057714Y-114283791D01*
X164076866Y-114350984D01*
X164056650Y-114417865D01*
X164005275Y-114462382D01*
X163947267Y-114489431D01*
X163947265Y-114489432D01*
X163760858Y-114619954D01*
X163599954Y-114780858D01*
X163469432Y-114967265D01*
X163469431Y-114967267D01*
X163373261Y-115173502D01*
X163373258Y-115173511D01*
X163314366Y-115393302D01*
X163314364Y-115393313D01*
X163294532Y-115619998D01*
X163294532Y-115620001D01*
X163314364Y-115846686D01*
X163314366Y-115846697D01*
X163373258Y-116066488D01*
X163373261Y-116066497D01*
X163469431Y-116272732D01*
X163469432Y-116272734D01*
X163599954Y-116459141D01*
X163760858Y-116620045D01*
X163760861Y-116620047D01*
X163947266Y-116750568D01*
X163983607Y-116767514D01*
X164005275Y-116777618D01*
X164057714Y-116823791D01*
X164076866Y-116890984D01*
X164056650Y-116957865D01*
X164005275Y-117002382D01*
X163947267Y-117029431D01*
X163947265Y-117029432D01*
X163760858Y-117159954D01*
X163599954Y-117320858D01*
X163469432Y-117507265D01*
X163469431Y-117507267D01*
X163373261Y-117713502D01*
X163373258Y-117713511D01*
X163314366Y-117933302D01*
X163314364Y-117933313D01*
X163294532Y-118159998D01*
X163294532Y-118160001D01*
X163314364Y-118386686D01*
X163314366Y-118386697D01*
X163373258Y-118606488D01*
X163373261Y-118606497D01*
X163469431Y-118812732D01*
X163469432Y-118812734D01*
X163599954Y-118999141D01*
X163760858Y-119160045D01*
X163760861Y-119160047D01*
X163947266Y-119290568D01*
X164005275Y-119317618D01*
X164057714Y-119363791D01*
X164076866Y-119430984D01*
X164056650Y-119497865D01*
X164005275Y-119542382D01*
X163947267Y-119569431D01*
X163947265Y-119569432D01*
X163760858Y-119699954D01*
X163599954Y-119860858D01*
X163469432Y-120047265D01*
X163469431Y-120047267D01*
X163373261Y-120253502D01*
X163373258Y-120253511D01*
X163314366Y-120473302D01*
X163314364Y-120473313D01*
X163294532Y-120699998D01*
X163294532Y-120700001D01*
X163314364Y-120926686D01*
X163314366Y-120926697D01*
X163373258Y-121146488D01*
X163373260Y-121146493D01*
X163373261Y-121146496D01*
X163374224Y-121148561D01*
X163374375Y-121149555D01*
X163375111Y-121151577D01*
X163374704Y-121151724D01*
X163384714Y-121217638D01*
X163356192Y-121281421D01*
X163297714Y-121319659D01*
X163227847Y-121320212D01*
X163176956Y-121291354D01*
X163161775Y-121277098D01*
X163158976Y-121274385D01*
X163139477Y-121254885D01*
X163139471Y-121254880D01*
X163136286Y-121252409D01*
X163127434Y-121244848D01*
X163095582Y-121214938D01*
X163095580Y-121214936D01*
X163095577Y-121214935D01*
X163078029Y-121205288D01*
X163061763Y-121194604D01*
X163045932Y-121182324D01*
X163005849Y-121164978D01*
X162995363Y-121159841D01*
X162957094Y-121138803D01*
X162957092Y-121138802D01*
X162937693Y-121133822D01*
X162919281Y-121127518D01*
X162900898Y-121119562D01*
X162900892Y-121119560D01*
X162857760Y-121112729D01*
X162846322Y-121110361D01*
X162804020Y-121099500D01*
X162804019Y-121099500D01*
X162783984Y-121099500D01*
X162764586Y-121097973D01*
X162757162Y-121096797D01*
X162744805Y-121094840D01*
X162744804Y-121094840D01*
X162701325Y-121098950D01*
X162689656Y-121099500D01*
X161703748Y-121099500D01*
X161636709Y-121079815D01*
X161611600Y-121058474D01*
X161605873Y-121052114D01*
X161605869Y-121052110D01*
X161452734Y-120940851D01*
X161452729Y-120940848D01*
X161279807Y-120863857D01*
X161279802Y-120863855D01*
X161134001Y-120832865D01*
X161094646Y-120824500D01*
X160905354Y-120824500D01*
X160872897Y-120831398D01*
X160720197Y-120863855D01*
X160720192Y-120863857D01*
X160547270Y-120940848D01*
X160547265Y-120940851D01*
X160394130Y-121052110D01*
X160394126Y-121052114D01*
X160388400Y-121058474D01*
X160328913Y-121095121D01*
X160296252Y-121099500D01*
X159357743Y-121099500D01*
X159342122Y-121097775D01*
X159342095Y-121098061D01*
X159334333Y-121097326D01*
X159267113Y-121099439D01*
X159263219Y-121099500D01*
X159235650Y-121099500D01*
X159231673Y-121100002D01*
X159220042Y-121100917D01*
X159184128Y-121102046D01*
X159116503Y-121084477D01*
X159069112Y-121033137D01*
X159057000Y-120964325D01*
X159060456Y-120946017D01*
X159065635Y-120926692D01*
X159085468Y-120700000D01*
X159065635Y-120473308D01*
X159006739Y-120253504D01*
X158910568Y-120047266D01*
X158810670Y-119904596D01*
X158780045Y-119860858D01*
X158619141Y-119699954D01*
X158432734Y-119569432D01*
X158432728Y-119569429D01*
X158374725Y-119542382D01*
X158322285Y-119496210D01*
X158303133Y-119429017D01*
X158323348Y-119362135D01*
X158374725Y-119317618D01*
X158432734Y-119290568D01*
X158619139Y-119160047D01*
X158780047Y-118999139D01*
X158910568Y-118812734D01*
X159006739Y-118606496D01*
X159065635Y-118386692D01*
X159085468Y-118160000D01*
X159065635Y-117933308D01*
X159006739Y-117713504D01*
X158910568Y-117507266D01*
X158810670Y-117364596D01*
X158780045Y-117320858D01*
X158619141Y-117159954D01*
X158432734Y-117029432D01*
X158432728Y-117029429D01*
X158374725Y-117002382D01*
X158322285Y-116956210D01*
X158303133Y-116889017D01*
X158323348Y-116822135D01*
X158374725Y-116777618D01*
X158432734Y-116750568D01*
X158619139Y-116620047D01*
X158780047Y-116459139D01*
X158910568Y-116272734D01*
X159006739Y-116066496D01*
X159065635Y-115846692D01*
X159085468Y-115620000D01*
X159065635Y-115393308D01*
X159006739Y-115173504D01*
X158910568Y-114967266D01*
X158810670Y-114824596D01*
X158780045Y-114780858D01*
X158619141Y-114619954D01*
X158432734Y-114489432D01*
X158432728Y-114489429D01*
X158374725Y-114462382D01*
X158322285Y-114416210D01*
X158303133Y-114349017D01*
X158323348Y-114282135D01*
X158374725Y-114237618D01*
X158432734Y-114210568D01*
X158619139Y-114080047D01*
X158780047Y-113919139D01*
X158910568Y-113732734D01*
X159006739Y-113526496D01*
X159065635Y-113306692D01*
X159085468Y-113080000D01*
X159065635Y-112853308D01*
X159020916Y-112686415D01*
X159006741Y-112633511D01*
X159006738Y-112633502D01*
X158933171Y-112475739D01*
X158910568Y-112427266D01*
X158810670Y-112284596D01*
X158780045Y-112240858D01*
X158619141Y-112079954D01*
X158432734Y-111949432D01*
X158432728Y-111949429D01*
X158374725Y-111922382D01*
X158322285Y-111876210D01*
X158303133Y-111809017D01*
X158323348Y-111742135D01*
X158374725Y-111697618D01*
X158432734Y-111670568D01*
X158619139Y-111540047D01*
X158780047Y-111379139D01*
X158910568Y-111192734D01*
X159006739Y-110986496D01*
X159065635Y-110766692D01*
X159085468Y-110540000D01*
X159065635Y-110313308D01*
X159006739Y-110093504D01*
X158910568Y-109887266D01*
X158810670Y-109744596D01*
X158780045Y-109700858D01*
X158619141Y-109539954D01*
X158432734Y-109409432D01*
X158432728Y-109409429D01*
X158374725Y-109382382D01*
X158322285Y-109336210D01*
X158303133Y-109269017D01*
X158323348Y-109202135D01*
X158374725Y-109157618D01*
X158432734Y-109130568D01*
X158619139Y-109000047D01*
X158780047Y-108839139D01*
X158910568Y-108652734D01*
X159006739Y-108446496D01*
X159065635Y-108226692D01*
X159085468Y-108000000D01*
X159065635Y-107773308D01*
X159006739Y-107553504D01*
X158910568Y-107347266D01*
X158810670Y-107204596D01*
X158780045Y-107160858D01*
X158619141Y-106999954D01*
X158432734Y-106869432D01*
X158432728Y-106869429D01*
X158374725Y-106842382D01*
X158322285Y-106796210D01*
X158303133Y-106729017D01*
X158323348Y-106662135D01*
X158374725Y-106617618D01*
X158432734Y-106590568D01*
X158619139Y-106460047D01*
X158780047Y-106299139D01*
X158910568Y-106112734D01*
X159006739Y-105906496D01*
X159065635Y-105686692D01*
X159085468Y-105460000D01*
X159065635Y-105233308D01*
X159006739Y-105013504D01*
X158910568Y-104807266D01*
X158810670Y-104664596D01*
X158780045Y-104620858D01*
X158619141Y-104459954D01*
X158432734Y-104329432D01*
X158432728Y-104329429D01*
X158374725Y-104302382D01*
X158322285Y-104256210D01*
X158303133Y-104189017D01*
X158323348Y-104122135D01*
X158374725Y-104077618D01*
X158375319Y-104077341D01*
X158432734Y-104050568D01*
X158619139Y-103920047D01*
X158780047Y-103759139D01*
X158910568Y-103572734D01*
X159006739Y-103366496D01*
X159065635Y-103146692D01*
X159085468Y-102920000D01*
X159065635Y-102693308D01*
X159008982Y-102481874D01*
X159006741Y-102473511D01*
X159006738Y-102473502D01*
X158933171Y-102315739D01*
X158910568Y-102267266D01*
X158810670Y-102124596D01*
X158780045Y-102080858D01*
X158619141Y-101919954D01*
X158432734Y-101789432D01*
X158432732Y-101789431D01*
X158226497Y-101693261D01*
X158226488Y-101693258D01*
X158008212Y-101634772D01*
X157948551Y-101598407D01*
X157937186Y-101582495D01*
X157937072Y-101582579D01*
X157906816Y-101540935D01*
X157900403Y-101531172D01*
X157878172Y-101493583D01*
X157878170Y-101493579D01*
X157878166Y-101493575D01*
X157878163Y-101493571D01*
X157864005Y-101479413D01*
X157851370Y-101464620D01*
X157839593Y-101448412D01*
X157805945Y-101420576D01*
X157797304Y-101412713D01*
X156896772Y-100512181D01*
X156863287Y-100450858D01*
X156868271Y-100381166D01*
X156910143Y-100325233D01*
X156975607Y-100300816D01*
X156984453Y-100300500D01*
X157836785Y-100300500D01*
X157836785Y-100300499D01*
X158006692Y-100285635D01*
X158226496Y-100226739D01*
X158432734Y-100130568D01*
X158619139Y-100000047D01*
X158780047Y-99839139D01*
X158910568Y-99652734D01*
X159006739Y-99446496D01*
X159065635Y-99226692D01*
X159085468Y-99000000D01*
X159065635Y-98773308D01*
X159006739Y-98553504D01*
X158910568Y-98347266D01*
X158780047Y-98160861D01*
X158780045Y-98160858D01*
X158619141Y-97999954D01*
X158432734Y-97869432D01*
X158432728Y-97869429D01*
X158374725Y-97842382D01*
X158322285Y-97796210D01*
X158303133Y-97729017D01*
X158323348Y-97662135D01*
X158374725Y-97617618D01*
X158432734Y-97590568D01*
X158619139Y-97460047D01*
X158780047Y-97299139D01*
X158910568Y-97112734D01*
X159006739Y-96906496D01*
X159065635Y-96686692D01*
X159085468Y-96460000D01*
X159065635Y-96233308D01*
X159006739Y-96013504D01*
X158910568Y-95807266D01*
X158780047Y-95620861D01*
X158780045Y-95620858D01*
X158619141Y-95459954D01*
X158432734Y-95329432D01*
X158432728Y-95329429D01*
X158374725Y-95302382D01*
X158322285Y-95256210D01*
X158303133Y-95189017D01*
X158323348Y-95122135D01*
X158374725Y-95077618D01*
X158432734Y-95050568D01*
X158619139Y-94920047D01*
X158780047Y-94759139D01*
X158910568Y-94572734D01*
X159006739Y-94366496D01*
X159051566Y-94199196D01*
X159087929Y-94139539D01*
X159150776Y-94109009D01*
X159220152Y-94117303D01*
G37*
%TD.AperFunction*%
%TA.AperFunction,Conductor*%
G36*
X184342653Y-88745185D02*
G01*
X184388408Y-88797989D01*
X184398352Y-88867147D01*
X184387996Y-88901905D01*
X184373262Y-88933502D01*
X184373258Y-88933511D01*
X184314366Y-89153302D01*
X184314364Y-89153313D01*
X184294532Y-89379998D01*
X184294532Y-89380001D01*
X184314364Y-89606686D01*
X184314366Y-89606697D01*
X184371093Y-89818407D01*
X184369430Y-89888257D01*
X184330267Y-89946119D01*
X184266039Y-89973623D01*
X184251318Y-89974500D01*
X180482737Y-89974500D01*
X180467120Y-89972776D01*
X180467093Y-89973062D01*
X180459331Y-89972327D01*
X180392144Y-89974439D01*
X180388250Y-89974500D01*
X180360650Y-89974500D01*
X180356962Y-89974965D01*
X180356649Y-89975005D01*
X180345031Y-89975918D01*
X180301372Y-89977290D01*
X180301369Y-89977291D01*
X180282126Y-89982881D01*
X180263083Y-89986825D01*
X180243204Y-89989336D01*
X180243203Y-89989337D01*
X180202593Y-90005415D01*
X180191548Y-90009197D01*
X180149608Y-90021383D01*
X180149604Y-90021385D01*
X180132365Y-90031580D01*
X180114898Y-90040137D01*
X180096269Y-90047512D01*
X180096267Y-90047514D01*
X180060926Y-90073189D01*
X180051168Y-90079599D01*
X180013580Y-90101828D01*
X179999408Y-90116000D01*
X179984623Y-90128628D01*
X179968412Y-90140407D01*
X179940571Y-90174059D01*
X179932711Y-90182696D01*
X174152228Y-95963181D01*
X174090905Y-95996666D01*
X174064547Y-95999500D01*
X174005354Y-95999500D01*
X173972897Y-96006398D01*
X173820197Y-96038855D01*
X173820192Y-96038857D01*
X173647270Y-96115848D01*
X173647265Y-96115851D01*
X173494129Y-96227111D01*
X173367466Y-96367785D01*
X173272821Y-96531715D01*
X173272818Y-96531722D01*
X173222466Y-96686692D01*
X173214326Y-96711744D01*
X173194540Y-96900000D01*
X173214326Y-97088256D01*
X173214327Y-97088259D01*
X173272818Y-97268277D01*
X173272821Y-97268284D01*
X173367467Y-97432216D01*
X173410772Y-97480310D01*
X173442650Y-97515715D01*
X173472880Y-97578706D01*
X173474500Y-97598687D01*
X173474500Y-112589546D01*
X173454815Y-112656585D01*
X173438181Y-112677227D01*
X172254978Y-113860429D01*
X172193655Y-113893914D01*
X172123963Y-113888930D01*
X172079616Y-113860429D01*
X171999141Y-113779954D01*
X171812734Y-113649432D01*
X171812728Y-113649429D01*
X171754725Y-113622382D01*
X171702285Y-113576210D01*
X171683133Y-113509017D01*
X171703348Y-113442135D01*
X171754725Y-113397618D01*
X171812734Y-113370568D01*
X171999139Y-113240047D01*
X172160047Y-113079139D01*
X172290568Y-112892734D01*
X172386739Y-112686496D01*
X172445635Y-112466692D01*
X172465468Y-112240000D01*
X172445635Y-112013308D01*
X172386739Y-111793504D01*
X172290568Y-111587266D01*
X172160047Y-111400861D01*
X172160045Y-111400858D01*
X171999141Y-111239954D01*
X171812734Y-111109432D01*
X171812728Y-111109429D01*
X171754725Y-111082382D01*
X171702285Y-111036210D01*
X171683133Y-110969017D01*
X171703348Y-110902135D01*
X171754725Y-110857618D01*
X171812734Y-110830568D01*
X171999139Y-110700047D01*
X172160047Y-110539139D01*
X172290568Y-110352734D01*
X172386739Y-110146496D01*
X172445635Y-109926692D01*
X172465468Y-109700000D01*
X172445635Y-109473308D01*
X172386739Y-109253504D01*
X172290568Y-109047266D01*
X172160047Y-108860861D01*
X172160045Y-108860858D01*
X171999141Y-108699954D01*
X171812734Y-108569432D01*
X171812728Y-108569429D01*
X171754725Y-108542382D01*
X171702285Y-108496210D01*
X171683133Y-108429017D01*
X171703348Y-108362135D01*
X171754725Y-108317618D01*
X171812734Y-108290568D01*
X171999139Y-108160047D01*
X172160047Y-107999139D01*
X172290568Y-107812734D01*
X172386739Y-107606496D01*
X172445635Y-107386692D01*
X172465468Y-107160000D01*
X172445635Y-106933308D01*
X172386739Y-106713504D01*
X172290568Y-106507266D01*
X172160047Y-106320861D01*
X172160045Y-106320858D01*
X171999141Y-106159954D01*
X171812734Y-106029432D01*
X171812728Y-106029429D01*
X171754725Y-106002382D01*
X171702285Y-105956210D01*
X171683133Y-105889017D01*
X171703348Y-105822135D01*
X171754725Y-105777618D01*
X171812734Y-105750568D01*
X171999139Y-105620047D01*
X172160047Y-105459139D01*
X172290568Y-105272734D01*
X172386739Y-105066496D01*
X172445635Y-104846692D01*
X172465468Y-104620000D01*
X172445635Y-104393308D01*
X172390896Y-104189017D01*
X172386741Y-104173511D01*
X172386738Y-104173502D01*
X172342026Y-104077618D01*
X172290568Y-103967266D01*
X172160047Y-103780861D01*
X172160045Y-103780858D01*
X171999141Y-103619954D01*
X171812734Y-103489432D01*
X171812728Y-103489429D01*
X171754725Y-103462382D01*
X171702285Y-103416210D01*
X171683133Y-103349017D01*
X171703348Y-103282135D01*
X171754725Y-103237618D01*
X171812734Y-103210568D01*
X171999139Y-103080047D01*
X172160047Y-102919139D01*
X172290568Y-102732734D01*
X172386739Y-102526496D01*
X172445635Y-102306692D01*
X172465468Y-102080000D01*
X172445635Y-101853308D01*
X172394683Y-101663152D01*
X172386741Y-101633511D01*
X172386738Y-101633502D01*
X172290568Y-101427266D01*
X172160047Y-101240861D01*
X172160045Y-101240858D01*
X171999141Y-101079954D01*
X171812734Y-100949432D01*
X171812728Y-100949429D01*
X171785038Y-100936517D01*
X171754724Y-100922381D01*
X171702285Y-100876210D01*
X171683133Y-100809017D01*
X171703348Y-100742135D01*
X171754725Y-100697618D01*
X171812734Y-100670568D01*
X171999139Y-100540047D01*
X172160047Y-100379139D01*
X172290568Y-100192734D01*
X172386739Y-99986496D01*
X172445635Y-99766692D01*
X172465468Y-99540000D01*
X172445635Y-99313308D01*
X172386739Y-99093504D01*
X172290568Y-98887266D01*
X172160047Y-98700861D01*
X172160045Y-98700858D01*
X171999141Y-98539954D01*
X171812734Y-98409432D01*
X171812728Y-98409429D01*
X171754725Y-98382382D01*
X171702285Y-98336210D01*
X171683133Y-98269017D01*
X171703348Y-98202135D01*
X171754725Y-98157618D01*
X171812734Y-98130568D01*
X171999139Y-98000047D01*
X172160047Y-97839139D01*
X172290568Y-97652734D01*
X172386739Y-97446496D01*
X172445635Y-97226692D01*
X172465468Y-97000000D01*
X172445635Y-96773308D01*
X172386739Y-96553504D01*
X172290568Y-96347266D01*
X172160047Y-96160861D01*
X172160045Y-96160858D01*
X171999141Y-95999954D01*
X171812734Y-95869432D01*
X171812728Y-95869429D01*
X171754725Y-95842382D01*
X171702285Y-95796210D01*
X171683133Y-95729017D01*
X171703348Y-95662135D01*
X171754725Y-95617618D01*
X171812734Y-95590568D01*
X171999139Y-95460047D01*
X172160047Y-95299139D01*
X172290568Y-95112734D01*
X172386739Y-94906496D01*
X172445635Y-94686692D01*
X172465468Y-94460000D01*
X172445635Y-94233308D01*
X172386739Y-94013504D01*
X172290568Y-93807266D01*
X172179908Y-93649225D01*
X172160045Y-93620858D01*
X171999141Y-93459954D01*
X171812734Y-93329432D01*
X171812728Y-93329429D01*
X171754725Y-93302382D01*
X171702285Y-93256210D01*
X171683133Y-93189017D01*
X171703348Y-93122135D01*
X171754725Y-93077618D01*
X171812734Y-93050568D01*
X171999139Y-92920047D01*
X172160047Y-92759139D01*
X172290568Y-92572734D01*
X172386739Y-92366496D01*
X172445635Y-92146692D01*
X172465468Y-91920000D01*
X172445635Y-91693308D01*
X172386739Y-91473504D01*
X172290568Y-91267266D01*
X172160047Y-91080861D01*
X172160045Y-91080858D01*
X171999141Y-90919954D01*
X171812734Y-90789432D01*
X171812728Y-90789429D01*
X171754725Y-90762382D01*
X171702285Y-90716210D01*
X171683133Y-90649017D01*
X171703348Y-90582135D01*
X171754725Y-90537618D01*
X171812734Y-90510568D01*
X171999139Y-90380047D01*
X172160047Y-90219139D01*
X172290568Y-90032734D01*
X172386739Y-89826496D01*
X172445635Y-89606692D01*
X172465468Y-89380000D01*
X172462408Y-89345029D01*
X172458589Y-89301372D01*
X172445635Y-89153308D01*
X172386739Y-88933504D01*
X172372003Y-88901904D01*
X172361512Y-88832827D01*
X172390032Y-88769043D01*
X172448508Y-88730804D01*
X172484386Y-88725500D01*
X184275614Y-88725500D01*
X184342653Y-88745185D01*
G37*
%TD.AperFunction*%
%TA.AperFunction,Conductor*%
G36*
X192942539Y-81020185D02*
G01*
X192988294Y-81072989D01*
X192999500Y-81124500D01*
X192999500Y-127875500D01*
X192979815Y-127942539D01*
X192927011Y-127988294D01*
X192875500Y-127999500D01*
X150124500Y-127999500D01*
X150057461Y-127979815D01*
X150011706Y-127927011D01*
X150000500Y-127875500D01*
X150000500Y-125220000D01*
X151144341Y-125220000D01*
X151164936Y-125455403D01*
X151164938Y-125455413D01*
X151226094Y-125683655D01*
X151226096Y-125683659D01*
X151226097Y-125683663D01*
X151301563Y-125845500D01*
X151325965Y-125897830D01*
X151325967Y-125897834D01*
X151434281Y-126052521D01*
X151461505Y-126091401D01*
X151628599Y-126258495D01*
X151725384Y-126326265D01*
X151822165Y-126394032D01*
X151822167Y-126394033D01*
X151822170Y-126394035D01*
X152036337Y-126493903D01*
X152264592Y-126555063D01*
X152452918Y-126571539D01*
X152499999Y-126575659D01*
X152500000Y-126575659D01*
X152500001Y-126575659D01*
X152539234Y-126572226D01*
X152735408Y-126555063D01*
X152963663Y-126493903D01*
X153177830Y-126394035D01*
X153371401Y-126258495D01*
X153538495Y-126091401D01*
X153674035Y-125897830D01*
X153773903Y-125683663D01*
X153835063Y-125455408D01*
X153855659Y-125220000D01*
X153853664Y-125197203D01*
X153847546Y-125127266D01*
X153835063Y-124984592D01*
X153808143Y-124884125D01*
X153809806Y-124814276D01*
X153840235Y-124764353D01*
X155383787Y-123220801D01*
X155396042Y-123210986D01*
X155395859Y-123210764D01*
X155401868Y-123205791D01*
X155401877Y-123205786D01*
X155447949Y-123156722D01*
X155450567Y-123154022D01*
X155463353Y-123141238D01*
X155524678Y-123107758D01*
X155594370Y-123112748D01*
X155650300Y-123154623D01*
X155674712Y-123220090D01*
X155674555Y-123239729D01*
X155674532Y-123239991D01*
X155674532Y-123240001D01*
X155694364Y-123466686D01*
X155694366Y-123466697D01*
X155753258Y-123686488D01*
X155753261Y-123686497D01*
X155849431Y-123892732D01*
X155849432Y-123892734D01*
X155979954Y-124079141D01*
X156140858Y-124240045D01*
X156140861Y-124240047D01*
X156327266Y-124370568D01*
X156385275Y-124397618D01*
X156437714Y-124443791D01*
X156456866Y-124510984D01*
X156436650Y-124577865D01*
X156385275Y-124622381D01*
X156378775Y-124625413D01*
X156327267Y-124649431D01*
X156327265Y-124649432D01*
X156140858Y-124779954D01*
X155979954Y-124940858D01*
X155849432Y-125127265D01*
X155849431Y-125127267D01*
X155753261Y-125333502D01*
X155753258Y-125333511D01*
X155694366Y-125553302D01*
X155694364Y-125553313D01*
X155674532Y-125779998D01*
X155674532Y-125780001D01*
X155694364Y-126006686D01*
X155694366Y-126006697D01*
X155753258Y-126226488D01*
X155753261Y-126226497D01*
X155849431Y-126432732D01*
X155849432Y-126432734D01*
X155979954Y-126619141D01*
X156140858Y-126780045D01*
X156187693Y-126812839D01*
X156327266Y-126910568D01*
X156533504Y-127006739D01*
X156753308Y-127065635D01*
X156923214Y-127080499D01*
X156923215Y-127080500D01*
X156923216Y-127080500D01*
X157836785Y-127080500D01*
X157836785Y-127080499D01*
X158006692Y-127065635D01*
X158226496Y-127006739D01*
X158432734Y-126910568D01*
X158619139Y-126780047D01*
X158780047Y-126619139D01*
X158910568Y-126432734D01*
X159006739Y-126226496D01*
X159065635Y-126006692D01*
X159085468Y-125780000D01*
X159065635Y-125553308D01*
X159006739Y-125333504D01*
X158910568Y-125127266D01*
X158810670Y-124984596D01*
X158780045Y-124940858D01*
X158619141Y-124779954D01*
X158432734Y-124649432D01*
X158432728Y-124649429D01*
X158381225Y-124625413D01*
X158374724Y-124622381D01*
X158322285Y-124576210D01*
X158303133Y-124509017D01*
X158323348Y-124442135D01*
X158374725Y-124397618D01*
X158432734Y-124370568D01*
X158619139Y-124240047D01*
X158780047Y-124079139D01*
X158910568Y-123892734D01*
X159006739Y-123686496D01*
X159065635Y-123466692D01*
X159084779Y-123247872D01*
X159085468Y-123240001D01*
X159085468Y-123239998D01*
X159073653Y-123104952D01*
X159065635Y-123013308D01*
X159006739Y-122793504D01*
X159006736Y-122793498D01*
X159004889Y-122788423D01*
X159006997Y-122787655D01*
X158997942Y-122728081D01*
X159026454Y-122664294D01*
X159084926Y-122626047D01*
X159095391Y-122623648D01*
X159098621Y-122622709D01*
X159098627Y-122622709D01*
X159117869Y-122617117D01*
X159136912Y-122613174D01*
X159156792Y-122610664D01*
X159197401Y-122594585D01*
X159208444Y-122590803D01*
X159250390Y-122578618D01*
X159267629Y-122568422D01*
X159285103Y-122559862D01*
X159303727Y-122552488D01*
X159303727Y-122552487D01*
X159303732Y-122552486D01*
X159339083Y-122526800D01*
X159348814Y-122520408D01*
X159386420Y-122498170D01*
X159400589Y-122483999D01*
X159415379Y-122471368D01*
X159431587Y-122459594D01*
X159459433Y-122425932D01*
X159467275Y-122417313D01*
X159497773Y-122386816D01*
X159559096Y-122353333D01*
X159585452Y-122350500D01*
X160296252Y-122350500D01*
X160363291Y-122370185D01*
X160388400Y-122391526D01*
X160394126Y-122397885D01*
X160394130Y-122397889D01*
X160547265Y-122509148D01*
X160547270Y-122509151D01*
X160720192Y-122586142D01*
X160720197Y-122586144D01*
X160905354Y-122625500D01*
X160905355Y-122625500D01*
X161094644Y-122625500D01*
X161094646Y-122625500D01*
X161279803Y-122586144D01*
X161452730Y-122509151D01*
X161605871Y-122397888D01*
X161609853Y-122393466D01*
X161611600Y-122391526D01*
X161671087Y-122354879D01*
X161703748Y-122350500D01*
X162413439Y-122350500D01*
X162480478Y-122370185D01*
X162507471Y-122397329D01*
X162509240Y-122395866D01*
X162514210Y-122401874D01*
X162563239Y-122447915D01*
X162566036Y-122450626D01*
X162585530Y-122470120D01*
X162588695Y-122472575D01*
X162597571Y-122480156D01*
X162629418Y-122510062D01*
X162629422Y-122510064D01*
X162646973Y-122519713D01*
X162663231Y-122530392D01*
X162679064Y-122542674D01*
X162714410Y-122557968D01*
X162719155Y-122560022D01*
X162729635Y-122565155D01*
X162767908Y-122586197D01*
X162787312Y-122591179D01*
X162805710Y-122597478D01*
X162824105Y-122605438D01*
X162867254Y-122612271D01*
X162878680Y-122614638D01*
X162920981Y-122625500D01*
X162941016Y-122625500D01*
X162960413Y-122627026D01*
X162980196Y-122630160D01*
X163023675Y-122626050D01*
X163035344Y-122625500D01*
X163257319Y-122625500D01*
X163324358Y-122645185D01*
X163370113Y-122697989D01*
X163380057Y-122767147D01*
X163373839Y-122791915D01*
X163373260Y-122793503D01*
X163314366Y-123013302D01*
X163314364Y-123013313D01*
X163294532Y-123239998D01*
X163294532Y-123240001D01*
X163314364Y-123466686D01*
X163314366Y-123466697D01*
X163373258Y-123686488D01*
X163373261Y-123686497D01*
X163469431Y-123892732D01*
X163469432Y-123892734D01*
X163599954Y-124079141D01*
X163760858Y-124240045D01*
X163786086Y-124257710D01*
X163829711Y-124312287D01*
X163836905Y-124381785D01*
X163805382Y-124444140D01*
X163745153Y-124479554D01*
X163728221Y-124482574D01*
X163692626Y-124486401D01*
X163692620Y-124486403D01*
X163557913Y-124536645D01*
X163557906Y-124536649D01*
X163442812Y-124622809D01*
X163442809Y-124622812D01*
X163356649Y-124737906D01*
X163356645Y-124737913D01*
X163306403Y-124872620D01*
X163306401Y-124872627D01*
X163300000Y-124932155D01*
X163300000Y-125530000D01*
X164684314Y-125530000D01*
X164672359Y-125541955D01*
X164614835Y-125654852D01*
X164595014Y-125780000D01*
X164614835Y-125905148D01*
X164672359Y-126018045D01*
X164684314Y-126030000D01*
X163300000Y-126030000D01*
X163300000Y-126627844D01*
X163306401Y-126687372D01*
X163306403Y-126687379D01*
X163356645Y-126822086D01*
X163356649Y-126822093D01*
X163442809Y-126937187D01*
X163442812Y-126937190D01*
X163557906Y-127023350D01*
X163557913Y-127023354D01*
X163692620Y-127073596D01*
X163692627Y-127073598D01*
X163752155Y-127079999D01*
X163752172Y-127080000D01*
X164750000Y-127080000D01*
X164750000Y-126095686D01*
X164761955Y-126107641D01*
X164874852Y-126165165D01*
X164968519Y-126180000D01*
X165031481Y-126180000D01*
X165125148Y-126165165D01*
X165238045Y-126107641D01*
X165250000Y-126095686D01*
X165250000Y-127080000D01*
X166247828Y-127080000D01*
X166247844Y-127079999D01*
X166307372Y-127073598D01*
X166307379Y-127073596D01*
X166442086Y-127023354D01*
X166442093Y-127023350D01*
X166557187Y-126937190D01*
X166557190Y-126937187D01*
X166643350Y-126822093D01*
X166643354Y-126822086D01*
X166693596Y-126687379D01*
X166693598Y-126687372D01*
X166699999Y-126627844D01*
X166700000Y-126627827D01*
X166700000Y-126250000D01*
X167275001Y-126250000D01*
X167275001Y-126699986D01*
X167285494Y-126802697D01*
X167340641Y-126969119D01*
X167340643Y-126969124D01*
X167432684Y-127118345D01*
X167556654Y-127242315D01*
X167705875Y-127334356D01*
X167705880Y-127334358D01*
X167872302Y-127389505D01*
X167872309Y-127389506D01*
X167975019Y-127399999D01*
X168187499Y-127399999D01*
X168187500Y-127399998D01*
X168187500Y-126250000D01*
X168687500Y-126250000D01*
X168687500Y-127399999D01*
X168899972Y-127399999D01*
X168899986Y-127399998D01*
X169002697Y-127389505D01*
X169169119Y-127334358D01*
X169169124Y-127334356D01*
X169318345Y-127242315D01*
X169442315Y-127118345D01*
X169534356Y-126969124D01*
X169534358Y-126969119D01*
X169589505Y-126802697D01*
X169589506Y-126802690D01*
X169599999Y-126699986D01*
X169600000Y-126699973D01*
X169600000Y-126250000D01*
X168687500Y-126250000D01*
X168187500Y-126250000D01*
X167275001Y-126250000D01*
X166700000Y-126250000D01*
X166700000Y-126030000D01*
X165315686Y-126030000D01*
X165327641Y-126018045D01*
X165385165Y-125905148D01*
X165404986Y-125780000D01*
X165400235Y-125750000D01*
X167275000Y-125750000D01*
X168187500Y-125750000D01*
X168187500Y-124600000D01*
X168687500Y-124600000D01*
X168687500Y-125750000D01*
X169599999Y-125750000D01*
X169599999Y-125300028D01*
X169599998Y-125300013D01*
X169589505Y-125197302D01*
X169534358Y-125030880D01*
X169534356Y-125030875D01*
X169442315Y-124881654D01*
X169318345Y-124757684D01*
X169169124Y-124665643D01*
X169169119Y-124665641D01*
X169002697Y-124610494D01*
X169002690Y-124610493D01*
X168899986Y-124600000D01*
X168687500Y-124600000D01*
X168187500Y-124600000D01*
X167975029Y-124600000D01*
X167975012Y-124600001D01*
X167872302Y-124610494D01*
X167705880Y-124665641D01*
X167705875Y-124665643D01*
X167556654Y-124757684D01*
X167432684Y-124881654D01*
X167340643Y-125030875D01*
X167340641Y-125030880D01*
X167285494Y-125197302D01*
X167285493Y-125197309D01*
X167275000Y-125300013D01*
X167275000Y-125750000D01*
X165400235Y-125750000D01*
X165385165Y-125654852D01*
X165327641Y-125541955D01*
X165315686Y-125530000D01*
X166700000Y-125530000D01*
X166700000Y-124932172D01*
X166699999Y-124932155D01*
X166693598Y-124872627D01*
X166693596Y-124872620D01*
X166643354Y-124737913D01*
X166643350Y-124737906D01*
X166557190Y-124622812D01*
X166557187Y-124622809D01*
X166442093Y-124536649D01*
X166442086Y-124536645D01*
X166307379Y-124486403D01*
X166307373Y-124486401D01*
X166271778Y-124482574D01*
X166207228Y-124455835D01*
X166167381Y-124398441D01*
X166164888Y-124328616D01*
X166200542Y-124268528D01*
X166213913Y-124257710D01*
X166239139Y-124240047D01*
X166400047Y-124079139D01*
X166530568Y-123892734D01*
X166626739Y-123686496D01*
X166685635Y-123466692D01*
X166704779Y-123247872D01*
X166705468Y-123240001D01*
X166705468Y-123239998D01*
X166693653Y-123104952D01*
X166685635Y-123013308D01*
X166647268Y-122870120D01*
X166626739Y-122793503D01*
X166626161Y-122791915D01*
X166626113Y-122791168D01*
X166625338Y-122788274D01*
X166625919Y-122788118D01*
X166621727Y-122722187D01*
X166655694Y-122661130D01*
X166717280Y-122628130D01*
X166742681Y-122625500D01*
X168035981Y-122625500D01*
X168389548Y-122625500D01*
X168456587Y-122645185D01*
X168477229Y-122661819D01*
X168599194Y-122783784D01*
X168609017Y-122796045D01*
X168609239Y-122795863D01*
X168614211Y-122801873D01*
X168614214Y-122801877D01*
X168661719Y-122846488D01*
X168663223Y-122847900D01*
X168666021Y-122850612D01*
X168685522Y-122870114D01*
X168685526Y-122870117D01*
X168685529Y-122870120D01*
X168688702Y-122872581D01*
X168697574Y-122880159D01*
X168729418Y-122910062D01*
X168746976Y-122919714D01*
X168763235Y-122930395D01*
X168779064Y-122942673D01*
X168819155Y-122960021D01*
X168829626Y-122965151D01*
X168852180Y-122977550D01*
X168867902Y-122986194D01*
X168867904Y-122986195D01*
X168867908Y-122986197D01*
X168887316Y-122991180D01*
X168905719Y-122997481D01*
X168924101Y-123005436D01*
X168924102Y-123005436D01*
X168924104Y-123005437D01*
X168967250Y-123012270D01*
X168978672Y-123014636D01*
X169020981Y-123025500D01*
X169041016Y-123025500D01*
X169060414Y-123027026D01*
X169080194Y-123030159D01*
X169080195Y-123030160D01*
X169080195Y-123030159D01*
X169080196Y-123030160D01*
X169123675Y-123026050D01*
X169135344Y-123025500D01*
X169145812Y-123025500D01*
X169212851Y-123045185D01*
X169247387Y-123078377D01*
X169359954Y-123239141D01*
X169520858Y-123400045D01*
X169520861Y-123400047D01*
X169707266Y-123530568D01*
X169913504Y-123626739D01*
X169913509Y-123626740D01*
X169913511Y-123626741D01*
X170042593Y-123661328D01*
X170102254Y-123697693D01*
X170132783Y-123760540D01*
X170134500Y-123781103D01*
X170134500Y-123799357D01*
X170135003Y-123803335D01*
X170135918Y-123814967D01*
X170137290Y-123858624D01*
X170137291Y-123858627D01*
X170142880Y-123877867D01*
X170146824Y-123896911D01*
X170149336Y-123916792D01*
X170165414Y-123957403D01*
X170169197Y-123968452D01*
X170181381Y-124010388D01*
X170191580Y-124027634D01*
X170200138Y-124045103D01*
X170207514Y-124063732D01*
X170233181Y-124099060D01*
X170239593Y-124108821D01*
X170261828Y-124146417D01*
X170261833Y-124146424D01*
X170275990Y-124160580D01*
X170288628Y-124175376D01*
X170300405Y-124191586D01*
X170300406Y-124191587D01*
X170334057Y-124219425D01*
X170342698Y-124227288D01*
X170689677Y-124574267D01*
X170723162Y-124635590D01*
X170718178Y-124705282D01*
X170685053Y-124750783D01*
X170686451Y-124752181D01*
X170557289Y-124881342D01*
X170465187Y-125030663D01*
X170465185Y-125030668D01*
X170465115Y-125030880D01*
X170410001Y-125197203D01*
X170410001Y-125197204D01*
X170410000Y-125197204D01*
X170399500Y-125299983D01*
X170399500Y-126700001D01*
X170399501Y-126700018D01*
X170410000Y-126802796D01*
X170410001Y-126802799D01*
X170465115Y-126969119D01*
X170465186Y-126969334D01*
X170557288Y-127118656D01*
X170681344Y-127242712D01*
X170830666Y-127334814D01*
X170997203Y-127389999D01*
X171099991Y-127400500D01*
X172025008Y-127400499D01*
X172025016Y-127400498D01*
X172025019Y-127400498D01*
X172081302Y-127394748D01*
X172127797Y-127389999D01*
X172294334Y-127334814D01*
X172443656Y-127242712D01*
X172567712Y-127118656D01*
X172659814Y-126969334D01*
X172714999Y-126802797D01*
X172717431Y-126778989D01*
X172721732Y-126736897D01*
X172748129Y-126672205D01*
X172805310Y-126632054D01*
X172845090Y-126625500D01*
X173417257Y-126625500D01*
X173432877Y-126627224D01*
X173432904Y-126626939D01*
X173440660Y-126627671D01*
X173440667Y-126627673D01*
X173507873Y-126625561D01*
X173511768Y-126625500D01*
X173539346Y-126625500D01*
X173539350Y-126625500D01*
X173543324Y-126624997D01*
X173554963Y-126624080D01*
X173598627Y-126622709D01*
X173617869Y-126617117D01*
X173636912Y-126613174D01*
X173656792Y-126610664D01*
X173697401Y-126594585D01*
X173708444Y-126590803D01*
X173750390Y-126578618D01*
X173767629Y-126568422D01*
X173785103Y-126559862D01*
X173803727Y-126552488D01*
X173803727Y-126552487D01*
X173803732Y-126552486D01*
X173839083Y-126526800D01*
X173848814Y-126520408D01*
X173886420Y-126498170D01*
X173900589Y-126483999D01*
X173915379Y-126471368D01*
X173931587Y-126459594D01*
X173959438Y-126425926D01*
X173967279Y-126417309D01*
X174502771Y-125881819D01*
X174564094Y-125848334D01*
X174590452Y-125845500D01*
X188724773Y-125845500D01*
X188791812Y-125865185D01*
X188826348Y-125898377D01*
X188961500Y-126091395D01*
X188961505Y-126091401D01*
X189128599Y-126258495D01*
X189225384Y-126326265D01*
X189322165Y-126394032D01*
X189322167Y-126394033D01*
X189322170Y-126394035D01*
X189536337Y-126493903D01*
X189764592Y-126555063D01*
X189952918Y-126571539D01*
X189999999Y-126575659D01*
X190000000Y-126575659D01*
X190000001Y-126575659D01*
X190039234Y-126572226D01*
X190235408Y-126555063D01*
X190463663Y-126493903D01*
X190677830Y-126394035D01*
X190871401Y-126258495D01*
X191038495Y-126091401D01*
X191174035Y-125897830D01*
X191273903Y-125683663D01*
X191335063Y-125455408D01*
X191355659Y-125220000D01*
X191353664Y-125197203D01*
X191347546Y-125127266D01*
X191335063Y-124984592D01*
X191273903Y-124756337D01*
X191174035Y-124542171D01*
X191173652Y-124541623D01*
X191038494Y-124348597D01*
X190871402Y-124181506D01*
X190871401Y-124181505D01*
X190685405Y-124051269D01*
X190641781Y-123996692D01*
X190634588Y-123927193D01*
X190666110Y-123864839D01*
X190685405Y-123848119D01*
X190871082Y-123718105D01*
X191038105Y-123551082D01*
X191173600Y-123357578D01*
X191273429Y-123143492D01*
X191273432Y-123143486D01*
X191330636Y-122930000D01*
X190433686Y-122930000D01*
X190459493Y-122889844D01*
X190500000Y-122751889D01*
X190500000Y-122608111D01*
X190459493Y-122470156D01*
X190433686Y-122430000D01*
X191330636Y-122430000D01*
X191330635Y-122429999D01*
X191273432Y-122216513D01*
X191273429Y-122216507D01*
X191173600Y-122002422D01*
X191173599Y-122002420D01*
X191038113Y-121808926D01*
X191038108Y-121808920D01*
X190871078Y-121641890D01*
X190685405Y-121511879D01*
X190641780Y-121457302D01*
X190634588Y-121387804D01*
X190666110Y-121325449D01*
X190685406Y-121308730D01*
X190695002Y-121302011D01*
X190871401Y-121178495D01*
X191038495Y-121011401D01*
X191174035Y-120817830D01*
X191273903Y-120603663D01*
X191335063Y-120375408D01*
X191355659Y-120140000D01*
X191335063Y-119904592D01*
X191273903Y-119676337D01*
X191174035Y-119462171D01*
X191150821Y-119429017D01*
X191038494Y-119268597D01*
X190871402Y-119101506D01*
X190871396Y-119101501D01*
X190685842Y-118971575D01*
X190642217Y-118916998D01*
X190635023Y-118847500D01*
X190666546Y-118785145D01*
X190685842Y-118768425D01*
X190720057Y-118744467D01*
X190871401Y-118638495D01*
X191038495Y-118471401D01*
X191174035Y-118277830D01*
X191273903Y-118063663D01*
X191335063Y-117835408D01*
X191355659Y-117600000D01*
X191335063Y-117364592D01*
X191273903Y-117136337D01*
X191174035Y-116922171D01*
X191157501Y-116898557D01*
X191038494Y-116728597D01*
X190871402Y-116561506D01*
X190871396Y-116561501D01*
X190685842Y-116431575D01*
X190642217Y-116376998D01*
X190635023Y-116307500D01*
X190666546Y-116245145D01*
X190685842Y-116228425D01*
X190708026Y-116212891D01*
X190871401Y-116098495D01*
X191038495Y-115931401D01*
X191174035Y-115737830D01*
X191273903Y-115523663D01*
X191335063Y-115295408D01*
X191355659Y-115060000D01*
X191335063Y-114824592D01*
X191273903Y-114596337D01*
X191174035Y-114382171D01*
X191150821Y-114349017D01*
X191038494Y-114188597D01*
X190871402Y-114021506D01*
X190871396Y-114021501D01*
X190685842Y-113891575D01*
X190642217Y-113836998D01*
X190635023Y-113767500D01*
X190666546Y-113705145D01*
X190685842Y-113688425D01*
X190708026Y-113672891D01*
X190871401Y-113558495D01*
X191038495Y-113391401D01*
X191174035Y-113197830D01*
X191273903Y-112983663D01*
X191335063Y-112755408D01*
X191355659Y-112520000D01*
X191335063Y-112284592D01*
X191273903Y-112056337D01*
X191174035Y-111842171D01*
X191150821Y-111809017D01*
X191038494Y-111648597D01*
X190871402Y-111481506D01*
X190871396Y-111481501D01*
X190685842Y-111351575D01*
X190642217Y-111296998D01*
X190635023Y-111227500D01*
X190666546Y-111165145D01*
X190685842Y-111148425D01*
X190708026Y-111132891D01*
X190871401Y-111018495D01*
X191038495Y-110851401D01*
X191174035Y-110657830D01*
X191273903Y-110443663D01*
X191335063Y-110215408D01*
X191355659Y-109980000D01*
X191335063Y-109744592D01*
X191273903Y-109516337D01*
X191174035Y-109302171D01*
X191150821Y-109269017D01*
X191038494Y-109108597D01*
X190871402Y-108941506D01*
X190871396Y-108941501D01*
X190685842Y-108811575D01*
X190642217Y-108756998D01*
X190635023Y-108687500D01*
X190666546Y-108625145D01*
X190685842Y-108608425D01*
X190708026Y-108592891D01*
X190871401Y-108478495D01*
X191038495Y-108311401D01*
X191174035Y-108117830D01*
X191273903Y-107903663D01*
X191335063Y-107675408D01*
X191355659Y-107440000D01*
X191335063Y-107204592D01*
X191273903Y-106976337D01*
X191174035Y-106762171D01*
X191150821Y-106729017D01*
X191038494Y-106568597D01*
X190871402Y-106401506D01*
X190871396Y-106401501D01*
X190685842Y-106271575D01*
X190642217Y-106216998D01*
X190635023Y-106147500D01*
X190666546Y-106085145D01*
X190685842Y-106068425D01*
X190708026Y-106052891D01*
X190871401Y-105938495D01*
X191038495Y-105771401D01*
X191174035Y-105577830D01*
X191273903Y-105363663D01*
X191335063Y-105135408D01*
X191355659Y-104900000D01*
X191335063Y-104664592D01*
X191273903Y-104436337D01*
X191174035Y-104222171D01*
X191150821Y-104189017D01*
X191038494Y-104028597D01*
X190871402Y-103861506D01*
X190871396Y-103861501D01*
X190685842Y-103731575D01*
X190642217Y-103676998D01*
X190635023Y-103607500D01*
X190666546Y-103545145D01*
X190685842Y-103528425D01*
X190708026Y-103512891D01*
X190871401Y-103398495D01*
X191038495Y-103231401D01*
X191174035Y-103037830D01*
X191273903Y-102823663D01*
X191335063Y-102595408D01*
X191355659Y-102360000D01*
X191335063Y-102124592D01*
X191273903Y-101896337D01*
X191174035Y-101682171D01*
X191158109Y-101659425D01*
X191038494Y-101488597D01*
X190871402Y-101321506D01*
X190871396Y-101321501D01*
X190685842Y-101191575D01*
X190642217Y-101136998D01*
X190635023Y-101067500D01*
X190666546Y-101005145D01*
X190685842Y-100988425D01*
X190721935Y-100963152D01*
X190871401Y-100858495D01*
X191038495Y-100691401D01*
X191174035Y-100497830D01*
X191273903Y-100283663D01*
X191335063Y-100055408D01*
X191355659Y-99820000D01*
X191335063Y-99584592D01*
X191273903Y-99356337D01*
X191174035Y-99142171D01*
X191156250Y-99116770D01*
X191038494Y-98948597D01*
X190871402Y-98781506D01*
X190871396Y-98781501D01*
X190685842Y-98651575D01*
X190642217Y-98596998D01*
X190635023Y-98527500D01*
X190666546Y-98465145D01*
X190685842Y-98448425D01*
X190708026Y-98432891D01*
X190871401Y-98318495D01*
X191038495Y-98151401D01*
X191174035Y-97957830D01*
X191273903Y-97743663D01*
X191335063Y-97515408D01*
X191355659Y-97280000D01*
X191335063Y-97044592D01*
X191273903Y-96816337D01*
X191174035Y-96602171D01*
X191148925Y-96566309D01*
X191038494Y-96408597D01*
X190871402Y-96241506D01*
X190871396Y-96241501D01*
X190685842Y-96111575D01*
X190642217Y-96056998D01*
X190635023Y-95987500D01*
X190666546Y-95925145D01*
X190685842Y-95908425D01*
X190708026Y-95892891D01*
X190871401Y-95778495D01*
X191038495Y-95611401D01*
X191174035Y-95417830D01*
X191273903Y-95203663D01*
X191335063Y-94975408D01*
X191355659Y-94740000D01*
X191335063Y-94504592D01*
X191273903Y-94276337D01*
X191174035Y-94062171D01*
X191154416Y-94034151D01*
X191038494Y-93868597D01*
X190871402Y-93701506D01*
X190871396Y-93701501D01*
X190685842Y-93571575D01*
X190642217Y-93516998D01*
X190635023Y-93447500D01*
X190666546Y-93385145D01*
X190685842Y-93368425D01*
X190708026Y-93352891D01*
X190871401Y-93238495D01*
X191038495Y-93071401D01*
X191174035Y-92877830D01*
X191273903Y-92663663D01*
X191335063Y-92435408D01*
X191355659Y-92200000D01*
X191335063Y-91964592D01*
X191273903Y-91736337D01*
X191174035Y-91522171D01*
X191148925Y-91486309D01*
X191038494Y-91328597D01*
X190871402Y-91161506D01*
X190871396Y-91161501D01*
X190685842Y-91031575D01*
X190642217Y-90976998D01*
X190635023Y-90907500D01*
X190666546Y-90845145D01*
X190685842Y-90828425D01*
X190708026Y-90812891D01*
X190871401Y-90698495D01*
X191038495Y-90531401D01*
X191174035Y-90337830D01*
X191273903Y-90123663D01*
X191335063Y-89895408D01*
X191355659Y-89660000D01*
X191335063Y-89424592D01*
X191273903Y-89196337D01*
X191174035Y-88982171D01*
X191164401Y-88968411D01*
X191038494Y-88788597D01*
X190871402Y-88621506D01*
X190871396Y-88621501D01*
X190685842Y-88491575D01*
X190642217Y-88436998D01*
X190635023Y-88367500D01*
X190666546Y-88305145D01*
X190685842Y-88288425D01*
X190735287Y-88253803D01*
X190871401Y-88158495D01*
X191038495Y-87991401D01*
X191174035Y-87797830D01*
X191273903Y-87583663D01*
X191335063Y-87355408D01*
X191355659Y-87120000D01*
X191352533Y-87084276D01*
X191344684Y-86994560D01*
X191335063Y-86884592D01*
X191273903Y-86656337D01*
X191174035Y-86442171D01*
X191139958Y-86393504D01*
X191038496Y-86248600D01*
X191038495Y-86248599D01*
X190916179Y-86126283D01*
X190882696Y-86064963D01*
X190887680Y-85995271D01*
X190929551Y-85939337D01*
X190960529Y-85922422D01*
X191092086Y-85873354D01*
X191092093Y-85873350D01*
X191207187Y-85787190D01*
X191207190Y-85787187D01*
X191293350Y-85672093D01*
X191293354Y-85672086D01*
X191343596Y-85537379D01*
X191343598Y-85537372D01*
X191349999Y-85477844D01*
X191350000Y-85477827D01*
X191350000Y-84830000D01*
X190433686Y-84830000D01*
X190459493Y-84789844D01*
X190500000Y-84651889D01*
X190500000Y-84508111D01*
X190459493Y-84370156D01*
X190433686Y-84330000D01*
X191350000Y-84330000D01*
X191350000Y-83682172D01*
X191349999Y-83682155D01*
X191343598Y-83622627D01*
X191343596Y-83622620D01*
X191293354Y-83487913D01*
X191293350Y-83487906D01*
X191207190Y-83372812D01*
X191207187Y-83372809D01*
X191092093Y-83286649D01*
X191092086Y-83286645D01*
X190957379Y-83236403D01*
X190957372Y-83236401D01*
X190897844Y-83230000D01*
X190250000Y-83230000D01*
X190250000Y-84144498D01*
X190142315Y-84095320D01*
X190035763Y-84080000D01*
X189964237Y-84080000D01*
X189857685Y-84095320D01*
X189750000Y-84144498D01*
X189750000Y-83230000D01*
X189102155Y-83230000D01*
X189042627Y-83236401D01*
X189042620Y-83236403D01*
X188907913Y-83286645D01*
X188907906Y-83286649D01*
X188792812Y-83372809D01*
X188792809Y-83372812D01*
X188706649Y-83487906D01*
X188706645Y-83487913D01*
X188656403Y-83622620D01*
X188656401Y-83622627D01*
X188650000Y-83682155D01*
X188650000Y-84330000D01*
X189566314Y-84330000D01*
X189540507Y-84370156D01*
X189500000Y-84508111D01*
X189500000Y-84651889D01*
X189540507Y-84789844D01*
X189566314Y-84830000D01*
X188650000Y-84830000D01*
X188650000Y-85477844D01*
X188656401Y-85537372D01*
X188656403Y-85537379D01*
X188706645Y-85672086D01*
X188706649Y-85672093D01*
X188792809Y-85787187D01*
X188792812Y-85787190D01*
X188907906Y-85873350D01*
X188907913Y-85873354D01*
X189039470Y-85922421D01*
X189095403Y-85964292D01*
X189119821Y-86029756D01*
X189104970Y-86098029D01*
X189083819Y-86126284D01*
X188961503Y-86248600D01*
X188825965Y-86442169D01*
X188825964Y-86442171D01*
X188726098Y-86656335D01*
X188726094Y-86656344D01*
X188664938Y-86884586D01*
X188664936Y-86884596D01*
X188644341Y-87119999D01*
X188644341Y-87120000D01*
X188663562Y-87339692D01*
X188649795Y-87408192D01*
X188601180Y-87458375D01*
X188540034Y-87474500D01*
X187733712Y-87474500D01*
X187666673Y-87454815D01*
X187620918Y-87402011D01*
X187610974Y-87332853D01*
X187621330Y-87298095D01*
X187626739Y-87286496D01*
X187685635Y-87066692D01*
X187705468Y-86840000D01*
X187705388Y-86839090D01*
X187689400Y-86656344D01*
X187685635Y-86613308D01*
X187626739Y-86393504D01*
X187530568Y-86187266D01*
X187400047Y-86000861D01*
X187400045Y-86000858D01*
X187239141Y-85839954D01*
X187052734Y-85709432D01*
X187052732Y-85709431D01*
X187006192Y-85687729D01*
X186994132Y-85682105D01*
X186941694Y-85635934D01*
X186922542Y-85568740D01*
X186942758Y-85501859D01*
X186994134Y-85457341D01*
X187052484Y-85430132D01*
X187238820Y-85299657D01*
X187399657Y-85138820D01*
X187530134Y-84952482D01*
X187626265Y-84746326D01*
X187626269Y-84746317D01*
X187678872Y-84550000D01*
X186315686Y-84550000D01*
X186327641Y-84538045D01*
X186385165Y-84425148D01*
X186404986Y-84300000D01*
X186385165Y-84174852D01*
X186327641Y-84061955D01*
X186315686Y-84050000D01*
X187678872Y-84050000D01*
X187678872Y-84049999D01*
X187626269Y-83853682D01*
X187626265Y-83853673D01*
X187530134Y-83647517D01*
X187399657Y-83461179D01*
X187238820Y-83300342D01*
X187052482Y-83169865D01*
X186846326Y-83073734D01*
X186846317Y-83073730D01*
X186626610Y-83014860D01*
X186626599Y-83014858D01*
X186456766Y-83000000D01*
X186250000Y-83000000D01*
X186250000Y-83984314D01*
X186238045Y-83972359D01*
X186125148Y-83914835D01*
X186031481Y-83900000D01*
X185968519Y-83900000D01*
X185874852Y-83914835D01*
X185761955Y-83972359D01*
X185750000Y-83984314D01*
X185750000Y-83000000D01*
X185543233Y-83000000D01*
X185373400Y-83014858D01*
X185373389Y-83014860D01*
X185153682Y-83073730D01*
X185153673Y-83073734D01*
X184947517Y-83169865D01*
X184761179Y-83300342D01*
X184600342Y-83461179D01*
X184469865Y-83647517D01*
X184373734Y-83853673D01*
X184373730Y-83853682D01*
X184321127Y-84049999D01*
X184321128Y-84050000D01*
X185684314Y-84050000D01*
X185672359Y-84061955D01*
X185614835Y-84174852D01*
X185595014Y-84300000D01*
X185614835Y-84425148D01*
X185672359Y-84538045D01*
X185684314Y-84550000D01*
X184321128Y-84550000D01*
X184373730Y-84746317D01*
X184373734Y-84746326D01*
X184469865Y-84952482D01*
X184600342Y-85138820D01*
X184761179Y-85299657D01*
X184947518Y-85430134D01*
X184947520Y-85430135D01*
X185005865Y-85457342D01*
X185058305Y-85503514D01*
X185077457Y-85570707D01*
X185057242Y-85637589D01*
X185005867Y-85682105D01*
X184947268Y-85709431D01*
X184947264Y-85709433D01*
X184760858Y-85839954D01*
X184599954Y-86000858D01*
X184469432Y-86187265D01*
X184469431Y-86187267D01*
X184373261Y-86393502D01*
X184373258Y-86393511D01*
X184314366Y-86613302D01*
X184314364Y-86613313D01*
X184294532Y-86839998D01*
X184294532Y-86840001D01*
X184314364Y-87066686D01*
X184314366Y-87066697D01*
X184373258Y-87286488D01*
X184373261Y-87286497D01*
X184378670Y-87298095D01*
X184389162Y-87367172D01*
X184360643Y-87430956D01*
X184302166Y-87469196D01*
X184266288Y-87474500D01*
X172493712Y-87474500D01*
X172426673Y-87454815D01*
X172380918Y-87402011D01*
X172370974Y-87332853D01*
X172381330Y-87298095D01*
X172386739Y-87286496D01*
X172445635Y-87066692D01*
X172465468Y-86840000D01*
X172465388Y-86839090D01*
X172449400Y-86656344D01*
X172445635Y-86613308D01*
X172386739Y-86393504D01*
X172290568Y-86187266D01*
X172160047Y-86000861D01*
X172160045Y-86000858D01*
X171999141Y-85839954D01*
X171812734Y-85709432D01*
X171812728Y-85709429D01*
X171754725Y-85682382D01*
X171702285Y-85636210D01*
X171683133Y-85569017D01*
X171703348Y-85502135D01*
X171754725Y-85457618D01*
X171755319Y-85457341D01*
X171812734Y-85430568D01*
X171999139Y-85300047D01*
X172160047Y-85139139D01*
X172290568Y-84952734D01*
X172386739Y-84746496D01*
X172445635Y-84526692D01*
X172463359Y-84324102D01*
X172465468Y-84300001D01*
X172465468Y-84299998D01*
X172458395Y-84219158D01*
X172445635Y-84073308D01*
X172386739Y-83853504D01*
X172290568Y-83647266D01*
X172178818Y-83487669D01*
X172160045Y-83460858D01*
X171999141Y-83299954D01*
X171812734Y-83169432D01*
X171812732Y-83169431D01*
X171606497Y-83073261D01*
X171606488Y-83073258D01*
X171386697Y-83014366D01*
X171386687Y-83014364D01*
X171216785Y-82999500D01*
X171216784Y-82999500D01*
X170303216Y-82999500D01*
X170303215Y-82999500D01*
X170133312Y-83014364D01*
X170133302Y-83014366D01*
X169913511Y-83073258D01*
X169913502Y-83073261D01*
X169707267Y-83169431D01*
X169707265Y-83169432D01*
X169520858Y-83299954D01*
X169359954Y-83460858D01*
X169229432Y-83647265D01*
X169229431Y-83647267D01*
X169133261Y-83853502D01*
X169133258Y-83853511D01*
X169074366Y-84073302D01*
X169074364Y-84073313D01*
X169054532Y-84299998D01*
X169054532Y-84300001D01*
X169074364Y-84526686D01*
X169074366Y-84526697D01*
X169133258Y-84746488D01*
X169133261Y-84746497D01*
X169229431Y-84952732D01*
X169229432Y-84952734D01*
X169359954Y-85139141D01*
X169520858Y-85300045D01*
X169520861Y-85300047D01*
X169707266Y-85430568D01*
X169764681Y-85457341D01*
X169765275Y-85457618D01*
X169817714Y-85503791D01*
X169836866Y-85570984D01*
X169816650Y-85637865D01*
X169765275Y-85682382D01*
X169707267Y-85709431D01*
X169707265Y-85709432D01*
X169520858Y-85839954D01*
X169359954Y-86000858D01*
X169229432Y-86187265D01*
X169229431Y-86187267D01*
X169133261Y-86393502D01*
X169133258Y-86393511D01*
X169074366Y-86613302D01*
X169074364Y-86613313D01*
X169054532Y-86839998D01*
X169054532Y-86840001D01*
X169074364Y-87066686D01*
X169074366Y-87066697D01*
X169133258Y-87286488D01*
X169133261Y-87286497D01*
X169138670Y-87298095D01*
X169149162Y-87367172D01*
X169120643Y-87430956D01*
X169062166Y-87469196D01*
X169026288Y-87474500D01*
X168425452Y-87474500D01*
X168358413Y-87454815D01*
X168337771Y-87438181D01*
X168115806Y-87216216D01*
X168105981Y-87203952D01*
X168105760Y-87204136D01*
X168100784Y-87198121D01*
X168051776Y-87152099D01*
X168048977Y-87149386D01*
X168029477Y-87129885D01*
X168029471Y-87129880D01*
X168026286Y-87127409D01*
X168017434Y-87119848D01*
X167985582Y-87089938D01*
X167985580Y-87089936D01*
X167985577Y-87089935D01*
X167968029Y-87080288D01*
X167951763Y-87069604D01*
X167948015Y-87066697D01*
X167935936Y-87057327D01*
X167935935Y-87057326D01*
X167935932Y-87057324D01*
X167895849Y-87039978D01*
X167885363Y-87034841D01*
X167847094Y-87013803D01*
X167847092Y-87013802D01*
X167827693Y-87008822D01*
X167809281Y-87002518D01*
X167790898Y-86994562D01*
X167790892Y-86994560D01*
X167747760Y-86987729D01*
X167736322Y-86985361D01*
X167694020Y-86974500D01*
X167694019Y-86974500D01*
X167673984Y-86974500D01*
X167654586Y-86972973D01*
X167647162Y-86971797D01*
X167634805Y-86969840D01*
X167634804Y-86969840D01*
X167591325Y-86973950D01*
X167579656Y-86974500D01*
X166715060Y-86974500D01*
X166648021Y-86954815D01*
X166602266Y-86902011D01*
X166592322Y-86832853D01*
X166602678Y-86798096D01*
X166626736Y-86746502D01*
X166626739Y-86746496D01*
X166685635Y-86526692D01*
X166705468Y-86300000D01*
X166685635Y-86073308D01*
X166638694Y-85898122D01*
X166626741Y-85853511D01*
X166626738Y-85853502D01*
X166626084Y-85852099D01*
X166530568Y-85647266D01*
X166400047Y-85460861D01*
X166400045Y-85460858D01*
X166239141Y-85299954D01*
X166052734Y-85169432D01*
X166052732Y-85169431D01*
X165994725Y-85142382D01*
X165994132Y-85142105D01*
X165941694Y-85095934D01*
X165922542Y-85028740D01*
X165942758Y-84961859D01*
X165994134Y-84917341D01*
X166052484Y-84890132D01*
X166238820Y-84759657D01*
X166399657Y-84598820D01*
X166530134Y-84412482D01*
X166626265Y-84206326D01*
X166626269Y-84206317D01*
X166678872Y-84010000D01*
X165315686Y-84010000D01*
X165327641Y-83998045D01*
X165385165Y-83885148D01*
X165404986Y-83760000D01*
X165385165Y-83634852D01*
X165327641Y-83521955D01*
X165315686Y-83510000D01*
X166678872Y-83510000D01*
X166678872Y-83509999D01*
X166626269Y-83313682D01*
X166626265Y-83313673D01*
X166530134Y-83107517D01*
X166399657Y-82921179D01*
X166238820Y-82760342D01*
X166052482Y-82629865D01*
X165846326Y-82533734D01*
X165846317Y-82533730D01*
X165626610Y-82474860D01*
X165626599Y-82474858D01*
X165456766Y-82460000D01*
X165250000Y-82460000D01*
X165250000Y-83444314D01*
X165238045Y-83432359D01*
X165125148Y-83374835D01*
X165031481Y-83360000D01*
X164968519Y-83360000D01*
X164874852Y-83374835D01*
X164761955Y-83432359D01*
X164750000Y-83444314D01*
X164750000Y-82460000D01*
X164543233Y-82460000D01*
X164373400Y-82474858D01*
X164373389Y-82474860D01*
X164153682Y-82533730D01*
X164153673Y-82533734D01*
X163947517Y-82629865D01*
X163761179Y-82760342D01*
X163600342Y-82921179D01*
X163469865Y-83107517D01*
X163373734Y-83313673D01*
X163373730Y-83313682D01*
X163321127Y-83509999D01*
X163321128Y-83510000D01*
X164684314Y-83510000D01*
X164672359Y-83521955D01*
X164614835Y-83634852D01*
X164595014Y-83760000D01*
X164614835Y-83885148D01*
X164672359Y-83998045D01*
X164684314Y-84010000D01*
X163321128Y-84010000D01*
X163373730Y-84206317D01*
X163373734Y-84206326D01*
X163469865Y-84412482D01*
X163600342Y-84598820D01*
X163761179Y-84759657D01*
X163947518Y-84890134D01*
X163947520Y-84890135D01*
X164005865Y-84917342D01*
X164058305Y-84963514D01*
X164077457Y-85030707D01*
X164057242Y-85097589D01*
X164005867Y-85142105D01*
X163947268Y-85169431D01*
X163947264Y-85169433D01*
X163760858Y-85299954D01*
X163599954Y-85460858D01*
X163469432Y-85647265D01*
X163469431Y-85647267D01*
X163373261Y-85853502D01*
X163373258Y-85853511D01*
X163314366Y-86073302D01*
X163314364Y-86073313D01*
X163294532Y-86299998D01*
X163294532Y-86300001D01*
X163314364Y-86526686D01*
X163314366Y-86526697D01*
X163342128Y-86630308D01*
X163340465Y-86700158D01*
X163301302Y-86758020D01*
X163237073Y-86785524D01*
X163168171Y-86773937D01*
X163134672Y-86750082D01*
X162814133Y-86429543D01*
X162300803Y-85916212D01*
X162290980Y-85903950D01*
X162290759Y-85904134D01*
X162285786Y-85898122D01*
X162236776Y-85852099D01*
X162233977Y-85849386D01*
X162214477Y-85829885D01*
X162214471Y-85829880D01*
X162211286Y-85827409D01*
X162202434Y-85819848D01*
X162170582Y-85789938D01*
X162170580Y-85789936D01*
X162170577Y-85789935D01*
X162153029Y-85780288D01*
X162136763Y-85769604D01*
X162120932Y-85757324D01*
X162080849Y-85739978D01*
X162070363Y-85734841D01*
X162032094Y-85713803D01*
X162032092Y-85713802D01*
X162012693Y-85708822D01*
X161994281Y-85702518D01*
X161975898Y-85694562D01*
X161975892Y-85694560D01*
X161932760Y-85687729D01*
X161921322Y-85685361D01*
X161879020Y-85674500D01*
X161879019Y-85674500D01*
X161858984Y-85674500D01*
X161839586Y-85672973D01*
X161832162Y-85671797D01*
X161819805Y-85669840D01*
X161819804Y-85669840D01*
X161776325Y-85673950D01*
X161764656Y-85674500D01*
X158994188Y-85674500D01*
X158927149Y-85654815D01*
X158892613Y-85621623D01*
X158780045Y-85460858D01*
X158619141Y-85299954D01*
X158432734Y-85169432D01*
X158432728Y-85169429D01*
X158374725Y-85142382D01*
X158322285Y-85096210D01*
X158303133Y-85029017D01*
X158323348Y-84962135D01*
X158374725Y-84917618D01*
X158375319Y-84917341D01*
X158432734Y-84890568D01*
X158619139Y-84760047D01*
X158780047Y-84599139D01*
X158910568Y-84412734D01*
X159006739Y-84206496D01*
X159065635Y-83986692D01*
X159085468Y-83760000D01*
X159065635Y-83533308D01*
X159006739Y-83313504D01*
X158910568Y-83107266D01*
X158780047Y-82920861D01*
X158780045Y-82920858D01*
X158619141Y-82759954D01*
X158432734Y-82629432D01*
X158432732Y-82629431D01*
X158226497Y-82533261D01*
X158226488Y-82533258D01*
X158006697Y-82474366D01*
X158006687Y-82474364D01*
X157836785Y-82459500D01*
X157836784Y-82459500D01*
X156923216Y-82459500D01*
X156923215Y-82459500D01*
X156753312Y-82474364D01*
X156753302Y-82474366D01*
X156533511Y-82533258D01*
X156533502Y-82533261D01*
X156327267Y-82629431D01*
X156327265Y-82629432D01*
X156140858Y-82759954D01*
X155979953Y-82920859D01*
X155868232Y-83080415D01*
X155813655Y-83124040D01*
X155770553Y-83133231D01*
X155734524Y-83134363D01*
X155732126Y-83134439D01*
X155728232Y-83134500D01*
X155700647Y-83134500D01*
X155696661Y-83135003D01*
X155685033Y-83135918D01*
X155641373Y-83137290D01*
X155622129Y-83142881D01*
X155603079Y-83146825D01*
X155583211Y-83149334D01*
X155583210Y-83149334D01*
X155542599Y-83165413D01*
X155531554Y-83169194D01*
X155489614Y-83181379D01*
X155489610Y-83181381D01*
X155472366Y-83191579D01*
X155454905Y-83200133D01*
X155436274Y-83207510D01*
X155436262Y-83207517D01*
X155400933Y-83233185D01*
X155391173Y-83239596D01*
X155353580Y-83261829D01*
X155339414Y-83275995D01*
X155324624Y-83288627D01*
X155308414Y-83300404D01*
X155308411Y-83300407D01*
X155280573Y-83334058D01*
X155272711Y-83342697D01*
X154616208Y-83999199D01*
X154603951Y-84009020D01*
X154604134Y-84009241D01*
X154598122Y-84014214D01*
X154552098Y-84063223D01*
X154549391Y-84066016D01*
X154529889Y-84085517D01*
X154529875Y-84085534D01*
X154527407Y-84088715D01*
X154519843Y-84097570D01*
X154489937Y-84129418D01*
X154489936Y-84129420D01*
X154480284Y-84146976D01*
X154469610Y-84163226D01*
X154457329Y-84179061D01*
X154457324Y-84179068D01*
X154439975Y-84219158D01*
X154434838Y-84229644D01*
X154413803Y-84267906D01*
X154408822Y-84287307D01*
X154402521Y-84305710D01*
X154394562Y-84324102D01*
X154394561Y-84324105D01*
X154387728Y-84367243D01*
X154385360Y-84378674D01*
X154374501Y-84420971D01*
X154374500Y-84420982D01*
X154374500Y-84441016D01*
X154372973Y-84460413D01*
X154369840Y-84480196D01*
X154372479Y-84508111D01*
X154373950Y-84523674D01*
X154374500Y-84535343D01*
X154374500Y-85270547D01*
X154354815Y-85337586D01*
X154302011Y-85383341D01*
X154232853Y-85393285D01*
X154169297Y-85364260D01*
X154162819Y-85358228D01*
X153886818Y-85082227D01*
X153853333Y-85020904D01*
X153850499Y-84994546D01*
X153850499Y-83682129D01*
X153850498Y-83682123D01*
X153850497Y-83682116D01*
X153844091Y-83622517D01*
X153810818Y-83533308D01*
X153793797Y-83487671D01*
X153793793Y-83487664D01*
X153707547Y-83372455D01*
X153707544Y-83372452D01*
X153592335Y-83286206D01*
X153592328Y-83286202D01*
X153457482Y-83235908D01*
X153457483Y-83235908D01*
X153397883Y-83229501D01*
X153397881Y-83229500D01*
X153397873Y-83229500D01*
X153397864Y-83229500D01*
X151602129Y-83229500D01*
X151602123Y-83229501D01*
X151542516Y-83235908D01*
X151407671Y-83286202D01*
X151407664Y-83286206D01*
X151292455Y-83372452D01*
X151292452Y-83372455D01*
X151206206Y-83487664D01*
X151206202Y-83487671D01*
X151155908Y-83622517D01*
X151149501Y-83682116D01*
X151149501Y-83682123D01*
X151149500Y-83682135D01*
X151149500Y-85477870D01*
X151149501Y-85477876D01*
X151155908Y-85537483D01*
X151206202Y-85672328D01*
X151206206Y-85672335D01*
X151292452Y-85787544D01*
X151292455Y-85787547D01*
X151407664Y-85873793D01*
X151407671Y-85873797D01*
X151539081Y-85922810D01*
X151595015Y-85964681D01*
X151619432Y-86030145D01*
X151604580Y-86098418D01*
X151583430Y-86126673D01*
X151461503Y-86248600D01*
X151325965Y-86442169D01*
X151325964Y-86442171D01*
X151226098Y-86656335D01*
X151226094Y-86656344D01*
X151164938Y-86884586D01*
X151164936Y-86884596D01*
X151144341Y-87119999D01*
X151144341Y-87120000D01*
X151164936Y-87355403D01*
X151164938Y-87355413D01*
X151226094Y-87583655D01*
X151226096Y-87583659D01*
X151226097Y-87583663D01*
X151272131Y-87682382D01*
X151325965Y-87797830D01*
X151325967Y-87797834D01*
X151379737Y-87874625D01*
X151461501Y-87991396D01*
X151461506Y-87991402D01*
X151628597Y-88158493D01*
X151628603Y-88158498D01*
X151814158Y-88288425D01*
X151857783Y-88343002D01*
X151864977Y-88412500D01*
X151833454Y-88474855D01*
X151814158Y-88491575D01*
X151628597Y-88621505D01*
X151461505Y-88788597D01*
X151325965Y-88982169D01*
X151325964Y-88982171D01*
X151226098Y-89196335D01*
X151226094Y-89196344D01*
X151164938Y-89424586D01*
X151164936Y-89424596D01*
X151144341Y-89659999D01*
X151144341Y-89660000D01*
X151164936Y-89895403D01*
X151164938Y-89895413D01*
X151226094Y-90123655D01*
X151226096Y-90123659D01*
X151226097Y-90123663D01*
X151272131Y-90222382D01*
X151325965Y-90337830D01*
X151325967Y-90337834D01*
X151379737Y-90414625D01*
X151461501Y-90531396D01*
X151461506Y-90531402D01*
X151628597Y-90698493D01*
X151628603Y-90698498D01*
X151814158Y-90828425D01*
X151857783Y-90883002D01*
X151864977Y-90952500D01*
X151833454Y-91014855D01*
X151814158Y-91031575D01*
X151628597Y-91161505D01*
X151461505Y-91328597D01*
X151325965Y-91522169D01*
X151325964Y-91522171D01*
X151226098Y-91736335D01*
X151226094Y-91736344D01*
X151164938Y-91964586D01*
X151164936Y-91964596D01*
X151144341Y-92199999D01*
X151144341Y-92200000D01*
X151164936Y-92435403D01*
X151164938Y-92435413D01*
X151226094Y-92663655D01*
X151226096Y-92663659D01*
X151226097Y-92663663D01*
X151284744Y-92789431D01*
X151325965Y-92877830D01*
X151325967Y-92877834D01*
X151422646Y-93015905D01*
X151461501Y-93071396D01*
X151461506Y-93071402D01*
X151628597Y-93238493D01*
X151628603Y-93238498D01*
X151814158Y-93368425D01*
X151857783Y-93423002D01*
X151864977Y-93492500D01*
X151833454Y-93554855D01*
X151814158Y-93571575D01*
X151628597Y-93701505D01*
X151461505Y-93868597D01*
X151325965Y-94062169D01*
X151325964Y-94062171D01*
X151226098Y-94276335D01*
X151226094Y-94276344D01*
X151164938Y-94504586D01*
X151164936Y-94504596D01*
X151144341Y-94739999D01*
X151144341Y-94740000D01*
X151164936Y-94975403D01*
X151164938Y-94975413D01*
X151226094Y-95203655D01*
X151226096Y-95203659D01*
X151226097Y-95203663D01*
X151272131Y-95302382D01*
X151325965Y-95417830D01*
X151325967Y-95417834D01*
X151400876Y-95524814D01*
X151461501Y-95611396D01*
X151461506Y-95611402D01*
X151628597Y-95778493D01*
X151628603Y-95778498D01*
X151814158Y-95908425D01*
X151857783Y-95963002D01*
X151864977Y-96032500D01*
X151833454Y-96094855D01*
X151814158Y-96111575D01*
X151628597Y-96241505D01*
X151461505Y-96408597D01*
X151325965Y-96602169D01*
X151325964Y-96602171D01*
X151226098Y-96816335D01*
X151226094Y-96816344D01*
X151164938Y-97044586D01*
X151164936Y-97044596D01*
X151144341Y-97279999D01*
X151144341Y-97280000D01*
X151164936Y-97515403D01*
X151164938Y-97515413D01*
X151226094Y-97743655D01*
X151226096Y-97743659D01*
X151226097Y-97743663D01*
X151272131Y-97842382D01*
X151325965Y-97957830D01*
X151325967Y-97957834D01*
X151379737Y-98034625D01*
X151461501Y-98151396D01*
X151461506Y-98151402D01*
X151628597Y-98318493D01*
X151628603Y-98318498D01*
X151814158Y-98448425D01*
X151857783Y-98503002D01*
X151864977Y-98572500D01*
X151833454Y-98634855D01*
X151814158Y-98651575D01*
X151628597Y-98781505D01*
X151461505Y-98948597D01*
X151325965Y-99142169D01*
X151325964Y-99142171D01*
X151226098Y-99356335D01*
X151226094Y-99356344D01*
X151164938Y-99584586D01*
X151164936Y-99584596D01*
X151144341Y-99819999D01*
X151144341Y-99820000D01*
X151164936Y-100055403D01*
X151164938Y-100055413D01*
X151226094Y-100283655D01*
X151226096Y-100283659D01*
X151226097Y-100283663D01*
X151303818Y-100450336D01*
X151325965Y-100497830D01*
X151325967Y-100497834D01*
X151434281Y-100652521D01*
X151461501Y-100691396D01*
X151461506Y-100691402D01*
X151628597Y-100858493D01*
X151628603Y-100858498D01*
X151814158Y-100988425D01*
X151857783Y-101043002D01*
X151864977Y-101112500D01*
X151833454Y-101174855D01*
X151814158Y-101191575D01*
X151628597Y-101321505D01*
X151461505Y-101488597D01*
X151325965Y-101682169D01*
X151325964Y-101682171D01*
X151226098Y-101896335D01*
X151226094Y-101896344D01*
X151164938Y-102124586D01*
X151164936Y-102124596D01*
X151144341Y-102359999D01*
X151144341Y-102360000D01*
X151164936Y-102595403D01*
X151164938Y-102595413D01*
X151226094Y-102823655D01*
X151226096Y-102823659D01*
X151226097Y-102823663D01*
X151325965Y-103037830D01*
X151325967Y-103037834D01*
X151461501Y-103231395D01*
X151461506Y-103231402D01*
X151628597Y-103398493D01*
X151628603Y-103398498D01*
X151814158Y-103528425D01*
X151857783Y-103583002D01*
X151864977Y-103652500D01*
X151833454Y-103714855D01*
X151814158Y-103731575D01*
X151628597Y-103861505D01*
X151461505Y-104028597D01*
X151325965Y-104222169D01*
X151325964Y-104222171D01*
X151226098Y-104436335D01*
X151226094Y-104436344D01*
X151164938Y-104664586D01*
X151164936Y-104664596D01*
X151144341Y-104899999D01*
X151144341Y-104900000D01*
X151164936Y-105135403D01*
X151164938Y-105135413D01*
X151226094Y-105363655D01*
X151226096Y-105363659D01*
X151226097Y-105363663D01*
X151325965Y-105577830D01*
X151325967Y-105577834D01*
X151461501Y-105771395D01*
X151461506Y-105771402D01*
X151628597Y-105938493D01*
X151628603Y-105938498D01*
X151814158Y-106068425D01*
X151857783Y-106123002D01*
X151864977Y-106192500D01*
X151833454Y-106254855D01*
X151814158Y-106271575D01*
X151628597Y-106401505D01*
X151461505Y-106568597D01*
X151325965Y-106762169D01*
X151325964Y-106762171D01*
X151226098Y-106976335D01*
X151226094Y-106976344D01*
X151164938Y-107204586D01*
X151164936Y-107204596D01*
X151144341Y-107439999D01*
X151144341Y-107440000D01*
X151164936Y-107675403D01*
X151164938Y-107675413D01*
X151226094Y-107903655D01*
X151226096Y-107903659D01*
X151226097Y-107903663D01*
X151325965Y-108117830D01*
X151325967Y-108117834D01*
X151461501Y-108311395D01*
X151461506Y-108311402D01*
X151628597Y-108478493D01*
X151628603Y-108478498D01*
X151814158Y-108608425D01*
X151857783Y-108663002D01*
X151864977Y-108732500D01*
X151833454Y-108794855D01*
X151814158Y-108811575D01*
X151628597Y-108941505D01*
X151461505Y-109108597D01*
X151325965Y-109302169D01*
X151325964Y-109302171D01*
X151226098Y-109516335D01*
X151226094Y-109516344D01*
X151164938Y-109744586D01*
X151164936Y-109744596D01*
X151144341Y-109979999D01*
X151144341Y-109980000D01*
X151164936Y-110215403D01*
X151164938Y-110215413D01*
X151226094Y-110443655D01*
X151226096Y-110443659D01*
X151226097Y-110443663D01*
X151325965Y-110657830D01*
X151325967Y-110657834D01*
X151461501Y-110851395D01*
X151461506Y-110851402D01*
X151628597Y-111018493D01*
X151628603Y-111018498D01*
X151814158Y-111148425D01*
X151857783Y-111203002D01*
X151864977Y-111272500D01*
X151833454Y-111334855D01*
X151814158Y-111351575D01*
X151628597Y-111481505D01*
X151461505Y-111648597D01*
X151325965Y-111842169D01*
X151325964Y-111842171D01*
X151226098Y-112056335D01*
X151226094Y-112056344D01*
X151164938Y-112284586D01*
X151164936Y-112284596D01*
X151144341Y-112519999D01*
X151144341Y-112520000D01*
X151164936Y-112755403D01*
X151164938Y-112755413D01*
X151226094Y-112983655D01*
X151226096Y-112983659D01*
X151226097Y-112983663D01*
X151325965Y-113197830D01*
X151325967Y-113197834D01*
X151405428Y-113311315D01*
X151461214Y-113390986D01*
X151461501Y-113391395D01*
X151461506Y-113391402D01*
X151628597Y-113558493D01*
X151628603Y-113558498D01*
X151814158Y-113688425D01*
X151857783Y-113743002D01*
X151864977Y-113812500D01*
X151833454Y-113874855D01*
X151814158Y-113891575D01*
X151628597Y-114021505D01*
X151461505Y-114188597D01*
X151325965Y-114382169D01*
X151325964Y-114382171D01*
X151226098Y-114596335D01*
X151226094Y-114596344D01*
X151164938Y-114824586D01*
X151164936Y-114824596D01*
X151144341Y-115059999D01*
X151144341Y-115060000D01*
X151164936Y-115295403D01*
X151164938Y-115295413D01*
X151226094Y-115523655D01*
X151226096Y-115523659D01*
X151226097Y-115523663D01*
X151325965Y-115737830D01*
X151325967Y-115737834D01*
X151461501Y-115931395D01*
X151461506Y-115931402D01*
X151628597Y-116098493D01*
X151628603Y-116098498D01*
X151814158Y-116228425D01*
X151857783Y-116283002D01*
X151864977Y-116352500D01*
X151833454Y-116414855D01*
X151814158Y-116431575D01*
X151628597Y-116561505D01*
X151461505Y-116728597D01*
X151325965Y-116922169D01*
X151325964Y-116922171D01*
X151226098Y-117136335D01*
X151226094Y-117136344D01*
X151164938Y-117364586D01*
X151164936Y-117364596D01*
X151144341Y-117599999D01*
X151144341Y-117600000D01*
X151164936Y-117835403D01*
X151164938Y-117835413D01*
X151226094Y-118063655D01*
X151226096Y-118063659D01*
X151226097Y-118063663D01*
X151325965Y-118277830D01*
X151325967Y-118277834D01*
X151461501Y-118471395D01*
X151461506Y-118471402D01*
X151628597Y-118638493D01*
X151628603Y-118638498D01*
X151814158Y-118768425D01*
X151857783Y-118823002D01*
X151864977Y-118892500D01*
X151833454Y-118954855D01*
X151814158Y-118971575D01*
X151628597Y-119101505D01*
X151461505Y-119268597D01*
X151325965Y-119462169D01*
X151325964Y-119462171D01*
X151226098Y-119676335D01*
X151226094Y-119676344D01*
X151164938Y-119904586D01*
X151164936Y-119904596D01*
X151144341Y-120139999D01*
X151144341Y-120140000D01*
X151164936Y-120375403D01*
X151164938Y-120375413D01*
X151226094Y-120603655D01*
X151226096Y-120603659D01*
X151226097Y-120603663D01*
X151325965Y-120817830D01*
X151325967Y-120817834D01*
X151461501Y-121011395D01*
X151461506Y-121011402D01*
X151628597Y-121178493D01*
X151628603Y-121178498D01*
X151656262Y-121197865D01*
X151775592Y-121281421D01*
X151814594Y-121308730D01*
X151858219Y-121363307D01*
X151865413Y-121432805D01*
X151833890Y-121495160D01*
X151814595Y-121511880D01*
X151628922Y-121641890D01*
X151628920Y-121641891D01*
X151461891Y-121808920D01*
X151461886Y-121808926D01*
X151326400Y-122002420D01*
X151326399Y-122002422D01*
X151226570Y-122216507D01*
X151226567Y-122216513D01*
X151169364Y-122429999D01*
X151169364Y-122430000D01*
X152066314Y-122430000D01*
X152040507Y-122470156D01*
X152000000Y-122608111D01*
X152000000Y-122751889D01*
X152040507Y-122889844D01*
X152066314Y-122930000D01*
X151169364Y-122930000D01*
X151226567Y-123143486D01*
X151226570Y-123143492D01*
X151326399Y-123357578D01*
X151461894Y-123551082D01*
X151628917Y-123718105D01*
X151814595Y-123848119D01*
X151858219Y-123902696D01*
X151865412Y-123972195D01*
X151833890Y-124034549D01*
X151814595Y-124051269D01*
X151628594Y-124181508D01*
X151461505Y-124348597D01*
X151325965Y-124542169D01*
X151325964Y-124542171D01*
X151226098Y-124756335D01*
X151226094Y-124756344D01*
X151164938Y-124984586D01*
X151164936Y-124984596D01*
X151144341Y-125219999D01*
X151144341Y-125220000D01*
X150000500Y-125220000D01*
X150000500Y-83051569D01*
X150020185Y-82984530D01*
X150036819Y-82963888D01*
X151963888Y-81036819D01*
X152025211Y-81003334D01*
X152051569Y-81000500D01*
X192875500Y-81000500D01*
X192942539Y-81020185D01*
G37*
%TD.AperFunction*%
%TD*%
M02*
