%TF.GenerationSoftware,KiCad,Pcbnew,7.0.10*%
%TF.CreationDate,2024-02-06T22:12:15+01:00*%
%TF.ProjectId,16M2164_Ersatz_SRAM,31364d32-3136-4345-9f45-727361747a5f,1*%
%TF.SameCoordinates,Original*%
%TF.FileFunction,Legend,Bot*%
%TF.FilePolarity,Positive*%
%FSLAX46Y46*%
G04 Gerber Fmt 4.6, Leading zero omitted, Abs format (unit mm)*
G04 Created by KiCad (PCBNEW 7.0.10) date 2024-02-06 22:12:15*
%MOMM*%
%LPD*%
G01*
G04 APERTURE LIST*
%ADD10C,0.150000*%
%ADD11C,0.120000*%
G04 APERTURE END LIST*
D10*
X190333333Y-81704819D02*
X190333333Y-82419104D01*
X190333333Y-82419104D02*
X190380952Y-82561961D01*
X190380952Y-82561961D02*
X190476190Y-82657200D01*
X190476190Y-82657200D02*
X190619047Y-82704819D01*
X190619047Y-82704819D02*
X190714285Y-82704819D01*
X189904761Y-81800057D02*
X189857142Y-81752438D01*
X189857142Y-81752438D02*
X189761904Y-81704819D01*
X189761904Y-81704819D02*
X189523809Y-81704819D01*
X189523809Y-81704819D02*
X189428571Y-81752438D01*
X189428571Y-81752438D02*
X189380952Y-81800057D01*
X189380952Y-81800057D02*
X189333333Y-81895295D01*
X189333333Y-81895295D02*
X189333333Y-81990533D01*
X189333333Y-81990533D02*
X189380952Y-82133390D01*
X189380952Y-82133390D02*
X189952380Y-82704819D01*
X189952380Y-82704819D02*
X189333333Y-82704819D01*
X152833333Y-81704819D02*
X152833333Y-82419104D01*
X152833333Y-82419104D02*
X152880952Y-82561961D01*
X152880952Y-82561961D02*
X152976190Y-82657200D01*
X152976190Y-82657200D02*
X153119047Y-82704819D01*
X153119047Y-82704819D02*
X153214285Y-82704819D01*
X151833333Y-82704819D02*
X152404761Y-82704819D01*
X152119047Y-82704819D02*
X152119047Y-81704819D01*
X152119047Y-81704819D02*
X152214285Y-81847676D01*
X152214285Y-81847676D02*
X152309523Y-81942914D01*
X152309523Y-81942914D02*
X152404761Y-81990533D01*
X161166666Y-120859580D02*
X161214285Y-120907200D01*
X161214285Y-120907200D02*
X161357142Y-120954819D01*
X161357142Y-120954819D02*
X161452380Y-120954819D01*
X161452380Y-120954819D02*
X161595237Y-120907200D01*
X161595237Y-120907200D02*
X161690475Y-120811961D01*
X161690475Y-120811961D02*
X161738094Y-120716723D01*
X161738094Y-120716723D02*
X161785713Y-120526247D01*
X161785713Y-120526247D02*
X161785713Y-120383390D01*
X161785713Y-120383390D02*
X161738094Y-120192914D01*
X161738094Y-120192914D02*
X161690475Y-120097676D01*
X161690475Y-120097676D02*
X161595237Y-120002438D01*
X161595237Y-120002438D02*
X161452380Y-119954819D01*
X161452380Y-119954819D02*
X161357142Y-119954819D01*
X161357142Y-119954819D02*
X161214285Y-120002438D01*
X161214285Y-120002438D02*
X161166666Y-120050057D01*
X160785713Y-120050057D02*
X160738094Y-120002438D01*
X160738094Y-120002438D02*
X160642856Y-119954819D01*
X160642856Y-119954819D02*
X160404761Y-119954819D01*
X160404761Y-119954819D02*
X160309523Y-120002438D01*
X160309523Y-120002438D02*
X160261904Y-120050057D01*
X160261904Y-120050057D02*
X160214285Y-120145295D01*
X160214285Y-120145295D02*
X160214285Y-120240533D01*
X160214285Y-120240533D02*
X160261904Y-120383390D01*
X160261904Y-120383390D02*
X160833332Y-120954819D01*
X160833332Y-120954819D02*
X160214285Y-120954819D01*
X161166666Y-97359580D02*
X161214285Y-97407200D01*
X161214285Y-97407200D02*
X161357142Y-97454819D01*
X161357142Y-97454819D02*
X161452380Y-97454819D01*
X161452380Y-97454819D02*
X161595237Y-97407200D01*
X161595237Y-97407200D02*
X161690475Y-97311961D01*
X161690475Y-97311961D02*
X161738094Y-97216723D01*
X161738094Y-97216723D02*
X161785713Y-97026247D01*
X161785713Y-97026247D02*
X161785713Y-96883390D01*
X161785713Y-96883390D02*
X161738094Y-96692914D01*
X161738094Y-96692914D02*
X161690475Y-96597676D01*
X161690475Y-96597676D02*
X161595237Y-96502438D01*
X161595237Y-96502438D02*
X161452380Y-96454819D01*
X161452380Y-96454819D02*
X161357142Y-96454819D01*
X161357142Y-96454819D02*
X161214285Y-96502438D01*
X161214285Y-96502438D02*
X161166666Y-96550057D01*
X160214285Y-97454819D02*
X160785713Y-97454819D01*
X160499999Y-97454819D02*
X160499999Y-96454819D01*
X160499999Y-96454819D02*
X160595237Y-96597676D01*
X160595237Y-96597676D02*
X160690475Y-96692914D01*
X160690475Y-96692914D02*
X160785713Y-96740533D01*
D11*
%TO.C,J2*%
X191330000Y-126550000D02*
X188670000Y-126550000D01*
X191330000Y-85850000D02*
X191330000Y-126550000D01*
X191330000Y-85850000D02*
X188670000Y-85850000D01*
X191330000Y-84580000D02*
X191330000Y-83250000D01*
X191330000Y-83250000D02*
X190000000Y-83250000D01*
X188670000Y-85850000D02*
X188670000Y-126550000D01*
%TO.C,J1*%
X153830000Y-126550000D02*
X151170000Y-126550000D01*
X153830000Y-85850000D02*
X153830000Y-126550000D01*
X153830000Y-85850000D02*
X151170000Y-85850000D01*
X153830000Y-84580000D02*
X153830000Y-83250000D01*
X153830000Y-83250000D02*
X152500000Y-83250000D01*
X151170000Y-85850000D02*
X151170000Y-126550000D01*
%TO.C,C2*%
X161910000Y-123788748D02*
X161910000Y-125211252D01*
X160090000Y-123788748D02*
X160090000Y-125211252D01*
%TO.C,C1*%
X161910000Y-99788748D02*
X161910000Y-101211252D01*
X160090000Y-99788748D02*
X160090000Y-101211252D01*
%TD*%
M02*
