%TF.GenerationSoftware,KiCad,Pcbnew,7.0.10*%
%TF.CreationDate,2024-02-06T22:07:40+01:00*%
%TF.ProjectId,16M2164_Ersatz_16dRAM,31364d32-3136-4345-9f45-727361747a5f,1*%
%TF.SameCoordinates,Original*%
%TF.FileFunction,Plated,1,2,PTH,Drill*%
%TF.FilePolarity,Positive*%
%FSLAX46Y46*%
G04 Gerber Fmt 4.6, Leading zero omitted, Abs format (unit mm)*
G04 Created by KiCad (PCBNEW 7.0.10) date 2024-02-06 22:07:40*
%MOMM*%
%LPD*%
G01*
G04 APERTURE LIST*
%TA.AperFunction,ViaDrill*%
%ADD10C,0.400000*%
%TD*%
%TA.AperFunction,ComponentDrill*%
%ADD11C,0.800000*%
%TD*%
%TA.AperFunction,ComponentDrill*%
%ADD12C,1.000000*%
%TD*%
G04 APERTURE END LIST*
D10*
X101240000Y-99000000D03*
X104240000Y-115500000D03*
X114240000Y-101000000D03*
X116740000Y-115500000D03*
X125740000Y-101000000D03*
X128240000Y-115500000D03*
X132740000Y-115500000D03*
X137740000Y-101000000D03*
X140240000Y-115500000D03*
X143240000Y-115500000D03*
X145240000Y-115500000D03*
X149740000Y-115500000D03*
X150240000Y-91500000D03*
X150240000Y-97500000D03*
X152240000Y-115500000D03*
X155240000Y-90000000D03*
X156740000Y-115500000D03*
X161740000Y-91500000D03*
X161740000Y-101000000D03*
X164740000Y-116000000D03*
X165000000Y-85000000D03*
X168240000Y-116000000D03*
X173740000Y-101000000D03*
X177240000Y-116000000D03*
X185740000Y-101000000D03*
X188740000Y-116000000D03*
D11*
%TO.C,U4*%
X99240000Y-94920000D03*
%TO.C,U12*%
X99240000Y-94920000D03*
%TO.C,U4*%
X99240000Y-97460000D03*
%TO.C,U12*%
X99240000Y-97460000D03*
%TO.C,U4*%
X99240000Y-100000000D03*
%TO.C,U12*%
X99240000Y-100000000D03*
X99240000Y-102540000D03*
%TO.C,U4*%
X99240000Y-102540000D03*
%TO.C,U12*%
X99240000Y-105080000D03*
%TO.C,U4*%
X99240000Y-105080000D03*
%TO.C,U12*%
X99240000Y-107620000D03*
%TO.C,U4*%
X99240000Y-107620000D03*
%TO.C,U12*%
X99240000Y-110160000D03*
%TO.C,U4*%
X99240000Y-110160000D03*
X99240000Y-112700000D03*
%TO.C,U12*%
X99240000Y-112700000D03*
X106860000Y-94920000D03*
%TO.C,U4*%
X106860000Y-94920000D03*
%TO.C,U12*%
X106860000Y-97460000D03*
%TO.C,U4*%
X106860000Y-97460000D03*
X106860000Y-100000000D03*
%TO.C,U12*%
X106860000Y-100000000D03*
%TO.C,U4*%
X106860000Y-102540000D03*
%TO.C,U12*%
X106860000Y-102540000D03*
%TO.C,U4*%
X106860000Y-105080000D03*
%TO.C,U12*%
X106860000Y-105080000D03*
%TO.C,U4*%
X106860000Y-107620000D03*
%TO.C,U12*%
X106860000Y-107620000D03*
X106860000Y-110160000D03*
%TO.C,U4*%
X106860000Y-110160000D03*
%TO.C,U12*%
X106860000Y-112700000D03*
%TO.C,U4*%
X106860000Y-112700000D03*
%TO.C,U11*%
X111240000Y-94920000D03*
%TO.C,U3*%
X111240000Y-94920000D03*
X111240000Y-97460000D03*
%TO.C,U11*%
X111240000Y-97460000D03*
%TO.C,U3*%
X111240000Y-100000000D03*
%TO.C,U11*%
X111240000Y-100000000D03*
%TO.C,U3*%
X111240000Y-102540000D03*
%TO.C,U11*%
X111240000Y-102540000D03*
%TO.C,U3*%
X111240000Y-105080000D03*
%TO.C,U11*%
X111240000Y-105080000D03*
%TO.C,U3*%
X111240000Y-107620000D03*
%TO.C,U11*%
X111240000Y-107620000D03*
%TO.C,U3*%
X111240000Y-110160000D03*
%TO.C,U11*%
X111240000Y-110160000D03*
%TO.C,U3*%
X111240000Y-112700000D03*
%TO.C,U11*%
X111240000Y-112700000D03*
%TO.C,U3*%
X118860000Y-94920000D03*
%TO.C,U11*%
X118860000Y-94920000D03*
X118860000Y-97460000D03*
%TO.C,U3*%
X118860000Y-97460000D03*
%TO.C,U11*%
X118860000Y-100000000D03*
%TO.C,U3*%
X118860000Y-100000000D03*
%TO.C,U11*%
X118860000Y-102540000D03*
%TO.C,U3*%
X118860000Y-102540000D03*
%TO.C,U11*%
X118860000Y-105080000D03*
%TO.C,U3*%
X118860000Y-105080000D03*
%TO.C,U11*%
X118860000Y-107620000D03*
%TO.C,U3*%
X118860000Y-107620000D03*
%TO.C,U11*%
X118860000Y-110160000D03*
%TO.C,U3*%
X118860000Y-110160000D03*
%TO.C,U11*%
X118860000Y-112700000D03*
%TO.C,U3*%
X118860000Y-112700000D03*
%TO.C,U10*%
X123240000Y-94920000D03*
%TO.C,U2*%
X123240000Y-94920000D03*
X123240000Y-97460000D03*
%TO.C,U10*%
X123240000Y-97460000D03*
%TO.C,U2*%
X123240000Y-100000000D03*
%TO.C,U10*%
X123240000Y-100000000D03*
%TO.C,U2*%
X123240000Y-102540000D03*
%TO.C,U10*%
X123240000Y-102540000D03*
X123240000Y-105080000D03*
%TO.C,U2*%
X123240000Y-105080000D03*
X123240000Y-107620000D03*
%TO.C,U10*%
X123240000Y-107620000D03*
%TO.C,U2*%
X123240000Y-110160000D03*
%TO.C,U10*%
X123240000Y-110160000D03*
%TO.C,U2*%
X123240000Y-112700000D03*
%TO.C,U10*%
X123240000Y-112700000D03*
%TO.C,U2*%
X130860000Y-94920000D03*
%TO.C,U10*%
X130860000Y-94920000D03*
%TO.C,U2*%
X130860000Y-97460000D03*
%TO.C,U10*%
X130860000Y-97460000D03*
%TO.C,U2*%
X130860000Y-100000000D03*
%TO.C,U10*%
X130860000Y-100000000D03*
X130860000Y-102540000D03*
%TO.C,U2*%
X130860000Y-102540000D03*
%TO.C,U10*%
X130860000Y-105080000D03*
%TO.C,U2*%
X130860000Y-105080000D03*
%TO.C,U10*%
X130860000Y-107620000D03*
%TO.C,U2*%
X130860000Y-107620000D03*
%TO.C,U10*%
X130860000Y-110160000D03*
%TO.C,U2*%
X130860000Y-110160000D03*
X130860000Y-112700000D03*
%TO.C,U10*%
X130860000Y-112700000D03*
%TO.C,U9*%
X135240000Y-94920000D03*
%TO.C,U1*%
X135240000Y-94920000D03*
%TO.C,U9*%
X135240000Y-97460000D03*
%TO.C,U1*%
X135240000Y-97460000D03*
X135240000Y-100000000D03*
%TO.C,U9*%
X135240000Y-100000000D03*
X135240000Y-102540000D03*
%TO.C,U1*%
X135240000Y-102540000D03*
%TO.C,U9*%
X135240000Y-105080000D03*
%TO.C,U1*%
X135240000Y-105080000D03*
%TO.C,U9*%
X135240000Y-107620000D03*
%TO.C,U1*%
X135240000Y-107620000D03*
%TO.C,U9*%
X135240000Y-110160000D03*
%TO.C,U1*%
X135240000Y-110160000D03*
%TO.C,U9*%
X135240000Y-112700000D03*
%TO.C,U1*%
X135240000Y-112700000D03*
%TO.C,U9*%
X142860000Y-94920000D03*
%TO.C,U1*%
X142860000Y-94920000D03*
X142860000Y-97460000D03*
%TO.C,U9*%
X142860000Y-97460000D03*
%TO.C,U1*%
X142860000Y-100000000D03*
%TO.C,U9*%
X142860000Y-100000000D03*
%TO.C,U1*%
X142860000Y-102540000D03*
%TO.C,U9*%
X142860000Y-102540000D03*
%TO.C,U1*%
X142860000Y-105080000D03*
%TO.C,U9*%
X142860000Y-105080000D03*
X142860000Y-107620000D03*
%TO.C,U1*%
X142860000Y-107620000D03*
X142860000Y-110160000D03*
%TO.C,U9*%
X142860000Y-110160000D03*
X142860000Y-112700000D03*
%TO.C,U1*%
X142860000Y-112700000D03*
%TO.C,U8*%
X147240000Y-94920000D03*
%TO.C,U16*%
X147240000Y-94920000D03*
%TO.C,U8*%
X147240000Y-97460000D03*
%TO.C,U16*%
X147240000Y-97460000D03*
%TO.C,U8*%
X147240000Y-100000000D03*
%TO.C,U16*%
X147240000Y-100000000D03*
%TO.C,U8*%
X147240000Y-102540000D03*
%TO.C,U16*%
X147240000Y-102540000D03*
X147240000Y-105080000D03*
%TO.C,U8*%
X147240000Y-105080000D03*
%TO.C,U16*%
X147240000Y-107620000D03*
%TO.C,U8*%
X147240000Y-107620000D03*
%TO.C,U16*%
X147240000Y-110160000D03*
%TO.C,U8*%
X147240000Y-110160000D03*
%TO.C,U16*%
X147240000Y-112700000D03*
%TO.C,U8*%
X147240000Y-112700000D03*
%TO.C,U16*%
X154860000Y-94920000D03*
%TO.C,U8*%
X154860000Y-94920000D03*
%TO.C,U16*%
X154860000Y-97460000D03*
%TO.C,U8*%
X154860000Y-97460000D03*
%TO.C,U16*%
X154860000Y-100000000D03*
%TO.C,U8*%
X154860000Y-100000000D03*
%TO.C,U16*%
X154860000Y-102540000D03*
%TO.C,U8*%
X154860000Y-102540000D03*
%TO.C,U16*%
X154860000Y-105080000D03*
%TO.C,U8*%
X154860000Y-105080000D03*
%TO.C,U16*%
X154860000Y-107620000D03*
%TO.C,U8*%
X154860000Y-107620000D03*
X154860000Y-110160000D03*
%TO.C,U16*%
X154860000Y-110160000D03*
%TO.C,U8*%
X154860000Y-112700000D03*
%TO.C,U16*%
X154860000Y-112700000D03*
%TO.C,U7*%
X159240000Y-94920000D03*
%TO.C,U15*%
X159240000Y-94920000D03*
%TO.C,U7*%
X159240000Y-97460000D03*
%TO.C,U15*%
X159240000Y-97460000D03*
%TO.C,U7*%
X159240000Y-100000000D03*
%TO.C,U15*%
X159240000Y-100000000D03*
%TO.C,U7*%
X159240000Y-102540000D03*
%TO.C,U15*%
X159240000Y-102540000D03*
X159240000Y-105080000D03*
%TO.C,U7*%
X159240000Y-105080000D03*
%TO.C,U15*%
X159240000Y-107620000D03*
%TO.C,U7*%
X159240000Y-107620000D03*
%TO.C,U15*%
X159240000Y-110160000D03*
%TO.C,U7*%
X159240000Y-110160000D03*
X159240000Y-112700000D03*
%TO.C,U15*%
X159240000Y-112700000D03*
X166860000Y-94920000D03*
%TO.C,U7*%
X166860000Y-94920000D03*
%TO.C,U15*%
X166860000Y-97460000D03*
%TO.C,U7*%
X166860000Y-97460000D03*
%TO.C,U15*%
X166860000Y-100000000D03*
%TO.C,U7*%
X166860000Y-100000000D03*
%TO.C,U15*%
X166860000Y-102540000D03*
%TO.C,U7*%
X166860000Y-102540000D03*
%TO.C,U15*%
X166860000Y-105080000D03*
%TO.C,U7*%
X166860000Y-105080000D03*
%TO.C,U15*%
X166860000Y-107620000D03*
%TO.C,U7*%
X166860000Y-107620000D03*
%TO.C,U15*%
X166860000Y-110160000D03*
%TO.C,U7*%
X166860000Y-110160000D03*
X166860000Y-112700000D03*
%TO.C,U15*%
X166860000Y-112700000D03*
%TO.C,U6*%
X171240000Y-94920000D03*
%TO.C,U14*%
X171240000Y-94920000D03*
%TO.C,U6*%
X171240000Y-97460000D03*
%TO.C,U14*%
X171240000Y-97460000D03*
%TO.C,U6*%
X171240000Y-100000000D03*
%TO.C,U14*%
X171240000Y-100000000D03*
%TO.C,U6*%
X171240000Y-102540000D03*
%TO.C,U14*%
X171240000Y-102540000D03*
%TO.C,U6*%
X171240000Y-105080000D03*
%TO.C,U14*%
X171240000Y-105080000D03*
%TO.C,U6*%
X171240000Y-107620000D03*
%TO.C,U14*%
X171240000Y-107620000D03*
%TO.C,U6*%
X171240000Y-110160000D03*
%TO.C,U14*%
X171240000Y-110160000D03*
%TO.C,U6*%
X171240000Y-112700000D03*
%TO.C,U14*%
X171240000Y-112700000D03*
%TO.C,U6*%
X178860000Y-94920000D03*
%TO.C,U14*%
X178860000Y-94920000D03*
X178860000Y-97460000D03*
%TO.C,U6*%
X178860000Y-97460000D03*
%TO.C,U14*%
X178860000Y-100000000D03*
%TO.C,U6*%
X178860000Y-100000000D03*
%TO.C,U14*%
X178860000Y-102540000D03*
%TO.C,U6*%
X178860000Y-102540000D03*
%TO.C,U14*%
X178860000Y-105080000D03*
%TO.C,U6*%
X178860000Y-105080000D03*
%TO.C,U14*%
X178860000Y-107620000D03*
%TO.C,U6*%
X178860000Y-107620000D03*
%TO.C,U14*%
X178860000Y-110160000D03*
%TO.C,U6*%
X178860000Y-110160000D03*
X178860000Y-112700000D03*
%TO.C,U14*%
X178860000Y-112700000D03*
%TO.C,U5*%
X183240000Y-94920000D03*
%TO.C,U13*%
X183240000Y-94920000D03*
%TO.C,U5*%
X183240000Y-97460000D03*
%TO.C,U13*%
X183240000Y-97460000D03*
%TO.C,U5*%
X183240000Y-100000000D03*
%TO.C,U13*%
X183240000Y-100000000D03*
%TO.C,U5*%
X183240000Y-102540000D03*
%TO.C,U13*%
X183240000Y-102540000D03*
X183240000Y-105080000D03*
%TO.C,U5*%
X183240000Y-105080000D03*
%TO.C,U13*%
X183240000Y-107620000D03*
%TO.C,U5*%
X183240000Y-107620000D03*
%TO.C,U13*%
X183240000Y-110160000D03*
%TO.C,U5*%
X183240000Y-110160000D03*
%TO.C,U13*%
X183240000Y-112700000D03*
%TO.C,U5*%
X183240000Y-112700000D03*
X190860000Y-94920000D03*
%TO.C,U13*%
X190860000Y-94920000D03*
%TO.C,U5*%
X190860000Y-97460000D03*
%TO.C,U13*%
X190860000Y-97460000D03*
%TO.C,U5*%
X190860000Y-100000000D03*
%TO.C,U13*%
X190860000Y-100000000D03*
%TO.C,U5*%
X190860000Y-102540000D03*
%TO.C,U13*%
X190860000Y-102540000D03*
%TO.C,U5*%
X190860000Y-105080000D03*
%TO.C,U13*%
X190860000Y-105080000D03*
%TO.C,U5*%
X190860000Y-107620000D03*
%TO.C,U13*%
X190860000Y-107620000D03*
%TO.C,U5*%
X190860000Y-110160000D03*
%TO.C,U13*%
X190860000Y-110160000D03*
X190860000Y-112700000D03*
%TO.C,U5*%
X190860000Y-112700000D03*
D12*
%TO.C,TP8*%
X110240000Y-90000000D03*
%TO.C,TP7*%
X122240000Y-90000000D03*
%TO.C,TP6*%
X134240000Y-90000000D03*
%TO.C,J1*%
X142020000Y-82500000D03*
%TO.C,J2*%
X142020000Y-120000000D03*
%TO.C,J1*%
X144560000Y-82500000D03*
%TO.C,J2*%
X144560000Y-120000000D03*
%TO.C,TP5*%
X146240000Y-90000000D03*
%TO.C,J1*%
X147100000Y-82500000D03*
%TO.C,J2*%
X147100000Y-120000000D03*
%TO.C,J1*%
X149640000Y-82500000D03*
%TO.C,J2*%
X149640000Y-120000000D03*
%TO.C,J1*%
X152180000Y-82500000D03*
%TO.C,J2*%
X152180000Y-120000000D03*
%TO.C,J1*%
X154720000Y-82500000D03*
%TO.C,J2*%
X154720000Y-120000000D03*
%TO.C,J1*%
X157260000Y-82500000D03*
%TO.C,J2*%
X157260000Y-120000000D03*
%TO.C,TP4*%
X158240000Y-90000000D03*
%TO.C,J1*%
X159800000Y-82500000D03*
%TO.C,J2*%
X159800000Y-120000000D03*
%TO.C,J1*%
X162340000Y-82500000D03*
%TO.C,J2*%
X162340000Y-120000000D03*
%TO.C,J1*%
X164880000Y-82500000D03*
%TO.C,J2*%
X164880000Y-120000000D03*
%TO.C,J1*%
X167420000Y-82500000D03*
%TO.C,J2*%
X167420000Y-120000000D03*
%TO.C,J1*%
X169960000Y-82500000D03*
%TO.C,J2*%
X169960000Y-120000000D03*
%TO.C,TP3*%
X170240000Y-90000000D03*
%TO.C,J1*%
X172500000Y-82500000D03*
%TO.C,J2*%
X172500000Y-120000000D03*
%TO.C,J1*%
X175040000Y-82500000D03*
%TO.C,J2*%
X175040000Y-120000000D03*
%TO.C,J1*%
X177580000Y-82500000D03*
%TO.C,J2*%
X177580000Y-120000000D03*
%TO.C,J1*%
X180120000Y-82500000D03*
%TO.C,J2*%
X180120000Y-120000000D03*
%TO.C,TP2*%
X182240000Y-90000000D03*
%TO.C,J1*%
X182660000Y-82500000D03*
%TO.C,J2*%
X182660000Y-120000000D03*
%TO.C,TP1*%
X193240000Y-90000000D03*
M02*
