%TF.GenerationSoftware,KiCad,Pcbnew,7.0.10*%
%TF.CreationDate,2024-02-06T22:07:37+01:00*%
%TF.ProjectId,16M2164_Ersatz_16dRAM,31364d32-3136-4345-9f45-727361747a5f,1*%
%TF.SameCoordinates,Original*%
%TF.FileFunction,Soldermask,Top*%
%TF.FilePolarity,Negative*%
%FSLAX46Y46*%
G04 Gerber Fmt 4.6, Leading zero omitted, Abs format (unit mm)*
G04 Created by KiCad (PCBNEW 7.0.10) date 2024-02-06 22:07:37*
%MOMM*%
%LPD*%
G01*
G04 APERTURE LIST*
G04 Aperture macros list*
%AMRoundRect*
0 Rectangle with rounded corners*
0 $1 Rounding radius*
0 $2 $3 $4 $5 $6 $7 $8 $9 X,Y pos of 4 corners*
0 Add a 4 corners polygon primitive as box body*
4,1,4,$2,$3,$4,$5,$6,$7,$8,$9,$2,$3,0*
0 Add four circle primitives for the rounded corners*
1,1,$1+$1,$2,$3*
1,1,$1+$1,$4,$5*
1,1,$1+$1,$6,$7*
1,1,$1+$1,$8,$9*
0 Add four rect primitives between the rounded corners*
20,1,$1+$1,$2,$3,$4,$5,0*
20,1,$1+$1,$4,$5,$6,$7,0*
20,1,$1+$1,$6,$7,$8,$9,0*
20,1,$1+$1,$8,$9,$2,$3,0*%
G04 Aperture macros list end*
%ADD10C,2.000000*%
%ADD11RoundRect,0.250000X-0.412500X-0.650000X0.412500X-0.650000X0.412500X0.650000X-0.412500X0.650000X0*%
%ADD12O,2.400000X1.600000*%
%ADD13R,2.400000X1.600000*%
%ADD14R,1.700000X1.700000*%
%ADD15O,1.700000X1.700000*%
G04 APERTURE END LIST*
D10*
%TO.C,TP8*%
X110240000Y-90000000D03*
%TD*%
%TO.C,TP7*%
X122240000Y-90000000D03*
%TD*%
%TO.C,TP6*%
X134240000Y-90000000D03*
%TD*%
%TO.C,TP5*%
X146240000Y-90000000D03*
%TD*%
%TO.C,TP4*%
X158240000Y-90000000D03*
%TD*%
%TO.C,TP3*%
X170240000Y-90000000D03*
%TD*%
%TO.C,TP2*%
X182240000Y-90000000D03*
%TD*%
%TO.C,TP1*%
X193240000Y-90000000D03*
%TD*%
D11*
%TO.C,C5*%
X172177500Y-116000000D03*
X175302500Y-116000000D03*
%TD*%
%TO.C,C1*%
X102302500Y-115500000D03*
X99177500Y-115500000D03*
%TD*%
%TO.C,C2*%
X123177500Y-115500000D03*
X126302500Y-115500000D03*
%TD*%
%TO.C,C3*%
X135177500Y-115500000D03*
X138302500Y-115500000D03*
%TD*%
%TO.C,C4*%
X159177500Y-116000000D03*
X162302500Y-116000000D03*
%TD*%
%TO.C,C6*%
X186302500Y-116000000D03*
X183177500Y-116000000D03*
%TD*%
D12*
%TO.C,U5*%
X190860000Y-94920000D03*
X190860000Y-97460000D03*
X190860000Y-100000000D03*
X190860000Y-102540000D03*
X190860000Y-105080000D03*
X190860000Y-107620000D03*
X190860000Y-110160000D03*
X190860000Y-112700000D03*
X183240000Y-112700000D03*
X183240000Y-110160000D03*
X183240000Y-107620000D03*
X183240000Y-105080000D03*
X183240000Y-102540000D03*
X183240000Y-100000000D03*
X183240000Y-97460000D03*
D13*
X183240000Y-94920000D03*
%TD*%
%TO.C,U14*%
X171240000Y-94920000D03*
D12*
X171240000Y-97460000D03*
X171240000Y-100000000D03*
X171240000Y-102540000D03*
X171240000Y-105080000D03*
X171240000Y-107620000D03*
X171240000Y-110160000D03*
X171240000Y-112700000D03*
X178860000Y-112700000D03*
X178860000Y-110160000D03*
X178860000Y-107620000D03*
X178860000Y-105080000D03*
X178860000Y-102540000D03*
X178860000Y-100000000D03*
X178860000Y-97460000D03*
X178860000Y-94920000D03*
%TD*%
%TO.C,U8*%
X154860000Y-94920000D03*
X154860000Y-97460000D03*
X154860000Y-100000000D03*
X154860000Y-102540000D03*
X154860000Y-105080000D03*
X154860000Y-107620000D03*
X154860000Y-110160000D03*
X154860000Y-112700000D03*
X147240000Y-112700000D03*
X147240000Y-110160000D03*
X147240000Y-107620000D03*
X147240000Y-105080000D03*
X147240000Y-102540000D03*
X147240000Y-100000000D03*
X147240000Y-97460000D03*
D13*
X147240000Y-94920000D03*
%TD*%
D12*
%TO.C,U16*%
X154860000Y-94920000D03*
X154860000Y-97460000D03*
X154860000Y-100000000D03*
X154860000Y-102540000D03*
X154860000Y-105080000D03*
X154860000Y-107620000D03*
X154860000Y-110160000D03*
X154860000Y-112700000D03*
X147240000Y-112700000D03*
X147240000Y-110160000D03*
X147240000Y-107620000D03*
X147240000Y-105080000D03*
X147240000Y-102540000D03*
X147240000Y-100000000D03*
X147240000Y-97460000D03*
D13*
X147240000Y-94920000D03*
%TD*%
%TO.C,U7*%
X159240000Y-94920000D03*
D12*
X159240000Y-97460000D03*
X159240000Y-100000000D03*
X159240000Y-102540000D03*
X159240000Y-105080000D03*
X159240000Y-107620000D03*
X159240000Y-110160000D03*
X159240000Y-112700000D03*
X166860000Y-112700000D03*
X166860000Y-110160000D03*
X166860000Y-107620000D03*
X166860000Y-105080000D03*
X166860000Y-102540000D03*
X166860000Y-100000000D03*
X166860000Y-97460000D03*
X166860000Y-94920000D03*
%TD*%
D13*
%TO.C,U11*%
X111240000Y-94920000D03*
D12*
X111240000Y-97460000D03*
X111240000Y-100000000D03*
X111240000Y-102540000D03*
X111240000Y-105080000D03*
X111240000Y-107620000D03*
X111240000Y-110160000D03*
X111240000Y-112700000D03*
X118860000Y-112700000D03*
X118860000Y-110160000D03*
X118860000Y-107620000D03*
X118860000Y-105080000D03*
X118860000Y-102540000D03*
X118860000Y-100000000D03*
X118860000Y-97460000D03*
X118860000Y-94920000D03*
%TD*%
D13*
%TO.C,U1*%
X135240000Y-94920000D03*
D12*
X135240000Y-97460000D03*
X135240000Y-100000000D03*
X135240000Y-102540000D03*
X135240000Y-105080000D03*
X135240000Y-107620000D03*
X135240000Y-110160000D03*
X135240000Y-112700000D03*
X142860000Y-112700000D03*
X142860000Y-110160000D03*
X142860000Y-107620000D03*
X142860000Y-105080000D03*
X142860000Y-102540000D03*
X142860000Y-100000000D03*
X142860000Y-97460000D03*
X142860000Y-94920000D03*
%TD*%
D13*
%TO.C,U12*%
X99240000Y-94920000D03*
D12*
X99240000Y-97460000D03*
X99240000Y-100000000D03*
X99240000Y-102540000D03*
X99240000Y-105080000D03*
X99240000Y-107620000D03*
X99240000Y-110160000D03*
X99240000Y-112700000D03*
X106860000Y-112700000D03*
X106860000Y-110160000D03*
X106860000Y-107620000D03*
X106860000Y-105080000D03*
X106860000Y-102540000D03*
X106860000Y-100000000D03*
X106860000Y-97460000D03*
X106860000Y-94920000D03*
%TD*%
D13*
%TO.C,U2*%
X123240000Y-94920000D03*
D12*
X123240000Y-97460000D03*
X123240000Y-100000000D03*
X123240000Y-102540000D03*
X123240000Y-105080000D03*
X123240000Y-107620000D03*
X123240000Y-110160000D03*
X123240000Y-112700000D03*
X130860000Y-112700000D03*
X130860000Y-110160000D03*
X130860000Y-107620000D03*
X130860000Y-105080000D03*
X130860000Y-102540000D03*
X130860000Y-100000000D03*
X130860000Y-97460000D03*
X130860000Y-94920000D03*
%TD*%
D13*
%TO.C,U15*%
X159240000Y-94920000D03*
D12*
X159240000Y-97460000D03*
X159240000Y-100000000D03*
X159240000Y-102540000D03*
X159240000Y-105080000D03*
X159240000Y-107620000D03*
X159240000Y-110160000D03*
X159240000Y-112700000D03*
X166860000Y-112700000D03*
X166860000Y-110160000D03*
X166860000Y-107620000D03*
X166860000Y-105080000D03*
X166860000Y-102540000D03*
X166860000Y-100000000D03*
X166860000Y-97460000D03*
X166860000Y-94920000D03*
%TD*%
D13*
%TO.C,U10*%
X123240000Y-94920000D03*
D12*
X123240000Y-97460000D03*
X123240000Y-100000000D03*
X123240000Y-102540000D03*
X123240000Y-105080000D03*
X123240000Y-107620000D03*
X123240000Y-110160000D03*
X123240000Y-112700000D03*
X130860000Y-112700000D03*
X130860000Y-110160000D03*
X130860000Y-107620000D03*
X130860000Y-105080000D03*
X130860000Y-102540000D03*
X130860000Y-100000000D03*
X130860000Y-97460000D03*
X130860000Y-94920000D03*
%TD*%
D13*
%TO.C,U3*%
X111240000Y-94920000D03*
D12*
X111240000Y-97460000D03*
X111240000Y-100000000D03*
X111240000Y-102540000D03*
X111240000Y-105080000D03*
X111240000Y-107620000D03*
X111240000Y-110160000D03*
X111240000Y-112700000D03*
X118860000Y-112700000D03*
X118860000Y-110160000D03*
X118860000Y-107620000D03*
X118860000Y-105080000D03*
X118860000Y-102540000D03*
X118860000Y-100000000D03*
X118860000Y-97460000D03*
X118860000Y-94920000D03*
%TD*%
D13*
%TO.C,U9*%
X135240000Y-94920000D03*
D12*
X135240000Y-97460000D03*
X135240000Y-100000000D03*
X135240000Y-102540000D03*
X135240000Y-105080000D03*
X135240000Y-107620000D03*
X135240000Y-110160000D03*
X135240000Y-112700000D03*
X142860000Y-112700000D03*
X142860000Y-110160000D03*
X142860000Y-107620000D03*
X142860000Y-105080000D03*
X142860000Y-102540000D03*
X142860000Y-100000000D03*
X142860000Y-97460000D03*
X142860000Y-94920000D03*
%TD*%
%TO.C,U4*%
X106860000Y-94920000D03*
X106860000Y-97460000D03*
X106860000Y-100000000D03*
X106860000Y-102540000D03*
X106860000Y-105080000D03*
X106860000Y-107620000D03*
X106860000Y-110160000D03*
X106860000Y-112700000D03*
X99240000Y-112700000D03*
X99240000Y-110160000D03*
X99240000Y-107620000D03*
X99240000Y-105080000D03*
X99240000Y-102540000D03*
X99240000Y-100000000D03*
X99240000Y-97460000D03*
D13*
X99240000Y-94920000D03*
%TD*%
%TO.C,U6*%
X171240000Y-94920000D03*
D12*
X171240000Y-97460000D03*
X171240000Y-100000000D03*
X171240000Y-102540000D03*
X171240000Y-105080000D03*
X171240000Y-107620000D03*
X171240000Y-110160000D03*
X171240000Y-112700000D03*
X178860000Y-112700000D03*
X178860000Y-110160000D03*
X178860000Y-107620000D03*
X178860000Y-105080000D03*
X178860000Y-102540000D03*
X178860000Y-100000000D03*
X178860000Y-97460000D03*
X178860000Y-94920000D03*
%TD*%
D13*
%TO.C,U13*%
X183240000Y-94920000D03*
D12*
X183240000Y-97460000D03*
X183240000Y-100000000D03*
X183240000Y-102540000D03*
X183240000Y-105080000D03*
X183240000Y-107620000D03*
X183240000Y-110160000D03*
X183240000Y-112700000D03*
X190860000Y-112700000D03*
X190860000Y-110160000D03*
X190860000Y-107620000D03*
X190860000Y-105080000D03*
X190860000Y-102540000D03*
X190860000Y-100000000D03*
X190860000Y-97460000D03*
X190860000Y-94920000D03*
%TD*%
D14*
%TO.C,J2*%
X182660000Y-120000000D03*
D15*
X180120000Y-120000000D03*
X177580000Y-120000000D03*
X175040000Y-120000000D03*
X172500000Y-120000000D03*
X169960000Y-120000000D03*
X167420000Y-120000000D03*
X164880000Y-120000000D03*
X162340000Y-120000000D03*
X159800000Y-120000000D03*
X157260000Y-120000000D03*
X154720000Y-120000000D03*
X152180000Y-120000000D03*
X149640000Y-120000000D03*
X147100000Y-120000000D03*
X144560000Y-120000000D03*
X142020000Y-120000000D03*
%TD*%
D14*
%TO.C,J1*%
X182660000Y-82500000D03*
D15*
X180120000Y-82500000D03*
X177580000Y-82500000D03*
X175040000Y-82500000D03*
X172500000Y-82500000D03*
X169960000Y-82500000D03*
X167420000Y-82500000D03*
X164880000Y-82500000D03*
X162340000Y-82500000D03*
X159800000Y-82500000D03*
X157260000Y-82500000D03*
X154720000Y-82500000D03*
X152180000Y-82500000D03*
X149640000Y-82500000D03*
X147100000Y-82500000D03*
X144560000Y-82500000D03*
X142020000Y-82500000D03*
%TD*%
M02*
