%TF.GenerationSoftware,KiCad,Pcbnew,7.0.10*%
%TF.CreationDate,2024-02-06T22:07:37+01:00*%
%TF.ProjectId,16M2164_Ersatz_16dRAM,31364d32-3136-4345-9f45-727361747a5f,1*%
%TF.SameCoordinates,Original*%
%TF.FileFunction,Legend,Bot*%
%TF.FilePolarity,Positive*%
%FSLAX46Y46*%
G04 Gerber Fmt 4.6, Leading zero omitted, Abs format (unit mm)*
G04 Created by KiCad (PCBNEW 7.0.10) date 2024-02-06 22:07:37*
%MOMM*%
%LPD*%
G01*
G04 APERTURE LIST*
%ADD10C,0.150000*%
%ADD11C,0.120000*%
G04 APERTURE END LIST*
D10*
X184444819Y-119666666D02*
X185159104Y-119666666D01*
X185159104Y-119666666D02*
X185301961Y-119619047D01*
X185301961Y-119619047D02*
X185397200Y-119523809D01*
X185397200Y-119523809D02*
X185444819Y-119380952D01*
X185444819Y-119380952D02*
X185444819Y-119285714D01*
X184540057Y-120095238D02*
X184492438Y-120142857D01*
X184492438Y-120142857D02*
X184444819Y-120238095D01*
X184444819Y-120238095D02*
X184444819Y-120476190D01*
X184444819Y-120476190D02*
X184492438Y-120571428D01*
X184492438Y-120571428D02*
X184540057Y-120619047D01*
X184540057Y-120619047D02*
X184635295Y-120666666D01*
X184635295Y-120666666D02*
X184730533Y-120666666D01*
X184730533Y-120666666D02*
X184873390Y-120619047D01*
X184873390Y-120619047D02*
X185444819Y-120047619D01*
X185444819Y-120047619D02*
X185444819Y-120666666D01*
X184444819Y-82166666D02*
X185159104Y-82166666D01*
X185159104Y-82166666D02*
X185301961Y-82119047D01*
X185301961Y-82119047D02*
X185397200Y-82023809D01*
X185397200Y-82023809D02*
X185444819Y-81880952D01*
X185444819Y-81880952D02*
X185444819Y-81785714D01*
X185444819Y-83166666D02*
X185444819Y-82595238D01*
X185444819Y-82880952D02*
X184444819Y-82880952D01*
X184444819Y-82880952D02*
X184587676Y-82785714D01*
X184587676Y-82785714D02*
X184682914Y-82690476D01*
X184682914Y-82690476D02*
X184730533Y-82595238D01*
D11*
%TO.C,J2*%
X140690000Y-121330000D02*
X140690000Y-118670000D01*
X181390000Y-121330000D02*
X140690000Y-121330000D01*
X181390000Y-121330000D02*
X181390000Y-118670000D01*
X182660000Y-121330000D02*
X183990000Y-121330000D01*
X183990000Y-121330000D02*
X183990000Y-120000000D01*
X181390000Y-118670000D02*
X140690000Y-118670000D01*
%TO.C,J1*%
X140690000Y-83830000D02*
X140690000Y-81170000D01*
X181390000Y-83830000D02*
X140690000Y-83830000D01*
X181390000Y-83830000D02*
X181390000Y-81170000D01*
X182660000Y-83830000D02*
X183990000Y-83830000D01*
X183990000Y-83830000D02*
X183990000Y-82500000D01*
X181390000Y-81170000D02*
X140690000Y-81170000D01*
%TD*%
M02*
