%TF.GenerationSoftware,KiCad,Pcbnew,7.0.10*%
%TF.CreationDate,2024-02-06T22:07:37+01:00*%
%TF.ProjectId,16M2164_Ersatz_16dRAM,31364d32-3136-4345-9f45-727361747a5f,1*%
%TF.SameCoordinates,Original*%
%TF.FileFunction,Legend,Top*%
%TF.FilePolarity,Positive*%
%FSLAX46Y46*%
G04 Gerber Fmt 4.6, Leading zero omitted, Abs format (unit mm)*
G04 Created by KiCad (PCBNEW 7.0.10) date 2024-02-06 22:07:37*
%MOMM*%
%LPD*%
G01*
G04 APERTURE LIST*
%ADD10C,0.250000*%
%ADD11C,0.300000*%
%ADD12C,0.150000*%
%ADD13C,0.120000*%
G04 APERTURE END LIST*
D10*
X100133044Y-120254428D02*
X100190187Y-120197285D01*
X100190187Y-120197285D02*
X100304473Y-120140142D01*
X100304473Y-120140142D02*
X100590187Y-120140142D01*
X100590187Y-120140142D02*
X100704473Y-120197285D01*
X100704473Y-120197285D02*
X100761615Y-120254428D01*
X100761615Y-120254428D02*
X100818758Y-120368714D01*
X100818758Y-120368714D02*
X100818758Y-120483000D01*
X100818758Y-120483000D02*
X100761615Y-120654428D01*
X100761615Y-120654428D02*
X100075901Y-121340142D01*
X100075901Y-121340142D02*
X100818758Y-121340142D01*
X102190187Y-120083000D02*
X101161615Y-121625857D01*
X102533044Y-120254428D02*
X102590187Y-120197285D01*
X102590187Y-120197285D02*
X102704473Y-120140142D01*
X102704473Y-120140142D02*
X102990187Y-120140142D01*
X102990187Y-120140142D02*
X103104473Y-120197285D01*
X103104473Y-120197285D02*
X103161615Y-120254428D01*
X103161615Y-120254428D02*
X103218758Y-120368714D01*
X103218758Y-120368714D02*
X103218758Y-120483000D01*
X103218758Y-120483000D02*
X103161615Y-120654428D01*
X103161615Y-120654428D02*
X102475901Y-121340142D01*
X102475901Y-121340142D02*
X103218758Y-121340142D01*
X103961615Y-120140142D02*
X104075901Y-120140142D01*
X104075901Y-120140142D02*
X104190187Y-120197285D01*
X104190187Y-120197285D02*
X104247330Y-120254428D01*
X104247330Y-120254428D02*
X104304472Y-120368714D01*
X104304472Y-120368714D02*
X104361615Y-120597285D01*
X104361615Y-120597285D02*
X104361615Y-120883000D01*
X104361615Y-120883000D02*
X104304472Y-121111571D01*
X104304472Y-121111571D02*
X104247330Y-121225857D01*
X104247330Y-121225857D02*
X104190187Y-121283000D01*
X104190187Y-121283000D02*
X104075901Y-121340142D01*
X104075901Y-121340142D02*
X103961615Y-121340142D01*
X103961615Y-121340142D02*
X103847330Y-121283000D01*
X103847330Y-121283000D02*
X103790187Y-121225857D01*
X103790187Y-121225857D02*
X103733044Y-121111571D01*
X103733044Y-121111571D02*
X103675901Y-120883000D01*
X103675901Y-120883000D02*
X103675901Y-120597285D01*
X103675901Y-120597285D02*
X103733044Y-120368714D01*
X103733044Y-120368714D02*
X103790187Y-120254428D01*
X103790187Y-120254428D02*
X103847330Y-120197285D01*
X103847330Y-120197285D02*
X103961615Y-120140142D01*
X104818758Y-120254428D02*
X104875901Y-120197285D01*
X104875901Y-120197285D02*
X104990187Y-120140142D01*
X104990187Y-120140142D02*
X105275901Y-120140142D01*
X105275901Y-120140142D02*
X105390187Y-120197285D01*
X105390187Y-120197285D02*
X105447329Y-120254428D01*
X105447329Y-120254428D02*
X105504472Y-120368714D01*
X105504472Y-120368714D02*
X105504472Y-120483000D01*
X105504472Y-120483000D02*
X105447329Y-120654428D01*
X105447329Y-120654428D02*
X104761615Y-121340142D01*
X104761615Y-121340142D02*
X105504472Y-121340142D01*
X106533044Y-120540142D02*
X106533044Y-121340142D01*
X106247329Y-120083000D02*
X105961615Y-120940142D01*
X105961615Y-120940142D02*
X106704472Y-120940142D01*
X108075901Y-121340142D02*
X108075901Y-120140142D01*
X108075901Y-120597285D02*
X108190187Y-120540142D01*
X108190187Y-120540142D02*
X108418758Y-120540142D01*
X108418758Y-120540142D02*
X108533044Y-120597285D01*
X108533044Y-120597285D02*
X108590187Y-120654428D01*
X108590187Y-120654428D02*
X108647329Y-120768714D01*
X108647329Y-120768714D02*
X108647329Y-121111571D01*
X108647329Y-121111571D02*
X108590187Y-121225857D01*
X108590187Y-121225857D02*
X108533044Y-121283000D01*
X108533044Y-121283000D02*
X108418758Y-121340142D01*
X108418758Y-121340142D02*
X108190187Y-121340142D01*
X108190187Y-121340142D02*
X108075901Y-121283000D01*
X109333043Y-121340142D02*
X109218758Y-121283000D01*
X109218758Y-121283000D02*
X109161615Y-121225857D01*
X109161615Y-121225857D02*
X109104472Y-121111571D01*
X109104472Y-121111571D02*
X109104472Y-120768714D01*
X109104472Y-120768714D02*
X109161615Y-120654428D01*
X109161615Y-120654428D02*
X109218758Y-120597285D01*
X109218758Y-120597285D02*
X109333043Y-120540142D01*
X109333043Y-120540142D02*
X109504472Y-120540142D01*
X109504472Y-120540142D02*
X109618758Y-120597285D01*
X109618758Y-120597285D02*
X109675901Y-120654428D01*
X109675901Y-120654428D02*
X109733043Y-120768714D01*
X109733043Y-120768714D02*
X109733043Y-121111571D01*
X109733043Y-121111571D02*
X109675901Y-121225857D01*
X109675901Y-121225857D02*
X109618758Y-121283000D01*
X109618758Y-121283000D02*
X109504472Y-121340142D01*
X109504472Y-121340142D02*
X109333043Y-121340142D01*
X110704472Y-121283000D02*
X110590186Y-121340142D01*
X110590186Y-121340142D02*
X110361615Y-121340142D01*
X110361615Y-121340142D02*
X110247329Y-121283000D01*
X110247329Y-121283000D02*
X110190186Y-121168714D01*
X110190186Y-121168714D02*
X110190186Y-120711571D01*
X110190186Y-120711571D02*
X110247329Y-120597285D01*
X110247329Y-120597285D02*
X110361615Y-120540142D01*
X110361615Y-120540142D02*
X110590186Y-120540142D01*
X110590186Y-120540142D02*
X110704472Y-120597285D01*
X110704472Y-120597285D02*
X110761615Y-120711571D01*
X110761615Y-120711571D02*
X110761615Y-120825857D01*
X110761615Y-120825857D02*
X110190186Y-120940142D01*
X111275900Y-121340142D02*
X111275900Y-120540142D01*
X111275900Y-120768714D02*
X111333043Y-120654428D01*
X111333043Y-120654428D02*
X111390186Y-120597285D01*
X111390186Y-120597285D02*
X111504471Y-120540142D01*
X111504471Y-120540142D02*
X111618757Y-120540142D01*
X111847328Y-120540142D02*
X112304471Y-120540142D01*
X112018757Y-120140142D02*
X112018757Y-121168714D01*
X112018757Y-121168714D02*
X112075900Y-121283000D01*
X112075900Y-121283000D02*
X112190185Y-121340142D01*
X112190185Y-121340142D02*
X112304471Y-121340142D01*
D11*
X143580225Y-87300828D02*
X142723082Y-87300828D01*
X143151653Y-87300828D02*
X143151653Y-85800828D01*
X143151653Y-85800828D02*
X143008796Y-86015114D01*
X143008796Y-86015114D02*
X142865939Y-86157971D01*
X142865939Y-86157971D02*
X142723082Y-86229400D01*
X144865939Y-85800828D02*
X144580224Y-85800828D01*
X144580224Y-85800828D02*
X144437367Y-85872257D01*
X144437367Y-85872257D02*
X144365939Y-85943685D01*
X144365939Y-85943685D02*
X144223081Y-86157971D01*
X144223081Y-86157971D02*
X144151653Y-86443685D01*
X144151653Y-86443685D02*
X144151653Y-87015114D01*
X144151653Y-87015114D02*
X144223081Y-87157971D01*
X144223081Y-87157971D02*
X144294510Y-87229400D01*
X144294510Y-87229400D02*
X144437367Y-87300828D01*
X144437367Y-87300828D02*
X144723081Y-87300828D01*
X144723081Y-87300828D02*
X144865939Y-87229400D01*
X144865939Y-87229400D02*
X144937367Y-87157971D01*
X144937367Y-87157971D02*
X145008796Y-87015114D01*
X145008796Y-87015114D02*
X145008796Y-86657971D01*
X145008796Y-86657971D02*
X144937367Y-86515114D01*
X144937367Y-86515114D02*
X144865939Y-86443685D01*
X144865939Y-86443685D02*
X144723081Y-86372257D01*
X144723081Y-86372257D02*
X144437367Y-86372257D01*
X144437367Y-86372257D02*
X144294510Y-86443685D01*
X144294510Y-86443685D02*
X144223081Y-86515114D01*
X144223081Y-86515114D02*
X144151653Y-86657971D01*
X145651652Y-87300828D02*
X145651652Y-85800828D01*
X145651652Y-85800828D02*
X146151652Y-86872257D01*
X146151652Y-86872257D02*
X146651652Y-85800828D01*
X146651652Y-85800828D02*
X146651652Y-87300828D01*
X147294510Y-85943685D02*
X147365938Y-85872257D01*
X147365938Y-85872257D02*
X147508796Y-85800828D01*
X147508796Y-85800828D02*
X147865938Y-85800828D01*
X147865938Y-85800828D02*
X148008796Y-85872257D01*
X148008796Y-85872257D02*
X148080224Y-85943685D01*
X148080224Y-85943685D02*
X148151653Y-86086542D01*
X148151653Y-86086542D02*
X148151653Y-86229400D01*
X148151653Y-86229400D02*
X148080224Y-86443685D01*
X148080224Y-86443685D02*
X147223081Y-87300828D01*
X147223081Y-87300828D02*
X148151653Y-87300828D01*
X149580224Y-87300828D02*
X148723081Y-87300828D01*
X149151652Y-87300828D02*
X149151652Y-85800828D01*
X149151652Y-85800828D02*
X149008795Y-86015114D01*
X149008795Y-86015114D02*
X148865938Y-86157971D01*
X148865938Y-86157971D02*
X148723081Y-86229400D01*
X150865938Y-85800828D02*
X150580223Y-85800828D01*
X150580223Y-85800828D02*
X150437366Y-85872257D01*
X150437366Y-85872257D02*
X150365938Y-85943685D01*
X150365938Y-85943685D02*
X150223080Y-86157971D01*
X150223080Y-86157971D02*
X150151652Y-86443685D01*
X150151652Y-86443685D02*
X150151652Y-87015114D01*
X150151652Y-87015114D02*
X150223080Y-87157971D01*
X150223080Y-87157971D02*
X150294509Y-87229400D01*
X150294509Y-87229400D02*
X150437366Y-87300828D01*
X150437366Y-87300828D02*
X150723080Y-87300828D01*
X150723080Y-87300828D02*
X150865938Y-87229400D01*
X150865938Y-87229400D02*
X150937366Y-87157971D01*
X150937366Y-87157971D02*
X151008795Y-87015114D01*
X151008795Y-87015114D02*
X151008795Y-86657971D01*
X151008795Y-86657971D02*
X150937366Y-86515114D01*
X150937366Y-86515114D02*
X150865938Y-86443685D01*
X150865938Y-86443685D02*
X150723080Y-86372257D01*
X150723080Y-86372257D02*
X150437366Y-86372257D01*
X150437366Y-86372257D02*
X150294509Y-86443685D01*
X150294509Y-86443685D02*
X150223080Y-86515114D01*
X150223080Y-86515114D02*
X150151652Y-86657971D01*
X152294509Y-86300828D02*
X152294509Y-87300828D01*
X151937366Y-85729400D02*
X151580223Y-86800828D01*
X151580223Y-86800828D02*
X152508794Y-86800828D01*
X153080222Y-86729400D02*
X154223080Y-86729400D01*
X154937365Y-86515114D02*
X155437365Y-86515114D01*
X155651651Y-87300828D02*
X154937365Y-87300828D01*
X154937365Y-87300828D02*
X154937365Y-85800828D01*
X154937365Y-85800828D02*
X155651651Y-85800828D01*
X156294508Y-87300828D02*
X156294508Y-86300828D01*
X156294508Y-86586542D02*
X156365937Y-86443685D01*
X156365937Y-86443685D02*
X156437366Y-86372257D01*
X156437366Y-86372257D02*
X156580223Y-86300828D01*
X156580223Y-86300828D02*
X156723080Y-86300828D01*
X157151651Y-87229400D02*
X157294508Y-87300828D01*
X157294508Y-87300828D02*
X157580222Y-87300828D01*
X157580222Y-87300828D02*
X157723079Y-87229400D01*
X157723079Y-87229400D02*
X157794508Y-87086542D01*
X157794508Y-87086542D02*
X157794508Y-87015114D01*
X157794508Y-87015114D02*
X157723079Y-86872257D01*
X157723079Y-86872257D02*
X157580222Y-86800828D01*
X157580222Y-86800828D02*
X157365937Y-86800828D01*
X157365937Y-86800828D02*
X157223079Y-86729400D01*
X157223079Y-86729400D02*
X157151651Y-86586542D01*
X157151651Y-86586542D02*
X157151651Y-86515114D01*
X157151651Y-86515114D02*
X157223079Y-86372257D01*
X157223079Y-86372257D02*
X157365937Y-86300828D01*
X157365937Y-86300828D02*
X157580222Y-86300828D01*
X157580222Y-86300828D02*
X157723079Y-86372257D01*
X159080223Y-87300828D02*
X159080223Y-86515114D01*
X159080223Y-86515114D02*
X159008794Y-86372257D01*
X159008794Y-86372257D02*
X158865937Y-86300828D01*
X158865937Y-86300828D02*
X158580223Y-86300828D01*
X158580223Y-86300828D02*
X158437365Y-86372257D01*
X159080223Y-87229400D02*
X158937365Y-87300828D01*
X158937365Y-87300828D02*
X158580223Y-87300828D01*
X158580223Y-87300828D02*
X158437365Y-87229400D01*
X158437365Y-87229400D02*
X158365937Y-87086542D01*
X158365937Y-87086542D02*
X158365937Y-86943685D01*
X158365937Y-86943685D02*
X158437365Y-86800828D01*
X158437365Y-86800828D02*
X158580223Y-86729400D01*
X158580223Y-86729400D02*
X158937365Y-86729400D01*
X158937365Y-86729400D02*
X159080223Y-86657971D01*
X159580223Y-86300828D02*
X160151651Y-86300828D01*
X159794508Y-85800828D02*
X159794508Y-87086542D01*
X159794508Y-87086542D02*
X159865937Y-87229400D01*
X159865937Y-87229400D02*
X160008794Y-87300828D01*
X160008794Y-87300828D02*
X160151651Y-87300828D01*
X160508794Y-86300828D02*
X161294509Y-86300828D01*
X161294509Y-86300828D02*
X160508794Y-87300828D01*
X160508794Y-87300828D02*
X161294509Y-87300828D01*
X161865937Y-86300828D02*
X161865937Y-87800828D01*
X161865937Y-86372257D02*
X162008795Y-86300828D01*
X162008795Y-86300828D02*
X162294509Y-86300828D01*
X162294509Y-86300828D02*
X162437366Y-86372257D01*
X162437366Y-86372257D02*
X162508795Y-86443685D01*
X162508795Y-86443685D02*
X162580223Y-86586542D01*
X162580223Y-86586542D02*
X162580223Y-87015114D01*
X162580223Y-87015114D02*
X162508795Y-87157971D01*
X162508795Y-87157971D02*
X162437366Y-87229400D01*
X162437366Y-87229400D02*
X162294509Y-87300828D01*
X162294509Y-87300828D02*
X162008795Y-87300828D01*
X162008795Y-87300828D02*
X161865937Y-87229400D01*
X163437366Y-87300828D02*
X163294509Y-87229400D01*
X163294509Y-87229400D02*
X163223080Y-87086542D01*
X163223080Y-87086542D02*
X163223080Y-85800828D01*
X164651652Y-87300828D02*
X164651652Y-86515114D01*
X164651652Y-86515114D02*
X164580223Y-86372257D01*
X164580223Y-86372257D02*
X164437366Y-86300828D01*
X164437366Y-86300828D02*
X164151652Y-86300828D01*
X164151652Y-86300828D02*
X164008794Y-86372257D01*
X164651652Y-87229400D02*
X164508794Y-87300828D01*
X164508794Y-87300828D02*
X164151652Y-87300828D01*
X164151652Y-87300828D02*
X164008794Y-87229400D01*
X164008794Y-87229400D02*
X163937366Y-87086542D01*
X163937366Y-87086542D02*
X163937366Y-86943685D01*
X163937366Y-86943685D02*
X164008794Y-86800828D01*
X164008794Y-86800828D02*
X164151652Y-86729400D01*
X164151652Y-86729400D02*
X164508794Y-86729400D01*
X164508794Y-86729400D02*
X164651652Y-86657971D01*
X165151652Y-86300828D02*
X165723080Y-86300828D01*
X165365937Y-85800828D02*
X165365937Y-87086542D01*
X165365937Y-87086542D02*
X165437366Y-87229400D01*
X165437366Y-87229400D02*
X165580223Y-87300828D01*
X165580223Y-87300828D02*
X165723080Y-87300828D01*
X166223080Y-87300828D02*
X166223080Y-86300828D01*
X166223080Y-85800828D02*
X166151652Y-85872257D01*
X166151652Y-85872257D02*
X166223080Y-85943685D01*
X166223080Y-85943685D02*
X166294509Y-85872257D01*
X166294509Y-85872257D02*
X166223080Y-85800828D01*
X166223080Y-85800828D02*
X166223080Y-85943685D01*
X166937366Y-86300828D02*
X166937366Y-87300828D01*
X166937366Y-86443685D02*
X167008795Y-86372257D01*
X167008795Y-86372257D02*
X167151652Y-86300828D01*
X167151652Y-86300828D02*
X167365938Y-86300828D01*
X167365938Y-86300828D02*
X167508795Y-86372257D01*
X167508795Y-86372257D02*
X167580224Y-86515114D01*
X167580224Y-86515114D02*
X167580224Y-87300828D01*
X168865938Y-87229400D02*
X168723081Y-87300828D01*
X168723081Y-87300828D02*
X168437367Y-87300828D01*
X168437367Y-87300828D02*
X168294509Y-87229400D01*
X168294509Y-87229400D02*
X168223081Y-87086542D01*
X168223081Y-87086542D02*
X168223081Y-86515114D01*
X168223081Y-86515114D02*
X168294509Y-86372257D01*
X168294509Y-86372257D02*
X168437367Y-86300828D01*
X168437367Y-86300828D02*
X168723081Y-86300828D01*
X168723081Y-86300828D02*
X168865938Y-86372257D01*
X168865938Y-86372257D02*
X168937367Y-86515114D01*
X168937367Y-86515114D02*
X168937367Y-86657971D01*
X168937367Y-86657971D02*
X168223081Y-86800828D01*
X172651652Y-87300828D02*
X171794509Y-87300828D01*
X172223080Y-87300828D02*
X172223080Y-85800828D01*
X172223080Y-85800828D02*
X172080223Y-86015114D01*
X172080223Y-86015114D02*
X171937366Y-86157971D01*
X171937366Y-86157971D02*
X171794509Y-86229400D01*
X173937366Y-85800828D02*
X173651651Y-85800828D01*
X173651651Y-85800828D02*
X173508794Y-85872257D01*
X173508794Y-85872257D02*
X173437366Y-85943685D01*
X173437366Y-85943685D02*
X173294508Y-86157971D01*
X173294508Y-86157971D02*
X173223080Y-86443685D01*
X173223080Y-86443685D02*
X173223080Y-87015114D01*
X173223080Y-87015114D02*
X173294508Y-87157971D01*
X173294508Y-87157971D02*
X173365937Y-87229400D01*
X173365937Y-87229400D02*
X173508794Y-87300828D01*
X173508794Y-87300828D02*
X173794508Y-87300828D01*
X173794508Y-87300828D02*
X173937366Y-87229400D01*
X173937366Y-87229400D02*
X174008794Y-87157971D01*
X174008794Y-87157971D02*
X174080223Y-87015114D01*
X174080223Y-87015114D02*
X174080223Y-86657971D01*
X174080223Y-86657971D02*
X174008794Y-86515114D01*
X174008794Y-86515114D02*
X173937366Y-86443685D01*
X173937366Y-86443685D02*
X173794508Y-86372257D01*
X173794508Y-86372257D02*
X173508794Y-86372257D01*
X173508794Y-86372257D02*
X173365937Y-86443685D01*
X173365937Y-86443685D02*
X173294508Y-86515114D01*
X173294508Y-86515114D02*
X173223080Y-86657971D01*
X174937365Y-85800828D02*
X174937365Y-86157971D01*
X174580222Y-86015114D02*
X174937365Y-86157971D01*
X174937365Y-86157971D02*
X175294508Y-86015114D01*
X174723079Y-86443685D02*
X174937365Y-86157971D01*
X174937365Y-86157971D02*
X175151651Y-86443685D01*
X175865936Y-85800828D02*
X175865936Y-87015114D01*
X175865936Y-87015114D02*
X175937365Y-87157971D01*
X175937365Y-87157971D02*
X176008794Y-87229400D01*
X176008794Y-87229400D02*
X176151651Y-87300828D01*
X176151651Y-87300828D02*
X176437365Y-87300828D01*
X176437365Y-87300828D02*
X176580222Y-87229400D01*
X176580222Y-87229400D02*
X176651651Y-87157971D01*
X176651651Y-87157971D02*
X176723079Y-87015114D01*
X176723079Y-87015114D02*
X176723079Y-85800828D01*
X177365937Y-85943685D02*
X177437365Y-85872257D01*
X177437365Y-85872257D02*
X177580223Y-85800828D01*
X177580223Y-85800828D02*
X177937365Y-85800828D01*
X177937365Y-85800828D02*
X178080223Y-85872257D01*
X178080223Y-85872257D02*
X178151651Y-85943685D01*
X178151651Y-85943685D02*
X178223080Y-86086542D01*
X178223080Y-86086542D02*
X178223080Y-86229400D01*
X178223080Y-86229400D02*
X178151651Y-86443685D01*
X178151651Y-86443685D02*
X177294508Y-87300828D01*
X177294508Y-87300828D02*
X178223080Y-87300828D01*
X179651651Y-87300828D02*
X178794508Y-87300828D01*
X179223079Y-87300828D02*
X179223079Y-85800828D01*
X179223079Y-85800828D02*
X179080222Y-86015114D01*
X179080222Y-86015114D02*
X178937365Y-86157971D01*
X178937365Y-86157971D02*
X178794508Y-86229400D01*
X180937365Y-85800828D02*
X180651650Y-85800828D01*
X180651650Y-85800828D02*
X180508793Y-85872257D01*
X180508793Y-85872257D02*
X180437365Y-85943685D01*
X180437365Y-85943685D02*
X180294507Y-86157971D01*
X180294507Y-86157971D02*
X180223079Y-86443685D01*
X180223079Y-86443685D02*
X180223079Y-87015114D01*
X180223079Y-87015114D02*
X180294507Y-87157971D01*
X180294507Y-87157971D02*
X180365936Y-87229400D01*
X180365936Y-87229400D02*
X180508793Y-87300828D01*
X180508793Y-87300828D02*
X180794507Y-87300828D01*
X180794507Y-87300828D02*
X180937365Y-87229400D01*
X180937365Y-87229400D02*
X181008793Y-87157971D01*
X181008793Y-87157971D02*
X181080222Y-87015114D01*
X181080222Y-87015114D02*
X181080222Y-86657971D01*
X181080222Y-86657971D02*
X181008793Y-86515114D01*
X181008793Y-86515114D02*
X180937365Y-86443685D01*
X180937365Y-86443685D02*
X180794507Y-86372257D01*
X180794507Y-86372257D02*
X180508793Y-86372257D01*
X180508793Y-86372257D02*
X180365936Y-86443685D01*
X180365936Y-86443685D02*
X180294507Y-86515114D01*
X180294507Y-86515114D02*
X180223079Y-86657971D01*
X182365936Y-86300828D02*
X182365936Y-87300828D01*
X182008793Y-85729400D02*
X181651650Y-86800828D01*
X181651650Y-86800828D02*
X182580221Y-86800828D01*
D12*
X173573333Y-118359580D02*
X173525714Y-118407200D01*
X173525714Y-118407200D02*
X173382857Y-118454819D01*
X173382857Y-118454819D02*
X173287619Y-118454819D01*
X173287619Y-118454819D02*
X173144762Y-118407200D01*
X173144762Y-118407200D02*
X173049524Y-118311961D01*
X173049524Y-118311961D02*
X173001905Y-118216723D01*
X173001905Y-118216723D02*
X172954286Y-118026247D01*
X172954286Y-118026247D02*
X172954286Y-117883390D01*
X172954286Y-117883390D02*
X173001905Y-117692914D01*
X173001905Y-117692914D02*
X173049524Y-117597676D01*
X173049524Y-117597676D02*
X173144762Y-117502438D01*
X173144762Y-117502438D02*
X173287619Y-117454819D01*
X173287619Y-117454819D02*
X173382857Y-117454819D01*
X173382857Y-117454819D02*
X173525714Y-117502438D01*
X173525714Y-117502438D02*
X173573333Y-117550057D01*
X174478095Y-117454819D02*
X174001905Y-117454819D01*
X174001905Y-117454819D02*
X173954286Y-117931009D01*
X173954286Y-117931009D02*
X174001905Y-117883390D01*
X174001905Y-117883390D02*
X174097143Y-117835771D01*
X174097143Y-117835771D02*
X174335238Y-117835771D01*
X174335238Y-117835771D02*
X174430476Y-117883390D01*
X174430476Y-117883390D02*
X174478095Y-117931009D01*
X174478095Y-117931009D02*
X174525714Y-118026247D01*
X174525714Y-118026247D02*
X174525714Y-118264342D01*
X174525714Y-118264342D02*
X174478095Y-118359580D01*
X174478095Y-118359580D02*
X174430476Y-118407200D01*
X174430476Y-118407200D02*
X174335238Y-118454819D01*
X174335238Y-118454819D02*
X174097143Y-118454819D01*
X174097143Y-118454819D02*
X174001905Y-118407200D01*
X174001905Y-118407200D02*
X173954286Y-118359580D01*
X100573333Y-117859580D02*
X100525714Y-117907200D01*
X100525714Y-117907200D02*
X100382857Y-117954819D01*
X100382857Y-117954819D02*
X100287619Y-117954819D01*
X100287619Y-117954819D02*
X100144762Y-117907200D01*
X100144762Y-117907200D02*
X100049524Y-117811961D01*
X100049524Y-117811961D02*
X100001905Y-117716723D01*
X100001905Y-117716723D02*
X99954286Y-117526247D01*
X99954286Y-117526247D02*
X99954286Y-117383390D01*
X99954286Y-117383390D02*
X100001905Y-117192914D01*
X100001905Y-117192914D02*
X100049524Y-117097676D01*
X100049524Y-117097676D02*
X100144762Y-117002438D01*
X100144762Y-117002438D02*
X100287619Y-116954819D01*
X100287619Y-116954819D02*
X100382857Y-116954819D01*
X100382857Y-116954819D02*
X100525714Y-117002438D01*
X100525714Y-117002438D02*
X100573333Y-117050057D01*
X101525714Y-117954819D02*
X100954286Y-117954819D01*
X101240000Y-117954819D02*
X101240000Y-116954819D01*
X101240000Y-116954819D02*
X101144762Y-117097676D01*
X101144762Y-117097676D02*
X101049524Y-117192914D01*
X101049524Y-117192914D02*
X100954286Y-117240533D01*
X124573333Y-117859580D02*
X124525714Y-117907200D01*
X124525714Y-117907200D02*
X124382857Y-117954819D01*
X124382857Y-117954819D02*
X124287619Y-117954819D01*
X124287619Y-117954819D02*
X124144762Y-117907200D01*
X124144762Y-117907200D02*
X124049524Y-117811961D01*
X124049524Y-117811961D02*
X124001905Y-117716723D01*
X124001905Y-117716723D02*
X123954286Y-117526247D01*
X123954286Y-117526247D02*
X123954286Y-117383390D01*
X123954286Y-117383390D02*
X124001905Y-117192914D01*
X124001905Y-117192914D02*
X124049524Y-117097676D01*
X124049524Y-117097676D02*
X124144762Y-117002438D01*
X124144762Y-117002438D02*
X124287619Y-116954819D01*
X124287619Y-116954819D02*
X124382857Y-116954819D01*
X124382857Y-116954819D02*
X124525714Y-117002438D01*
X124525714Y-117002438D02*
X124573333Y-117050057D01*
X124954286Y-117050057D02*
X125001905Y-117002438D01*
X125001905Y-117002438D02*
X125097143Y-116954819D01*
X125097143Y-116954819D02*
X125335238Y-116954819D01*
X125335238Y-116954819D02*
X125430476Y-117002438D01*
X125430476Y-117002438D02*
X125478095Y-117050057D01*
X125478095Y-117050057D02*
X125525714Y-117145295D01*
X125525714Y-117145295D02*
X125525714Y-117240533D01*
X125525714Y-117240533D02*
X125478095Y-117383390D01*
X125478095Y-117383390D02*
X124906667Y-117954819D01*
X124906667Y-117954819D02*
X125525714Y-117954819D01*
X136573333Y-117859580D02*
X136525714Y-117907200D01*
X136525714Y-117907200D02*
X136382857Y-117954819D01*
X136382857Y-117954819D02*
X136287619Y-117954819D01*
X136287619Y-117954819D02*
X136144762Y-117907200D01*
X136144762Y-117907200D02*
X136049524Y-117811961D01*
X136049524Y-117811961D02*
X136001905Y-117716723D01*
X136001905Y-117716723D02*
X135954286Y-117526247D01*
X135954286Y-117526247D02*
X135954286Y-117383390D01*
X135954286Y-117383390D02*
X136001905Y-117192914D01*
X136001905Y-117192914D02*
X136049524Y-117097676D01*
X136049524Y-117097676D02*
X136144762Y-117002438D01*
X136144762Y-117002438D02*
X136287619Y-116954819D01*
X136287619Y-116954819D02*
X136382857Y-116954819D01*
X136382857Y-116954819D02*
X136525714Y-117002438D01*
X136525714Y-117002438D02*
X136573333Y-117050057D01*
X136906667Y-116954819D02*
X137525714Y-116954819D01*
X137525714Y-116954819D02*
X137192381Y-117335771D01*
X137192381Y-117335771D02*
X137335238Y-117335771D01*
X137335238Y-117335771D02*
X137430476Y-117383390D01*
X137430476Y-117383390D02*
X137478095Y-117431009D01*
X137478095Y-117431009D02*
X137525714Y-117526247D01*
X137525714Y-117526247D02*
X137525714Y-117764342D01*
X137525714Y-117764342D02*
X137478095Y-117859580D01*
X137478095Y-117859580D02*
X137430476Y-117907200D01*
X137430476Y-117907200D02*
X137335238Y-117954819D01*
X137335238Y-117954819D02*
X137049524Y-117954819D01*
X137049524Y-117954819D02*
X136954286Y-117907200D01*
X136954286Y-117907200D02*
X136906667Y-117859580D01*
X160633333Y-118359580D02*
X160585714Y-118407200D01*
X160585714Y-118407200D02*
X160442857Y-118454819D01*
X160442857Y-118454819D02*
X160347619Y-118454819D01*
X160347619Y-118454819D02*
X160204762Y-118407200D01*
X160204762Y-118407200D02*
X160109524Y-118311961D01*
X160109524Y-118311961D02*
X160061905Y-118216723D01*
X160061905Y-118216723D02*
X160014286Y-118026247D01*
X160014286Y-118026247D02*
X160014286Y-117883390D01*
X160014286Y-117883390D02*
X160061905Y-117692914D01*
X160061905Y-117692914D02*
X160109524Y-117597676D01*
X160109524Y-117597676D02*
X160204762Y-117502438D01*
X160204762Y-117502438D02*
X160347619Y-117454819D01*
X160347619Y-117454819D02*
X160442857Y-117454819D01*
X160442857Y-117454819D02*
X160585714Y-117502438D01*
X160585714Y-117502438D02*
X160633333Y-117550057D01*
X161490476Y-117788152D02*
X161490476Y-118454819D01*
X161252381Y-117407200D02*
X161014286Y-118121485D01*
X161014286Y-118121485D02*
X161633333Y-118121485D01*
X184573333Y-118359580D02*
X184525714Y-118407200D01*
X184525714Y-118407200D02*
X184382857Y-118454819D01*
X184382857Y-118454819D02*
X184287619Y-118454819D01*
X184287619Y-118454819D02*
X184144762Y-118407200D01*
X184144762Y-118407200D02*
X184049524Y-118311961D01*
X184049524Y-118311961D02*
X184001905Y-118216723D01*
X184001905Y-118216723D02*
X183954286Y-118026247D01*
X183954286Y-118026247D02*
X183954286Y-117883390D01*
X183954286Y-117883390D02*
X184001905Y-117692914D01*
X184001905Y-117692914D02*
X184049524Y-117597676D01*
X184049524Y-117597676D02*
X184144762Y-117502438D01*
X184144762Y-117502438D02*
X184287619Y-117454819D01*
X184287619Y-117454819D02*
X184382857Y-117454819D01*
X184382857Y-117454819D02*
X184525714Y-117502438D01*
X184525714Y-117502438D02*
X184573333Y-117550057D01*
X185430476Y-117454819D02*
X185240000Y-117454819D01*
X185240000Y-117454819D02*
X185144762Y-117502438D01*
X185144762Y-117502438D02*
X185097143Y-117550057D01*
X185097143Y-117550057D02*
X185001905Y-117692914D01*
X185001905Y-117692914D02*
X184954286Y-117883390D01*
X184954286Y-117883390D02*
X184954286Y-118264342D01*
X184954286Y-118264342D02*
X185001905Y-118359580D01*
X185001905Y-118359580D02*
X185049524Y-118407200D01*
X185049524Y-118407200D02*
X185144762Y-118454819D01*
X185144762Y-118454819D02*
X185335238Y-118454819D01*
X185335238Y-118454819D02*
X185430476Y-118407200D01*
X185430476Y-118407200D02*
X185478095Y-118359580D01*
X185478095Y-118359580D02*
X185525714Y-118264342D01*
X185525714Y-118264342D02*
X185525714Y-118026247D01*
X185525714Y-118026247D02*
X185478095Y-117931009D01*
X185478095Y-117931009D02*
X185430476Y-117883390D01*
X185430476Y-117883390D02*
X185335238Y-117835771D01*
X185335238Y-117835771D02*
X185144762Y-117835771D01*
X185144762Y-117835771D02*
X185049524Y-117883390D01*
X185049524Y-117883390D02*
X185001905Y-117931009D01*
X185001905Y-117931009D02*
X184954286Y-118026247D01*
X184978095Y-92044819D02*
X184978095Y-92854342D01*
X184978095Y-92854342D02*
X185025714Y-92949580D01*
X185025714Y-92949580D02*
X185073333Y-92997200D01*
X185073333Y-92997200D02*
X185168571Y-93044819D01*
X185168571Y-93044819D02*
X185359047Y-93044819D01*
X185359047Y-93044819D02*
X185454285Y-92997200D01*
X185454285Y-92997200D02*
X185501904Y-92949580D01*
X185501904Y-92949580D02*
X185549523Y-92854342D01*
X185549523Y-92854342D02*
X185549523Y-92044819D01*
X186501904Y-92044819D02*
X186025714Y-92044819D01*
X186025714Y-92044819D02*
X185978095Y-92521009D01*
X185978095Y-92521009D02*
X186025714Y-92473390D01*
X186025714Y-92473390D02*
X186120952Y-92425771D01*
X186120952Y-92425771D02*
X186359047Y-92425771D01*
X186359047Y-92425771D02*
X186454285Y-92473390D01*
X186454285Y-92473390D02*
X186501904Y-92521009D01*
X186501904Y-92521009D02*
X186549523Y-92616247D01*
X186549523Y-92616247D02*
X186549523Y-92854342D01*
X186549523Y-92854342D02*
X186501904Y-92949580D01*
X186501904Y-92949580D02*
X186454285Y-92997200D01*
X186454285Y-92997200D02*
X186359047Y-93044819D01*
X186359047Y-93044819D02*
X186120952Y-93044819D01*
X186120952Y-93044819D02*
X186025714Y-92997200D01*
X186025714Y-92997200D02*
X185978095Y-92949580D01*
X175121905Y-92044819D02*
X175121905Y-92854342D01*
X175121905Y-92854342D02*
X175169524Y-92949580D01*
X175169524Y-92949580D02*
X175217143Y-92997200D01*
X175217143Y-92997200D02*
X175312381Y-93044819D01*
X175312381Y-93044819D02*
X175502857Y-93044819D01*
X175502857Y-93044819D02*
X175598095Y-92997200D01*
X175598095Y-92997200D02*
X175645714Y-92949580D01*
X175645714Y-92949580D02*
X175693333Y-92854342D01*
X175693333Y-92854342D02*
X175693333Y-92044819D01*
X176693333Y-93044819D02*
X176121905Y-93044819D01*
X176407619Y-93044819D02*
X176407619Y-92044819D01*
X176407619Y-92044819D02*
X176312381Y-92187676D01*
X176312381Y-92187676D02*
X176217143Y-92282914D01*
X176217143Y-92282914D02*
X176121905Y-92330533D01*
X177550476Y-92378152D02*
X177550476Y-93044819D01*
X177312381Y-91997200D02*
X177074286Y-92711485D01*
X177074286Y-92711485D02*
X177693333Y-92711485D01*
X148978095Y-92044819D02*
X148978095Y-92854342D01*
X148978095Y-92854342D02*
X149025714Y-92949580D01*
X149025714Y-92949580D02*
X149073333Y-92997200D01*
X149073333Y-92997200D02*
X149168571Y-93044819D01*
X149168571Y-93044819D02*
X149359047Y-93044819D01*
X149359047Y-93044819D02*
X149454285Y-92997200D01*
X149454285Y-92997200D02*
X149501904Y-92949580D01*
X149501904Y-92949580D02*
X149549523Y-92854342D01*
X149549523Y-92854342D02*
X149549523Y-92044819D01*
X150168571Y-92473390D02*
X150073333Y-92425771D01*
X150073333Y-92425771D02*
X150025714Y-92378152D01*
X150025714Y-92378152D02*
X149978095Y-92282914D01*
X149978095Y-92282914D02*
X149978095Y-92235295D01*
X149978095Y-92235295D02*
X150025714Y-92140057D01*
X150025714Y-92140057D02*
X150073333Y-92092438D01*
X150073333Y-92092438D02*
X150168571Y-92044819D01*
X150168571Y-92044819D02*
X150359047Y-92044819D01*
X150359047Y-92044819D02*
X150454285Y-92092438D01*
X150454285Y-92092438D02*
X150501904Y-92140057D01*
X150501904Y-92140057D02*
X150549523Y-92235295D01*
X150549523Y-92235295D02*
X150549523Y-92282914D01*
X150549523Y-92282914D02*
X150501904Y-92378152D01*
X150501904Y-92378152D02*
X150454285Y-92425771D01*
X150454285Y-92425771D02*
X150359047Y-92473390D01*
X150359047Y-92473390D02*
X150168571Y-92473390D01*
X150168571Y-92473390D02*
X150073333Y-92521009D01*
X150073333Y-92521009D02*
X150025714Y-92568628D01*
X150025714Y-92568628D02*
X149978095Y-92663866D01*
X149978095Y-92663866D02*
X149978095Y-92854342D01*
X149978095Y-92854342D02*
X150025714Y-92949580D01*
X150025714Y-92949580D02*
X150073333Y-92997200D01*
X150073333Y-92997200D02*
X150168571Y-93044819D01*
X150168571Y-93044819D02*
X150359047Y-93044819D01*
X150359047Y-93044819D02*
X150454285Y-92997200D01*
X150454285Y-92997200D02*
X150501904Y-92949580D01*
X150501904Y-92949580D02*
X150549523Y-92854342D01*
X150549523Y-92854342D02*
X150549523Y-92663866D01*
X150549523Y-92663866D02*
X150501904Y-92568628D01*
X150501904Y-92568628D02*
X150454285Y-92521009D01*
X150454285Y-92521009D02*
X150359047Y-92473390D01*
X151501905Y-92044819D02*
X151501905Y-92854342D01*
X151501905Y-92854342D02*
X151549524Y-92949580D01*
X151549524Y-92949580D02*
X151597143Y-92997200D01*
X151597143Y-92997200D02*
X151692381Y-93044819D01*
X151692381Y-93044819D02*
X151882857Y-93044819D01*
X151882857Y-93044819D02*
X151978095Y-92997200D01*
X151978095Y-92997200D02*
X152025714Y-92949580D01*
X152025714Y-92949580D02*
X152073333Y-92854342D01*
X152073333Y-92854342D02*
X152073333Y-92044819D01*
X153073333Y-93044819D02*
X152501905Y-93044819D01*
X152787619Y-93044819D02*
X152787619Y-92044819D01*
X152787619Y-92044819D02*
X152692381Y-92187676D01*
X152692381Y-92187676D02*
X152597143Y-92282914D01*
X152597143Y-92282914D02*
X152501905Y-92330533D01*
X153930476Y-92044819D02*
X153740000Y-92044819D01*
X153740000Y-92044819D02*
X153644762Y-92092438D01*
X153644762Y-92092438D02*
X153597143Y-92140057D01*
X153597143Y-92140057D02*
X153501905Y-92282914D01*
X153501905Y-92282914D02*
X153454286Y-92473390D01*
X153454286Y-92473390D02*
X153454286Y-92854342D01*
X153454286Y-92854342D02*
X153501905Y-92949580D01*
X153501905Y-92949580D02*
X153549524Y-92997200D01*
X153549524Y-92997200D02*
X153644762Y-93044819D01*
X153644762Y-93044819D02*
X153835238Y-93044819D01*
X153835238Y-93044819D02*
X153930476Y-92997200D01*
X153930476Y-92997200D02*
X153978095Y-92949580D01*
X153978095Y-92949580D02*
X154025714Y-92854342D01*
X154025714Y-92854342D02*
X154025714Y-92616247D01*
X154025714Y-92616247D02*
X153978095Y-92521009D01*
X153978095Y-92521009D02*
X153930476Y-92473390D01*
X153930476Y-92473390D02*
X153835238Y-92425771D01*
X153835238Y-92425771D02*
X153644762Y-92425771D01*
X153644762Y-92425771D02*
X153549524Y-92473390D01*
X153549524Y-92473390D02*
X153501905Y-92521009D01*
X153501905Y-92521009D02*
X153454286Y-92616247D01*
X160978095Y-92044819D02*
X160978095Y-92854342D01*
X160978095Y-92854342D02*
X161025714Y-92949580D01*
X161025714Y-92949580D02*
X161073333Y-92997200D01*
X161073333Y-92997200D02*
X161168571Y-93044819D01*
X161168571Y-93044819D02*
X161359047Y-93044819D01*
X161359047Y-93044819D02*
X161454285Y-92997200D01*
X161454285Y-92997200D02*
X161501904Y-92949580D01*
X161501904Y-92949580D02*
X161549523Y-92854342D01*
X161549523Y-92854342D02*
X161549523Y-92044819D01*
X161930476Y-92044819D02*
X162597142Y-92044819D01*
X162597142Y-92044819D02*
X162168571Y-93044819D01*
X115501905Y-92044819D02*
X115501905Y-92854342D01*
X115501905Y-92854342D02*
X115549524Y-92949580D01*
X115549524Y-92949580D02*
X115597143Y-92997200D01*
X115597143Y-92997200D02*
X115692381Y-93044819D01*
X115692381Y-93044819D02*
X115882857Y-93044819D01*
X115882857Y-93044819D02*
X115978095Y-92997200D01*
X115978095Y-92997200D02*
X116025714Y-92949580D01*
X116025714Y-92949580D02*
X116073333Y-92854342D01*
X116073333Y-92854342D02*
X116073333Y-92044819D01*
X117073333Y-93044819D02*
X116501905Y-93044819D01*
X116787619Y-93044819D02*
X116787619Y-92044819D01*
X116787619Y-92044819D02*
X116692381Y-92187676D01*
X116692381Y-92187676D02*
X116597143Y-92282914D01*
X116597143Y-92282914D02*
X116501905Y-92330533D01*
X118025714Y-93044819D02*
X117454286Y-93044819D01*
X117740000Y-93044819D02*
X117740000Y-92044819D01*
X117740000Y-92044819D02*
X117644762Y-92187676D01*
X117644762Y-92187676D02*
X117549524Y-92282914D01*
X117549524Y-92282914D02*
X117454286Y-92330533D01*
X136978095Y-92044819D02*
X136978095Y-92854342D01*
X136978095Y-92854342D02*
X137025714Y-92949580D01*
X137025714Y-92949580D02*
X137073333Y-92997200D01*
X137073333Y-92997200D02*
X137168571Y-93044819D01*
X137168571Y-93044819D02*
X137359047Y-93044819D01*
X137359047Y-93044819D02*
X137454285Y-92997200D01*
X137454285Y-92997200D02*
X137501904Y-92949580D01*
X137501904Y-92949580D02*
X137549523Y-92854342D01*
X137549523Y-92854342D02*
X137549523Y-92044819D01*
X138549523Y-93044819D02*
X137978095Y-93044819D01*
X138263809Y-93044819D02*
X138263809Y-92044819D01*
X138263809Y-92044819D02*
X138168571Y-92187676D01*
X138168571Y-92187676D02*
X138073333Y-92282914D01*
X138073333Y-92282914D02*
X137978095Y-92330533D01*
X103501905Y-92044819D02*
X103501905Y-92854342D01*
X103501905Y-92854342D02*
X103549524Y-92949580D01*
X103549524Y-92949580D02*
X103597143Y-92997200D01*
X103597143Y-92997200D02*
X103692381Y-93044819D01*
X103692381Y-93044819D02*
X103882857Y-93044819D01*
X103882857Y-93044819D02*
X103978095Y-92997200D01*
X103978095Y-92997200D02*
X104025714Y-92949580D01*
X104025714Y-92949580D02*
X104073333Y-92854342D01*
X104073333Y-92854342D02*
X104073333Y-92044819D01*
X105073333Y-93044819D02*
X104501905Y-93044819D01*
X104787619Y-93044819D02*
X104787619Y-92044819D01*
X104787619Y-92044819D02*
X104692381Y-92187676D01*
X104692381Y-92187676D02*
X104597143Y-92282914D01*
X104597143Y-92282914D02*
X104501905Y-92330533D01*
X105454286Y-92140057D02*
X105501905Y-92092438D01*
X105501905Y-92092438D02*
X105597143Y-92044819D01*
X105597143Y-92044819D02*
X105835238Y-92044819D01*
X105835238Y-92044819D02*
X105930476Y-92092438D01*
X105930476Y-92092438D02*
X105978095Y-92140057D01*
X105978095Y-92140057D02*
X106025714Y-92235295D01*
X106025714Y-92235295D02*
X106025714Y-92330533D01*
X106025714Y-92330533D02*
X105978095Y-92473390D01*
X105978095Y-92473390D02*
X105406667Y-93044819D01*
X105406667Y-93044819D02*
X106025714Y-93044819D01*
X124978095Y-92044819D02*
X124978095Y-92854342D01*
X124978095Y-92854342D02*
X125025714Y-92949580D01*
X125025714Y-92949580D02*
X125073333Y-92997200D01*
X125073333Y-92997200D02*
X125168571Y-93044819D01*
X125168571Y-93044819D02*
X125359047Y-93044819D01*
X125359047Y-93044819D02*
X125454285Y-92997200D01*
X125454285Y-92997200D02*
X125501904Y-92949580D01*
X125501904Y-92949580D02*
X125549523Y-92854342D01*
X125549523Y-92854342D02*
X125549523Y-92044819D01*
X125978095Y-92140057D02*
X126025714Y-92092438D01*
X126025714Y-92092438D02*
X126120952Y-92044819D01*
X126120952Y-92044819D02*
X126359047Y-92044819D01*
X126359047Y-92044819D02*
X126454285Y-92092438D01*
X126454285Y-92092438D02*
X126501904Y-92140057D01*
X126501904Y-92140057D02*
X126549523Y-92235295D01*
X126549523Y-92235295D02*
X126549523Y-92330533D01*
X126549523Y-92330533D02*
X126501904Y-92473390D01*
X126501904Y-92473390D02*
X125930476Y-93044819D01*
X125930476Y-93044819D02*
X126549523Y-93044819D01*
X163501905Y-92044819D02*
X163501905Y-92854342D01*
X163501905Y-92854342D02*
X163549524Y-92949580D01*
X163549524Y-92949580D02*
X163597143Y-92997200D01*
X163597143Y-92997200D02*
X163692381Y-93044819D01*
X163692381Y-93044819D02*
X163882857Y-93044819D01*
X163882857Y-93044819D02*
X163978095Y-92997200D01*
X163978095Y-92997200D02*
X164025714Y-92949580D01*
X164025714Y-92949580D02*
X164073333Y-92854342D01*
X164073333Y-92854342D02*
X164073333Y-92044819D01*
X165073333Y-93044819D02*
X164501905Y-93044819D01*
X164787619Y-93044819D02*
X164787619Y-92044819D01*
X164787619Y-92044819D02*
X164692381Y-92187676D01*
X164692381Y-92187676D02*
X164597143Y-92282914D01*
X164597143Y-92282914D02*
X164501905Y-92330533D01*
X165978095Y-92044819D02*
X165501905Y-92044819D01*
X165501905Y-92044819D02*
X165454286Y-92521009D01*
X165454286Y-92521009D02*
X165501905Y-92473390D01*
X165501905Y-92473390D02*
X165597143Y-92425771D01*
X165597143Y-92425771D02*
X165835238Y-92425771D01*
X165835238Y-92425771D02*
X165930476Y-92473390D01*
X165930476Y-92473390D02*
X165978095Y-92521009D01*
X165978095Y-92521009D02*
X166025714Y-92616247D01*
X166025714Y-92616247D02*
X166025714Y-92854342D01*
X166025714Y-92854342D02*
X165978095Y-92949580D01*
X165978095Y-92949580D02*
X165930476Y-92997200D01*
X165930476Y-92997200D02*
X165835238Y-93044819D01*
X165835238Y-93044819D02*
X165597143Y-93044819D01*
X165597143Y-93044819D02*
X165501905Y-92997200D01*
X165501905Y-92997200D02*
X165454286Y-92949580D01*
X127501905Y-92044819D02*
X127501905Y-92854342D01*
X127501905Y-92854342D02*
X127549524Y-92949580D01*
X127549524Y-92949580D02*
X127597143Y-92997200D01*
X127597143Y-92997200D02*
X127692381Y-93044819D01*
X127692381Y-93044819D02*
X127882857Y-93044819D01*
X127882857Y-93044819D02*
X127978095Y-92997200D01*
X127978095Y-92997200D02*
X128025714Y-92949580D01*
X128025714Y-92949580D02*
X128073333Y-92854342D01*
X128073333Y-92854342D02*
X128073333Y-92044819D01*
X129073333Y-93044819D02*
X128501905Y-93044819D01*
X128787619Y-93044819D02*
X128787619Y-92044819D01*
X128787619Y-92044819D02*
X128692381Y-92187676D01*
X128692381Y-92187676D02*
X128597143Y-92282914D01*
X128597143Y-92282914D02*
X128501905Y-92330533D01*
X129692381Y-92044819D02*
X129787619Y-92044819D01*
X129787619Y-92044819D02*
X129882857Y-92092438D01*
X129882857Y-92092438D02*
X129930476Y-92140057D01*
X129930476Y-92140057D02*
X129978095Y-92235295D01*
X129978095Y-92235295D02*
X130025714Y-92425771D01*
X130025714Y-92425771D02*
X130025714Y-92663866D01*
X130025714Y-92663866D02*
X129978095Y-92854342D01*
X129978095Y-92854342D02*
X129930476Y-92949580D01*
X129930476Y-92949580D02*
X129882857Y-92997200D01*
X129882857Y-92997200D02*
X129787619Y-93044819D01*
X129787619Y-93044819D02*
X129692381Y-93044819D01*
X129692381Y-93044819D02*
X129597143Y-92997200D01*
X129597143Y-92997200D02*
X129549524Y-92949580D01*
X129549524Y-92949580D02*
X129501905Y-92854342D01*
X129501905Y-92854342D02*
X129454286Y-92663866D01*
X129454286Y-92663866D02*
X129454286Y-92425771D01*
X129454286Y-92425771D02*
X129501905Y-92235295D01*
X129501905Y-92235295D02*
X129549524Y-92140057D01*
X129549524Y-92140057D02*
X129597143Y-92092438D01*
X129597143Y-92092438D02*
X129692381Y-92044819D01*
X112978095Y-92044819D02*
X112978095Y-92854342D01*
X112978095Y-92854342D02*
X113025714Y-92949580D01*
X113025714Y-92949580D02*
X113073333Y-92997200D01*
X113073333Y-92997200D02*
X113168571Y-93044819D01*
X113168571Y-93044819D02*
X113359047Y-93044819D01*
X113359047Y-93044819D02*
X113454285Y-92997200D01*
X113454285Y-92997200D02*
X113501904Y-92949580D01*
X113501904Y-92949580D02*
X113549523Y-92854342D01*
X113549523Y-92854342D02*
X113549523Y-92044819D01*
X113930476Y-92044819D02*
X114549523Y-92044819D01*
X114549523Y-92044819D02*
X114216190Y-92425771D01*
X114216190Y-92425771D02*
X114359047Y-92425771D01*
X114359047Y-92425771D02*
X114454285Y-92473390D01*
X114454285Y-92473390D02*
X114501904Y-92521009D01*
X114501904Y-92521009D02*
X114549523Y-92616247D01*
X114549523Y-92616247D02*
X114549523Y-92854342D01*
X114549523Y-92854342D02*
X114501904Y-92949580D01*
X114501904Y-92949580D02*
X114454285Y-92997200D01*
X114454285Y-92997200D02*
X114359047Y-93044819D01*
X114359047Y-93044819D02*
X114073333Y-93044819D01*
X114073333Y-93044819D02*
X113978095Y-92997200D01*
X113978095Y-92997200D02*
X113930476Y-92949580D01*
X139478095Y-92044819D02*
X139478095Y-92854342D01*
X139478095Y-92854342D02*
X139525714Y-92949580D01*
X139525714Y-92949580D02*
X139573333Y-92997200D01*
X139573333Y-92997200D02*
X139668571Y-93044819D01*
X139668571Y-93044819D02*
X139859047Y-93044819D01*
X139859047Y-93044819D02*
X139954285Y-92997200D01*
X139954285Y-92997200D02*
X140001904Y-92949580D01*
X140001904Y-92949580D02*
X140049523Y-92854342D01*
X140049523Y-92854342D02*
X140049523Y-92044819D01*
X140573333Y-93044819D02*
X140763809Y-93044819D01*
X140763809Y-93044819D02*
X140859047Y-92997200D01*
X140859047Y-92997200D02*
X140906666Y-92949580D01*
X140906666Y-92949580D02*
X141001904Y-92806723D01*
X141001904Y-92806723D02*
X141049523Y-92616247D01*
X141049523Y-92616247D02*
X141049523Y-92235295D01*
X141049523Y-92235295D02*
X141001904Y-92140057D01*
X141001904Y-92140057D02*
X140954285Y-92092438D01*
X140954285Y-92092438D02*
X140859047Y-92044819D01*
X140859047Y-92044819D02*
X140668571Y-92044819D01*
X140668571Y-92044819D02*
X140573333Y-92092438D01*
X140573333Y-92092438D02*
X140525714Y-92140057D01*
X140525714Y-92140057D02*
X140478095Y-92235295D01*
X140478095Y-92235295D02*
X140478095Y-92473390D01*
X140478095Y-92473390D02*
X140525714Y-92568628D01*
X140525714Y-92568628D02*
X140573333Y-92616247D01*
X140573333Y-92616247D02*
X140668571Y-92663866D01*
X140668571Y-92663866D02*
X140859047Y-92663866D01*
X140859047Y-92663866D02*
X140954285Y-92616247D01*
X140954285Y-92616247D02*
X141001904Y-92568628D01*
X141001904Y-92568628D02*
X141049523Y-92473390D01*
X100978095Y-92044819D02*
X100978095Y-92854342D01*
X100978095Y-92854342D02*
X101025714Y-92949580D01*
X101025714Y-92949580D02*
X101073333Y-92997200D01*
X101073333Y-92997200D02*
X101168571Y-93044819D01*
X101168571Y-93044819D02*
X101359047Y-93044819D01*
X101359047Y-93044819D02*
X101454285Y-92997200D01*
X101454285Y-92997200D02*
X101501904Y-92949580D01*
X101501904Y-92949580D02*
X101549523Y-92854342D01*
X101549523Y-92854342D02*
X101549523Y-92044819D01*
X102454285Y-92378152D02*
X102454285Y-93044819D01*
X102216190Y-91997200D02*
X101978095Y-92711485D01*
X101978095Y-92711485D02*
X102597142Y-92711485D01*
X172978095Y-92044819D02*
X172978095Y-92854342D01*
X172978095Y-92854342D02*
X173025714Y-92949580D01*
X173025714Y-92949580D02*
X173073333Y-92997200D01*
X173073333Y-92997200D02*
X173168571Y-93044819D01*
X173168571Y-93044819D02*
X173359047Y-93044819D01*
X173359047Y-93044819D02*
X173454285Y-92997200D01*
X173454285Y-92997200D02*
X173501904Y-92949580D01*
X173501904Y-92949580D02*
X173549523Y-92854342D01*
X173549523Y-92854342D02*
X173549523Y-92044819D01*
X174454285Y-92044819D02*
X174263809Y-92044819D01*
X174263809Y-92044819D02*
X174168571Y-92092438D01*
X174168571Y-92092438D02*
X174120952Y-92140057D01*
X174120952Y-92140057D02*
X174025714Y-92282914D01*
X174025714Y-92282914D02*
X173978095Y-92473390D01*
X173978095Y-92473390D02*
X173978095Y-92854342D01*
X173978095Y-92854342D02*
X174025714Y-92949580D01*
X174025714Y-92949580D02*
X174073333Y-92997200D01*
X174073333Y-92997200D02*
X174168571Y-93044819D01*
X174168571Y-93044819D02*
X174359047Y-93044819D01*
X174359047Y-93044819D02*
X174454285Y-92997200D01*
X174454285Y-92997200D02*
X174501904Y-92949580D01*
X174501904Y-92949580D02*
X174549523Y-92854342D01*
X174549523Y-92854342D02*
X174549523Y-92616247D01*
X174549523Y-92616247D02*
X174501904Y-92521009D01*
X174501904Y-92521009D02*
X174454285Y-92473390D01*
X174454285Y-92473390D02*
X174359047Y-92425771D01*
X174359047Y-92425771D02*
X174168571Y-92425771D01*
X174168571Y-92425771D02*
X174073333Y-92473390D01*
X174073333Y-92473390D02*
X174025714Y-92521009D01*
X174025714Y-92521009D02*
X173978095Y-92616247D01*
X187501905Y-92044819D02*
X187501905Y-92854342D01*
X187501905Y-92854342D02*
X187549524Y-92949580D01*
X187549524Y-92949580D02*
X187597143Y-92997200D01*
X187597143Y-92997200D02*
X187692381Y-93044819D01*
X187692381Y-93044819D02*
X187882857Y-93044819D01*
X187882857Y-93044819D02*
X187978095Y-92997200D01*
X187978095Y-92997200D02*
X188025714Y-92949580D01*
X188025714Y-92949580D02*
X188073333Y-92854342D01*
X188073333Y-92854342D02*
X188073333Y-92044819D01*
X189073333Y-93044819D02*
X188501905Y-93044819D01*
X188787619Y-93044819D02*
X188787619Y-92044819D01*
X188787619Y-92044819D02*
X188692381Y-92187676D01*
X188692381Y-92187676D02*
X188597143Y-92282914D01*
X188597143Y-92282914D02*
X188501905Y-92330533D01*
X189406667Y-92044819D02*
X190025714Y-92044819D01*
X190025714Y-92044819D02*
X189692381Y-92425771D01*
X189692381Y-92425771D02*
X189835238Y-92425771D01*
X189835238Y-92425771D02*
X189930476Y-92473390D01*
X189930476Y-92473390D02*
X189978095Y-92521009D01*
X189978095Y-92521009D02*
X190025714Y-92616247D01*
X190025714Y-92616247D02*
X190025714Y-92854342D01*
X190025714Y-92854342D02*
X189978095Y-92949580D01*
X189978095Y-92949580D02*
X189930476Y-92997200D01*
X189930476Y-92997200D02*
X189835238Y-93044819D01*
X189835238Y-93044819D02*
X189549524Y-93044819D01*
X189549524Y-93044819D02*
X189454286Y-92997200D01*
X189454286Y-92997200D02*
X189406667Y-92949580D01*
D13*
%TO.C,TP8*%
X111740000Y-90000000D02*
G75*
G03*
X108740000Y-90000000I-1500000J0D01*
G01*
X108740000Y-90000000D02*
G75*
G03*
X111740000Y-90000000I1500000J0D01*
G01*
%TO.C,TP7*%
X123740000Y-90000000D02*
G75*
G03*
X120740000Y-90000000I-1500000J0D01*
G01*
X120740000Y-90000000D02*
G75*
G03*
X123740000Y-90000000I1500000J0D01*
G01*
%TO.C,TP6*%
X135740000Y-90000000D02*
G75*
G03*
X132740000Y-90000000I-1500000J0D01*
G01*
X132740000Y-90000000D02*
G75*
G03*
X135740000Y-90000000I1500000J0D01*
G01*
%TO.C,TP5*%
X147740000Y-90000000D02*
G75*
G03*
X144740000Y-90000000I-1500000J0D01*
G01*
X144740000Y-90000000D02*
G75*
G03*
X147740000Y-90000000I1500000J0D01*
G01*
%TO.C,TP4*%
X159740000Y-90000000D02*
G75*
G03*
X156740000Y-90000000I-1500000J0D01*
G01*
X156740000Y-90000000D02*
G75*
G03*
X159740000Y-90000000I1500000J0D01*
G01*
%TO.C,TP3*%
X171740000Y-90000000D02*
G75*
G03*
X168740000Y-90000000I-1500000J0D01*
G01*
X168740000Y-90000000D02*
G75*
G03*
X171740000Y-90000000I1500000J0D01*
G01*
%TO.C,TP2*%
X183740000Y-90000000D02*
G75*
G03*
X180740000Y-90000000I-1500000J0D01*
G01*
X180740000Y-90000000D02*
G75*
G03*
X183740000Y-90000000I1500000J0D01*
G01*
%TO.C,TP1*%
X194740000Y-90000000D02*
G75*
G03*
X191740000Y-90000000I-1500000J0D01*
G01*
X191740000Y-90000000D02*
G75*
G03*
X194740000Y-90000000I1500000J0D01*
G01*
%TO.C,C5*%
X173028748Y-116910000D02*
X174451252Y-116910000D01*
X173028748Y-115090000D02*
X174451252Y-115090000D01*
%TO.C,C1*%
X100028748Y-114590000D02*
X101451252Y-114590000D01*
X100028748Y-116410000D02*
X101451252Y-116410000D01*
%TO.C,C2*%
X124028748Y-116410000D02*
X125451252Y-116410000D01*
X124028748Y-114590000D02*
X125451252Y-114590000D01*
%TO.C,C3*%
X136028748Y-116410000D02*
X137451252Y-116410000D01*
X136028748Y-114590000D02*
X137451252Y-114590000D01*
%TO.C,C4*%
X160028748Y-116910000D02*
X161451252Y-116910000D01*
X160028748Y-115090000D02*
X161451252Y-115090000D01*
%TO.C,C6*%
X184028748Y-115090000D02*
X185451252Y-115090000D01*
X184028748Y-116910000D02*
X185451252Y-116910000D01*
%TO.C,U5*%
X186050000Y-93590000D02*
G75*
G03*
X188050000Y-93590000I1000000J0D01*
G01*
X189300000Y-114030000D02*
X189300000Y-93590000D01*
X189300000Y-93590000D02*
X188050000Y-93590000D01*
X186050000Y-93590000D02*
X184800000Y-93590000D01*
X184800000Y-114030000D02*
X189300000Y-114030000D01*
X184800000Y-93590000D02*
X184800000Y-114030000D01*
%TO.C,U14*%
X172800000Y-93590000D02*
X172800000Y-114030000D01*
X172800000Y-114030000D02*
X177300000Y-114030000D01*
X174050000Y-93590000D02*
X172800000Y-93590000D01*
X177300000Y-93590000D02*
X176050000Y-93590000D01*
X177300000Y-114030000D02*
X177300000Y-93590000D01*
X174050000Y-93590000D02*
G75*
G03*
X176050000Y-93590000I1000000J0D01*
G01*
%TO.C,U8*%
X150050000Y-93590000D02*
G75*
G03*
X152050000Y-93590000I1000000J0D01*
G01*
X153300000Y-114030000D02*
X153300000Y-93590000D01*
X153300000Y-93590000D02*
X152050000Y-93590000D01*
X150050000Y-93590000D02*
X148800000Y-93590000D01*
X148800000Y-114030000D02*
X153300000Y-114030000D01*
X148800000Y-93590000D02*
X148800000Y-114030000D01*
%TO.C,U16*%
X150050000Y-93590000D02*
G75*
G03*
X152050000Y-93590000I1000000J0D01*
G01*
X153300000Y-114030000D02*
X153300000Y-93590000D01*
X153300000Y-93590000D02*
X152050000Y-93590000D01*
X150050000Y-93590000D02*
X148800000Y-93590000D01*
X148800000Y-114030000D02*
X153300000Y-114030000D01*
X148800000Y-93590000D02*
X148800000Y-114030000D01*
%TO.C,U7*%
X160800000Y-93590000D02*
X160800000Y-114030000D01*
X160800000Y-114030000D02*
X165300000Y-114030000D01*
X162050000Y-93590000D02*
X160800000Y-93590000D01*
X165300000Y-93590000D02*
X164050000Y-93590000D01*
X165300000Y-114030000D02*
X165300000Y-93590000D01*
X162050000Y-93590000D02*
G75*
G03*
X164050000Y-93590000I1000000J0D01*
G01*
%TO.C,U11*%
X112800000Y-93590000D02*
X112800000Y-114030000D01*
X112800000Y-114030000D02*
X117300000Y-114030000D01*
X114050000Y-93590000D02*
X112800000Y-93590000D01*
X117300000Y-93590000D02*
X116050000Y-93590000D01*
X117300000Y-114030000D02*
X117300000Y-93590000D01*
X114050000Y-93590000D02*
G75*
G03*
X116050000Y-93590000I1000000J0D01*
G01*
%TO.C,U1*%
X136800000Y-93590000D02*
X136800000Y-114030000D01*
X136800000Y-114030000D02*
X141300000Y-114030000D01*
X138050000Y-93590000D02*
X136800000Y-93590000D01*
X141300000Y-93590000D02*
X140050000Y-93590000D01*
X141300000Y-114030000D02*
X141300000Y-93590000D01*
X138050000Y-93590000D02*
G75*
G03*
X140050000Y-93590000I1000000J0D01*
G01*
%TO.C,U12*%
X100800000Y-93590000D02*
X100800000Y-114030000D01*
X100800000Y-114030000D02*
X105300000Y-114030000D01*
X102050000Y-93590000D02*
X100800000Y-93590000D01*
X105300000Y-93590000D02*
X104050000Y-93590000D01*
X105300000Y-114030000D02*
X105300000Y-93590000D01*
X102050000Y-93590000D02*
G75*
G03*
X104050000Y-93590000I1000000J0D01*
G01*
%TO.C,U2*%
X124800000Y-93590000D02*
X124800000Y-114030000D01*
X124800000Y-114030000D02*
X129300000Y-114030000D01*
X126050000Y-93590000D02*
X124800000Y-93590000D01*
X129300000Y-93590000D02*
X128050000Y-93590000D01*
X129300000Y-114030000D02*
X129300000Y-93590000D01*
X126050000Y-93590000D02*
G75*
G03*
X128050000Y-93590000I1000000J0D01*
G01*
%TO.C,U15*%
X160800000Y-93590000D02*
X160800000Y-114030000D01*
X160800000Y-114030000D02*
X165300000Y-114030000D01*
X162050000Y-93590000D02*
X160800000Y-93590000D01*
X165300000Y-93590000D02*
X164050000Y-93590000D01*
X165300000Y-114030000D02*
X165300000Y-93590000D01*
X162050000Y-93590000D02*
G75*
G03*
X164050000Y-93590000I1000000J0D01*
G01*
%TO.C,U10*%
X124800000Y-93590000D02*
X124800000Y-114030000D01*
X124800000Y-114030000D02*
X129300000Y-114030000D01*
X126050000Y-93590000D02*
X124800000Y-93590000D01*
X129300000Y-93590000D02*
X128050000Y-93590000D01*
X129300000Y-114030000D02*
X129300000Y-93590000D01*
X126050000Y-93590000D02*
G75*
G03*
X128050000Y-93590000I1000000J0D01*
G01*
%TO.C,U3*%
X112800000Y-93590000D02*
X112800000Y-114030000D01*
X112800000Y-114030000D02*
X117300000Y-114030000D01*
X114050000Y-93590000D02*
X112800000Y-93590000D01*
X117300000Y-93590000D02*
X116050000Y-93590000D01*
X117300000Y-114030000D02*
X117300000Y-93590000D01*
X114050000Y-93590000D02*
G75*
G03*
X116050000Y-93590000I1000000J0D01*
G01*
%TO.C,U9*%
X136800000Y-93590000D02*
X136800000Y-114030000D01*
X136800000Y-114030000D02*
X141300000Y-114030000D01*
X138050000Y-93590000D02*
X136800000Y-93590000D01*
X141300000Y-93590000D02*
X140050000Y-93590000D01*
X141300000Y-114030000D02*
X141300000Y-93590000D01*
X138050000Y-93590000D02*
G75*
G03*
X140050000Y-93590000I1000000J0D01*
G01*
%TO.C,U4*%
X102050000Y-93590000D02*
G75*
G03*
X104050000Y-93590000I1000000J0D01*
G01*
X105300000Y-114030000D02*
X105300000Y-93590000D01*
X105300000Y-93590000D02*
X104050000Y-93590000D01*
X102050000Y-93590000D02*
X100800000Y-93590000D01*
X100800000Y-114030000D02*
X105300000Y-114030000D01*
X100800000Y-93590000D02*
X100800000Y-114030000D01*
%TO.C,U6*%
X172800000Y-93590000D02*
X172800000Y-114030000D01*
X172800000Y-114030000D02*
X177300000Y-114030000D01*
X174050000Y-93590000D02*
X172800000Y-93590000D01*
X177300000Y-93590000D02*
X176050000Y-93590000D01*
X177300000Y-114030000D02*
X177300000Y-93590000D01*
X174050000Y-93590000D02*
G75*
G03*
X176050000Y-93590000I1000000J0D01*
G01*
%TO.C,U13*%
X184800000Y-93590000D02*
X184800000Y-114030000D01*
X184800000Y-114030000D02*
X189300000Y-114030000D01*
X186050000Y-93590000D02*
X184800000Y-93590000D01*
X189300000Y-93590000D02*
X188050000Y-93590000D01*
X189300000Y-114030000D02*
X189300000Y-93590000D01*
X186050000Y-93590000D02*
G75*
G03*
X188050000Y-93590000I1000000J0D01*
G01*
%TD*%
M02*
